<?xml version="1.0" encoding="utf-8"?><svg viewBox="0 0 55 56" xmlns="http://www.w3.org/2000/svg" xmlns:xlink="http://www.w3.org/1999/xlink"><style>:root>svg{display:none}:root>svg:target{display:block}</style><svg viewBox="0 0 36 35" id="agreement" xmlns="http://www.w3.org/2000/svg"><path d="M29.666 5.833v17.5h-17.5v-17.5h17.5zm0-2.916h-17.5A2.925 2.925 0 009.25 5.833v17.5a2.925 2.925 0 002.916 2.917h17.5a2.925 2.925 0 002.917-2.917v-17.5a2.925 2.925 0 00-2.916-2.916zm-10.98 17.5l-5.061-5.105 2.041-2.056 3.02 3.034 7.48-7.54 2.042 2.056-9.523 9.61zM6.332 8.75H3.416v20.417a2.925 2.925 0 002.917 2.916H26.75v-2.916H6.333V8.75z"/></svg><svg viewBox="0 0 55 56" id="feather" xmlns="http://www.w3.org/2000/svg"><path d="M50.563 2.648l-11.01 3.203 4.458-3.018c-2.815.636-6.37 1.88-10.84 3.888l-7.293 7.604 2.589-5.312c-2.503 1.392-5.157 3.217-7.713 5.355l-1.698 6.907-.365-5.113c-2.524 2.32-4.898 4.899-6.864 7.616-2.066 2.847-3.68 5.855-4.49 8.852l-3.02-2.02a14.592 14.592 0 002.48 6.79l-3.611-1.107c.82 2.524 2.162 4.157 4.431 5.479-1.27 3.577-1.867 7.315-2.507 11.043l1.977.333c2.292-22.85 18.469-37.416 33.089-43.87l.74 1.867C27.845 17 17.683 26.883 12.365 41.127c1.944.01 3.846-.226 5.608-.677l.526-6.542 1.407 5.962a16.996 16.996 0 003.201-1.547l-2.223-4.673 3.523 3.739c.86-.688 1.569-1.461 2.106-2.31 3.265-5.102 6.681-10.173 13.406-14.416l-4.91-1.74 7.531.225c1.225-.623 2.514-1.385 3.491-2.105l-5.339-.43 8.025-1.89a24.013 24.013 0 001.73-1.934c1.858-2.357 3.114-4.81 2.814-7.041a3.649 3.649 0 00-1.891-2.754 5.84 5.84 0 00-.806-.346z" opacity=".1"/></svg><svg viewBox="0 0 20 20" id="mail" xmlns="http://www.w3.org/2000/svg"><path d="M3.333 16.667c-.458 0-.85-.164-1.177-.49A1.602 1.602 0 011.666 15V5c0-.458.164-.85.49-1.178.327-.326.72-.49 1.177-.489h13.334c.458 0 .85.164 1.177.49.327.327.49.72.49 1.177v10c0 .458-.164.85-.49 1.177-.328.327-.72.49-1.178.49H3.333zM10 10.833L3.333 6.667V15h13.334V6.667L10 10.833zm0-1.666L16.666 5H3.333L10 9.167zm-6.667-2.5V5v10-8.333z"/></svg><svg viewBox="0 0 20 20" id="phone" xmlns="http://www.w3.org/2000/svg"><path d="M13.333.833H6.666a2.497 2.497 0 00-2.5 2.5v13.334c0 1.383 1.117 2.5 2.5 2.5h6.667c1.383 0 2.5-1.117 2.5-2.5V3.333c0-1.383-1.117-2.5-2.5-2.5zM14.166 15H5.833V3.333h8.333V15zm-2.5 2.5H8.333v-.833h3.333v.833z"/></svg><svg viewBox="0 0 16 30" id="reviews-line" xmlns="http://www.w3.org/2000/svg"><path d="M1.073 29.442L15.101.681"/></svg></svg>