<svg width="85" height="85" viewBox="0 0 85 85" fill="none" xmlns="http://www.w3.org/2000/svg">
<mask id="mask0" mask-type="alpha" maskUnits="userSpaceOnUse" x="0" y="0" width="85" height="85">
<g clip-path="url(#clip0)">
<path d="M77.9166 0H7.08339C3.1714 0 0 3.1714 0 7.08339V60.2084C0 64.1204 3.1714 67.2918 7.08339 67.2918H37.1875V63.75H7.08339C5.12739 63.75 3.54178 62.1644 3.54178 60.2084V7.08339C3.54178 5.12739 5.12739 3.54178 7.08339 3.54178H77.9168C79.8728 3.54178 81.4584 5.12739 81.4584 7.08339V10.625H85V7.08339C85 3.1714 81.8288 0 77.9166 0Z" fill="black"/>
<path d="M17.7084 77.9166H37.1875V74.375H17.7084C14.7744 74.375 12.3959 76.7535 12.3959 79.6875C12.3959 82.6215 14.7744 85 17.7084 85H37.1875V81.4584H17.7084C16.7304 81.4584 15.9375 80.6655 15.9375 79.6875C15.9375 78.7095 16.7304 77.9166 17.7084 77.9166Z" fill="black"/>
<path d="M33.6459 74.375V65.5209H30.1043V76.1459C30.1043 77.1239 30.8972 77.9168 31.8752 77.9168H37.1877V74.375H33.6459Z" fill="black"/>
<path d="M37.1875 53.125H0V56.6666H37.1875V53.125Z" fill="black"/>
<path d="M37.1875 58.4375H30.1041V61.9791H37.1875V58.4375Z" fill="black"/>
<path d="M12.3959 15.9375C9.4619 15.9375 7.08339 18.316 7.08339 21.25C7.08339 24.184 9.4619 26.5625 12.3959 26.5625C15.3299 26.5625 17.7084 24.184 17.7084 21.25C17.7084 18.316 15.3299 15.9375 12.3959 15.9375ZM12.3959 23.0209C11.4179 23.0209 10.625 22.228 10.625 21.25C10.625 20.272 11.4179 19.4791 12.3959 19.4791C13.3739 19.4791 14.1668 20.272 14.1668 21.25C14.1668 22.228 13.3739 23.0209 12.3959 23.0209Z" fill="black"/>
<path d="M12.3959 30.1041C9.4619 30.1041 7.08339 32.4826 7.08339 35.4166C7.08339 38.3506 9.4619 40.7291 12.3959 40.7291C15.3299 40.7291 17.7084 38.3506 17.7084 35.4166C17.7084 32.4826 15.3299 30.1041 12.3959 30.1041ZM12.3959 37.1875C11.4179 37.1875 10.625 36.3946 10.625 35.4166C10.625 34.4386 11.4179 33.6457 12.3959 33.6457C13.3739 33.6457 14.1668 34.4386 14.1668 35.4166C14.1666 36.3946 13.3739 37.1875 12.3959 37.1875Z" fill="black"/>
<path d="M28.3334 23.0209C25.3994 23.0209 23.0209 25.3994 23.0209 28.3334C23.0209 31.2674 25.3994 33.6459 28.3334 33.6459C31.2674 33.6459 33.6459 31.2674 33.6459 28.3334C33.6459 25.3994 31.2674 23.0209 28.3334 23.0209ZM28.3334 30.1041C27.3554 30.1041 26.5625 29.3112 26.5625 28.3332C26.5625 27.3552 27.3554 26.5623 28.3334 26.5623C29.3114 26.5623 30.1043 27.3552 30.1043 28.3332C30.1041 29.3114 29.3114 30.1041 28.3334 30.1041Z" fill="black"/>
<path d="M19.4791 40.7291C16.5451 40.7291 14.1666 43.1076 14.1666 46.0416C14.1666 48.9756 16.5451 51.3541 19.4791 51.3541C22.4131 51.3541 24.7916 48.9756 24.7916 46.0416C24.7916 43.1076 22.4131 40.7291 19.4791 40.7291ZM19.4791 47.8125C18.5011 47.8125 17.7082 47.0196 17.7082 46.0416C17.7082 45.0636 18.5011 44.2707 19.4791 44.2707C20.4571 44.2707 21.25 45.0636 21.25 46.0416C21.25 47.0196 20.4571 47.8125 19.4791 47.8125Z" fill="black"/>
<path d="M30.4441 37.1875L21.9069 33.7715C21.6979 33.6882 21.475 33.6455 21.25 33.6459H15.9375V37.1875H20.91L29.4472 40.6034C29.6562 40.6868 29.8792 40.7294 30.1041 40.7291H37.1875V37.1875H30.4441Z" fill="black"/>
<path d="M37.1875 26.5625H31.875V30.1041H37.1875V26.5625Z" fill="black"/>
<path d="M32.2929 46.0416L29.1248 44.4567C28.8789 44.3342 28.608 44.2704 28.3332 44.2708H23.0207V47.8125H27.9154L31.0834 49.3975C31.3293 49.52 31.6002 49.5837 31.875 49.5834H37.1875V46.0418H32.2929V46.0416Z" fill="black"/>
<path d="M83.2291 26.5625H40.7291V30.1041H83.2291V26.5625Z" fill="black"/>
<path d="M74.375 19.4791V21.25H51.3541V19.4791H47.8125V23.0207C47.8125 23.9987 48.6054 24.7916 49.5834 24.7916H76.1459C77.1239 24.7916 77.9168 23.9987 77.9168 23.0207V19.4791H74.375Z" fill="black"/>
<path d="M76.1459 33.6459H46.0416V37.1875H74.375V40.7291H46.0416V44.2707H76.1457C77.1237 44.2707 77.9166 43.4778 77.9166 42.4998V35.4164C77.9166 34.4386 77.1239 33.6459 76.1459 33.6459Z" fill="black"/>
<path d="M77.9166 51.3541V47.8125H47.8125C46.8345 47.8125 46.0416 48.6054 46.0416 49.5834V56.6668C46.0416 57.6448 46.8345 58.4377 47.8125 58.4377H77.9166V54.8961H49.5834V51.3544H77.9166V51.3541Z" fill="black"/>
<path d="M51.3541 61.9791H47.8125V65.5207H51.3541V61.9791Z" fill="black"/>
<path d="M51.3541 69.0625H47.8125V72.6041H51.3541V69.0625Z" fill="black"/>
<path d="M60.2082 61.9791H56.6666V65.5207H60.2082V61.9791Z" fill="black"/>
<path d="M60.2082 69.0625H56.6666V72.6041H60.2082V69.0625Z" fill="black"/>
<path d="M69.0625 61.9791H65.5209V65.5207H69.0625V61.9791Z" fill="black"/>
<path d="M69.0625 69.0625H65.5209V72.6041H69.0625V69.0625Z" fill="black"/>
<path d="M77.9166 61.9791H74.375V65.5207H77.9166V61.9791Z" fill="black"/>
<path d="M77.9166 69.0625H74.375V72.6041H77.9166V69.0625Z" fill="black"/>
<path d="M69.0625 74.375H56.6666V77.9166H69.0625V74.375Z" fill="black"/>
<path d="M77.9166 14.1666H31.5757C30.2914 14.1671 29.0313 14.5161 27.9295 15.176L21.6023 18.9726C21.0514 19.3038 20.4209 19.4788 19.7783 19.4791H15.9375V23.0207H19.7784C21.0627 23.0202 22.3228 22.6713 23.4246 22.0114L29.7518 18.2148C30.3027 17.8836 30.9332 17.7086 31.5758 17.7082H77.9168C79.8728 17.7082 81.4584 19.2939 81.4584 21.2498V77.9165C81.4584 79.8725 79.8728 81.4581 77.9168 81.4581H46.0418C44.0858 81.4581 42.5002 79.8725 42.5002 77.9165V21.25H38.9586V77.9166C38.9586 81.8286 42.1298 85 46.0419 85H77.9169C81.8288 85 85 81.8288 85 77.9166V21.25C85 17.338 81.8288 14.1666 77.9166 14.1666Z" fill="black"/>
<path d="M28.3332 7.08337H19.4791V10.625H28.3332V7.08337Z" fill="black"/>
<path d="M35.4166 7.08337H31.875V10.625H35.4166V7.08337Z" fill="black"/>
<path d="M42.5 7.08337H38.9584V10.625H42.5V7.08337Z" fill="black"/>
<path d="M49.5832 7.08337H46.0416V10.625H49.5832V7.08337Z" fill="black"/>
<path d="M56.6666 7.08337H53.125V10.625H56.6666V7.08337Z" fill="black"/>
</g>
</mask>
<g mask="url(#mask0)">
<rect x="-34" y="-14.5714" width="170" height="114.143" fill="white"/>
</g>
<defs>
<clipPath id="clip0">
<rect width="85" height="85" fill="white"/>
</clipPath>
</defs>
</svg>
