<svg width="85" height="85" viewBox="0 0 85 85" fill="none" xmlns="http://www.w3.org/2000/svg">
<mask id="mask0" mask-type="alpha" maskUnits="userSpaceOnUse" x="0" y="0" width="85" height="85">
<path d="M78.1452 0H56.2097C52.4301 0 49.3548 3.07531 49.3548 6.85484V24.6774H6.85484C3.07531 24.6774 0 27.7527 0 31.5323V69.9194C0 73.6989 3.07531 76.7742 6.85484 76.7742H24.6774V82.2581H19.1935V85H54.8387V82.2581H49.3548V76.7742H67.1774C70.957 76.7742 74.0323 73.6989 74.0323 69.9194V63.0645H78.1452C81.9247 63.0645 85 59.9892 85 56.2097V6.85484C85 3.07531 81.9247 0 78.1452 0ZM56.2097 2.74194H78.1452C80.4125 2.74194 82.2581 4.58752 82.2581 6.85484V8.22581H52.0968V6.85484C52.0968 4.58752 53.9424 2.74194 56.2097 2.74194ZM49.3548 43.871H8.22581V32.9032H49.3548V43.871ZM82.2581 10.9677V49.3548H52.0968V10.9677H82.2581ZM46.6129 82.2581H27.4194V76.7742H46.6129V82.2581ZM67.1774 74.0323H6.85484C4.58752 74.0323 2.74194 72.1867 2.74194 69.9194V68.5484H71.2903V69.9194C71.2903 72.1867 69.4447 74.0323 67.1774 74.0323ZM71.2903 65.8064H2.74194V31.5323C2.74194 29.2649 4.58752 27.4194 6.85484 27.4194H49.3548V30.1613H5.48387V46.6129H49.3548V56.2097C49.3548 59.9892 52.4301 63.0645 56.2097 63.0645H71.2903V65.8064ZM78.1452 60.3226H56.2097C53.9424 60.3226 52.0968 58.477 52.0968 56.2097V52.0968H82.2581V56.2097C82.2581 58.477 80.4125 60.3226 78.1452 60.3226Z" fill="black"/>
<path d="M63.0645 54.8387H71.2903V57.5806H63.0645V54.8387Z" fill="black"/>
<path d="M79.5161 13.7097H54.8387V30.1613H79.5161V13.7097ZM76.7742 27.4193H57.5806V16.4516H76.7742V27.4193Z" fill="black"/>
<path d="M76.7742 43.871H79.5161V46.6129H76.7742V43.871Z" fill="black"/>
<path d="M54.8387 43.871H74.0323V46.6129H54.8387V43.871Z" fill="black"/>
<path d="M54.8387 38.3871H79.5161V41.129H54.8387V38.3871Z" fill="black"/>
<path d="M54.8387 32.9033H79.5161V35.6452H54.8387V32.9033Z" fill="black"/>
<path d="M5.48386 63.0645H24.6774V49.3549H5.48386V63.0645ZM8.22579 52.0968H21.9355V60.3226H8.22579V52.0968Z" fill="black"/>
<path d="M27.4193 49.3549H46.6129V52.0968H27.4193V49.3549Z" fill="black"/>
<path d="M27.4193 54.8387H46.6129V57.5806H27.4193V54.8387Z" fill="black"/>
<path d="M27.4193 60.3226H41.129V63.0645H27.4193V60.3226Z" fill="black"/>
<path d="M43.871 60.3226H46.6129V63.0645H43.871V60.3226Z" fill="black"/>
</mask>
<g mask="url(#mask0)">
<rect x="-23.8415" y="-8.29266" width="140.976" height="102.622" fill="white"/>
</g>
</svg>
