<svg width="85" height="85" viewBox="0 0 85 85" fill="none" xmlns="http://www.w3.org/2000/svg">
<mask id="mask0" mask-type="alpha" maskUnits="userSpaceOnUse" x="0" y="0" width="85" height="85">
<path d="M79.3333 11.3334V14.1667C80.8984 14.1667 82.1667 15.435 82.1667 17V59.5H2.83333V17C2.83333 15.435 4.1016 14.1667 5.66667 14.1667V11.3334C2.53725 11.3334 0 13.8706 0 17V65.1667C0 68.2961 2.53725 70.8334 5.66667 70.8334H33.5127L30.1127 82.1667H26.9167V85H58.0833V82.1667H54.8873L51.4873 70.8334H79.3333C82.4628 70.8334 85 68.2961 85 65.1667V17C85 13.8706 82.4628 11.3334 79.3333 11.3334ZM51.9293 82.1667H33.0707L36.4707 70.8334H48.5293L51.9293 82.1667ZM82.1667 65.1667C82.1667 66.7318 80.8984 68 79.3333 68H5.66667C4.1016 68 2.83333 66.7318 2.83333 65.1667V62.3334H82.1667V65.1667Z" fill="black"/>
<path d="M76.5 56.6667V5.66667C76.5 2.53725 73.9628 0 70.8333 0H14.1667C11.0373 0 8.5 2.53725 8.5 5.66667V56.6667H11.3333V5.66667C11.3333 4.1016 12.6016 2.83333 14.1667 2.83333H70.8333C72.3984 2.83333 73.6667 4.1016 73.6667 5.66667V56.6667H76.5Z" fill="black"/>
<path d="M14.1667 5.66663H17V8.49996H14.1667V5.66663Z" fill="black"/>
<path d="M19.8333 5.66663H22.6667V8.49996H19.8333V5.66663Z" fill="black"/>
<path d="M25.5 5.66663H28.3333V8.49996H25.5V5.66663Z" fill="black"/>
<path d="M14.1667 11.3334H70.8333V14.1667H14.1667V11.3334Z" fill="black"/>
<path d="M29.75 31.1667C30.5327 31.1667 31.1667 30.5327 31.1667 29.75V18.4167C31.1667 17.634 30.5327 17 29.75 17H15.5833C14.8006 17 14.1667 17.634 14.1667 18.4167V29.75C14.1667 30.5327 14.8006 31.1667 15.5833 31.1667H29.75ZM17 19.8333H28.3333V28.3333H17V19.8333Z" fill="black"/>
<path d="M34 17H45.3333V19.8333H34V17Z" fill="black"/>
<path d="M34 22.6666H56.6667V25.5H34V22.6666Z" fill="black"/>
<path d="M34 28.3334H45.3333V31.1667H34V28.3334Z" fill="black"/>
<path d="M14.1667 34H70.8333V36.8333H14.1667V34Z" fill="black"/>
<path d="M59.5 22.6666H70.8333V25.5H59.5V22.6666Z" fill="black"/>
<path d="M48.1667 28.3334H68V31.1667H48.1667V28.3334Z" fill="black"/>
<path d="M15.5833 39.6666C14.8006 39.6666 14.1667 40.3006 14.1667 41.0833V52.4166C14.1667 53.1993 14.8006 53.8333 15.5833 53.8333H29.75C30.5327 53.8333 31.1667 53.1993 31.1667 52.4166V41.0833C31.1667 40.3006 30.5327 39.6666 29.75 39.6666H15.5833ZM28.3333 51H17V42.5H28.3333V51Z" fill="black"/>
<path d="M34 39.6666H45.3333V42.5H34V39.6666Z" fill="black"/>
<path d="M34 45.3333H56.6667V48.1666H34V45.3333Z" fill="black"/>
<path d="M34 51H45.3333V53.8333H34V51Z" fill="black"/>
<path d="M59.5 45.3333H70.8333V48.1666H59.5V45.3333Z" fill="black"/>
<path d="M48.1667 51H68V53.8333H48.1667V51Z" fill="black"/>
</mask>
<g mask="url(#mask0)">
<rect x="-37.8916" y="-6.14453" width="168.976" height="121.867" fill="white"/>
</g>
</svg>
