<svg width="85" height="85" viewBox="0 0 85 85" fill="none" xmlns="http://www.w3.org/2000/svg">
<mask id="mask0" mask-type="alpha" maskUnits="userSpaceOnUse" x="0" y="0" width="85" height="85">
<path d="M23.0291 75.0833H19.8333V77.9166H32.5833V75.0833H25.9877L29.3875 63.75H32.5833V60.9166H5.66667C4.10197 60.9166 2.83333 59.648 2.83333 58.0833V55.25H32.5833V52.4166H2.83333V12.75C2.83333 11.1853 4.10197 9.91665 5.66667 9.91665H65.1667C66.7314 9.91665 68 11.1853 68 12.75V24.0833H70.8333V12.75C70.8333 9.62058 68.2961 7.08331 65.1667 7.08331H5.66667C2.53727 7.08331 0 9.62058 0 12.75V58.0833C0 61.2127 2.53727 63.75 5.66667 63.75H26.429L23.0291 75.0833Z" fill="black"/>
<path d="M62.3333 21.25V24.0833H65.1667V19.8333C65.1667 19.0509 64.5323 18.4166 63.75 18.4166H7.08333C6.30099 18.4166 5.66667 19.0509 5.66667 19.8333V36.8333C5.66667 37.6156 6.30099 38.25 7.08333 38.25H32.5833V35.4166H8.5V21.25H62.3333Z" fill="black"/>
<path d="M24.0833 49.5833V42.5C24.0833 41.7176 23.449 41.0833 22.6667 41.0833H7.08333C6.30099 41.0833 5.66667 41.7176 5.66667 42.5V49.5833H8.5V43.9166H21.25V49.5833H24.0833Z" fill="black"/>
<path d="M26.9167 42.5V49.5833H29.75V43.9166H32.5833V41.0833H28.3333C27.551 41.0833 26.9167 41.7176 26.9167 42.5Z" fill="black"/>
<path d="M5.66667 12.75H8.5V15.5833H5.66667V12.75Z" fill="black"/>
<path d="M11.3333 12.75H14.1667V15.5833H11.3333V12.75Z" fill="black"/>
<path d="M17 12.75H19.8333V15.5833H17V12.75Z" fill="black"/>
<path d="M75.0833 38.25V31.1666C75.0833 28.8196 73.1804 26.9166 70.8333 26.9166H39.6667C37.3196 26.9166 35.4167 28.8196 35.4167 31.1666V73.6666C35.4167 76.0137 37.3196 77.9166 39.6667 77.9166H59.5V75.0833H39.6667C38.8843 75.0833 38.25 74.449 38.25 73.6666V72.25H59.5V69.4166H38.25V31.1666C38.25 30.3843 38.8843 29.75 39.6667 29.75H70.8333C71.6157 29.75 72.25 30.3843 72.25 31.1666V38.25H75.0833Z" fill="black"/>
<path d="M42.5 32.5833H46.75V35.4167H42.5V32.5833Z" fill="black"/>
<path d="M49.5833 32.5833H53.8333V35.4167H49.5833V32.5833Z" fill="black"/>
<path d="M56.6667 32.5833H60.9167V35.4167H56.6667V32.5833Z" fill="black"/>
<path d="M63.75 32.5833H68V35.4167H63.75V32.5833Z" fill="black"/>
<path d="M43.9167 41.0833H62.3333V38.25H42.5C41.7177 38.25 41.0833 38.8843 41.0833 39.6667V49.5833C41.0833 50.3657 41.7177 51 42.5 51H59.5V48.1667H43.9167V41.0833Z" fill="black"/>
<path d="M59.5 56.6666V53.8333H42.5C41.7177 53.8333 41.0833 54.4676 41.0833 55.25V65.1667C41.0833 65.949 41.7177 66.5833 42.5 66.5833H59.5V63.75H43.9167V56.6666H59.5Z" fill="black"/>
<path d="M80.75 41.0833H66.5833C64.2363 41.0833 62.3333 42.9863 62.3333 45.3333V73.6667C62.3333 76.0137 64.2363 77.9167 66.5833 77.9167H80.75C83.097 77.9167 85 76.0137 85 73.6667V45.3333C85 42.9863 83.097 41.0833 80.75 41.0833ZM82.1667 73.6667C82.1667 74.449 81.5323 75.0833 80.75 75.0833H66.5833C65.801 75.0833 65.1667 74.449 65.1667 73.6667V72.25H82.1667V73.6667ZM82.1667 69.4167H65.1667V45.3333C65.1667 44.551 65.801 43.9166 66.5833 43.9166H80.75C81.5323 43.9166 82.1667 44.551 82.1667 45.3333V69.4167Z" fill="black"/>
<path d="M77.9167 46.75H69.4167C68.6343 46.75 68 47.3843 68 48.1667V53.8333C68 54.6157 68.6343 55.25 69.4167 55.25H77.9167C78.699 55.25 79.3333 54.6157 79.3333 53.8333V48.1667C79.3333 47.3843 78.699 46.75 77.9167 46.75ZM76.5 52.4167H70.8333V49.5833H76.5V52.4167Z" fill="black"/>
<path d="M77.9167 58.0833H69.4167C68.6343 58.0833 68 58.7176 68 59.5V65.1667C68 65.949 68.6343 66.5833 69.4167 66.5833H77.9167C78.699 66.5833 79.3333 65.949 79.3333 65.1667V59.5C79.3333 58.7176 78.699 58.0833 77.9167 58.0833ZM76.5 63.75H70.8333V60.9167H76.5V63.75Z" fill="black"/>
</mask>
<g mask="url(#mask0)">
<rect x="-28.956" y="-1.8681" width="152.253" height="87.8022" fill="white"/>
</g>
</svg>
