<?xml version="1.0" encoding="iso-8859-1"?>
<!-- Generator: Adobe Illustrator 16.0.0, SVG Export Plug-In . SVG Version: 6.00 Build 0)  -->
<!DOCTYPE svg PUBLIC "-//W3C//DTD SVG 1.1//EN" "http://www.w3.org/Graphics/SVG/1.1/DTD/svg11.dtd">
<svg version="1.1" id="Capa_1" xmlns="http://www.w3.org/2000/svg" xmlns:xlink="http://www.w3.org/1999/xlink" x="0px" y="0px"
	 width="588.193px" height="588.193px" viewBox="0 0 588.193 588.193" style="enable-background:new 0 0 588.193 588.193;"
	 xml:space="preserve">
<g>
	<path d="M571.303,238.328h-29.247c-22.915,0-28.712-21.279-28.712-21.279s-0.146,0.032-0.2,0.059
		c-3.407-9.817-7.286-19.426-11.93-28.621c0-0.027,0-0.027-0.027-0.054c-7.731-17.018,6.761-31.505,7.56-32.287l18.663-18.689
		c6.578-6.569,6.578-17.259,0-23.846l-55.016-55.015c-6.605-6.587-17.272-6.578-23.851,0.009l-13.52,13.52
		c-21.152,21.288-40.995,10.999-40.995,10.999l-0.055,0.054c-7.596-3.639-15.383-6.932-23.388-9.79
		c-0.381-0.159-0.636-0.322-1.018-0.49c-17.689-7.242-20.016-25.382-20.261-32.723V20.562c0-9.313-7.551-16.868-16.854-16.868
		h-80.965c-9.313,0-16.872,7.555-16.872,16.868v24.405c0,24.405-20.652,28.116-20.652,28.116l0.123,0.118
		c-8.932,3.185-17.686,6.737-26.126,10.917c-0.15,0.064-0.231,0.037-0.381,0.1c-16.841,7.455-26.154,0.141-28.535-2.149
		l-0.559-0.577c0-0.009-0.082-0.1-0.082-0.1h-0.027l-22.806-22.86c-6.615-6.587-17.277-6.587-23.864-0.018l-55.069,54.983
		c-6.587,6.587-6.605,17.268,0,23.855l18.271,18.312l0,0c0,0,15.846,15.287,7.991,32.441c0,0.009,0,0.009,0,0.027
		c-4.557,8.931-8.373,18.294-11.748,27.848c-0.236,0.513-0.477,0.886-0.709,1.449c-6.987,17.14-20.011,20.397-26.971,20.897H16.873
		C7.56,238.328,0,245.882,0,255.187v77.816c0,9.321,7.56,16.863,16.873,16.863h30.265c17.127,0,21.656,15.81,21.656,15.81
		s0.123-0.291,0.177-0.437c3.53,10.903,7.528,21.588,12.489,31.728l-0.086,0.037c0,0,10.694,18.153-1.291,30.138v0.045
		l-23.542,23.496c-6.587,6.588-6.587,17.3,0,23.86l55.006,55.042c6.605,6.578,17.277,6.578,23.855,0l21.156-21.161l0.055-0.063
		l0.94-0.909c2.903-2.762,13.111-10.275,32.759-2.171c0.205,0.091,0.327,0.118,0.532,0.182c7.491,3.553,15.224,6.787,23.119,9.576
		l-0.082,0.091c0,0,20.716,6.17,20.716,26.977v25.531c0,9.322,7.56,16.863,16.873,16.863h80.964c9.313,0,16.854-7.56,16.854-16.863
		v-27.984c0.382-6.16,3.125-17.809,17.645-23.496c0.555-0.236,0.909-0.455,1.363-0.646c5.605-1.944,10.976-4.325,16.427-6.642
		c13.065-7.287,0.937-22.097,0.937-22.097l-4.262-5.062c-11.448-13.629-29.856-5.17-29.856-5.17l-0.027-0.127
		c-1.59,0.527-3.116,1.145-4.733,1.653c-0.509,0.183-0.836,0.382-1.408,0.609c-25.122,9.259-25.358,28.356-25.358,28.356v22.425
		c-0.354,19.08-15.556,22.424-23.433,22.923h-9.095c-19.58,0.382-23.069-11.584-23.569-17.953v-25.795
		c0-23.724-26.476-30.274-26.476-30.274l0.091-0.118c-14.347-4.233-27.912-10.258-40.641-17.518
		c-0.527-0.236-0.968-0.354-1.536-0.645c-21.452-10.758-37.411,4.415-37.411,4.415l-18.217,18.208
		c-12.725,12.666-22.124,6.77-25.595,3.626l-1.468-1.473l-0.054-0.081l0,0l-14.964-14.965c-0.027-0.027-0.027-0.027-0.055-0.055
		c-11.721-11.693,3.525-27.775,5.556-29.802l17.749-17.744c0.027,0,0.027-0.055,0.027-0.055
		c13.697-13.711,2.944-35.017,2.944-35.017s0.146-0.027,0.172-0.027c-6.846-12.43-12.484-25.568-16.513-39.47
		c-0.118-0.381-0.268-0.608-0.409-0.99c-9.022-24.913-31.764-24.514-32.209-24.514l-17.277,0.055
		c-20.188,0.036-23.837-13.102-24.396-19.998l-0.027-13.938c0.109-5.733,2.204-21.988,22.628-22.16c0.027,0,0.027,0,0.027,0
		l22.124-0.086c0,0,20.83,0.968,28.239-21.252c0.118-0.295,0.259-0.436,0.35-0.704c4.438-16.368,10.849-31.914,19.158-46.215v-0.009
		c10.553-21.256-4.521-37.175-6.492-39.11l-15.046-15.046c0,0,0,0-0.027-0.027c-14.515-14.524-4.588-27.103-1.118-30.697
		l7.855-7.832c0,0,16.541-17.508,34.058,0c0.032,0,0.032,0.009,0.032,0.018l17.1,17.1c3.225,3.071,16.391,13.761,35.262,4.588
		c0.091-0.027,0.118-0.009,0.177-0.054c12.139-6.878,25.213-12.284,38.815-16.414c0.354-0.168,0.563-0.345,0.963-0.504
		c21.897-8.613,25.977-22.124,26.594-29.093V55.22c0.109-4.279,1.754-21.093,21.388-21.093h12.284c0,0,22.379-0.763,22.379,24.191
		v19.285c0.127,5.497,2.044,23.81,23.169,31.251c0.018,0.009,0.018,0.027,0.091,0.037c12.774,3.548,24.977,8.486,36.553,14.46
		l0.118-0.1c0,0,26.357,16.354,46.265-3.53l13.312-13.302c0.608-0.613,18.635-18.049,32.082-4.588
		c0.036,0.019,0.063,0.027,0.063,0.055l11.021,11.017c0,0,13.383,16.282-3.453,33.123l-14.91,14.924c0,0-15.546,15.909-4.261,40.055
		c0.2,0.409,0.2,0.677,0.382,1.067c6.868,12.534,12.302,25.967,16.309,40c0.027-0.009,0.173-0.131,0.173-0.131
		s4.834,24.218,26.422,24.146l20.952-0.077h0.563h0.944c0.618-0.027,25.604-0.427,25.659,23.16l0.063,9.926v0.037v2.435
		c-0.209,5.851-2.999,20.452-26.213,20.543l-20.099,0.063c-15.69,0.146-23.514,13.012-26.939,21.18
		c-1.335,3.589-4.389,15.191,6.696,26.104l2.854,2.816c0.055,0.036,0.1,0.063,0.154,0.128c16.545,17.744,28.394-7.124,28.394-7.124
		l0,0c7.486-12.483,18.48-14.982,24.359-15.392h30.646c9.312,0,16.863-7.56,16.863-16.863v-77.816
		C588.175,245.874,580.615,238.328,571.303,238.328L571.303,238.328z"/>
</g>
<g>
</g>
<g>
</g>
<g>
</g>
<g>
</g>
<g>
</g>
<g>
</g>
<g>
</g>
<g>
</g>
<g>
</g>
<g>
</g>
<g>
</g>
<g>
</g>
<g>
</g>
<g>
</g>
<g>
</g>
</svg>
