<svg width="1208" height="411" viewBox="0 0 1208 411" fill="none" xmlns="http://www.w3.org/2000/svg">
<g clip-path="url(#clip0_52_812)">
<rect width="1208" height="411" rx="40" fill="white"/>
<path d="M534.505 728.563C555.993 690.943 569.501 649.3 574.186 606.23C580.753 542.245 562.057 518.158 579.065 472.786C595.608 428.707 635.045 393.358 676.212 378.466C732.392 358.156 755.992 388.894 851.838 398.683C908.187 404.414 1013.9 415.226 1090.82 356.195C1129.68 326.368 1157.98 281.182 1184.3 239.19C1216.55 187.72 1216.06 172.629 1237.66 151.156C1263.31 125.641 1311.76 99.4162 1412.29 108.076" stroke="#DDFA69" stroke-width="1.03189" stroke-miterlimit="10"/>
<path d="M529.661 723.243C549.267 689.71 562.535 652.855 568.801 614.519C569.38 610.822 569.916 607.062 570.426 603.227C578.206 540.309 560.759 517.035 577.745 472.524C585.124 453.082 596.293 435.302 610.605 420.216C620.864 409.421 632.498 400.023 645.208 392.263C654.716 386.465 664.847 381.756 675.409 378.225C687.087 374.154 699.359 372.042 711.726 371.974C734.513 371.891 754.982 378.625 783.812 384.983C805.521 389.761 827.603 392.649 849.811 393.615C861.625 394.206 875.571 395.117 891.073 395.243C932.584 395.632 983.208 392.38 1031.96 370.454C1048.55 363.085 1064.26 353.864 1078.78 342.967C1081 341.302 1083.17 339.585 1085.29 337.857C1106.27 320.772 1123.8 300.814 1140.55 278.667C1153.12 262.169 1163.88 244.869 1174.8 228.08C1179.34 220.995 1183.37 214.617 1186.94 208.765C1208.52 173.378 1211.43 160.152 1230.52 142.522C1245.02 129.128 1266.32 115.62 1299.13 107.139C1326.01 100.171 1360.95 96.5925 1406.25 98.9897" stroke="#DDFA69" stroke-width="1.03189" stroke-miterlimit="10"/>
<path d="M524.859 717.849C544.521 685.052 558.061 648.956 564.82 611.319C565.457 607.698 566.058 604.024 566.624 600.297C575.684 538.376 559.54 515.927 576.441 472.249C583.765 452.654 594.894 434.701 609.185 419.424C619.503 408.564 631.247 399.154 644.094 391.45C653.688 385.75 663.936 381.234 674.616 377.998C686.448 374.265 698.779 372.354 711.186 372.333C734.816 372.145 755.582 378.02 783.443 383.333C804.696 387.294 826.294 389.104 847.91 388.735C859.282 388.661 872.558 389.012 887.328 388.278C926.689 386.328 972.773 381.094 1020.06 357.927C1036.46 350.006 1052.08 340.589 1066.74 329.796C1069 328.11 1071.21 326.414 1073.35 324.691C1094.83 307.527 1112.37 288.751 1130.12 267.148C1143.47 250.862 1154.18 233.783 1165.29 217.005C1169.91 210.047 1174.07 203.737 1177.85 197.912C1200.15 163.412 1203.77 150.63 1223.37 133.939C1238.3 121.221 1259.84 108.419 1292.86 99.9545C1319.84 93.0608 1354.95 89.0077 1400.18 89.8699" stroke="#DDFA69" stroke-width="1.03189" stroke-miterlimit="10"/>
<path d="M519.967 712.651C539.738 680.528 553.58 645.116 560.833 608.1C561.506 604.546 562.174 600.949 562.795 597.316C573.178 536.388 558.235 514.784 575.109 471.992C583.104 451.734 592.806 434.522 607.712 418.644C618.096 407.707 629.96 398.277 642.958 390.629C652.644 385.029 663.015 380.709 673.812 377.779C685.8 374.377 698.204 372.66 710.666 372.677C735.109 372.406 756.134 377.401 783.03 381.642C803.843 384.786 824.953 385.485 845.928 383.724C856.937 382.933 869.481 382.766 883.502 381.182C920.962 376.957 962.291 369.724 1008.14 345.348C1024.33 336.869 1039.89 327.24 1054.71 316.536C1056.99 314.856 1059.29 313.123 1061.38 311.458C1082.53 294.743 1102.03 276.03 1119.59 255.578C1133.74 239.52 1144.36 222.588 1155.77 205.858C1160.46 198.995 1164.75 192.78 1168.75 186.972C1191.77 153.384 1196.14 141.067 1216.2 125.279C1231.55 113.194 1253.41 101.115 1286.6 92.6982C1313.63 85.7729 1348.95 81.4351 1394.18 80.8415" stroke="#DDFA69" stroke-width="1.03189" stroke-miterlimit="10"/>
<path d="M515.117 707.358C534.953 675.93 549.081 641.245 556.851 604.902C557.567 601.411 558.314 597.899 558.972 594.355C570.556 534.41 557.021 513.72 573.778 471.713C582.032 451.124 591.105 434.032 606.265 417.849C616.702 406.838 628.681 397.399 641.828 389.828C651.618 384.293 662.132 380.151 673.066 377.522C685.172 374.441 697.617 372.892 710.109 372.911C735.375 372.572 756.707 376.586 782.671 379.94C800.977 382.289 820.562 381.961 844.001 378.703C854.652 377.237 866.552 376.515 879.767 374.097C915.526 367.554 951.877 358.333 996.199 332.8C1012.18 323.791 1027.68 313.96 1042.64 303.345C1044.97 301.66 1047.24 299.963 1049.4 298.299C1070.84 281.919 1090.84 263.75 1109.21 243.987C1124.18 228.135 1134.6 211.399 1146.33 194.784C1151 188.069 1155.5 181.828 1159.72 176.078C1183.39 143.335 1188.55 131.562 1209.12 116.671C1224.9 105.235 1247.03 93.8691 1280.39 85.4732C1307.5 78.6587 1342.98 73.8727 1388.16 71.8022" stroke="#DDFA69" stroke-width="1.03189" stroke-miterlimit="10"/>
<path d="M510.288 702.051C530.176 671.313 544.585 637.361 552.875 601.701C553.643 598.289 554.453 594.872 555.174 591.423C568.103 532.571 555.743 512.583 572.441 471.484C580.943 450.547 589.389 433.576 604.786 417.097C615.288 406.007 627.393 396.553 640.697 389.051C650.554 383.612 661.165 379.67 672.183 377.356C684.424 374.606 696.937 373.247 709.484 373.305C735.567 372.856 757.191 375.831 782.19 378.319C800.634 380.12 819.761 378.451 841.961 373.779C852.286 371.616 863.522 370.308 875.937 367.166C910.278 358.254 941.415 347.066 984.314 320.355C999.224 311.076 1015.76 300.875 1030.63 290.23C1033 288.539 1035.25 286.88 1037.48 285.215C1059.16 269.196 1079.64 251.604 1098.74 232.582C1114.51 216.958 1124.85 200.343 1136.83 183.74C1141.65 177.067 1146.24 171.021 1150.65 165.255C1174.92 133.278 1180.7 121.669 1201.9 108.044C1218.28 97.511 1240.54 86.6091 1274.09 78.2925C1301.3 71.61 1336.94 66.3336 1382.06 62.7703" stroke="#DDFA69" stroke-width="1.03189" stroke-miterlimit="10"/>
<path d="M505.45 696.771C525.388 666.708 540.078 633.479 548.895 598.5C549.715 595.167 550.594 591.819 551.362 588.475C565.577 530.595 554.509 511.485 571.106 471.229C579.83 450.007 587.669 433.12 603.325 416.31C613.881 405.174 626.083 395.724 639.505 388.289C649.464 382.938 660.203 379.186 671.327 377.17C683.694 374.78 696.265 373.609 708.86 373.673C735.766 373.157 757.786 375.114 781.7 376.725C800.339 378.031 818.962 374.916 839.903 368.866C849.933 365.985 859.954 361.512 871.992 360.105C901.986 341.91 932.562 338.085 972.241 307.805C986.245 297.096 1003.56 287.518 1018.46 277.057C1020.86 275.346 1023.19 273.686 1025.39 272.059C1049.04 254.66 1066.83 240.884 1088.22 221.125C1104.78 205.745 1115 189.267 1127.28 172.737C1132.07 166.212 1136.86 160.193 1141.49 154.443C1166.42 123.421 1173.29 112.731 1194.76 99.5868C1211.43 89.439 1234.14 79.4924 1267.83 71.1917C1295.08 64.4881 1330.93 58.9113 1376.02 53.8341" stroke="#DDFA69" stroke-width="1.03189" stroke-miterlimit="10"/>
<path d="M500.604 691.476C520.588 662.091 535.565 629.597 544.927 595.316C545.806 592.036 546.748 588.782 547.563 585.545C563.164 528.615 553.35 510.36 569.835 470.933C578.882 449.337 586.03 432.613 601.913 415.491C612.553 404.248 624.913 394.769 638.531 387.408C649.545 381.337 660.197 378.774 670.674 376.875C683.168 374.832 695.811 373.84 708.47 373.911C736.189 373.31 758.616 374.129 781.481 374.953C800.226 375.663 818.46 371.139 838.047 363.843C847.819 360.197 856.928 354.799 868.308 352.986C895.995 331.324 920.445 324.127 960.439 295.214C974.775 284.832 991.617 274.13 1006.5 263.749C1008.97 262.105 1011.31 260.393 1013.52 258.808C1037.72 241.357 1055.55 228.81 1077.81 209.416C1095.14 194.274 1105.24 177.938 1117.81 161.467C1122.67 155.037 1127.6 149.113 1132.44 143.379C1158.02 113.159 1165.67 102.997 1187.67 90.8082C1204.75 81.2938 1227.73 72.0595 1261.61 63.7959C1288.87 57.0818 1324.96 51.1677 1370.01 44.5872" stroke="#DDFA69" stroke-width="1.03189" stroke-miterlimit="10"/>
<path d="M495.781 686.187C515.788 657.47 531.048 625.724 540.978 592.163C541.899 588.946 542.91 585.762 543.878 582.582C560.722 526.698 552.221 509.283 568.558 470.731C577.863 448.803 584.373 432.184 600.52 414.772C611.199 403.457 623.657 393.966 637.402 386.674C648.622 380.603 659.3 378.388 669.866 376.726C682.913 374.671 694.712 374.588 707.873 374.285C736.409 373.574 759.67 369.087 781.054 373.318C799.777 369.839 821.311 372.645 836.099 358.856C843.797 351.68 853.864 348.135 864.542 345.919C889.949 320.795 910.027 312.623 948.561 282.648C962.624 271.717 979.672 260.742 994.493 250.539C997.011 248.865 999.418 247.264 1001.6 245.604C1026.34 228.122 1044.26 216.841 1067.37 197.854C1085.57 182.94 1095.5 166.762 1108.35 150.36C1113.27 144.024 1118.33 138.169 1123.38 132.478C1149.52 103.097 1158.13 93.5113 1180.57 82.1666C1198.11 73.3066 1221.38 64.7742 1255.41 56.5688C1282.77 49.9286 1318.94 43.6348 1364.02 35.5089" stroke="#DDFA69" stroke-width="1.03189" stroke-miterlimit="10"/>
<path d="M490.949 680.905C510.979 652.825 526.51 621.794 536.983 588.929C537.956 585.792 539.072 582.765 540.077 579.607C558.34 524.653 550.977 508.194 567.234 470.449C576.824 448.194 582.68 431.69 599.054 413.967C609.804 402.586 622.382 393.084 636.268 385.853C647.694 379.783 658.429 377.963 669.07 376.481C682.031 374.711 693.904 374.944 707.329 374.625C736.699 373.863 760.309 367.842 780.723 371.644C799.5 367.147 821.383 368.625 834.199 353.863C841.212 345.794 850.811 341.442 860.767 338.862C883.893 310.275 899.594 301.086 936.674 270.092C950.473 258.628 967.564 247.441 982.49 237.329L989.727 232.515C1015.03 214.997 1033.04 204.913 1057.01 186.386C1076.02 171.704 1085.79 155.658 1098.94 139.33C1103.92 133.09 1109.11 127.33 1114.39 121.67C1141.07 93.0973 1150.6 84.0818 1173.52 73.6131C1191.5 65.4183 1215.05 57.5875 1249.24 49.414C1276.67 42.8425 1313.08 36.09 1358.06 26.5187" stroke="#DDFA69" stroke-width="1.03189" stroke-miterlimit="10"/>
<path d="M486.12 675.643C506.13 648.203 521.918 617.921 532.958 585.804C534.043 582.799 535.159 579.772 536.259 576.756C555.807 522.842 549.773 507.213 565.902 470.238C575.788 447.672 581.058 431.215 597.607 413.24C608.402 401.773 621.095 392.256 635.127 385.105C646.774 379.024 657.488 377.515 668.25 376.318C681.19 374.928 693.078 375.356 706.756 375.006C736.954 374.15 760.919 366.636 780.258 370.057C799.115 364.548 814.746 356.662 832.176 348.973C840.001 341.301 847.645 334.868 856.931 331.865C877.719 299.763 889.043 289.626 924.731 257.639C938.204 245.547 955.358 233.975 970.422 224.206C972.987 222.499 975.441 220.867 977.705 219.36C1003.96 202.375 1021.62 193.004 1046.48 174.863C1066.33 160.403 1075.93 144.515 1089.38 128.235C1094.44 122.106 1099.77 116.388 1105.22 110.844C1132.44 83.079 1142.86 74.7078 1166.28 65.0836C1184.72 57.5274 1208.53 50.4092 1242.93 42.2621C1270.41 35.7434 1306.95 28.6324 1351.95 17.542" stroke="#DDFA69" stroke-width="1.03189" stroke-miterlimit="10"/>
<path d="M481.3 670.353C501.341 643.528 517.429 613.964 529.07 582.567C530.138 579.572 531.344 576.646 532.507 573.725C553.447 520.804 548.635 506.051 564.627 469.967C574.777 447.043 579.324 430.77 596.179 412.431C607.061 400.857 619.913 391.309 634.137 384.233C646.053 378.111 656.799 376.924 667.523 376.048C680.489 374.938 692.377 375.641 706.329 375.359C737.324 374.43 761.675 365.402 779.97 368.422C798.881 361.894 813.944 352.673 830.341 344.05C837.729 335.48 844.667 328.261 853.278 324.862C871.801 289.356 878.669 278.117 912.95 245.147C926.128 232.475 943.435 220.687 958.515 211.044C961.112 209.317 963.566 207.684 965.846 206.167C992.648 189.183 1010.42 181.083 1036.13 163.317C1056.78 149.101 1066.23 133.334 1079.98 117.128C1085.09 111.077 1090.54 105.534 1096.26 99.8799C1123.99 72.8905 1135.43 65.0953 1159.27 56.3893C1178.14 49.4981 1202.23 43.0658 1236.8 34.9664C1264.34 28.5005 1301.13 20.9466 1346.03 8.3951" stroke="#DDFA69" stroke-width="1.03189" stroke-miterlimit="10"/>
<path d="M476.475 665.088C496.511 638.867 512.872 610.031 525.102 579.381C526.186 576.375 527.508 573.623 528.724 570.781C551.082 518.859 547.493 504.983 563.32 469.716C573.766 446.481 577.659 430.323 594.756 411.663C605.673 400.038 618.612 390.495 632.941 383.497C644.931 377.485 655.882 376.504 666.707 375.882C679.556 375.146 691.508 376.081 705.708 375.657C737.541 374.649 762.237 364.114 779.514 366.736C798.505 359.197 813 348.778 828.295 339.014C835.241 329.574 841.478 321.541 849.399 317.756C865.631 278.772 868.069 266.505 900.959 232.543C913.831 219.274 931.45 207.508 946.355 197.775C948.984 196.026 951.454 194.383 953.734 192.866C981.116 175.861 998.503 168.315 1025.53 151.637C1047.33 138.187 1056.3 122.034 1070.32 105.855C1075.57 99.8747 1081.14 94.1857 1087.01 88.813C1115.24 62.5837 1127.65 55.4224 1151.96 47.5924C1171.29 41.3558 1195.64 35.6199 1230.37 27.5681C1258.05 21.1024 1294.97 13.2163 1339.82 -0.838529" stroke="#DDFA69" stroke-width="1.03189" stroke-miterlimit="10"/>
<path d="M473.897 663.218C493.909 637.563 510.527 609.433 523.341 579.526C524.53 576.679 525.867 573.916 527.162 571.159C550.922 520.245 548.588 507.225 564.23 472.813C574.95 449.235 578.189 433.193 595.524 414.237C606.499 402.531 619.557 392.969 634.031 386.04C646.316 379.992 657.241 379.348 668.165 378.979C680.988 378.718 692.928 379.911 707.418 379.408C740.033 378.27 765.157 366.284 781.38 368.489C800.435 359.947 814.345 348.272 828.603 337.463C835.096 327.136 840.627 318.317 847.863 314.12C861.814 271.673 859.754 258.242 891.357 223.513C903.941 209.638 921.733 197.687 936.681 188.086L944.186 183.299C971.737 165.656 989.998 160.589 1017.47 143.685C1039.8 129.972 1048.89 114.447 1063.24 98.3891C1068.62 92.4511 1074.33 86.8265 1080.36 81.543C1109.02 56.1264 1122.5 49.578 1147.25 42.6188C1167.04 37.0367 1191.66 31.9867 1226.56 23.9826C1254.28 17.5802 1291.4 9.28299 1336.22 -6.27516" stroke="#DDFA69" stroke-width="1.03189" stroke-miterlimit="10"/>
<path d="M472.286 662.848C492.299 637.82 509.211 610.463 522.655 581.373C523.903 578.579 525.303 575.911 526.662 573.249C551.882 523.26 550.665 511.095 566.232 477.532C577.264 453.633 579.822 437.701 597.4 418.423C608.456 406.657 621.651 397.103 636.281 390.274C648.767 384.252 659.702 383.831 670.705 383.82C683.422 383.743 695.463 385.19 710.137 384.724C743.611 383.539 769.059 370.013 784.254 371.806C803.389 362.251 818.912 351.422 829.924 337.45C837.809 327.431 840.752 316.541 847.355 312.149C859.01 266.25 852.437 251.664 882.68 215.99C894.921 201.497 912.93 189.356 927.861 179.903C930.553 178.112 933.139 176.575 935.446 175.132C963.577 157.468 981.9 153.662 1010.26 137.17C1033.4 123.716 1042.33 108.297 1057.02 92.3608C1062.51 86.4505 1068.36 80.8928 1074.55 75.7208C1103.68 51.0431 1118.18 45.1656 1143.38 39.0667C1163.62 34.1654 1188.52 29.8015 1223.58 21.8292C1251.34 15.4901 1288.67 6.7816 1333.51 -10.1849" stroke="url(#paint0_linear_52_812)" stroke-width="1.03189" stroke-miterlimit="10"/>
<path d="M470.774 662.462C490.766 638.003 507.955 611.382 522.022 583.097C523.338 580.372 524.818 577.789 526.213 575.216C552.888 526.315 552.899 515.069 568.233 482.255C579.545 458.055 581.438 442.223 599.35 422.587C610.412 410.684 623.703 401.067 638.468 394.28C651.186 388.263 662.199 388.2 673.202 388.396C685.872 388.625 697.965 390.356 712.972 389.807C747.242 388.548 773.05 373.504 787.243 374.889C806.458 364.391 821.361 351.941 831.313 337.235C838.788 326.187 841.072 314.754 846.922 309.743C856.27 260.376 845.193 244.652 874.134 208.085C886.049 192.964 904.221 180.692 919.158 171.281L926.832 166.542C955.517 148.852 973.928 146.312 1003.16 130.201C1027.16 117.001 1035.83 101.613 1050.87 85.7878C1056.45 79.8913 1062.44 74.3846 1068.77 69.3064C1098.35 45.3623 1113.89 40.161 1139.55 34.9223C1160.24 30.6861 1185.39 27.0187 1220.63 19.0835C1258.24 11.133 1295.06 -0.152589 1330.66 -14.6394" stroke="url(#paint1_linear_52_812)" stroke-width="1.03189" stroke-miterlimit="10"/>
<path d="M469.646 662.756C489.595 638.825 507.048 612.918 521.73 585.439C523.115 582.782 524.647 580.278 526.105 577.801C554.251 529.908 555.4 519.481 570.602 487.532C582.241 463.001 583.438 447.289 601.513 427.384C612.65 415.412 626.085 405.806 641.016 399.14C653.935 393.151 665.001 393.373 676.072 393.842C688.677 394.388 700.812 396.388 716.041 395.828C751.14 394.476 777.245 377.955 790.467 378.912C809.721 367.337 824.002 353.405 832.979 337.954C840.006 325.856 841.574 313.757 846.744 308.377C853.811 255.548 838.204 238.68 865.828 201.231C877.416 185.482 895.811 173.062 910.768 163.82C913.571 162.093 916.204 160.523 918.532 159.112C947.845 141.371 966.26 140.107 996.341 124.413C1021.15 111.473 1029.71 96.2532 1045 80.4391C1050.71 74.5882 1056.85 69.1644 1063.35 64.2113C1093.37 40.9745 1109.96 36.4916 1136.07 32.0972C1157.21 28.5419 1182.63 25.5446 1218.05 17.6729C1255.96 9.61156 1292.92 -2.38529 1328.34 -18.1227" stroke="url(#paint2_linear_52_812)" stroke-width="1.03189" stroke-miterlimit="10"/>
<path d="M469.327 664.27C489.245 640.871 506.97 615.691 522.28 589.048C523.717 586.47 525.318 584.035 526.829 581.636C556.492 534.79 558.907 525.235 573.812 494.076C585.763 469.223 586.269 453.605 604.608 433.411C615.794 421.354 629.346 411.732 644.417 405.147C657.562 399.189 668.67 399.68 679.794 400.434C692.32 401.238 704.529 403.555 720.011 402.964C755.922 401.528 782.44 383.499 794.592 384.049C813.909 371.472 827.486 355.999 835.535 339.772C842.047 326.623 842.988 313.891 847.482 308.114C852.243 251.817 832.101 233.832 858.449 195.496C869.668 179.124 888.279 166.515 903.263 157.415C906.092 155.693 908.752 154.129 911.09 152.733C940.925 134.987 959.439 135.006 990.374 119.703C1016.02 107.027 1024.41 91.8967 1039.97 76.1778C1045.81 70.3623 1052.09 65.0026 1058.75 60.1456C1089.21 37.6002 1106.84 33.862 1133.4 30.3121C1154.96 27.3901 1180.7 25.1158 1216.28 17.2759C1254.49 9.19011 1291.59 -3.44358 1326.79 -20.3551" stroke="url(#paint3_linear_52_812)" stroke-width="1.03189" stroke-miterlimit="10"/>
<path d="M469.022 665.774C488.887 642.879 506.876 618.423 522.817 592.642C524.323 590.132 525.997 587.808 527.561 585.489C558.727 539.63 562.164 531.062 577.021 500.621C589.278 475.473 589.109 459.939 607.675 439.434C618.907 427.278 632.588 417.639 647.816 411.154C661.199 405.244 672.327 405.972 683.53 407.017C696.04 408.174 708.243 410.723 723.978 410.1C760.686 408.522 787.632 389.043 798.725 389.202C816.066 377.366 829.71 360.87 838.084 341.616C844.053 327.412 844.409 314.041 848.202 307.863C850.683 248.104 825.979 228.996 851.067 189.761C861.908 172.751 880.777 160.015 895.74 151.021C898.627 149.283 901.297 147.735 903.672 146.361C934.077 128.647 952.643 129.773 984.485 114.94C1010.93 102.534 1019.19 87.4884 1035.05 71.8437C1040.58 66.411 1047.13 61.7757 1054.24 56.0439C1083.69 32.2686 1103.82 31.1702 1130.83 28.4804C1152.88 26.2868 1178.84 24.6351 1214.59 16.8429C1253.13 8.7112 1290.4 -4.55746 1325.4 -22.6076" stroke="url(#paint4_linear_52_812)" stroke-width="1.03189" stroke-miterlimit="10"/>
<path d="M468.707 667.287C488.524 644.879 506.787 621.145 523.37 596.249C524.955 593.824 526.671 591.563 528.314 589.328C561.072 544.695 565.631 536.75 580.235 507.164C592.819 481.684 591.89 466.312 610.762 445.443C622.067 433.178 635.898 423.51 651.3 417.106C664.903 411.254 676.064 412.235 687.334 413.555C699.749 415.049 712.026 417.846 728.014 417.192C765.592 415.584 792.915 394.575 802.916 394.295C820.236 381.415 833.347 363.686 840.59 343.353C845.98 328.141 845.772 314.094 848.875 307.53C849.075 244.308 819.794 224.088 843.612 183.94C854.1 166.296 873.201 153.429 888.201 144.524C891.114 142.792 893.837 141.254 896.197 139.891C927.192 122.172 945.862 124.622 978.532 110.107C1005.83 97.9547 1013.82 83.0195 1030.09 67.4279C1036.34 61.8826 1042.89 56.6739 1049.7 51.8237C1079.77 28.8718 1100.76 28.3862 1128.24 26.5302C1150.72 25.0281 1176.96 24.036 1212.82 16.3335C1251.64 8.14469 1289.03 -5.78062 1323.75 -24.9841" stroke="url(#paint5_linear_52_812)" stroke-width="1.03189" stroke-miterlimit="10"/>
<path d="M468.391 668.8C488.161 646.858 506.708 623.844 523.948 599.863C525.586 597.517 527.344 595.319 529.061 593.195C563.315 549.576 569.056 542.514 583.468 513.602C596.364 487.938 594.733 472.645 613.843 451.481C625.174 439.131 639.109 429.455 654.639 423.154C668.48 417.35 679.688 418.574 690.995 420.189C703.399 421.942 715.681 425.055 731.938 424.359C770.313 422.677 798.022 400.087 807.021 399.537C824.396 385.615 837.038 366.657 843.211 345.265C847.969 329.034 847.235 314.333 849.663 307.373C847.556 240.683 813.635 219.256 836.288 178.284C846.396 160.001 865.73 147.003 880.719 138.219C883.674 136.482 886.424 134.949 888.804 133.617C920.406 115.883 939.112 119.589 972.651 105.454C1000.8 93.5824 1008.59 78.7156 1025.13 63.2351C1031.48 57.6998 1038.17 52.5575 1045.15 47.837C1075.84 25.7085 1097.69 25.8356 1125.63 24.8399C1148.57 23.9923 1175.11 23.6756 1211.09 15.9574C1250.23 7.7136 1287.77 -6.86411 1322.21 -27.2008" stroke="url(#paint6_linear_52_812)" stroke-width="1.03189" stroke-miterlimit="10"/>
<path d="M468.104 670.291C490.646 645.359 510.317 622.154 524.503 603.443C526.225 601.155 528.057 599.068 529.789 597.003C565.641 554.514 572.473 548.233 586.715 520.302C599.954 494.227 597.696 478.986 616.985 457.543C628.364 445.103 642.422 435.415 658.098 429.211C672.187 423.47 683.42 424.905 694.791 426.821C707.131 428.89 719.455 432.273 735.965 431.545C775.168 429.77 803.264 405.666 811.161 404.661C828.567 389.687 840.719 369.532 845.835 347.149C849.946 329.91 849.808 314.698 850.459 307.161C856.404 237.125 807.483 214.438 828.966 172.599C838.669 153.673 858.293 140.527 873.271 131.865C876.269 130.122 879.039 128.621 881.446 127.294C913.591 109.587 932.348 114.538 966.763 100.757C995.759 89.1661 1003.35 74.3835 1020.23 58.9982C1026.55 53.2985 1033.38 48.2067 1040.65 43.7904C1072.87 23.9157 1094.69 23.241 1123.08 23.0634C1146.46 22.9229 1173.25 23.287 1209.49 15.6218C1248.97 7.30447 1286.66 -7.92792 1320.84 -29.3718" stroke="url(#paint7_linear_52_812)" stroke-width="1.03189" stroke-miterlimit="10"/>
<path d="M467.769 671.816C490.749 646.89 510.714 624.471 525.036 607.063C526.837 604.86 528.722 602.852 530.507 600.865C567.987 559.486 575.868 553.992 589.878 526.81C603.455 500.418 600.468 485.251 619.996 463.512C631.429 450.972 645.623 441.263 661.456 435.155C675.788 429.504 687.031 431.16 698.465 433.377C710.773 435.741 723.06 439.446 739.887 438.645C779.912 436.801 808.289 411.231 815.264 409.767C834.913 392.126 844.472 369.413 848.343 348.93C851.753 330.672 850.962 314.684 851.133 306.873C852.794 232.971 801.226 209.532 821.512 166.823C830.82 147.268 850.734 133.975 865.702 125.434C868.752 123.701 871.555 122.18 873.956 120.879C906.703 103.184 925.548 109.4 960.796 95.9792C990.614 84.6629 998.003 69.9486 1015.2 54.6691C1021.64 49.0017 1028.62 43.9822 1036.05 39.6833C1068.68 20.4156 1091.57 20.5437 1120.43 21.2157C1144.25 21.7667 1171.32 22.7903 1207.76 15.1517C1236 9.22451 1274.87 -2.67362 1319.33 -31.6614" stroke="url(#paint8_linear_52_812)" stroke-width="1.03189" stroke-miterlimit="10"/>
<path d="M467.453 673.329C490.823 648.372 511.136 626.818 525.579 610.655C527.469 608.553 529.407 606.624 531.191 604.637C570.279 564.541 579.293 559.755 593.092 533.354C606.89 506.952 603.313 491.583 623.094 469.539C634.561 456.892 648.879 447.163 664.86 441.16C679.445 435.615 690.71 437.441 702.195 439.942C714.446 442.596 726.832 446.554 743.849 445.764C784.65 443.747 813.45 416.753 819.381 414.887C839.111 396.234 847.801 372.18 850.902 350.747C853.669 331.592 852.109 314.791 851.901 306.683C849.166 229.127 795.019 204.731 814.178 161.15C823.054 140.946 843.253 127.532 858.242 119.091C861.319 117.364 864.158 115.864 866.633 114.537C899.997 96.9105 918.857 104.282 954.97 91.2681C985.626 80.2164 992.825 65.56 1010.35 50.3863C1016.91 44.7459 1024.03 39.7934 1031.6 35.6066C1064.68 16.9617 1088.59 17.9137 1117.93 19.409C1142.19 20.6514 1169.53 22.3347 1206.18 14.7227C1234.49 8.83777 1273.54 -3.4347 1317.95 -33.9574" stroke="url(#paint9_linear_52_812)" stroke-width="1.03189" stroke-miterlimit="10"/>
<path d="M467.146 674.836C490.911 649.889 511.551 629.169 526.102 614.235C528.072 612.217 530.052 610.352 531.952 608.539C572.606 569.594 582.711 565.522 596.287 539.885C610.581 512.924 606.134 497.929 626.157 475.563C637.662 462.804 652.116 453.055 668.256 447.169C683.104 441.746 694.39 443.74 705.918 446.51C718.131 449.487 730.533 453.708 747.829 452.892C789.48 450.881 820.389 424.449 823.5 420.026C839.589 397.24 851.126 374.992 853.453 352.567C855.53 332.478 853.338 314.864 852.581 306.344C845.409 225.345 788.684 199.786 806.73 155.323C815.185 134.486 835.696 120.955 850.663 112.62C853.798 110.878 856.648 109.393 859.086 108.114C893.009 90.4348 911.947 99.1251 948.929 86.4919C980.419 75.7311 987.401 61.1272 1005.26 46.0488C1011.95 40.4372 1019.21 35.5519 1026.93 31.4752C1060.43 13.4373 1085.39 15.2184 1115.18 17.5581C1139.85 19.4181 1167.53 21.8401 1204.36 14.2651C1232.73 8.43303 1271.98 -4.26647 1316.34 -36.2662" stroke="url(#paint10_linear_52_812)" stroke-width="1.03189" stroke-miterlimit="10"/>
<path d="M466.83 676.347C490.955 651.322 511.989 631.573 526.676 617.874C528.735 615.956 530.757 614.154 532.726 612.41C574.961 574.675 586.152 571.273 599.511 546.442C614.201 519.082 608.941 504.307 629.287 481.636C640.842 468.778 655.428 459.012 671.718 453.226C686.809 447.961 698.11 450.082 709.653 453.116C721.856 456.42 734.263 460.889 751.802 460.025C794.281 457.921 824.048 428.227 827.638 425.177C849.504 406.542 854.454 377.826 855.959 354.44C856.758 338.292 855.851 322.105 853.254 306.148C841.701 221.827 782.356 194.973 799.354 149.585C807.372 128.126 828.178 114.421 843.161 106.213C846.322 104.476 849.225 103.002 851.626 101.77C886.15 84.1706 905.145 94.0794 942.981 81.7688C975.299 71.3253 982.065 56.7053 1000.27 41.7644C1007.08 36.1814 1014.49 31.3683 1022.36 27.4128C1056.3 9.9714 1082.3 12.6608 1112.55 15.7658C1137.71 18.4226 1165.6 21.4093 1202.64 13.8345C1231.08 8.04467 1270.5 -5.01862 1314.83 -38.5321" stroke="url(#paint11_linear_52_812)" stroke-width="1.03189" stroke-miterlimit="10"/>
<path d="M466.515 677.86C491.056 652.946 512.432 634.02 527.229 621.481C576.198 579.997 588.975 578.121 602.724 552.985C617.763 525.461 611.823 510.592 632.327 487.609C643.92 474.639 658.637 464.848 675.08 459.168C706.496 448.777 720.939 468.908 755.774 467.16C799.076 464.987 828.935 433.406 831.766 430.312C869.552 389.186 857.631 325.599 854.042 305.853C838.173 218.373 776.124 190.097 791.962 143.86C801.156 117.026 830.318 102.354 844.229 95.3846C879.307 77.7597 898.38 88.9186 937.081 77.015C980.705 63.6183 978.368 42.6967 1017.84 23.2933C1080.85 -7.59078 1119.18 29.8812 1200.88 13.4523C1229.38 7.71523 1268.99 -5.74875 1313.28 -40.7656" stroke="url(#paint12_linear_52_812)" stroke-width="1.03189" stroke-miterlimit="10"/>
<path d="M466.049 675.313C490.083 650.736 510.874 631.789 525.608 619.154C572.936 578.259 585.887 575.856 599.5 550.789C614.185 523.66 608.782 508.981 628.637 486.361C639.95 473.605 654.234 463.836 670.224 457.919C700.565 446.667 714.956 466.102 749.032 464.037C791.205 461.61 820.488 431.463 824.015 428.18C857.06 397.54 853.206 347.454 850.304 321.289C849.719 315.945 848.932 311.535 848.492 308.264C835.779 223.915 776.551 196.481 792.831 151.937C802.573 125.378 832.104 110.781 846.501 103.374C859.673 96.5548 874.04 92.3491 888.811 90.9882C903.592 89.1725 918.135 88.5434 937.959 81.3631C944.027 79.1537 949.146 76.7535 953.726 74.5743C981.494 61.3782 985.271 45.8692 1019.41 30.9915C1032.6 25.2083 1046.68 21.7068 1061.04 20.6363C1099.93 17.6048 1136.63 34.309 1194.38 25.9055C1197.77 25.4165 1201.25 24.8187 1204.83 24.1119C1233.7 18.4754 1274.1 5.10186 1319.27 -30.1356" stroke="url(#paint13_linear_52_812)" stroke-width="1.03189" stroke-miterlimit="10"/>
<path d="M465.592 672.763C489.056 648.565 509.419 629.697 524.022 616.831C569.687 576.562 582.745 573.631 596.273 548.574C610.715 521.973 605.655 507.225 624.903 485.17C635.941 472.611 649.796 462.845 665.335 456.674C694.606 444.671 708.929 463.215 742.294 460.938C783.28 458.135 812.946 430.52 816.242 426.066C842.344 391 846.142 348.501 844.289 323.26C843.909 318.122 843.185 313.875 842.835 310.773C833.178 229.508 776.956 202.952 793.613 160.075C803.819 133.87 833.788 119.279 848.681 111.45C861.898 104.489 876.22 99.8691 891.013 97.7934C905.611 95.3235 919.754 93.7498 938.74 85.7563C944.655 83.2831 949.595 80.5452 954.175 78.366C981.865 65.2225 986.477 51.898 1020.9 38.7771C1034.36 33.7012 1048.54 30.7747 1062.91 30.1048C1100.74 27.7791 1138.99 44.8909 1198.09 36.5942C1201.52 36.0913 1205.07 35.5146 1208.7 34.8325C1237.92 29.3071 1279.11 16.024 1325.19 -19.4288" stroke="url(#paint14_linear_52_812)" stroke-width="1.03189" stroke-miterlimit="10"/>
<path d="M465.127 670.216C488.032 646.413 507.899 627.555 522.328 614.462C566.379 574.856 579.542 571.329 592.975 546.336C607.116 520.208 602.5 505.509 621.199 483.864C631.968 471.529 645.405 461.808 660.491 455.441C688.618 442.783 702.953 460.383 735.563 457.831C775.405 454.716 804.885 429.121 808.513 423.966C828.467 394.96 838.88 360.455 838.302 325.254C838.128 320.322 837.483 316.228 837.196 313.29C830.648 235.255 777.347 209.383 794.335 168.205C805.058 142.296 835.438 127.773 850.806 119.491C864.088 112.411 878.367 107.387 893.155 104.59C907.6 101.445 921.349 98.9003 939.471 90.157C945.244 87.3672 949.999 84.3179 954.58 82.1387C982.248 69.0321 987.586 57.8974 1022.29 46.5753C1036.02 42.2359 1050.29 39.8771 1064.68 39.5702C1101.53 38.0611 1141.3 55.3696 1201.69 47.3063C1205.17 46.8244 1208.76 46.253 1212.48 45.5921C1242.03 40.162 1284.03 26.9588 1330.99 -8.7147" stroke="url(#paint15_linear_52_812)" stroke-width="1.03189" stroke-miterlimit="10"/>
<path d="M464.679 667.682C487.003 644.243 506.401 625.4 520.745 612.111C563.181 573.168 576.467 569.035 589.731 544.131C603.545 518.473 599.455 503.811 617.468 482.646C627.949 470.475 640.954 460.733 655.579 454.095C682.657 440.65 696.908 457.437 728.791 454.615C767.574 451.315 794.242 424.62 800.759 421.815C829.751 392.775 832.135 350.691 832.306 327.187C832.347 322.477 831.776 318.563 831.652 315.698C828.214 240.827 777.908 215.749 795.232 176.311C806.503 150.677 837.237 136.239 853.117 127.525C866.469 120.313 880.709 114.879 895.472 111.363C909.781 107.532 923.077 104.033 940.392 94.5237C946.018 91.4436 950.579 88.067 955.191 85.8667C982.827 72.7812 988.933 63.8995 1023.97 54.2499C1038.82 50.1714 1052.65 49.2884 1066.77 48.9437C1102.6 48.1509 1143.92 65.8934 1205.62 57.9C1209.12 57.4428 1212.77 56.882 1216.56 56.2176C1246.49 50.904 1289.27 37.7913 1337.12 1.89708" stroke="url(#paint16_linear_52_812)" stroke-width="1.03189" stroke-miterlimit="10"/>
<path d="M464.2 665.144C485.918 642.131 504.893 623.272 519.254 609.836C560.054 571.593 573.33 566.827 586.636 541.986C600.101 516.765 596.439 502.23 613.918 481.465C624.101 469.496 636.668 459.783 650.817 452.945C676.871 438.993 691.013 454.688 722.142 451.591C759.669 447.846 785.583 422.453 793.065 419.691C821.47 391.933 825.133 351.807 826.353 329.159C826.6 324.654 826.108 320.893 826.111 318.15C825.786 246.483 778.512 222.152 796.109 184.429C807.928 159.07 839.042 144.722 855.381 135.566C872.016 126.235 885.36 122.087 897.759 118.132C911.931 113.616 926.302 111.182 941.278 98.9124C945.68 95.2469 950.52 92.1422 955.687 89.6697C983.308 76.5947 990.098 69.9079 1025.52 62.0362C1040.34 58.7331 1054.32 58.4567 1068.78 58.3866C1103.57 58.2628 1146.4 76.3918 1209.45 68.5737C1213.01 68.1272 1216.71 67.5822 1220.56 66.939C1250.83 61.7206 1294.4 48.6983 1343.16 12.5887" stroke="url(#paint17_linear_52_812)" stroke-width="1.03189" stroke-miterlimit="10"/>
<path d="M463.728 662.582C484.938 639.906 503.381 621.104 517.562 607.536C556.838 569.988 570.204 564.568 583.394 539.758C596.584 514.949 593.375 500.546 610.195 480.197C624.855 462.473 640.926 453.496 645.996 451.607C673.071 441.591 685.055 451.778 715.446 448.395C751.813 444.348 776.971 420.189 785.36 417.486C813.152 391.003 818.122 352.909 820.417 331.053C820.853 326.765 820.44 323.157 820.543 320.53C823.333 252.068 779.17 228.5 796.997 192.428C809.396 167.323 840.842 153.096 857.683 143.492C874.524 133.888 887.794 129.354 900.078 124.814C914.098 119.622 928.417 116.287 942.176 103.182C946.299 99.1843 951.036 95.8715 956.205 93.3693C983.794 80.3154 991.283 75.8129 1027.06 69.7139C1041.87 67.1756 1055.96 67.5534 1070.62 67.7578C1104.32 68.1814 1148.76 86.8131 1213.15 79.181C1216.75 78.752 1220.5 78.2177 1224.42 77.5781C1255.05 72.4603 1299.41 59.5285 1349.06 23.2141" stroke="url(#paint18_linear_52_812)" stroke-width="1.03189" stroke-miterlimit="10"/>
<path d="M463.294 660.081C483.903 637.737 501.85 618.945 515.973 605.256C553.697 568.465 567.106 562.355 580.201 537.608C593.043 513.305 590.314 498.902 606.527 478.98C620.68 461.593 635.986 452.394 641.089 450.415C667.409 440.261 678.983 449.007 708.651 445.329C743.869 440.996 768.187 418.081 777.589 415.458C804.794 390.256 811.096 354.337 814.387 333.12C814.741 329.789 814.924 326.443 814.935 323.094C820.807 257.857 779.814 235.036 797.766 200.663C810.772 175.816 842.56 161.727 859.866 151.654C876.527 141.986 890.094 136.867 902.267 131.715C916.151 125.837 930.344 121.489 942.953 107.687C946.806 103.338 951.472 99.7839 956.688 97.2254C984.272 84.1979 992.424 81.8587 1028.6 77.5534C1043.4 75.7694 1057.55 76.7908 1072.53 77.2909C1105.23 78.3781 1151.18 97.3806 1216.89 89.9344C1220.53 89.523 1224.34 88.9993 1228.32 88.3632C1259.27 83.3776 1304.46 70.5152 1355 33.9696" stroke="url(#paint19_linear_52_812)" stroke-width="1.03189" stroke-miterlimit="10"/>
<path d="M462.856 657.566C482.917 635.633 500.41 616.915 514.396 602.951C550.532 566.897 563.994 560.111 577.073 535.376C589.603 511.531 587.349 497.224 602.95 477.755C616.692 460.641 631.153 451.272 636.351 449.162C661.901 438.812 673.16 446.123 702.038 442.217C736.096 437.583 759.679 415.864 769.935 413.289C796.538 389.379 804.035 355.497 808.523 335.083C809.011 331.919 809.322 328.73 809.456 325.532C818.452 263.516 780.65 241.473 798.705 208.767C812.307 184.164 844.401 170.191 862.192 159.68C878.933 149.823 892.579 144.24 904.627 138.487C918.904 131.584 932.128 122.687 943.902 112.062C949.001 107.642 952.761 103.131 957.242 100.904C984.804 87.9133 993.597 87.7057 1030.17 85.21C1044.9 84.2065 1059.23 85.8663 1074.51 86.6199C1106.16 88.223 1153.66 107.77 1220.77 100.468C1224.44 100.065 1228.32 99.5575 1232.39 98.9338C1263.73 94.0699 1309.71 81.2557 1361.08 44.521" stroke="url(#paint20_linear_52_812)" stroke-width="1.03189" stroke-miterlimit="10"/>
<path d="M461.977 654.22C481.478 632.682 498.481 613.947 512.372 599.841C546.903 564.604 560.419 557.143 573.277 532.486C585.511 509.089 583.705 494.872 598.699 475.83C611.87 459.096 625.625 449.488 630.908 447.231C655.688 436.616 666.563 442.629 694.75 438.406C727.632 433.48 750.449 412.979 761.613 410.464C787.66 387.814 796.311 356.179 801.921 336.321C802.546 333.326 802.994 330.297 803.265 327.25C815.259 268.539 780.816 247.185 798.934 216.151C813.162 191.77 845.531 177.934 863.824 166.976C880.602 156.934 894.343 150.876 906.265 144.522C919.859 137.282 931.045 128.311 944.176 115.67C949.144 110.88 952.709 106.11 957.226 103.973C984.757 91.0034 994.207 92.9168 1031.21 92.2624C1045.89 92.0185 1060.33 94.3166 1075.92 95.3658C1106.52 97.4426 1155.56 117.535 1223.96 110.476C1227.68 110.1 1231.6 109.598 1235.74 108.99C1267.4 104.19 1314.14 91.5291 1366.47 54.5475" stroke="url(#paint21_linear_52_812)" stroke-width="1.03189" stroke-miterlimit="10"/>
<path d="M458.192 646.849C477.123 625.69 493.672 607.028 507.432 592.69C540.512 558.189 554.028 549.974 566.844 525.46C578.766 502.521 577.414 488.368 591.811 469.768C604.476 453.371 617.461 443.568 622.844 441.152C646.833 430.242 657.362 434.978 684.81 430.469C716.569 425.331 738.557 405.953 750.665 403.517C776.015 382.085 782.697 351.235 792.72 333.443C793.299 329.952 793.882 327.051 794.454 324.889C809.504 269.467 778.399 248.771 796.547 219.43C811.44 195.292 844.082 181.594 862.85 170.183C879.665 159.956 893.502 153.424 905.319 146.499C918.777 138.574 929.489 128.41 941.771 115.283C946.608 110.124 949.978 105.095 954.49 102.984C982.005 90.0254 992.044 93.9913 1029.5 95.252C1044.13 95.7253 1058.68 98.6777 1074.6 100.038C1104.14 102.563 1154.74 123.242 1224.48 116.369C1228.23 115.989 1232.21 115.505 1236.41 114.914C1268.39 110.136 1315.97 97.534 1369.09 60.2999" stroke="url(#paint22_linear_52_812)" stroke-width="1.03189" stroke-miterlimit="10"/>
<path d="M454.891 640.135C473.299 619.323 489.384 600.72 503.034 586.181C534.61 552.475 548.18 543.448 560.779 518.986C572.4 496.522 571.501 482.433 585.276 464.27C597.444 448.226 609.702 438.29 615.158 435.642C638.352 424.393 648.528 427.879 675.302 423.042C705.9 417.534 727.117 399.468 740.148 397.081C764.948 377.02 772.546 347.959 783.956 331.118C784.509 328.386 785.225 325.69 786.1 323.044C804.138 270.912 776.524 250.999 794.601 223.235C810.175 199.33 843.06 185.791 862.292 173.91C879.171 163.504 893.103 156.497 904.757 148.95C918.079 140.339 928.312 128.94 939.814 115.327C944.493 109.794 947.694 104.512 952.259 102.48C979.737 89.5685 990.439 95.6291 1028.3 98.7416C1042.83 99.9744 1057.55 103.523 1073.73 105.227C1102.21 108.167 1154.37 129.475 1225.44 122.804C1229.29 122.534 1233.28 121.978 1237.54 121.381C1269.93 116.809 1318.21 104.266 1372.36 66.8955" stroke="url(#paint23_linear_52_812)" stroke-width="1.03189" stroke-miterlimit="10"/>
<path d="M451.672 633.369C469.494 612.947 485.131 594.39 498.617 579.64C528.72 546.777 542.196 537.059 554.769 512.591C566.078 490.586 565.633 476.56 578.811 458.84C590.505 443.112 602.803 434.268 607.518 430.195C626.57 413.684 639.75 420.86 665.711 415.764C695.071 409.938 715.585 393.116 729.549 390.793C753.762 372.013 762.287 344.825 775.162 328.882C775.838 326.301 776.686 323.767 777.701 321.3C798.722 272.482 774.62 253.317 792.701 227.104C808.949 203.458 842.071 190.035 861.805 177.707C878.737 167.105 892.738 159.619 904.277 151.486C917.462 142.189 927.164 129.545 937.891 115.42C942.427 109.501 945.439 104.002 949.941 101.876C977.413 88.9905 988.746 97.0982 1027.02 102.131C1041.56 104.039 1056.35 108.273 1072.88 110.268C1100.25 113.628 1154.03 135.55 1226.49 129.144C1230.32 128.789 1234.42 128.347 1238.79 127.817C1271.52 123.355 1320.65 110.955 1375.65 73.3171" stroke="url(#paint24_linear_52_812)" stroke-width="1.03189" stroke-miterlimit="10"/>
<path d="M448.409 626.608C465.619 606.502 480.828 588.093 494.209 573.116C522.84 541.095 536.279 530.601 548.746 506.181C559.755 484.651 559.806 470.752 572.266 453.326C583.468 437.925 595.097 429.001 599.796 424.665C617.989 407.994 630.89 413.756 656.13 408.364C684.376 402.342 704.077 386.632 718.959 384.384C742.559 366.88 752.126 341.534 766.266 326.599C767.063 324.164 768.044 321.794 769.201 319.508C793.161 274.011 772.666 255.53 790.545 231.005C807.569 207.597 840.865 194.332 861.048 181.545C878.043 170.765 892.129 162.788 903.541 154.054C916.59 144.071 925.739 130.15 935.776 115.639C940.134 109.313 942.988 103.577 947.484 101.477C974.925 88.613 986.909 98.731 1025.65 105.669C1040.14 108.294 1055.03 113.166 1071.89 115.499C1098.27 119.169 1153.53 141.815 1227.26 135.485C1231.15 135.169 1235.28 134.705 1239.65 134.094C1272.74 129.717 1322.64 117.418 1378.54 79.5488" stroke="#DDFA69" stroke-width="1.03189" stroke-miterlimit="10"/>
<path d="M445.158 619.863C461.803 600.248 476.553 581.801 489.802 566.591C517.029 535.413 530.354 524.128 542.736 499.787C553.449 478.705 553.885 464.801 565.801 447.897C576.497 432.833 587.456 423.829 592.155 419.219C609.42 402.32 622.122 406.753 646.613 401.059C673.694 394.761 692.618 380.254 708.433 378.07C731.447 361.847 741.893 338.406 757.499 324.37C758.424 322.084 759.541 319.881 760.839 317.785C787.602 275.609 770.909 257.933 788.592 234.932C806.274 211.931 839.792 198.587 860.497 185.384C877.54 174.435 891.721 165.983 903.039 156.627C915.936 145.969 924.596 130.865 933.852 115.8C938.031 109.068 940.748 103.126 945.218 101.021C972.638 88.1935 985.269 100.28 1024.37 109.238C1038.84 112.543 1053.83 118.054 1071.01 120.74C1096.32 124.716 1153.16 148.076 1228.25 142.021C1232.16 141.708 1236.33 141.216 1240.83 140.709C1274.28 136.528 1324.99 124.309 1381.73 86.1554" stroke="#DDFA69" stroke-width="1.03189" stroke-miterlimit="10"/>
<path d="M441.912 613.136C458.035 593.868 472.3 575.515 485.428 560.089C511.156 529.817 524.455 517.704 536.732 493.41C547.133 472.786 548.064 458.941 559.368 442.559C569.59 427.81 579.879 418.727 584.562 413.853C600.967 396.795 613.376 399.824 637.16 393.824C663.07 387.277 681.197 373.94 697.914 371.841C720.335 356.926 731.724 335.348 748.732 322.252C749.798 320.107 751.05 318.059 752.472 316.132C782.175 277.139 769.195 260.374 786.655 238.892C805.239 216.045 838.819 203.002 859.963 189.256C877.064 178.154 891.33 169.212 902.491 159.275C915.251 147.931 923.274 131.492 931.892 116.052C935.85 108.85 938.446 102.761 942.926 100.671C970.32 87.8385 983.609 101.909 1023.12 112.856C1037.54 116.852 1052.65 122.907 1070.14 126.052C1094.4 130.311 1152.77 154.405 1229.21 148.552C1233.17 148.25 1237.42 147.829 1241.96 147.288C1275.73 143.102 1327.24 130.989 1384.92 92.6839" stroke="#DDFA69" stroke-width="1.03189" stroke-miterlimit="10"/>
<path d="M438.637 606.361C454.189 587.472 468.011 569.209 480.997 553.535C505.311 524.158 518.531 511.206 530.676 486.955C540.787 466.821 542.13 453.045 552.869 437.084C560.033 426.836 568.068 417.225 576.886 408.361C592.443 391.159 604.557 392.785 627.608 386.473C652.348 379.678 669.824 367.526 687.385 365.46C709.183 351.805 721.551 332.111 739.95 319.939C741.156 317.944 742.544 316.065 744.096 314.326C776.529 278.68 767.482 262.747 784.676 242.789C804.104 220.248 837.527 206.9 859.383 193.091C876.748 182.111 890.872 172.372 901.933 161.839C914.509 149.841 921.975 132.083 929.923 116.219C933.718 108.67 936.151 102.3 940.615 100.221C967.987 87.4257 981.944 103.427 1021.86 116.389C1036.23 121.061 1051.45 127.796 1069.26 131.268C1092.45 135.806 1152.38 160.651 1230.17 155C1234.12 154.655 1238.45 154.306 1243.06 153.778C1277.2 149.724 1329.5 137.686 1388.07 99.1598" stroke="#DDFA69" stroke-width="1.03189" stroke-miterlimit="10"/>
<path d="M435.372 599.601C450.434 581.038 463.759 562.922 476.608 547.042C499.529 518.593 512.644 504.797 524.7 480.582C534.477 460.944 536.279 447.205 546.406 431.697C553.255 421.511 560.872 411.862 569.189 402.835C583.949 385.502 595.727 385.73 618.025 379.074C641.615 372.061 658.204 361.048 676.794 359.051C698.015 346.693 711.325 328.862 731.111 317.641C732.465 315.798 733.985 314.084 735.652 312.518C770.856 280.077 765.765 265.076 782.656 246.621C802.975 224.424 836.451 211.155 858.777 196.851C876.194 185.675 890.398 175.472 901.333 164.338C913.804 151.633 920.601 132.63 927.928 116.312C931.486 108.372 933.813 101.776 938.262 99.7072C965.629 86.9379 980.253 104.87 1020.54 119.869C1034.9 125.211 1050.22 132.542 1068.32 136.415C1090.49 141.174 1151.95 166.806 1231.11 161.362C1235.13 161.086 1239.5 160.689 1244.18 160.177C1278.68 156.208 1331.8 144.239 1391.23 105.529" stroke="#DDFA69" stroke-width="1.03189" stroke-miterlimit="10"/>
<path d="M432.096 592.851C446.535 574.726 459.513 556.636 472.172 540.472C493.641 512.964 506.715 498.282 518.649 474.125C528.147 454.925 530.339 441.223 539.901 426.205C546.484 416.154 553.721 406.548 561.566 397.448C575.556 379.987 586.977 378.785 608.494 371.849C630.929 364.576 646.72 354.734 666.254 352.817C686.863 341.734 701.125 325.782 722.339 315.507C723.836 313.812 725.489 312.261 727.276 310.875C765.23 281.607 764.12 267.681 780.699 250.644C801.92 228.807 835.437 215.601 858.212 200.77C875.677 189.426 889.977 178.748 900.786 167.012C913.12 153.621 919.28 133.352 925.969 116.59C929.295 108.233 931.533 101.468 935.961 99.3678C963.296 86.6196 978.647 106.467 1019.29 123.513C1033.61 129.519 1049.08 137.388 1067.44 141.737C1088.63 146.669 1151.5 173.067 1232.07 167.893C1236.13 167.639 1240.56 167.253 1245.31 166.74C1280.15 162.866 1334.03 151.025 1394.36 112.015" stroke="#DDFA69" stroke-width="1.03189" stroke-miterlimit="10"/>
<path d="M428.832 586.091C442.69 568.329 455.304 550.345 467.742 533.916C487.918 507.315 500.777 491.793 512.616 467.7C521.828 448.963 524.469 435.352 533.397 420.755C539.677 410.777 546.523 401.166 553.902 391.97C567.122 374.382 578.164 371.787 599.001 364.481C620.286 356.991 635.285 348.292 655.742 346.424C675.764 336.623 690.98 322.549 713.575 313.183C715.268 311.698 717.053 310.321 718.917 309.058C757.946 280.513 762.535 270.105 778.749 254.477C800.934 233.094 834.657 220.162 857.66 204.54C874.961 192.779 889.573 181.849 900.255 169.511C912.454 155.435 917.934 133.904 924.028 116.694C927.122 107.92 929.255 100.927 933.677 98.8536C960.996 86.116 977.052 107.848 1018.02 126.961C1032.33 133.637 1047.89 142.087 1066.59 146.889C1086.71 152.057 1151.21 179.291 1233.01 174.308C1237.13 174.066 1241.59 173.692 1246.4 173.187C1281.61 169.455 1336.29 157.679 1397.53 118.496" stroke="#DDFA69" stroke-width="1.03189" stroke-miterlimit="10"/>
<path d="M425.583 579.346C438.881 561.979 451.089 544.105 463.348 527.407C482.193 501.759 494.884 485.367 506.607 461.305C515.518 443.043 518.586 429.49 526.934 415.325C534.648 402.199 541.725 392.923 546.241 386.492C558.728 368.797 569.382 364.794 589.454 357.129C607.649 350.253 626.269 344.557 645.198 340.078C665.753 334.855 687.015 329.116 704.772 310.931C706.477 309.42 708.414 308.193 710.509 307.297C753.942 284.205 760.922 272.619 776.765 258.356C799.973 237.481 833.617 224.464 857.089 208.347C874.513 196.391 889.135 184.996 899.702 172.073C911.696 157.242 916.555 134.503 922.053 116.843C924.9 107.663 926.954 100.449 931.386 98.3914C958.669 85.7012 975.472 109.311 1016.72 130.524C1031.02 137.87 1046.69 146.837 1065.65 152.13C1084.61 157.424 1150.77 185.413 1233.93 180.801C1238.05 180.546 1242.64 180.166 1247.48 179.712C1283.04 176.065 1338.5 164.389 1400.66 124.98" stroke="#DDFA69" stroke-width="1.03189" stroke-miterlimit="10"/>
<path d="M422.314 572.589C435.042 555.601 446.933 537.938 458.918 520.828C476.417 496.144 488.946 478.856 500.548 454.852C509.237 437.011 512.668 423.559 520.404 409.847C527.616 397.031 534.177 387.665 538.572 381.018C550.341 363.206 560.585 357.831 579.909 349.796C598.889 341.897 612.818 338.662 634.633 333.72C654.291 329.277 671.749 319.33 695.976 308.673C698.203 307.694 700.098 306.388 702.098 305.515C748.292 285.474 759.321 275.168 774.772 262.239C799.04 241.961 832.574 228.744 856.495 212.169C873.982 200.033 888.689 188.148 899.151 174.655C911.05 159.202 915.183 135.164 920.09 117.029C922.69 107.443 924.728 99.9651 929.082 97.9597C956.332 85.2906 973.909 110.784 1015.53 134.103C1029.83 142.108 1045.61 151.549 1064.85 157.391C1082.96 162.884 1150.48 191.682 1234.97 187.282C1239.14 187.038 1243.72 186.71 1248.69 186.241C1284.58 182.689 1340.85 171.093 1403.88 131.49" stroke="#DDFA69" stroke-width="1.03189" stroke-miterlimit="10"/>
<path d="M419.141 565.79C431.3 549.182 442.805 531.592 454.622 514.297C470.817 490.572 483.183 472.455 494.637 448.435C502.962 431.111 506.9 417.665 514.028 404.379C520.745 391.917 526.735 382.518 531.031 375.549C542.099 357.61 551.932 350.863 570.497 342.442C588.333 334.369 601.348 331.855 624.155 327.304C642.963 323.609 661.258 315.573 687.239 306.352C689.545 305.527 691.646 304.426 693.772 303.674C742.748 286.648 755.926 274.73 772.866 266.065C801.637 251.173 829.401 234.412 855.981 215.89C873.542 203.591 888.318 191.226 898.681 177.069C910.443 160.929 913.865 135.651 918.161 117.078C920.497 107.096 922.419 99.4439 926.81 97.3911C954.056 84.7483 972.379 112.121 1014.26 137.438C1028.55 146.087 1044.48 155.982 1063.97 162.41C1081.08 168.044 1150.08 197.746 1235.9 193.531C1240.12 193.309 1244.7 193.023 1249.78 192.522C1286.05 189.087 1343.1 177.592 1407.02 137.742" stroke="#DDFA69" stroke-width="1.03189" stroke-miterlimit="10"/>
<path d="M416.957 560.826C428.546 544.597 439.719 527.159 451.346 509.511C466.274 486.766 478.351 467.699 489.821 443.737C497.902 426.94 502.215 413.473 508.757 400.646C514.956 388.505 520.393 379.063 524.589 371.841C535.013 353.76 544.389 345.672 562.195 336.865C578.902 328.606 590.999 326.703 614.887 322.781C632.887 319.829 652.04 313.598 679.729 305.914C682.14 305.246 684.388 304.368 686.667 303.742C738.436 289.678 756.121 279.832 772.159 271.767C801.501 257.062 829.753 240.275 856.698 221.536C874.306 209.068 889.167 196.213 899.341 181.496C910.962 164.629 913.689 138.168 917.526 119.146C919.583 108.779 921.384 100.911 925.833 98.842C953.057 86.2361 972.175 115.455 1014.32 142.899C1028.64 152.223 1044.73 162.508 1064.42 169.554C1080.57 175.324 1151.04 205.923 1238.21 201.911C1242.46 201.71 1247.16 201.393 1252.25 200.933C1288.87 197.61 1346.72 186.194 1411.53 146.139" stroke="url(#paint25_linear_52_812)" stroke-width="1.03189" stroke-miterlimit="10"/>
<path d="M416.173 557.898C427.191 542.048 438.095 524.789 449.353 506.861C463.015 485.096 474.945 465.122 486.161 441.26C493.926 424.879 498.671 411.513 504.628 399.144C510.325 387.313 515.23 377.861 519.277 370.28C529.059 352.055 537.988 342.643 555.008 333.445C570.597 325.016 581.765 323.571 606.691 320.352C623.857 318.069 643.947 313.658 673.275 307.579C675.797 307.044 678.208 306.376 680.608 305.899C735.254 294.786 757.352 287.144 772.535 279.579C802.082 264.834 833.162 247.311 858.461 229.27C876.154 216.655 891.074 203.304 901.137 187.975C912.627 170.464 914.616 142.758 917.859 123.15C919.642 112.37 921.448 104.27 925.834 102.244C953.032 89.6328 972.95 120.741 1015.37 150.268C1029.68 160.252 1045.96 170.891 1065.84 178.617C1081.03 184.497 1152.95 216.005 1241.47 212.194C1245.76 211.988 1250.51 211.708 1255.67 211.264C1292.64 208.025 1351.27 196.711 1417.01 156.472" stroke="url(#paint26_linear_52_812)" stroke-width="1.03189" stroke-miterlimit="10"/>
<path d="M415.545 555.025C426.02 539.56 436.671 522.47 447.586 504.199C460.455 483 472.203 461.141 482.78 438.712C490.249 422.779 495.331 409.508 500.792 397.561C505.936 386.03 510.333 376.572 514.266 368.68C523.409 350.286 531.885 339.576 548.109 329.971C562.607 321.377 572.831 320.264 598.784 317.868C615.264 316.339 636.233 313.627 667.126 309.18C669.753 308.803 672.328 308.346 674.854 307.99C732.361 299.839 759.288 295.335 773.2 287.337C802.232 270.581 834.781 255.507 860.529 236.939C878.307 224.176 893.264 210.298 903.212 194.383C914.565 176.187 915.77 147.198 918.49 127.115C919.978 115.961 921.738 107.618 926.113 105.576C953.3 93.0172 973.976 126.02 1016.69 157.61C1032.37 169.658 1049.45 179.753 1067.57 187.673C1081.85 193.684 1155.19 226.095 1245.03 222.497C1249.36 222.312 1254.16 222.042 1259.4 221.599C1296.72 218.471 1356.15 207.237 1422.75 166.746" stroke="url(#paint27_linear_52_812)" stroke-width="1.03189" stroke-miterlimit="10"/>
<path d="M414.945 552.272C439.245 515.243 460.791 476.479 479.411 436.293C509.35 371.629 512.029 345.681 541.233 326.642C562.509 312.785 573.479 318.461 660.983 310.936C726.795 305.278 759.664 302.393 773.876 295.223C824.834 269.296 881.068 241.755 905.308 200.937C922.786 171.516 914.276 114.843 926.498 109.179C962.746 92.4204 989.047 160.078 1069.35 196.879C1082.73 203.011 1157.47 236.32 1248.66 232.924C1284.05 231.603 1351.57 223.642 1428.58 177.19" stroke="url(#paint28_linear_52_812)" stroke-width="1.03189" stroke-miterlimit="10"/>
</g>
<defs>
<linearGradient id="paint0_linear_52_812" x1="925.981" y1="361.033" x2="838.887" y2="230.111" gradientUnits="userSpaceOnUse">
<stop stop-color="#2F2F2F"/>
<stop offset="1" stop-color="#606060"/>
</linearGradient>
<linearGradient id="paint1_linear_52_812" x1="924.944" y1="360.33" x2="834.175" y2="223.884" gradientUnits="userSpaceOnUse">
<stop stop-color="#2F2F2F"/>
<stop offset="1" stop-color="#606060"/>
</linearGradient>
<linearGradient id="paint2_linear_52_812" x1="924.274" y1="360.319" x2="829.392" y2="217.69" gradientUnits="userSpaceOnUse">
<stop stop-color="#2F2F2F"/>
<stop offset="1" stop-color="#606060"/>
</linearGradient>
<linearGradient id="paint3_linear_52_812" x1="924.392" y1="361.543" x2="823.621" y2="210.063" gradientUnits="userSpaceOnUse">
<stop stop-color="#2F2F2F"/>
<stop offset="1" stop-color="#606060"/>
</linearGradient>
<linearGradient id="paint4_linear_52_812" x1="924.578" y1="362.721" x2="817.93" y2="202.406" gradientUnits="userSpaceOnUse">
<stop stop-color="#2F2F2F"/>
<stop offset="1" stop-color="#606060"/>
</linearGradient>
<linearGradient id="paint5_linear_52_812" x1="924.698" y1="363.944" x2="812.115" y2="194.707" gradientUnits="userSpaceOnUse">
<stop stop-color="#2F2F2F"/>
<stop offset="1" stop-color="#606060"/>
</linearGradient>
<linearGradient id="paint6_linear_52_812" x1="924.817" y1="365.168" x2="806.405" y2="187.169" gradientUnits="userSpaceOnUse">
<stop stop-color="#2F2F2F"/>
<stop offset="1" stop-color="#606060"/>
</linearGradient>
<linearGradient id="paint7_linear_52_812" x1="924.997" y1="366.347" x2="800.744" y2="179.568" gradientUnits="userSpaceOnUse">
<stop stop-color="#2F2F2F"/>
<stop offset="1" stop-color="#606060"/>
</linearGradient>
<linearGradient id="paint8_linear_52_812" x1="925.137" y1="367.557" x2="794.968" y2="171.885" gradientUnits="userSpaceOnUse">
<stop stop-color="#2F2F2F"/>
<stop offset="1" stop-color="#606060"/>
</linearGradient>
<linearGradient id="paint9_linear_52_812" x1="925.328" y1="368.733" x2="789.317" y2="164.278" gradientUnits="userSpaceOnUse">
<stop stop-color="#2F2F2F"/>
<stop offset="1" stop-color="#606060"/>
</linearGradient>
<linearGradient id="paint10_linear_52_812" x1="925.448" y1="369.955" x2="783.503" y2="156.58" gradientUnits="userSpaceOnUse">
<stop stop-color="#2F2F2F"/>
<stop offset="1" stop-color="#606060"/>
</linearGradient>
<linearGradient id="paint11_linear_52_812" x1="925.592" y1="371.161" x2="777.758" y2="148.935" gradientUnits="userSpaceOnUse">
<stop stop-color="#2F2F2F"/>
<stop offset="1" stop-color="#606060"/>
</linearGradient>
<linearGradient id="paint12_linear_52_812" x1="925.712" y1="372.384" x2="771.99" y2="141.307" gradientUnits="userSpaceOnUse">
<stop stop-color="#2F2F2F"/>
<stop offset="1" stop-color="#606060"/>
</linearGradient>
<linearGradient id="paint13_linear_52_812" x1="924.446" y1="370.369" x2="776.396" y2="147.817" gradientUnits="userSpaceOnUse">
<stop stop-color="#2F2F2F"/>
<stop offset="1" stop-color="#606060"/>
</linearGradient>
<linearGradient id="paint14_linear_52_812" x1="923.142" y1="368.383" x2="780.765" y2="154.358" gradientUnits="userSpaceOnUse">
<stop stop-color="#2F2F2F"/>
<stop offset="1" stop-color="#606060"/>
</linearGradient>
<linearGradient id="paint15_linear_52_812" x1="921.791" y1="366.426" x2="785.06" y2="160.889" gradientUnits="userSpaceOnUse">
<stop stop-color="#2F2F2F"/>
<stop offset="1" stop-color="#606060"/>
</linearGradient>
<linearGradient id="paint16_linear_52_812" x1="920.59" y1="364.392" x2="789.53" y2="167.38" gradientUnits="userSpaceOnUse">
<stop stop-color="#2F2F2F"/>
<stop offset="1" stop-color="#606060"/>
</linearGradient>
<linearGradient id="paint17_linear_52_812" x1="919.32" y1="362.38" x2="793.938" y2="173.904" gradientUnits="userSpaceOnUse">
<stop stop-color="#2F2F2F"/>
<stop offset="1" stop-color="#606060"/>
</linearGradient>
<linearGradient id="paint18_linear_52_812" x1="918.016" y1="360.371" x2="798.267" y2="180.362" gradientUnits="userSpaceOnUse">
<stop stop-color="#2F2F2F"/>
<stop offset="1" stop-color="#606060"/>
</linearGradient>
<linearGradient id="paint19_linear_52_812" x1="916.735" y1="358.434" x2="802.655" y2="186.947" gradientUnits="userSpaceOnUse">
<stop stop-color="#2F2F2F"/>
<stop offset="1" stop-color="#606060"/>
</linearGradient>
<linearGradient id="paint20_linear_52_812" x1="915.546" y1="356.419" x2="807.111" y2="193.418" gradientUnits="userSpaceOnUse">
<stop stop-color="#2F2F2F"/>
<stop offset="1" stop-color="#606060"/>
</linearGradient>
<linearGradient id="paint21_linear_52_812" x1="914.774" y1="355.21" x2="810.927" y2="199.105" gradientUnits="userSpaceOnUse">
<stop stop-color="#2F2F2F"/>
<stop offset="1" stop-color="#606060"/>
</linearGradient>
<linearGradient id="paint22_linear_52_812" x1="918.177" y1="360.395" x2="810.532" y2="198.58" gradientUnits="userSpaceOnUse">
<stop stop-color="#2F2F2F"/>
<stop offset="1" stop-color="#606060"/>
</linearGradient>
<linearGradient id="paint23_linear_52_812" x1="922.208" y1="366.418" x2="809.621" y2="197.176" gradientUnits="userSpaceOnUse">
<stop stop-color="#2F2F2F"/>
<stop offset="1" stop-color="#606060"/>
</linearGradient>
<linearGradient id="paint24_linear_52_812" x1="926.272" y1="372.3" x2="808.763" y2="195.658" gradientUnits="userSpaceOnUse">
<stop stop-color="#2F2F2F"/>
<stop offset="1" stop-color="#606060"/>
</linearGradient>
<linearGradient id="paint25_linear_52_812" x1="971.182" y1="439.075" x2="797.976" y2="178.709" gradientUnits="userSpaceOnUse">
<stop stop-color="#2F2F2F"/>
<stop offset="1" stop-color="#606060"/>
</linearGradient>
<linearGradient id="paint26_linear_52_812" x1="977.549" y1="448.818" x2="794.445" y2="173.574" gradientUnits="userSpaceOnUse">
<stop stop-color="#2F2F2F"/>
<stop offset="1" stop-color="#606060"/>
</linearGradient>
<linearGradient id="paint27_linear_52_812" x1="984.114" y1="458.544" x2="790.987" y2="168.231" gradientUnits="userSpaceOnUse">
<stop stop-color="#2F2F2F"/>
<stop offset="1" stop-color="#606060"/>
</linearGradient>
<linearGradient id="paint28_linear_52_812" x1="990.756" y1="468.446" x2="787.455" y2="162.84" gradientUnits="userSpaceOnUse">
<stop stop-color="#2F2F2F"/>
<stop offset="1" stop-color="#606060"/>
</linearGradient>
<clipPath id="clip0_52_812">
<rect width="1208" height="411" rx="40" fill="white"/>
</clipPath>
</defs>
</svg>
