<svg width="396" height="273" viewBox="0 0 396 273" fill="none" xmlns="http://www.w3.org/2000/svg">
<path d="M0 -213.907C169.335 -145.601 260.612 -55.5143 313.255 18.183C357.138 79.625 356.36 104.759 402.957 150.599C504.078 250.071 697.786 318.667 791.668 233.184C837.914 191.075 820.808 137.712 842.928 36.6913C862.828 -54.1831 914.28 -179.168 1057.93 -315" stroke="#333333" stroke-opacity="0.05" stroke-width="0.890958" stroke-miterlimit="10"/>
<path d="M0.335938 -191.869C165.042 -133.166 255.407 -48.4157 308.022 20.5553C352.293 78.6052 355.893 101.818 405.387 146.871C509.216 241.382 691.133 307.181 785.147 227.42C833.573 186.339 822.557 133.889 848.475 33.1649C871.295 -55.5113 923.797 -178.359 1064.97 -312.973" stroke="#333333" stroke-opacity="0.05" stroke-width="0.890958" stroke-miterlimit="10"/>
<path d="M0.677734 -169.834C160.752 -120.73 250.274 -41.2957 302.804 22.9277C347.554 77.6404 355.352 98.8813 407.833 143.143C514.141 232.802 684.777 295.847 778.646 221.658C829.356 181.576 824.242 130.118 854.041 29.6416C879.688 -56.8149 933.332 -177.54 1072.04 -310.93" stroke="#333333" stroke-opacity="0.05" stroke-width="0.890958" stroke-miterlimit="10"/>
<path d="M1.01367 -147.796C156.457 -108.291 245.224 -34.1543 297.58 25.3183C342.868 76.7337 354.717 95.9656 410.285 139.412C518.861 224.345 678.689 284.685 772.146 215.894C825.247 176.813 825.845 126.39 859.61 26.1152C887.965 -58.1003 942.87 -176.722 1079.09 -308.897" stroke="#333333" stroke-opacity="0.05" stroke-width="0.890958" stroke-miterlimit="10"/>
<path d="M1.35547 -125.762C152.182 -95.8619 240.284 -27.013 292.362 27.6753C338.266 75.8757 354.036 93.0772 412.712 135.684C523.368 216.013 672.826 273.706 765.624 210.13C821.223 172.041 827.338 122.687 865.158 22.5888C896.129 -59.3796 952.39 -175.907 1086.12 -306.848" stroke="#333333" stroke-opacity="0.05" stroke-width="0.890958" stroke-miterlimit="10"/>
<path d="M1.69727 -103.727C147.88 -83.4263 235.457 -19.8686 287.144 30.0477C333.763 75.0697 353.245 90.2317 415.157 131.953C527.724 207.818 667.205 262.913 759.118 204.368C817.314 167.297 828.73 119.002 870.72 19.0624C904.205 -60.6619 961.922 -175.089 1093.18 -304.83" stroke="#333333" stroke-opacity="0.05" stroke-width="0.890958" stroke-miterlimit="10"/>
<path d="M2.0332 -81.6922C143.584 -71.0061 230.758 -12.7547 281.92 32.42C329.357 74.3064 352.396 87.435 417.594 128.225C531.935 199.758 661.78 252.315 752.606 198.604C813.495 162.595 830.052 115.317 876.277 15.539C912.179 -61.9565 971.46 -174.27 1100.23 -302.793" stroke="#333333" stroke-opacity="0.05" stroke-width="0.890958" stroke-miterlimit="10"/>
<path d="M2.38477 -59.6544C139.304 -58.5583 226.222 -5.67436 276.712 34.7923C325.089 73.5676 351.514 84.6994 420.046 124.497C536.036 191.835 656.553 241.91 746.109 192.84C809.786 157.951 831.271 111.625 881.85 12.0126C920.06 -63.2663 980.977 -173.443 1107.28 -300.76" stroke="#333333" stroke-opacity="0.05" stroke-width="0.890958" stroke-miterlimit="10"/>
<path d="M2.71094 -37.6197C134.999 -46.1227 221.818 1.33877 271.478 37.1677C320.94 72.8409 350.531 82.0492 422.476 120.766C540.023 184.046 651.463 231.7 739.587 187.078C806.146 153.383 832.363 107.903 887.397 8.48623C927.857 -64.6036 990.505 -172.637 1114.35 -298.727" stroke="#333333" stroke-opacity="0.05" stroke-width="0.890958" stroke-miterlimit="10"/>
<path d="M3.04688 -15.5941C130.706 -33.6963 217.587 8.25117 266.254 39.5309C316.916 72.0899 349.52 79.4297 424.912 117.029C543.919 176.377 646.499 221.668 733.075 181.305C802.58 148.901 833.368 104.136 892.954 4.95071C935.57 -65.9835 1000.03 -171.828 1121.38 -296.702" stroke="#333333" stroke-opacity="0.05" stroke-width="0.890958" stroke-miterlimit="10"/>
<path d="M3.38867 6.45283C126.431 -21.2516 213.526 15.0658 261.039 41.9123C313.059 71.3082 348.479 76.923 427.358 113.308C547.768 168.851 641.656 211.839 726.568 175.553C799.102 144.554 834.278 100.335 898.516 1.43344C943.212 -67.3819 1009.57 -171 1128.44 -294.654" stroke="#333333" stroke-opacity="0.05" stroke-width="0.890958" stroke-miterlimit="10"/>
<path d="M3.73047 28.4875C122.126 -8.8192 209.621 21.7247 255.821 44.2845C309.349 70.4258 347.416 74.4926 429.8 109.58C551.573 161.435 636.903 202.176 720.062 169.788C795.692 140.334 835.096 96.4632 904.079 -2.09003C950.793 -68.8323 1019.1 -170.185 1135.49 -292.623" stroke="#333333" stroke-opacity="0.05" stroke-width="0.890958" stroke-miterlimit="10"/>
<path d="M4.06641 50.5253C117.83 3.61639 205.844 28.2127 250.597 46.66C305.774 69.403 346.296 72.1447 432.24 105.852C555.34 154.131 632.204 192.684 713.552 164.024C792.324 136.27 835.819 92.5216 909.636 -5.61639C958.309 -70.3283 1028.62 -169.367 1142.54 -290.59" stroke="#333333" stroke-opacity="0.05" stroke-width="0.890958" stroke-miterlimit="10"/>
<path d="M4.40234 72.56C113.538 16.0519 202.18 34.5114 245.374 49.0323C302.324 68.1787 345.169 69.8854 434.67 102.121C559.08 146.929 627.542 183.335 707.034 158.262C789.021 132.387 836.452 88.4945 915.187 -9.14278C965.781 -71.8762 1038.15 -168.558 1149.58 -288.547" stroke="#333333" stroke-opacity="0.05" stroke-width="0.890958" stroke-miterlimit="10"/>
<path d="M4.74414 94.5947C109.248 28.4844 198.596 40.6055 240.143 51.4045C298.96 66.6887 344.024 67.7115 437.109 98.3928C562.823 139.827 622.904 174.166 700.521 152.498C785.751 128.705 837.016 84.3788 920.743 -12.6784C973.203 -73.4853 1047.67 -167.743 1156.63 -286.532" stroke="#333333" stroke-opacity="0.05" stroke-width="0.890958" stroke-miterlimit="10"/>
<path d="M5.08008 116.632C104.968 40.9199 195.036 46.492 234.932 53.7768C295.659 64.8659 342.889 65.6262 439.558 94.6618C566.57 132.826 618.278 165.126 694.021 146.737C782.517 125.245 837.52 80.1776 926.312 -16.1926C980.616 -75.1309 1057.21 -166.915 1163.69 -284.487" stroke="#333333" stroke-opacity="0.05" stroke-width="0.890958" stroke-miterlimit="10"/>
<path d="M5.43555 138.667C100.676 53.3556 191.893 63.2173 229.727 56.1523C291.612 44.593 341.76 63.6295 442.017 90.934C570.342 125.89 613.627 156.22 687.513 140.972C779.288 122.043 837.958 75.8513 931.874 -19.719C987.994 -76.8315 1066.74 -166.097 1170.74 -282.441" stroke="#333333" stroke-opacity="0.05" stroke-width="0.890958" stroke-miterlimit="10"/>
<path d="M5.76367 160.702C96.3756 65.7912 188.679 66.7895 224.496 58.5246C287.272 44.0404 340.605 61.7151 444.446 87.206C574.129 119.051 608.923 147.445 681.008 135.208C776.053 119.093 838.347 71.4334 937.438 -23.2515C995.362 -78.5962 1076.27 -165.288 1177.8 -280.426" stroke="#333333" stroke-opacity="0.05" stroke-width="0.890958" stroke-miterlimit="10"/>
<path d="M6.09961 182.74C92.0799 78.2235 185.037 70.0105 219.272 60.8968C283.178 43.8876 339.463 59.8862 446.885 83.4903C577.93 112.269 604.154 138.771 674.496 129.462C772.787 116.452 838.686 66.9207 942.995 -26.7566C1002.71 -80.3855 1085.8 -164.454 1184.85 -278.371" stroke="#333333" stroke-opacity="0.05" stroke-width="0.890958" stroke-miterlimit="10"/>
<path d="M6.4375 204.774C87.7861 90.6591 179.873 68.2977 214.053 63.2692C281.378 53.3861 338.341 58.1337 449.327 79.7563C581.773 105.546 599.305 130.185 667.989 123.691C769.47 114.086 838.99 62.2616 948.559 -30.2982C1010.07 -82.2631 1095.34 -163.645 1191.9 -276.353" stroke="#333333" stroke-opacity="0.05" stroke-width="0.890958" stroke-miterlimit="10"/>
<path d="M6.77734 226.809C83.4943 103.095 175.617 73.482 208.83 65.6445C277.114 49.533 337.228 56.4606 451.764 76.0253C585.643 98.8844 594.347 121.695 661.477 117.927C766.082 112.059 839.272 57.5353 954.114 -33.8154C1017.42 -84.1713 1104.86 -162.821 1198.95 -274.31" stroke="#333333" stroke-opacity="0.05" stroke-width="0.890958" stroke-miterlimit="10"/>
<path d="M7.11523 248.847C79.2036 115.53 171.07 78.6724 203.608 68.0169C272.457 45.4601 336.134 54.8608 454.206 72.2913C589.556 92.2712 589.272 113.271 654.97 112.16C762.594 110.328 839.531 52.6808 959.676 -37.3449C1024.78 -86.1223 1114.39 -162.012 1206 -272.283" stroke="#333333" stroke-opacity="0.05" stroke-width="0.890958" stroke-miterlimit="10"/>
</svg>
