<svg width="396" height="293" viewBox="0 0 396 293" fill="none" xmlns="http://www.w3.org/2000/svg">
<path d="M-405 -227.692C-235.665 -154.643 -144.388 -58.3 -91.745 20.5152C-47.8618 86.2239 -48.6403 113.103 -2.0429 162.127C99.078 268.507 292.786 341.866 386.668 250.447C432.914 205.413 415.808 148.344 437.928 40.3088C457.828 -56.8764 509.28 -190.54 652.929 -335.806" stroke="#333333" stroke-opacity="0.05" stroke-width="0.890958" stroke-miterlimit="10"/>
<path d="M-404.664 -204.124C-239.958 -141.344 -149.593 -50.7085 -96.9781 23.0522C-52.7071 85.1333 -49.1075 109.959 0.387425 158.14C104.216 259.214 286.133 329.582 380.147 244.282C428.573 200.349 417.557 144.256 443.475 36.5375C466.295 -58.2968 518.797 -189.675 659.969 -333.637" stroke="#333333" stroke-opacity="0.05" stroke-width="0.890958" stroke-miterlimit="10"/>
<path d="M-404.322 -180.559C-244.248 -128.045 -154.726 -43.094 -102.196 25.5893C-57.4458 84.1015 -49.648 106.817 2.8329 154.153C109.141 250.039 279.777 317.462 373.646 238.121C424.356 195.255 419.242 140.224 449.041 32.7695C474.688 -59.691 528.332 -188.8 667.037 -331.453" stroke="#333333" stroke-opacity="0.05" stroke-width="0.890958" stroke-miterlimit="10"/>
<path d="M-403.986 -156.99C-248.543 -114.742 -159.776 -35.4567 -107.42 28.146C-62.1323 83.1318 -50.283 103.699 5.2847 150.163C113.861 240.994 273.689 305.524 367.146 231.956C420.247 190.162 420.845 136.237 454.61 28.9982C482.965 -61.0656 537.87 -187.925 674.087 -329.278" stroke="#333333" stroke-opacity="0.05" stroke-width="0.890958" stroke-miterlimit="10"/>
<path d="M-403.645 -133.426C-252.818 -101.45 -164.716 -27.8195 -112.638 30.6666C-66.7336 82.2142 -50.964 100.61 7.71175 146.176C118.368 232.083 267.826 293.782 360.624 225.791C416.223 185.058 422.338 132.276 460.158 25.2269C491.129 -62.4338 547.39 -187.053 681.125 -327.087" stroke="#333333" stroke-opacity="0.05" stroke-width="0.890958" stroke-miterlimit="10"/>
<path d="M-403.303 -109.861C-257.12 -88.1504 -169.543 -20.1789 -117.856 33.2037C-71.2372 81.3523 -51.7549 97.5672 10.1572 142.186C122.724 223.32 262.205 282.24 354.118 219.63C412.314 179.984 423.73 128.335 465.72 21.4556C499.205 -63.8051 556.922 -186.178 688.18 -324.929" stroke="#333333" stroke-opacity="0.05" stroke-width="0.890958" stroke-miterlimit="10"/>
<path d="M-402.967 -86.2958C-261.416 -74.8676 -174.242 -12.571 -123.08 35.7408C-75.6428 80.536 -52.6036 94.5764 12.5938 138.199C126.935 214.7 256.78 270.907 347.606 213.465C408.495 174.956 425.052 124.394 471.277 17.6876C507.179 -65.1896 566.46 -185.303 695.227 -322.751" stroke="#333333" stroke-opacity="0.05" stroke-width="0.890958" stroke-miterlimit="10"/>
<path d="M-402.615 -62.7275C-265.696 -61.5553 -178.778 -4.99891 -128.288 38.278C-79.9107 79.7459 -53.4855 91.6508 15.0459 134.213C131.036 206.226 251.553 259.779 341.109 207.301C404.786 169.989 426.271 120.447 476.85 13.9164C515.06 -66.5903 575.977 -184.418 702.28 -320.577" stroke="#333333" stroke-opacity="0.05" stroke-width="0.890958" stroke-miterlimit="10"/>
<path d="M-402.289 -39.1626C-270.001 -48.2562 -183.182 2.50123 -133.522 40.8183C-84.0604 78.9688 -54.4691 88.8166 17.4757 130.223C135.023 197.897 246.463 248.86 334.587 201.139C401.146 165.105 427.363 116.466 482.397 10.145C522.857 -68.0204 585.505 -183.556 709.348 -318.402" stroke="#333333" stroke-opacity="0.05" stroke-width="0.890958" stroke-miterlimit="10"/>
<path d="M-401.953 -15.6075C-274.294 -34.9669 -187.413 9.89363 -138.746 43.3455C-88.0844 78.1656 -55.4797 86.0151 19.9122 126.226C138.919 189.695 241.499 238.131 328.075 194.965C397.58 160.311 428.368 112.437 487.954 6.36398C530.57 -69.4963 595.034 -182.691 716.38 -316.237" stroke="#333333" stroke-opacity="0.05" stroke-width="0.890958" stroke-miterlimit="10"/>
<path d="M-401.611 7.97041C-278.569 -21.658 -191.474 17.1815 -143.961 45.8924C-91.9408 77.3297 -56.521 83.3343 22.3576 122.246C142.768 181.646 236.656 227.62 321.568 188.813C394.102 155.662 429.278 108.372 493.516 2.60245C538.212 -70.9917 604.566 -181.806 723.435 -314.046" stroke="#333333" stroke-opacity="0.05" stroke-width="0.890958" stroke-miterlimit="10"/>
<path d="M-401.27 31.5352C-282.874 -8.36221 -195.379 24.3028 -149.179 48.4293C-95.6505 76.3859 -57.5836 80.7351 24.8 118.259C146.573 173.715 231.903 217.286 315.062 182.648C390.692 151.149 430.096 104.231 499.079 -1.16573C545.793 -72.5429 614.098 -180.934 730.488 -311.875" stroke="#333333" stroke-opacity="0.05" stroke-width="0.890958" stroke-miterlimit="10"/>
<path d="M-400.934 55.1035C-287.17 4.93703 -199.156 31.2415 -154.403 50.9698C-99.2257 75.2922 -58.704 78.2243 27.2396 114.272C150.34 165.905 227.204 207.134 308.552 176.484C387.324 146.803 430.819 100.016 504.636 -4.93692C553.309 -74.1427 623.624 -180.059 737.538 -309.7" stroke="#333333" stroke-opacity="0.05" stroke-width="0.890958" stroke-miterlimit="10"/>
<path d="M-400.598 78.6684C-291.462 18.2362 -202.82 37.9776 -159.626 53.5068C-102.676 73.9829 -59.8306 75.8081 29.67 110.282C154.08 158.202 222.542 197.136 302.034 170.322C384.021 142.65 431.452 95.7095 510.187 -8.70818C560.781 -75.7981 633.15 -179.194 744.584 -307.516" stroke="#333333" stroke-opacity="0.05" stroke-width="0.890958" stroke-miterlimit="10"/>
<path d="M-400.256 102.233C-295.752 31.532 -206.404 44.4948 -164.857 56.0438C-106.04 72.3893 -60.9757 73.4832 32.1093 106.295C157.823 150.607 217.904 187.331 295.521 164.158C380.751 138.712 432.016 91.3079 515.743 -12.4894C568.203 -77.519 642.673 -178.322 751.628 -305.361" stroke="#333333" stroke-opacity="0.05" stroke-width="0.890958" stroke-miterlimit="10"/>
<path d="M-399.92 125.801C-300.032 44.831 -209.964 50.79 -170.068 58.5808C-109.341 70.44 -62.1113 71.253 34.5581 102.305C161.57 143.12 213.278 177.662 289.021 157.996C377.517 135.012 432.52 86.8149 521.312 -16.2476C575.616 -79.2789 652.211 -177.437 758.687 -303.173" stroke="#333333" stroke-opacity="0.05" stroke-width="0.890958" stroke-miterlimit="10"/>
<path d="M-399.564 149.366C-304.324 58.1303 -213.107 68.6769 -175.273 61.1212C-113.388 48.7592 -63.2397 69.1177 37.0172 98.3184C165.342 135.702 208.627 168.138 282.513 151.832C374.288 131.587 432.958 82.1883 526.874 -20.0188C582.994 -81.0975 661.741 -176.562 765.741 -300.986" stroke="#333333" stroke-opacity="0.05" stroke-width="0.890958" stroke-miterlimit="10"/>
<path d="M-399.236 172.931C-308.624 71.4295 -216.321 72.4972 -180.504 63.6583C-117.728 48.1682 -64.3955 67.0704 39.4458 94.3315C169.129 128.387 203.923 158.754 276.008 145.667C371.053 128.433 433.347 77.4635 532.438 -23.7967C590.362 -82.9848 671.274 -175.697 772.795 -298.83" stroke="#333333" stroke-opacity="0.05" stroke-width="0.890958" stroke-miterlimit="10"/>
<path d="M-398.9 196.499C-312.92 84.7252 -219.963 75.9418 -185.728 66.1952C-121.822 48.0048 -65.5372 65.1144 41.8854 90.3576C172.93 121.135 199.154 149.477 269.496 139.522C367.787 125.609 433.686 72.6374 537.995 -27.5452C597.712 -84.8983 680.804 -174.805 779.845 -296.633" stroke="#333333" stroke-opacity="0.05" stroke-width="0.890958" stroke-miterlimit="10"/>
<path d="M-398.562 220.064C-317.214 98.0244 -225.127 74.1101 -190.947 68.7323C-123.622 58.1629 -66.6588 63.2403 44.3269 86.3644C176.773 113.945 194.305 140.296 262.989 133.35C364.47 123.078 433.99 67.6548 543.559 -31.3328C605.069 -86.9064 690.337 -173.94 786.897 -294.475" stroke="#333333" stroke-opacity="0.05" stroke-width="0.890958" stroke-miterlimit="10"/>
<path d="M-398.223 243.629C-321.506 111.323 -229.383 79.6544 -196.17 71.2726C-127.886 54.0422 -67.7723 61.4509 46.7643 82.3743C180.643 106.821 189.347 131.215 256.477 127.186C361.082 120.91 434.272 62.6003 549.114 -35.0943C612.419 -88.9471 699.861 -173.058 793.948 -292.29" stroke="#333333" stroke-opacity="0.05" stroke-width="0.890958" stroke-miterlimit="10"/>
<path d="M-397.885 267.197C-325.796 124.623 -233.93 85.2051 -201.392 73.8096C-132.543 49.6864 -68.8663 59.7399 49.2058 78.3809C184.556 99.7483 184.272 122.206 249.97 121.018C357.594 119.059 434.531 57.4086 554.676 -38.8689C619.779 -91.0336 709.389 -172.193 800.999 -290.122" stroke="#333333" stroke-opacity="0.05" stroke-width="0.890958" stroke-miterlimit="10"/>
</svg>
