<svg width="396" height="283" viewBox="0 0 396 283" fill="none" xmlns="http://www.w3.org/2000/svg">
<path d="M-790 -237.317C-620.665 -164.268 -529.388 -67.925 -476.745 10.8902C-432.862 76.5989 -433.64 103.478 -387.043 152.502C-285.922 258.882 -92.2138 332.241 1.66806 240.822C47.9144 195.788 30.8075 138.719 52.9277 30.6838C72.8283 -66.5014 124.28 -200.165 267.929 -345.431" stroke="#333333" stroke-opacity="0.05" stroke-width="0.890958" stroke-miterlimit="10"/>
<path d="M-789.664 -213.749C-624.958 -150.969 -534.593 -60.3335 -481.978 13.4272C-437.707 75.5083 -434.107 100.334 -384.613 148.515C-280.784 249.589 -98.8666 319.957 -4.85348 234.657C43.5728 190.724 32.557 134.631 58.4753 26.9124C81.2947 -67.9218 133.797 -199.3 274.969 -343.262" stroke="#333333" stroke-opacity="0.05" stroke-width="0.890958" stroke-miterlimit="10"/>
<path d="M-789.322 -190.184C-629.248 -137.67 -539.726 -52.719 -487.196 15.9643C-442.446 74.4765 -434.648 97.1925 -382.167 144.528C-275.859 240.414 -105.223 307.837 -11.3537 228.496C39.3563 185.63 34.2423 130.599 64.0412 23.1444C89.6878 -69.316 143.332 -198.425 282.037 -341.078" stroke="#333333" stroke-opacity="0.05" stroke-width="0.890958" stroke-miterlimit="10"/>
<path d="M-788.986 -166.615C-633.543 -124.367 -544.776 -45.0817 -492.42 18.521C-447.132 73.5068 -435.283 94.0743 -379.715 140.538C-271.139 231.369 -111.311 295.899 -17.8539 222.331C35.2468 180.537 35.8452 126.612 69.6102 19.3732C97.965 -70.6906 152.87 -197.55 289.087 -338.903" stroke="#333333" stroke-opacity="0.05" stroke-width="0.890958" stroke-miterlimit="10"/>
<path d="M-788.645 -143.051C-637.818 -111.075 -549.716 -37.4445 -497.638 21.0416C-451.734 72.5892 -435.964 90.9853 -377.288 136.551C-266.632 222.458 -117.174 284.157 -24.3756 216.166C31.2226 175.433 37.3381 122.651 75.1577 15.6018C106.129 -72.0588 162.39 -196.678 296.125 -336.712" stroke="#333333" stroke-opacity="0.05" stroke-width="0.890958" stroke-miterlimit="10"/>
<path d="M-788.303 -119.486C-642.12 -97.7754 -554.543 -29.8039 -502.856 23.5787C-456.237 71.7273 -436.755 87.9422 -374.843 132.561C-262.276 213.695 -122.795 272.615 -30.882 210.005C27.3144 170.359 38.7302 118.71 80.7204 11.8306C114.205 -73.4301 171.922 -195.803 303.18 -334.554" stroke="#333333" stroke-opacity="0.05" stroke-width="0.890958" stroke-miterlimit="10"/>
<path d="M-787.967 -95.9208C-646.416 -84.4926 -559.242 -22.196 -508.08 26.1158C-460.643 70.911 -437.604 84.9514 -372.406 128.574C-258.065 205.075 -128.22 261.282 -37.3944 203.84C23.4949 165.331 40.0523 114.769 86.2772 8.06256C122.179 -74.8146 181.46 -194.928 310.227 -332.376" stroke="#333333" stroke-opacity="0.05" stroke-width="0.890958" stroke-miterlimit="10"/>
<path d="M-787.615 -72.3526C-650.696 -71.1804 -563.778 -14.6239 -513.288 28.653C-464.911 70.1209 -438.486 82.0258 -369.954 124.588C-253.964 196.601 -133.447 250.154 -43.8911 197.676C19.7858 160.364 41.271 110.822 91.8497 4.29135C130.06 -76.2153 190.977 -194.043 317.28 -330.202" stroke="#333333" stroke-opacity="0.05" stroke-width="0.890958" stroke-miterlimit="10"/>
<path d="M-787.289 -48.7877C-655.001 -57.8812 -568.182 -7.12378 -518.522 31.1933C-469.06 69.3438 -439.469 79.1916 -367.524 120.598C-249.977 188.272 -138.537 239.235 -50.4131 191.514C16.1459 155.48 42.3634 106.841 97.3968 0.520035C137.857 -77.6454 200.505 -193.181 324.348 -328.027" stroke="#333333" stroke-opacity="0.05" stroke-width="0.890958" stroke-miterlimit="10"/>
<path d="M-786.953 -25.2325C-659.294 -44.5919 -572.413 0.268623 -523.746 33.7205C-473.084 68.5406 -440.48 76.3901 -365.088 116.601C-246.081 180.07 -143.501 228.506 -56.9254 185.34C12.5799 150.686 43.368 102.812 102.954 -3.26104C145.57 -79.1213 210.034 -192.316 331.38 -325.862" stroke="#333333" stroke-opacity="0.05" stroke-width="0.890958" stroke-miterlimit="10"/>
<path d="M-786.611 -1.6546C-663.569 -31.283 -576.474 7.55651 -528.961 36.2674C-476.941 67.7046 -441.521 73.7093 -362.642 112.621C-242.232 172.021 -148.344 217.995 -63.432 179.188C9.10209 146.037 44.2777 98.7468 108.516 -7.02256C153.212 -80.6168 219.566 -191.431 338.435 -323.671" stroke="#333333" stroke-opacity="0.05" stroke-width="0.890958" stroke-miterlimit="10"/>
<path d="M-786.27 21.9102C-667.874 -17.9872 -580.379 14.6778 -534.179 38.8043C-480.651 66.7609 -442.584 71.1101 -360.2 108.634C-238.427 164.09 -153.097 207.66 -69.9384 173.023C5.69164 141.524 45.0958 94.6064 114.079 -10.7907C160.793 -82.1679 229.098 -190.559 345.488 -321.5" stroke="#333333" stroke-opacity="0.05" stroke-width="0.890958" stroke-miterlimit="10"/>
<path d="M-785.934 45.4785C-672.17 -4.68798 -584.156 21.6164 -539.403 41.3447C-484.226 65.6672 -443.704 68.5993 -357.76 104.647C-234.66 156.28 -157.796 197.509 -76.4477 166.859C2.32403 137.178 45.8194 90.3912 119.636 -14.5619C168.309 -83.7677 238.624 -189.684 352.538 -319.325" stroke="#333333" stroke-opacity="0.05" stroke-width="0.890958" stroke-miterlimit="10"/>
<path d="M-785.598 69.0434C-676.462 8.61118 -587.82 28.3526 -544.626 43.8818C-487.676 64.3579 -444.831 66.1831 -355.33 100.657C-230.92 148.577 -162.458 187.511 -82.9661 160.697C-0.979393 133.025 46.4516 86.0845 125.187 -18.3332C175.781 -85.4231 248.15 -188.819 359.584 -317.141" stroke="#333333" stroke-opacity="0.05" stroke-width="0.890958" stroke-miterlimit="10"/>
<path d="M-785.256 92.6082C-680.752 21.907 -591.404 34.8698 -549.857 46.4187C-491.04 62.7643 -445.976 63.8581 -352.891 96.6701C-227.177 140.982 -167.096 177.706 -89.4787 154.533C-4.24948 129.087 47.0162 81.6828 130.743 -22.1144C183.203 -87.144 257.673 -187.947 366.628 -314.986" stroke="#333333" stroke-opacity="0.05" stroke-width="0.890958" stroke-miterlimit="10"/>
<path d="M-784.92 116.176C-685.032 35.206 -594.964 41.165 -555.068 48.9558C-494.341 60.8149 -447.111 61.628 -350.442 92.68C-223.43 133.495 -171.722 168.037 -95.9787 148.371C-7.48266 125.387 47.5201 77.1899 136.312 -25.8726C190.616 -88.9039 267.211 -187.062 373.687 -312.798" stroke="#333333" stroke-opacity="0.05" stroke-width="0.890958" stroke-miterlimit="10"/>
<path d="M-784.564 139.741C-689.324 48.5053 -598.107 59.0519 -560.273 51.4962C-498.388 39.1342 -448.24 59.4927 -347.983 88.6933C-219.658 126.077 -176.373 158.513 -102.487 142.207C-10.7116 121.962 47.9581 72.5633 141.874 -29.6438C197.994 -90.7226 276.741 -186.187 380.741 -310.611" stroke="#333333" stroke-opacity="0.05" stroke-width="0.890958" stroke-miterlimit="10"/>
<path d="M-784.236 163.306C-693.624 61.8044 -601.321 62.8721 -565.504 54.0333C-502.728 38.5432 -449.395 57.4454 -345.554 84.7065C-215.871 118.762 -181.077 149.129 -108.992 136.042C-13.9466 118.808 48.3472 67.8385 147.438 -33.4217C205.362 -92.6098 286.274 -185.322 387.795 -308.455" stroke="#333333" stroke-opacity="0.05" stroke-width="0.890958" stroke-miterlimit="10"/>
<path d="M-783.9 186.874C-697.92 75.1002 -604.963 66.3168 -570.728 56.5702C-506.822 38.3798 -450.537 55.4894 -343.115 80.7326C-212.07 111.51 -185.846 139.852 -115.504 129.897C-17.2133 115.984 48.6863 63.0124 152.995 -37.1702C212.712 -94.5233 295.804 -184.43 394.845 -306.258" stroke="#333333" stroke-opacity="0.05" stroke-width="0.890958" stroke-miterlimit="10"/>
<path d="M-783.562 210.439C-702.214 88.3994 -610.127 64.4851 -575.947 59.1073C-508.622 48.5379 -451.659 53.6153 -340.673 76.7394C-208.227 104.32 -190.695 130.671 -122.011 123.725C-20.5301 113.453 48.9905 58.0298 158.559 -40.9578C220.069 -96.5314 305.337 -183.565 401.897 -304.1" stroke="#333333" stroke-opacity="0.05" stroke-width="0.890958" stroke-miterlimit="10"/>
<path d="M-783.223 234.004C-706.506 101.698 -614.383 70.0294 -581.17 61.6476C-512.886 44.4172 -452.772 51.8259 -338.236 72.7493C-204.357 97.1958 -195.653 121.59 -128.523 117.561C-23.9182 111.285 49.2723 52.9753 164.114 -44.7193C227.419 -98.5721 314.861 -182.683 408.948 -301.915" stroke="#333333" stroke-opacity="0.05" stroke-width="0.890958" stroke-miterlimit="10"/>
<path d="M-782.885 257.572C-710.796 114.998 -618.93 75.5801 -586.392 64.1846C-517.543 40.0614 -453.866 50.1149 -335.794 68.7559C-200.444 90.1233 -200.728 112.581 -135.03 111.393C-27.406 109.434 49.5308 47.7835 169.676 -48.4939C234.779 -100.659 324.389 -181.818 415.999 -299.747" stroke="#333333" stroke-opacity="0.05" stroke-width="0.890958" stroke-miterlimit="10"/>
</svg>
