<svg width="343" height="288" viewBox="0 0 343 288" fill="none" xmlns="http://www.w3.org/2000/svg">
<path d="M-4.04883 202.935C10.6869 195.683 23.7705 185.472 34.3863 172.94C50.0337 154.239 49.276 142.705 64.2506 132.067C78.8047 121.735 98.6952 119.007 114.786 123.07C136.742 128.619 137.628 143.283 165.651 166.707C182.131 180.471 213.034 206.31 249.727 204.103C268.264 202.987 286.746 194.804 303.926 187.203C324.983 177.886 328.033 173.042 339.375 170.884C352.848 168.317 373.633 170.368 403.367 194.432" stroke="#DDFA69" stroke-width="0.391181" stroke-miterlimit="10"/>
<path d="M-4.44141 200.237C8.83565 193.868 20.8273 185.11 30.9346 174.401C31.9012 173.363 32.8681 172.296 33.8424 171.2C49.644 153.091 49.1059 142.078 63.8911 131.705C70.336 127.166 77.6191 123.953 85.3168 122.254C90.8305 121.042 96.4797 120.56 102.119 120.822C106.336 121.019 110.518 121.691 114.584 122.825C119.116 124.026 123.419 125.968 127.317 128.572C134.491 133.384 139.49 139.845 147.194 147.963C152.998 154.073 159.32 159.668 166.089 164.686C169.674 167.38 173.86 170.627 178.702 173.958C191.657 182.894 208.246 192.621 228.213 196.086C234.988 197.294 241.878 197.732 248.751 197.392C249.804 197.342 250.85 197.263 251.882 197.17C262.098 196.259 271.843 193.714 281.803 190.313C289.255 187.802 296.308 184.653 303.302 181.699C306.231 180.437 308.85 179.289 311.215 178.21C325.503 171.677 329.228 168.143 338.965 166.658C346.364 165.531 355.922 165.811 368.024 170.111C377.947 173.631 389.681 179.926 403.396 190.295" stroke="#DDFA69" stroke-width="0.391181" stroke-miterlimit="10"/>
<path d="M-4.80664 197.524C8.33158 191.398 20.2476 182.937 30.3611 172.551C31.3298 171.549 32.2988 170.523 33.2679 169.473C49.2598 151.949 48.9557 141.471 63.5372 131.342C69.9979 126.743 77.3045 123.468 85.0364 121.704C90.5826 120.484 96.2687 120.022 101.939 120.33C106.162 120.577 110.34 121.334 114.381 122.586C118.889 123.925 123.168 125.943 127.069 128.571C134.53 133.529 139.804 139.783 147.426 147.367C153.26 153.123 159.659 158.277 166.526 162.75C170.113 165.142 174.208 168.07 179.002 170.976C191.778 178.72 207.363 186.861 227.133 189.625C233.963 190.618 240.87 190.978 247.767 190.701C248.834 190.652 249.887 190.587 250.926 190.501C261.314 189.67 270.811 187.499 280.971 184.481C288.623 182.202 295.61 179.111 302.662 176.2C305.591 174.996 308.238 173.899 310.66 172.871C324.988 166.77 328.841 163.526 338.539 162.444C345.928 161.62 355.412 162.173 367.578 166.525C377.516 170.088 389.402 176.269 403.424 186.143" stroke="#DDFA69" stroke-width="0.391181" stroke-miterlimit="10"/>
<path d="M-5.23828 194.851C7.79114 188.961 19.6568 180.778 29.7936 170.693C30.7598 169.719 31.7332 168.732 32.6996 167.722C48.8963 150.792 48.7901 140.834 63.1749 130.977C69.9868 126.313 76.688 122.967 84.7404 121.145C90.3239 119.915 96.052 119.472 101.758 119.83C105.989 120.128 110.163 120.973 114.176 122.345C118.664 123.822 122.923 125.916 126.834 128.567C134.568 133.672 140.11 139.704 147.657 146.747C153.526 152.153 160.007 156.854 166.969 160.755C170.594 162.844 174.569 165.454 179.309 167.934C191.97 174.56 206.486 181.063 226.059 183.141C232.945 183.916 239.877 184.197 246.803 183.98C247.877 183.938 248.966 183.881 249.976 183.802C260.169 183.044 270.264 181.306 280.123 178.612C287.975 176.573 294.905 173.509 302.042 170.679C304.971 169.518 307.639 168.478 310.126 167.502C324.487 161.841 328.474 158.9 338.126 158.2C345.513 157.664 354.944 158.513 367.154 162.915C377.113 166.479 389.129 172.617 403.457 182.032" stroke="#DDFA69" stroke-width="0.391181" stroke-miterlimit="10"/>
<path d="M-5.63477 192.161C7.26744 186.502 19.0687 178.608 29.225 168.844C30.191 167.9 31.1713 166.955 32.1303 165.982C48.4957 149.615 48.6376 140.243 62.8188 130.609C69.7825 125.895 76.2609 122.454 84.4579 120.59C90.0734 119.347 95.8395 118.926 101.576 119.34C105.826 119.68 110.007 120.611 113.999 122.107C118.456 123.71 122.693 125.866 126.612 128.524C134.619 133.782 140.466 139.572 147.908 146.137C153.159 150.762 159.379 154.817 167.432 158.77C171.089 160.571 174.979 162.871 179.643 164.917C192.262 170.454 205.637 175.276 224.977 176.668C231.908 177.231 238.864 177.434 245.816 177.277C246.905 177.242 247.98 177.192 249.011 177.128C259.221 176.535 269.362 175.076 279.325 172.768C287.391 170.968 294.22 167.926 301.429 165.196C304.321 164.079 307.061 163.075 309.605 162.164C323.992 156.907 328.114 154.306 337.734 153.996C345.119 153.755 354.483 154.885 366.742 159.331C376.701 162.945 388.862 168.976 403.489 177.917" stroke="#DDFA69" stroke-width="0.391181" stroke-miterlimit="10"/>
<path d="M-6.0293 189.468C6.74276 184.037 18.4766 176.434 28.6512 166.994C29.6169 166.086 30.5969 165.185 31.5555 164.255C48.1109 148.516 48.4728 139.615 62.4429 130.253C69.5585 125.482 75.814 121.945 84.1483 120.039C89.8012 118.786 95.6101 118.387 101.381 118.855C105.632 119.24 109.801 120.255 113.752 121.867C118.181 123.603 122.399 125.833 126.327 128.515C134.614 133.912 140.774 139.437 148.097 145.526C153.507 150.007 159.868 153.544 167.833 156.79C171.534 158.303 175.341 160.278 179.907 161.927C192.584 166.419 204.738 169.516 223.882 170.235C230.535 170.487 237.894 170.794 244.824 170.608C245.927 170.58 246.987 170.537 248.04 170.487C258.251 170.06 268.417 168.883 278.456 166.965C286.723 165.404 293.501 162.383 300.788 159.712C303.716 158.638 306.441 157.714 309.05 156.839C323.463 151.95 327.742 149.531 337.293 149.753C344.675 149.923 353.98 151.226 366.282 155.737C376.248 159.416 388.561 165.326 403.488 173.786" stroke="#DDFA69" stroke-width="0.391181" stroke-miterlimit="10"/>
<path d="M-6.42578 186.783C6.21853 181.574 17.8871 174.257 28.0827 165.143C29.0481 164.271 30.035 163.406 30.9861 162.519C47.7391 147.359 48.3204 139.007 62.0796 129.888C69.3252 125.076 75.3725 121.437 83.8585 119.481C89.538 118.225 95.3765 117.848 101.17 118.363C105.434 118.797 109.603 119.898 113.525 121.627C117.916 123.502 122.113 125.803 126.055 128.497C134.615 134.048 141.115 139.338 148.283 144.921C153.86 149.288 160.37 152.264 168.231 154.81C171.993 156.034 176.09 156.757 180.169 158.871C193.452 159.525 203.867 164.815 222.757 163.73C229.429 163.34 236.901 164.009 243.801 163.887C244.919 163.859 246.001 163.831 247.039 163.788C258.16 163.345 266.672 162.795 277.585 161.132C286.052 159.818 292.758 156.811 300.124 154.227C303.015 153.196 305.798 152.322 308.472 151.499C322.888 147.05 327.315 145.15 336.85 145.582C344.237 145.932 353.482 147.631 365.827 152.178C375.807 155.857 388.251 161.718 403.491 169.697" stroke="#DDFA69" stroke-width="0.391181" stroke-miterlimit="10"/>
<path d="M-6.82227 184.09C5.69286 179.104 17.2954 172.079 27.514 163.301C28.4864 162.457 29.4731 161.635 30.4166 160.792C47.4032 146.225 48.1967 138.408 61.7451 129.525C69.1713 124.664 74.967 120.929 83.5904 118.924C89.3191 117.652 95.2135 117.299 101.053 117.879C105.801 118.31 109.691 119.767 113.384 121.395C117.742 123.406 121.923 125.779 125.884 128.489C134.717 134.185 141.586 139.204 148.592 144.317C154.329 148.52 161.016 150.971 168.716 152.838C172.559 153.767 176.566 154.006 180.525 155.853C193.819 154.928 203.026 157.859 221.725 157.27C228.432 157.053 235.994 157.268 242.873 157.168C243.997 157.176 245.093 157.134 246.125 157.105C257.432 156.764 265.696 156.609 276.802 155.243C285.461 154.168 292.102 151.182 299.547 148.678C302.438 147.69 305.242 146.875 307.98 146.102C322.43 142.042 326.991 140.476 336.487 141.318C343.872 141.957 353.05 143.936 365.445 148.534C375.432 152.213 388.021 158.017 403.567 165.516" stroke="#DDFA69" stroke-width="0.391181" stroke-miterlimit="10"/>
<path d="M-7.21484 181.405C5.16539 176.634 16.6982 169.904 26.9421 161.472C27.9142 160.658 28.9078 159.872 29.887 159.079C47.0422 145.104 48.0697 137.83 61.3855 129.191C68.9635 124.28 74.5364 120.443 83.3043 118.403C89.0605 117.116 94.9884 116.781 100.853 117.409C105.666 117.884 109.49 119.456 113.161 121.177C117.694 123.302 121.418 125.781 125.616 128.48C134.729 134.315 142.986 137.845 148.804 143.713C155.423 146.596 161.59 152.049 169.162 150.858C173.103 150.239 177.018 151.263 180.841 152.834C194.155 150.338 202.196 152.034 220.662 150.802C227.399 150.355 235.083 150.527 241.904 150.47C243.051 150.478 244.146 150.486 245.185 150.429C256.665 150.19 264.687 150.452 275.978 149.397C284.86 148.576 291.414 145.604 298.93 143.18C301.821 142.235 304.653 141.47 307.449 140.756C321.896 137.078 326.634 135.895 336.091 137.097C343.482 138.039 352.6 140.299 365.031 144.948C375.032 148.671 387.729 154.374 403.61 161.392" stroke="#DDFA69" stroke-width="0.391181" stroke-miterlimit="10"/>
<path d="M-7.61328 178.72C4.63929 174.154 16.1052 167.706 26.3717 159.608C27.3436 158.829 28.3366 158.116 29.323 157.337C46.726 143.956 47.9081 137.223 61.0275 128.821C68.7645 123.868 74.1074 119.928 83.0126 117.838C88.8051 116.546 94.773 116.232 100.669 116.91C105.546 117.429 109.304 119.137 112.961 120.93C117.407 123.127 121.086 125.721 125.37 128.471C134.756 134.467 143.449 137.588 149.053 143.117C155.905 145.691 162.464 150.801 169.623 148.886C173.539 147.841 177.478 148.512 181.152 149.816C194.484 145.748 201.366 146.195 219.592 144.334C226.36 143.663 234.102 143.779 240.937 143.772L244.232 143.796C255.898 143.667 263.694 144.323 275.156 143.594C284.245 143.02 290.72 140.054 298.314 137.717C301.205 136.816 304.058 136.109 306.918 135.453C321.362 132.143 326.271 131.336 335.69 132.913C343.078 134.157 352.136 136.698 364.61 141.39C374.618 145.149 387.489 150.76 403.648 157.304" stroke="#DDFA69" stroke-width="0.391181" stroke-miterlimit="10"/>
<path d="M-8.00977 176.041C4.10054 171.672 15.4882 165.514 25.7743 157.771C26.7529 157.057 27.7459 156.344 28.7318 155.63C46.3179 142.848 47.741 136.658 60.657 128.471C68.5528 123.483 73.7018 119.433 82.7155 117.301C88.5404 115.992 94.5475 115.698 100.472 116.431C105.421 116.994 109.107 118.795 112.741 120.704C117.1 123.015 120.742 125.673 125.112 128.467C134.778 134.61 143.9 137.338 149.247 142.519C156.339 144.792 162.922 145.634 170.029 146.92C174.115 146.172 177.882 145.774 181.436 146.803C194.78 141.134 200.489 140.355 218.488 137.886C225.287 136.949 233.131 136.957 239.936 137.087C241.104 137.096 242.221 137.104 243.252 137.112C255.103 137.351 262.639 138.157 274.3 137.739C283.603 137.412 289.991 134.46 297.672 132.203C300.563 131.352 303.451 130.689 306.34 130.105C320.781 127.162 325.831 126.746 335.233 128.697C342.625 130.238 351.617 133.059 364.148 137.802C374.163 141.59 387.15 147.116 403.637 153.186" stroke="#DDFA69" stroke-width="0.391181" stroke-miterlimit="10"/>
<path d="M-8.39844 173.359C3.59125 169.189 14.9204 163.32 25.2423 155.931C26.2138 155.217 27.2137 154.554 28.1992 153.884C46.0114 141.71 47.6325 136.055 60.3159 128.117C68.3707 123.073 73.2537 118.928 82.4408 116.747C88.3157 115.422 94.3793 115.152 100.349 115.95C105.391 116.557 109.018 118.466 112.572 120.468C116.88 122.872 120.464 125.616 124.906 128.49C134.837 134.779 144.401 137.114 149.506 141.946C156.831 143.911 163.519 144.214 170.5 144.987C174.64 143.864 178.351 143.069 181.777 143.83C195.133 136.612 199.676 134.54 217.443 131.464C224.272 130.282 232.21 130.255 238.993 130.428C240.175 130.437 241.293 130.445 242.331 130.453C254.354 130.809 261.656 132.039 273.502 131.918C283.005 131.837 289.322 128.892 297.081 126.722C299.971 125.907 302.859 125.323 305.855 124.761C320.294 122.172 325.543 122.154 334.877 124.48C342.268 126.323 351.199 129.417 363.773 134.212C373.795 138.028 386.956 143.469 403.72 149.058" stroke="#DDFA69" stroke-width="0.391181" stroke-miterlimit="10"/>
<path d="M-8.79688 170.679C3.06297 166.698 14.3233 161.115 24.6719 154.086C25.6505 153.372 26.6498 152.789 27.635 152.154C45.6806 140.594 47.4996 135.475 59.9578 127.759C68.1715 122.68 72.8246 118.432 82.1562 116.201C88.0528 114.868 94.1425 114.618 100.129 115.463C105.17 116.12 108.818 118.137 112.35 120.24C116.542 122.737 120.096 125.568 124.646 128.45C134.858 134.892 144.85 136.826 149.72 141.318C157.285 142.982 164.049 142.788 170.926 142.969C175.111 141.478 178.776 140.28 182.067 140.773C195.441 131.976 198.812 128.641 216.352 124.958C223.212 123.524 231.243 123.569 237.99 123.677C239.187 123.686 240.312 123.694 241.35 123.702C253.56 124.175 260.623 125.496 272.652 125.997C282.354 126.401 288.599 123.232 296.437 121.127C299.356 120.364 302.313 119.76 305.297 119.319C319.734 117.076 325.152 117.462 334.447 120.163C341.843 122.309 350.708 125.677 363.325 130.522C373.39 134.367 386.659 139.729 403.73 144.838" stroke="#DDFA69" stroke-width="0.391181" stroke-miterlimit="10"/>
<path d="M-9.20898 169.547C2.52268 165.738 13.714 160.432 24.0879 153.76C25.066 153.118 26.0725 152.535 27.0647 151.944C45.3364 140.998 47.3676 136.414 59.5863 128.927C67.9589 123.798 72.3821 119.448 81.851 117.175C87.7833 115.829 93.9143 115.598 99.931 116.495C105.073 117.204 108.641 119.321 112.15 121.525C116.233 124.165 119.73 127.075 124.387 129.993C134.872 136.56 145.307 138.13 149.934 142.267C157.732 143.63 164.579 142.917 171.352 142.549C175.583 140.684 179.193 139.089 182.356 139.307C195.75 128.938 197.955 124.283 215.254 120.086C222.151 118.4 230.277 118.424 237.009 118.582L240.383 118.672C252.781 118.981 259.592 121.267 271.809 121.79C281.733 122.224 287.884 119.278 295.8 117.282C298.75 116.559 301.739 116.006 304.753 115.626C319.15 113.729 324.775 114.535 334.024 117.603C341.425 120.052 350.23 123.693 362.89 128.589C372.955 132.464 386.376 137.74 403.753 142.368" stroke="#DDFA69" stroke-width="0.391181" stroke-miterlimit="10"/>
<path d="M-9.63672 169.087C1.9624 165.475 13.0822 160.474 23.4805 154.193C24.4656 153.58 25.4718 153.04 26.4636 152.492C44.9976 142.147 47.1981 138.068 59.213 130.832C67.7518 125.669 71.9378 121.208 81.5513 118.886C87.5216 117.538 93.6941 117.339 99.7387 118.301C104.939 119.06 108.462 121.249 111.92 123.582C115.93 126.258 119.405 129.269 124.112 132.238C134.877 138.973 145.74 140.128 150.132 143.917C158.17 144.979 165.345 144.874 171.769 142.824C176.373 141.351 179.609 138.556 182.616 138.578C196.021 126.638 197.053 120.661 214.125 115.879C221.047 113.926 229.28 113.937 235.977 114.138C237.202 114.147 238.341 114.213 239.372 114.25C251.957 114.675 258.519 117.37 270.928 118.212C281.053 118.9 287.131 115.953 295.126 114.066C298.104 113.375 301.123 112.873 304.164 112.562C318.552 110.996 324.354 112.229 333.564 115.665C340.963 118.423 349.708 122.338 362.411 127.278C372.475 131.181 386.049 136.372 403.732 140.563" stroke="url(#paint0_linear_288_209)" stroke-width="0.391181" stroke-miterlimit="10"/>
<path d="M-10.0293 168.645C1.44217 165.207 12.4927 160.497 22.9158 154.6C23.9078 154.024 24.9209 153.526 25.9052 153.015C44.6651 143.32 47.0562 139.791 58.839 132.741C67.5294 127.542 71.4856 122.972 81.2796 120.608C87.2812 119.218 93.4971 119.02 99.5752 120.023C104.847 120.834 108.319 123.152 111.733 125.55C115.663 128.312 119.094 131.423 123.923 134.436C134.954 141.317 146.253 142.072 150.416 145.52C158.68 146.303 166.004 145.557 172.251 143.051C176.945 141.168 180.09 138.063 182.99 137.731C196.407 124.212 196.267 116.922 213.12 111.582C220.072 109.363 228.385 109.367 235.074 109.583L238.491 109.723C251.255 110.258 257.577 113.369 270.178 114.516C280.517 115.465 286.509 112.474 294.59 110.696C297.596 110.03 300.644 109.571 303.713 109.322C318.084 108.081 324.07 109.748 333.242 113.551C340.638 116.612 349.316 120.801 362.069 125.791C375.567 131.278 389.527 135.551 403.784 138.56" stroke="url(#paint1_linear_288_209)" stroke-width="0.391181" stroke-miterlimit="10"/>
<path d="M-10.4453 168.499C0.900996 165.219 11.8824 160.788 22.3278 155.275C23.3268 154.734 24.3396 154.273 25.3236 153.805C44.3312 144.739 46.906 141.709 58.4635 134.902C67.3272 129.669 71.039 124.989 80.9416 122.575C86.9812 121.18 93.2401 121.015 99.3445 122.092C104.673 122.954 108.102 125.373 111.479 127.871C115.322 130.718 118.708 133.923 123.61 136.981C134.92 144.008 146.626 144.362 150.576 147.47C159.08 147.922 166.523 146.579 172.623 143.632C177.399 141.325 180.46 137.858 183.226 137.266C196.662 122.175 195.341 113.564 211.968 107.667C218.951 105.181 227.365 105.186 234.024 105.459C235.271 105.512 236.432 105.578 237.462 105.629C250.435 106.281 256.487 109.794 269.266 111.252C279.805 112.455 285.725 109.492 293.884 107.772C296.92 107.147 299.998 106.746 303.093 106.572C317.455 105.648 323.618 107.763 332.75 111.926C340.144 115.298 348.763 119.752 361.558 124.801C375.176 130.318 389.332 134.398 403.796 136.975" stroke="url(#paint2_linear_288_209)" stroke-width="0.391181" stroke-miterlimit="10"/>
<path d="M-10.8711 168.906C0.352189 165.786 11.2651 161.641 21.73 156.525C22.7287 156.02 23.7484 155.595 24.7322 155.163C43.9944 146.748 46.7815 144.26 58.078 137.639C67.1079 132.371 70.5826 127.573 80.6297 125.125C86.7027 123.713 93.0017 123.568 99.1331 124.7C104.526 125.62 107.911 128.132 111.244 130.731C115.007 133.643 118.35 136.963 123.337 140.064C134.921 147.237 147.076 147.205 150.776 149.958C159.513 150.11 167.062 148.133 173.036 144.745C177.872 141.998 180.871 138.199 183.509 137.34C196.957 120.67 194.449 110.745 210.864 104.299C217.863 101.539 226.385 101.531 233.023 101.854C234.277 101.914 235.444 101.987 236.475 102.045C249.613 102.807 255.423 106.743 268.388 108.505C279.134 109.969 284.982 106.999 293.206 105.366C296.275 104.78 299.384 104.429 302.507 104.318C316.859 103.704 323.192 106.274 332.285 110.798C339.677 114.457 348.243 119.208 361.082 124.299C374.798 129.872 389.132 133.781 403.778 135.944" stroke="url(#paint3_linear_288_209)" stroke-width="0.391181" stroke-miterlimit="10"/>
<path d="M-11.2832 169.313C-0.183725 166.34 10.6585 162.479 21.1386 157.767C22.1442 157.298 23.1636 156.924 24.1471 156.527C43.6714 148.742 46.5699 146.781 57.6991 140.375C66.8877 135.079 70.1326 130.165 80.317 127.667C86.4257 126.234 92.7687 126.112 98.9281 127.308C104.386 128.293 107.726 130.884 111.023 133.591C114.706 136.61 117.997 140.002 123.071 143.147C134.935 150.445 147.533 150.049 150.983 152.454C158.942 152.418 166.73 150.134 173.447 145.865C178.338 142.672 181.288 138.548 183.791 137.413C197.258 119.172 193.557 107.926 209.766 100.93C216.782 97.8896 225.412 97.8961 232.021 98.2481C233.296 98.3153 234.464 98.3961 235.501 98.4687C248.811 99.3609 254.403 103.656 267.552 105.758C278.491 107.476 284.281 104.506 292.584 102.96C295.472 102.426 298.515 102.362 301.963 102.071C316.262 100.858 322.815 104.785 331.87 109.676C339.259 113.668 347.766 118.663 360.648 123.805C374.476 129.433 388.998 133.178 403.823 134.941" stroke="url(#paint4_linear_288_209)" stroke-width="0.391181" stroke-miterlimit="10"/>
<path d="M-11.707 169.721C-0.725969 166.892 10.049 163.315 20.5427 159.017C21.5552 158.592 22.5744 158.246 23.5647 157.893C43.3288 150.831 46.4476 149.304 57.3156 143.112C66.6775 137.782 69.6493 132.757 80.0071 130.21C86.1616 128.758 92.5578 128.658 98.7547 129.917C104.27 130.967 107.566 133.645 110.826 136.452C114.407 139.557 117.669 143.042 122.829 146.231C134.973 153.704 148.014 152.908 151.214 154.943C159.389 154.575 167.27 151.791 173.862 146.943C178.784 143.31 181.702 138.854 184.07 137.451C197.555 117.638 192.652 105.071 208.657 97.5193C215.696 94.2048 224.427 94.2193 231.029 94.6073C232.311 94.6817 233.493 94.777 234.524 94.8496C248.02 95.8657 253.363 100.599 266.705 102.977C277.858 104.956 283.54 101.963 291.958 100.519C295.1 100.105 298.261 99.8592 301.43 99.7816C315.747 98.9581 322.442 103.262 331.465 108.513C338.845 112.814 347.299 118.075 360.195 123.269C374.127 128.94 388.825 132.505 403.807 133.845" stroke="url(#paint5_linear_288_209)" stroke-width="0.391181" stroke-miterlimit="10"/>
<path d="M-12.125 170.13C-1.25736 167.436 9.45376 164.147 19.9598 160.275C20.972 159.886 21.991 159.57 22.981 159.267C42.9999 152.841 46.3022 151.841 56.967 145.821C66.4659 140.499 69.2007 135.35 79.6957 132.761C85.8762 131.288 92.3069 131.208 98.5222 132.526C104.101 133.642 107.361 136.406 110.57 139.313C114.093 142.497 117.289 146.083 122.543 149.316C134.952 156.935 148.45 155.724 151.393 157.461C159.806 156.778 167.801 153.508 174.282 148.1C179.222 144.013 182.113 139.24 184.353 137.57C197.85 116.178 191.747 102.247 207.56 94.1885C214.616 90.5929 223.448 90.6153 230.02 91.0392C231.317 91.1209 232.506 91.2235 233.537 91.3105C247.227 92.4506 252.315 97.5857 265.849 100.268C277.209 102.515 282.812 99.4998 291.294 98.1499C294.465 97.7606 297.656 97.5652 300.851 97.5649C315.187 97.1309 322.023 101.81 331.008 107.429C338.393 112.033 346.794 117.568 359.733 122.783C373.777 128.505 388.66 131.896 403.797 132.823" stroke="url(#paint6_linear_288_209)" stroke-width="0.391181" stroke-miterlimit="10"/>
<path d="M-12.5332 170.536C-0.160194 167.492 10.9444 164.38 19.3723 161.516C20.3987 161.163 21.4173 160.897 22.3999 160.616C42.6804 154.884 46.1594 154.361 56.5627 148.613C66.2566 143.235 68.7832 137.969 79.394 135.33C85.6085 133.839 92.0807 133.781 98.3209 135.161C103.965 136.349 107.188 139.185 110.352 142.201C113.788 145.471 116.941 149.149 122.28 152.426C134.969 160.192 148.911 158.587 151.604 159.948C160.25 158.941 168.345 155.191 174.705 149.248C179.655 144.706 182.842 139.899 184.647 137.671C201.383 116.937 190.836 99.4257 206.466 90.8471C213.531 86.9632 222.486 87.001 229.029 87.4606C230.34 87.5497 231.529 87.6667 232.567 87.7609C246.422 89.0248 251.261 94.5619 264.995 97.5408C276.563 100.057 282.086 97.0264 290.654 95.778C293.847 95.3286 297.076 95.1812 300.296 95.3378C314.632 95.9348 321.629 100.356 330.582 106.327C337.957 111.249 346.292 117.05 359.302 122.338C373.466 128.107 388.539 131.327 403.824 131.847" stroke="url(#paint7_linear_288_209)" stroke-width="0.391181" stroke-miterlimit="10"/>
<path d="M-12.959 170.944C-0.449696 167.995 10.5805 165.193 18.7744 162.766C19.8077 162.457 20.826 162.227 21.8084 161.982C42.3649 156.944 46.0062 156.891 56.1774 151.329C66.0445 145.923 68.327 140.526 79.0751 137.844C85.3284 136.333 91.8475 136.298 98.1169 137.741C103.818 139.009 106.997 141.916 110.117 145.04C113.481 148.396 116.553 152.168 122.008 155.489C134.97 163.408 149.31 161.402 151.812 162.423C161.728 161.055 169.553 155.951 175.117 150.34C180.064 145.33 183.21 140.141 184.923 137.724C201.135 114.867 189.915 96.557 205.355 87.4506C212.429 83.2856 221.506 83.3387 228.02 83.8342C229.346 83.9378 230.549 84.0549 231.579 84.1563C245.621 85.5514 250.22 91.5048 264.139 94.7735C275.906 97.5504 281.351 94.4979 289.997 93.351C293.222 92.9383 296.481 92.8442 299.725 93.0701C314.066 93.9483 321.225 98.8466 330.146 105.185C337.512 110.417 345.794 116.484 358.862 121.823C368.989 125.958 383.721 130.472 403.841 130.81" stroke="url(#paint8_linear_288_209)" stroke-width="0.391181" stroke-miterlimit="10"/>
<path d="M-13.3809 171.354C-0.742335 168.477 10.2132 166.021 18.1805 164.011C19.2207 163.752 20.2387 163.558 21.221 163.313C42.01 159.019 45.8569 159.43 55.7959 154.068C65.7348 148.706 67.8744 143.12 78.7671 140.396C85.0534 138.859 91.6158 138.843 97.9093 140.351C103.667 141.706 106.817 144.671 109.894 147.895C113.177 151.33 116.227 155.202 121.739 158.567C134.981 166.597 149.757 164.234 152.016 164.906C162.173 163.237 170.009 157.528 175.534 151.455C180.47 146.027 183.547 140.419 185.203 137.828C200.81 112.891 188.984 93.7329 204.254 84.1134C211.331 79.6528 220.523 79.7284 227.022 80.2598C228.355 80.3707 229.566 80.5023 230.625 80.6111C244.845 82.1589 249.203 88.4782 263.308 92.0583C275.282 95.0962 280.655 92.0216 289.379 90.9762C292.637 90.5979 295.926 90.5547 299.193 90.8474C313.539 92.014 320.846 97.3892 329.743 104.088C337.099 109.63 345.329 115.964 358.454 121.353C368.596 125.517 383.465 129.953 403.892 129.795" stroke="url(#paint9_linear_288_209)" stroke-width="0.391181" stroke-miterlimit="10"/>
<path d="M-13.7988 171.759C-1.03839 168.97 9.84257 166.845 17.5834 165.244C18.6304 165.029 19.6482 164.863 20.63 164.697C41.6661 161.098 45.7043 161.964 55.4111 156.795C65.6245 151.363 67.4114 145.709 78.4486 142.936C84.7707 141.371 91.3798 141.379 97.6985 142.957C103.513 144.406 106.634 147.428 109.666 150.746C112.87 154.274 115.869 158.233 121.474 161.648C134.982 169.86 150.301 168.121 152.217 167.393C162.108 163.652 170.455 159.115 175.947 152.566C180.864 146.698 183.915 140.7 185.487 137.864C200.431 110.903 188.043 90.8322 203.151 80.6996C210.23 75.9506 219.544 76.056 226.014 76.616C227.369 76.7343 228.579 76.873 229.617 76.9889C244.024 78.639 248.126 85.3891 262.423 89.2734C274.598 92.5796 279.891 89.4755 288.701 88.5317C291.992 88.1888 295.311 88.1966 298.6 88.5549C312.951 90.0028 320.413 95.8622 329.272 102.922C336.626 108.744 344.803 115.38 357.978 120.821C368.127 125.013 383.148 129.357 403.874 128.725" stroke="url(#paint10_linear_288_209)" stroke-width="0.391181" stroke-miterlimit="10"/>
<path d="M-14.2168 172.168C-1.32697 169.431 9.47179 167.694 16.9932 166.51C18.047 166.345 19.0646 166.208 20.0533 166.079C41.3292 163.195 45.5661 164.502 55.0334 159.54C65.4562 154.066 66.941 148.31 78.1442 145.509C84.5031 143.924 91.1574 143.954 97.5018 145.595C103.359 147.146 106.458 150.211 109.439 153.615C112.57 157.243 115.518 161.281 121.209 164.734C134.997 173.091 150.65 170.086 152.425 169.89C163.249 168.68 170.9 160.713 176.338 153.688C180.018 148.786 183.169 143.51 185.742 137.947C200.016 109.012 187.08 87.9785 202.054 77.333C209.128 72.2956 218.572 72.4092 225.021 73.0123C226.382 73.1378 227.607 73.2911 228.623 73.414C243.202 75.2168 247.064 82.3616 261.56 86.5286C273.927 90.1102 279.156 86.9552 288.045 86.1273C291.369 85.8201 294.718 85.8813 298.029 86.3098C312.392 88.0389 319.987 94.404 328.829 101.802C336.166 107.978 344.291 114.837 357.53 120.321C367.694 124.543 382.846 128.808 403.885 127.696" stroke="url(#paint11_linear_288_209)" stroke-width="0.391181" stroke-miterlimit="10"/>
<path d="M-14.6387 172.576C-1.64161 169.962 9.08979 168.557 16.3992 167.76C40.586 165.128 44.997 167.252 54.6519 162.277C65.2187 156.826 66.5102 150.895 77.8292 148.03C84.2239 146.418 90.9246 146.468 97.2945 148.175C109.367 151.581 109.629 160.97 120.941 167.817C135.001 176.329 151.084 172.75 152.63 172.379C173.228 167.486 182.985 144.984 186.05 138.021C199.64 107.178 186.156 85.1238 200.947 73.965C209.531 67.4897 221.805 69.0734 227.654 69.838C242.412 71.7502 246.033 79.3042 260.715 83.7826C277.26 88.8372 280.968 81.7704 297.483 84.0563C323.829 87.7347 327.913 107.642 357.058 119.828C367.228 124.078 382.525 128.258 403.87 126.665" stroke="url(#paint12_linear_288_209)" stroke-width="0.391181" stroke-miterlimit="10"/>
<path d="M-14.2441 171.677C-1.47778 169.061 9.07435 167.525 16.3841 166.685C39.9304 163.89 44.5082 165.885 54.1055 160.902C64.4773 155.5 65.8972 149.743 76.9352 146.855C83.1964 145.25 89.7566 145.215 96.0347 146.752C107.952 149.66 108.346 158.819 119.486 165.405C133.246 173.597 148.844 170.346 150.648 170.064C167.531 167.457 176.955 150.909 181.599 142.075C182.55 140.272 183.239 138.72 183.795 137.6C197.711 108.41 184.935 87.2192 199.505 76.6861C208.203 70.4134 220.577 72.0989 226.671 72.8292C232.256 73.4844 237.661 75.2139 242.588 77.9224C247.616 80.4904 252.317 83.3805 260.067 85.3344C262.442 85.9288 264.559 86.2618 266.461 86.5499C277.983 88.3011 282.462 84.2321 296.343 86.8084C301.713 87.7925 306.877 89.6813 311.615 92.3943C324.473 99.6997 332.451 112.737 352.372 122.359C353.541 122.925 354.763 123.477 356.037 124.015C366.3 128.374 381.826 132.751 403.496 131.275" stroke="url(#paint13_linear_288_209)" stroke-width="0.391181" stroke-miterlimit="10"/>
<path d="M-13.8496 170.779C-1.34279 168.161 9.05843 166.559 16.3761 165.618C39.2675 162.667 43.9906 164.519 53.5591 159.522C63.7426 154.233 65.2847 148.528 76.0124 145.687C82.1452 144.087 88.57 143.961 94.7605 145.322C106.501 147.767 107.063 156.632 118.025 163.001C131.492 170.823 146.672 168.448 148.653 167.749C164.295 162.278 174.511 149.737 179.288 141.417C180.26 139.722 180.934 138.235 181.483 137.186C195.704 109.614 183.685 89.3371 198.019 79.4079C206.788 73.3448 219.298 75.125 225.638 75.8283C231.267 76.4485 236.746 78.0382 241.832 80.527C246.941 82.8506 251.717 85.3591 259.377 86.8797C261.76 87.3588 263.892 87.5477 265.793 87.8359C277.28 89.5868 281.558 86.3815 295.153 89.5684C300.459 90.8329 305.534 92.9241 310.19 95.7654C322.565 103.067 330.943 116.561 351.266 126.504C352.451 127.075 353.687 127.646 354.974 128.204C365.322 132.672 381.078 137.244 403.078 135.894" stroke="url(#paint14_linear_288_209)" stroke-width="0.391181" stroke-miterlimit="10"/>
<path d="M-13.4512 169.881C-1.20394 167.269 9.03942 165.564 16.3507 164.515C38.5942 161.429 43.4771 163.117 53.0024 158.119C62.9906 152.916 64.6617 147.319 75.1297 144.492C81.1308 142.904 87.4147 142.704 93.5046 143.907C105.025 145.904 105.791 154.475 116.574 160.597C129.748 168.078 144.441 166.298 146.675 165.449C159.1 160.577 169.696 151.951 176.988 140.773C177.981 139.187 178.647 137.764 179.181 136.78C193.692 110.883 182.446 91.4408 196.524 82.1152C205.392 76.2548 218.017 78.144 224.601 78.8058C230.276 79.4021 235.827 80.8558 241.065 83.1172C246.27 85.1963 251.128 87.3161 258.675 88.4177C261.081 88.7672 263.222 88.8192 265.123 89.1074C276.595 90.8654 280.636 88.5018 293.938 92.3139C299.17 93.8653 304.155 96.1554 308.74 99.1147C320.632 106.463 329.447 120.343 350.127 130.634C351.32 131.219 352.57 131.803 353.878 132.385C364.312 136.954 380.304 141.724 402.628 140.491" stroke="url(#paint15_linear_288_209)" stroke-width="0.391181" stroke-miterlimit="10"/>
<path d="M-13.0547 168.99C-1.06694 166.368 9.02573 164.569 16.352 163.441C37.9477 160.22 42.9976 161.743 52.4508 156.738C62.2366 151.613 64.0654 146.139 74.2161 143.317C80.0917 141.72 86.2445 141.421 92.2471 142.442C103.606 143.968 104.517 152.266 115.129 158.149C128.01 165.346 142.053 162.625 144.696 163.127C159.966 160.163 169.65 147.452 174.694 140.106C175.707 138.636 176.359 137.285 176.928 136.36C191.744 112.115 181.27 93.5587 195.083 84.8512C204.066 79.1935 216.783 81.1844 223.621 81.8193C229.346 82.3891 234.971 83.7059 240.354 85.7361C245.661 87.5709 250.58 89.2946 258.037 89.9845C260.458 90.2116 262.607 90.1195 264.523 90.4077C275.98 92.1657 279.784 90.6727 292.837 95.0813C298.367 96.9538 302.897 99.6118 307.403 102.5C318.826 109.86 328.034 124.204 349.109 134.793C350.306 135.393 351.571 135.992 352.903 136.588C363.43 141.273 379.651 146.239 402.298 145.124" stroke="url(#paint16_linear_288_209)" stroke-width="0.391181" stroke-miterlimit="10"/>
<path d="M-12.666 168.09C-0.959488 165.474 9.00411 163.579 16.3668 162.409C37.3001 159.06 42.4813 160.382 51.9343 155.406C61.5177 150.344 63.4537 145.001 73.352 142.191C79.0911 140.594 85.1002 140.212 90.9955 141.068C102.14 142.218 103.249 150.15 113.683 155.786C126.264 162.578 139.794 160.105 142.73 160.826C157.544 158.139 167.214 146.314 172.406 139.461C173.44 138.098 174.084 136.813 174.667 135.952C189.781 113.375 180.1 95.697 193.635 87.5858C202.732 82.1308 215.549 84.2305 222.625 84.8239C229.83 85.4255 234.902 86.9557 239.635 88.3464C245.045 89.9367 250.075 92.2236 257.384 91.5498C259.544 91.3332 261.724 91.3858 263.871 91.7063C275.322 93.4642 278.874 92.8057 291.67 97.854C297.025 99.9631 301.474 102.844 306.029 105.892C316.984 113.241 326.586 128.027 348.047 138.958C349.258 139.573 350.537 140.188 351.883 140.804C362.497 145.591 378.947 150.753 401.925 149.763" stroke="url(#paint17_linear_288_209)" stroke-width="0.391181" stroke-miterlimit="10"/>
<path d="M-12.2695 167.186C-0.793703 164.568 8.99035 162.579 16.3248 161.328C36.6316 157.875 41.98 159.01 51.3899 154.019C60.7997 149.028 62.85 143.823 72.4528 141.004C80.82 138.55 87.773 139.142 89.7665 139.626C100.396 142.228 101.997 147.972 112.26 153.362C124.54 159.812 137.571 157.566 140.779 158.499C155.13 156.082 164.779 145.173 170.14 138.797C171.188 137.543 171.824 136.322 172.414 135.519C187.825 114.61 178.96 97.8315 192.217 90.2878C201.441 85.0357 214.338 87.2441 221.666 87.8033C228.994 88.3626 234.124 89.7562 238.946 90.9384C244.451 92.2844 249.656 94.277 256.76 93.0826C258.904 92.7025 261.095 92.6677 263.249 92.9794C274.685 94.7372 277.993 94.9133 290.525 100.594C295.713 102.94 300.059 106.051 304.621 109.228C315.114 116.516 325.116 131.803 346.957 143.076C348.178 143.705 349.471 144.335 350.836 144.965C361.542 149.861 378.222 155.219 401.523 154.354" stroke="url(#paint18_linear_288_209)" stroke-width="0.391181" stroke-miterlimit="10"/>
<path d="M-11.875 166.308C-0.658549 163.666 8.96765 161.575 16.3097 160.274C35.9683 156.729 41.4769 157.657 50.8435 152.666C60.0364 147.759 62.2373 142.657 71.5589 139.842C79.6954 137.387 86.4555 137.747 88.478 138.209C98.8999 140.608 100.678 145.812 110.777 150.956C122.757 157.072 135.26 155.039 138.769 156.211C152.664 154.072 162.269 144.129 167.808 138.165C168.626 137.194 169.394 136.182 170.108 135.132C185.803 115.891 177.774 100.02 190.71 93.0365C200.07 87.9944 213.045 90.3188 220.618 90.8294C227.904 91.3307 233.251 92.6033 238.168 93.57C243.776 94.6716 249.157 96.3194 256.047 94.662C258.181 94.1139 260.401 93.9884 262.582 94.2924C274.011 96.0574 277.068 97.0534 289.342 103.381C294.37 105.964 298.599 109.29 303.195 112.626C313.235 119.911 323.63 135.633 345.85 147.248C347.081 147.891 348.388 148.536 349.772 149.18C360.55 154.185 377.473 159.74 401.105 158.993" stroke="url(#paint19_linear_288_209)" stroke-width="0.391181" stroke-miterlimit="10"/>
<path d="M-11.4785 165.425C-0.521709 162.796 8.94643 160.631 16.3037 159.215C35.307 155.564 40.9757 156.291 50.3351 151.3C59.3328 146.471 61.6625 141.5 70.6956 138.697C78.6447 136.24 85.1758 136.368 87.2561 136.809C97.4778 138.983 99.4617 143.67 109.36 148.574C121.04 154.35 133.058 152.536 136.826 153.905C150.257 152.044 159.805 142.994 165.549 137.536C166.374 136.646 167.149 135.711 167.87 134.734C183.862 117.168 176.67 102.219 189.284 95.7807C198.78 90.9416 211.826 93.3674 219.645 93.8438C226.995 94.3023 232.466 95.4461 237.471 96.1971C243.421 97.0605 249.463 97.0739 255.416 96.2369C257.956 95.9314 260.095 95.3129 261.975 95.5648C273.389 97.3368 276.195 99.1385 288.212 106.12C293.05 108.932 297.198 112.496 301.837 115.977C311.437 123.2 322.203 139.423 344.832 151.379C346.068 152.03 347.396 152.696 348.805 153.363C359.682 158.491 376.842 164.228 400.776 163.598" stroke="url(#paint20_linear_288_209)" stroke-width="0.391181" stroke-miterlimit="10"/>
<path d="M-11.0417 164.19C-0.344474 161.566 8.97307 159.292 16.3309 157.811C34.6571 154.076 40.4859 154.602 49.7589 149.588C58.5686 144.838 61.0199 139.989 69.7718 137.192C77.4613 134.733 83.8211 134.636 85.9593 135.049C95.9954 136.976 98.1343 141.174 107.883 145.832C119.256 151.266 130.775 149.672 134.815 151.252C147.804 149.669 157.237 141.571 163.215 136.525C164.047 135.717 164.831 134.861 165.563 133.961C181.795 118.069 175.512 104.05 187.791 98.1502C197.436 93.514 210.539 96.0413 218.611 96.4835C226.012 96.8918 231.614 97.9068 236.707 98.4422C242.514 99.055 247.931 98.6123 254.739 97.4301C257.316 96.9806 259.449 96.2395 261.321 96.5274C272.721 98.2993 275.283 100.907 287.043 108.557C291.706 111.598 295.752 115.385 300.425 119.025C309.593 126.173 320.731 142.896 343.71 155.201C344.96 155.873 346.296 156.547 347.725 157.235C358.689 162.45 376.056 168.398 400.342 167.893" stroke="url(#paint21_linear_288_209)" stroke-width="0.391181" stroke-miterlimit="10"/>
<path d="M-10.667 161.07C-0.229292 158.444 8.93018 156.097 16.2959 154.515C34.0099 150.703 39.9991 150.993 49.2286 146.015C57.843 141.342 60.4233 136.61 68.8939 133.825C76.3527 131.365 82.5122 131.043 84.7156 131.427C94.5661 133.094 96.8672 136.816 106.445 141.228C117.51 146.357 128.53 144.94 132.849 146.745C145.361 145.397 154.01 137.126 160.935 133.667C161.858 132.693 162.657 131.906 163.296 131.348C179.789 117.138 174.414 104.034 186.343 98.6724C196.145 94.2537 209.305 96.8822 217.622 97.283C225.075 97.6413 230.807 98.5275 235.988 98.8617C241.898 99.2301 247.42 98.3123 254.064 96.7972C256.679 96.2038 258.805 95.3401 260.67 95.6352C272.063 97.407 274.373 100.784 285.869 109.132C290.365 112.388 294.308 116.405 299.016 120.21C307.759 127.276 319.26 144.514 342.62 157.16C343.879 157.838 345.231 158.53 346.678 159.238C357.734 164.526 375.353 170.67 399.941 170.255" stroke="url(#paint22_linear_288_209)" stroke-width="0.391181" stroke-miterlimit="10"/>
<path d="M-10.2799 158.26C-0.0801186 155.632 8.92134 153.205 16.2949 151.536C33.3677 147.655 39.5462 147.701 48.6966 142.693C57.1157 138.106 59.8249 133.49 68.0071 130.71C75.2351 128.255 81.1943 127.737 83.4701 128.064C93.1425 129.455 95.5984 132.711 105.034 136.876C115.813 141.643 126.312 140.474 130.911 142.491C142.959 141.455 151.516 133.942 158.675 131.075C159.428 130.335 160.225 129.64 161.062 128.995C177.796 116.452 173.351 104.335 184.923 99.4538C194.889 95.2526 208.092 97.9824 216.654 98.3345C224.164 98.65 230.028 99.4074 235.29 99.5114C241.302 99.6355 246.936 98.2283 253.438 96.3949C256.083 95.6504 258.21 94.6712 260.075 95.0024C271.446 96.7813 273.52 100.957 284.75 109.973C289.05 113.444 292.919 117.684 297.641 121.655C305.96 128.624 317.817 146.391 341.556 159.386C342.82 160.117 344.192 160.79 345.657 161.508C356.799 166.948 374.625 173.259 399.565 173.019" stroke="url(#paint23_linear_288_209)" stroke-width="0.391181" stroke-miterlimit="10"/>
<path d="M-9.85207 155.452C0.0809493 152.823 8.93159 150.315 16.2987 148.545C32.7302 144.616 39.0258 144.425 48.1691 139.41C56.393 134.9 59.2311 130.401 67.1319 127.633C74.1437 125.177 79.8839 125.01 82.2292 124.732C91.7185 123.592 94.3341 128.643 103.57 132.555C114.027 136.959 124.041 136.031 128.92 138.266C140.512 137.509 148.961 130.78 156.39 128.507C157.15 127.84 157.954 127.224 158.797 126.665C175.763 115.796 172.263 104.66 183.507 100.266C193.63 96.2897 206.882 99.1064 215.698 99.4244C223.266 99.6898 229.253 100.311 234.603 100.207C240.718 100.086 246.449 98.1753 252.817 96.0165C255.499 95.1208 257.612 94.0335 259.477 94.3213C270.841 96.1074 272.679 101.06 283.63 110.766C287.792 114.453 291.536 118.922 296.307 123.06C304.187 129.924 316.423 148.227 340.541 161.601C341.819 162.302 343.2 163.033 344.684 163.794C355.912 169.343 373.974 175.88 399.238 175.736" stroke="url(#paint24_linear_288_209)" stroke-width="0.391181" stroke-miterlimit="10"/>
<path d="M-9.44285 152.636C0.230852 149.976 8.916 147.423 16.2983 145.561C32.0884 141.583 38.5373 141.141 47.6374 136.118C55.6659 131.694 58.6327 127.339 66.2457 124.512C73.0339 122.054 78.5808 121.72 80.9771 121.356C90.2303 119.983 93.0587 124.531 102.13 128.197C112.28 132.302 121.802 131.551 126.953 134.005C138.082 133.518 146.468 127.589 154.079 125.901C154.846 125.306 155.658 124.769 156.506 124.297C173.691 115.096 171.178 104.94 182 101.034C192.317 97.2964 205.59 100.2 214.643 100.469C222.27 100.692 228.387 101.177 233.826 100.857C240.043 100.492 245.872 98.0627 252.105 95.6362C254.817 94.5749 256.931 93.3794 258.789 93.6744C270.138 95.4604 271.754 101.183 282.448 111.586C286.442 115.488 290.084 120.18 294.882 124.491C302.388 131.245 314.937 150.091 339.435 163.755C340.722 164.481 342.118 165.212 343.622 165.949C354.942 171.599 373.227 178.332 398.822 178.307" stroke="#DDFA69" stroke-width="0.391181" stroke-miterlimit="10"/>
<path d="M-9.03035 149.827C0.361912 147.2 8.91089 144.539 16.3011 142.575C31.4715 138.564 38.0521 137.849 47.1089 132.833C54.9494 128.487 58.0382 124.212 65.3696 121.434C71.9272 118.973 77.2806 118.473 79.7352 118.022C88.7453 116.381 91.7934 120.47 100.694 123.881C110.536 127.653 119.559 127.115 124.99 129.786C135.662 129.578 143.919 124.434 151.801 123.339C152.576 122.817 153.395 122.363 154.248 121.98C171.607 114.416 170.118 105.321 180.555 101.851C190.991 98.3818 204.351 101.307 213.657 101.557C221.334 101.737 227.582 102.093 233.123 101.558C239.436 100.949 245.363 98.0439 251.468 95.2775C254.21 94.0507 256.325 92.7614 258.176 93.0492C269.511 94.8423 270.911 101.32 281.29 112.435C285.131 116.545 288.671 121.459 293.497 125.951C300.599 132.572 313.49 151.975 338.36 166.018C339.653 166.748 341.068 167.48 342.59 168.277C353.982 174.065 372.503 180.994 398.421 181.057" stroke="#DDFA69" stroke-width="0.391181" stroke-miterlimit="10"/>
<path d="M-8.62392 147.025C0.530438 144.397 8.90693 141.662 16.3051 139.604C30.8124 135.559 37.5608 134.579 46.5744 129.556C54.2197 125.287 57.4517 121.136 64.4801 118.391C70.8214 115.929 75.9814 115.261 78.4871 114.725C87.261 112.851 90.5147 116.436 99.2583 119.602C108.786 123.047 117.31 122.707 123.006 125.597C133.214 125.673 141.372 121.314 149.494 120.812C150.285 120.365 151.112 119.988 151.968 119.684C169.576 113.745 169.059 105.723 179.103 102.684C189.79 99.4538 203.106 102.487 212.664 102.659C220.392 102.803 226.771 103.024 232.386 102.273C238.802 101.419 244.812 97.96 250.797 94.9404C253.569 93.5191 255.677 92.1577 257.528 92.4527C268.855 94.2385 270.041 101.479 280.126 113.306C283.807 117.623 287.266 122.732 292.09 127.432C298.805 133.92 312.023 153.882 337.273 168.273C338.58 169.018 340.004 169.788 341.546 170.583C353.038 176.436 371.788 183.569 398.037 183.786" stroke="#DDFA69" stroke-width="0.391181" stroke-miterlimit="10"/>
<path d="M-8.21362 144.203C0.681201 141.573 8.89957 138.772 16.3057 136.607C30.1787 132.543 37.0807 131.282 46.0439 126.244C53.4938 122.067 56.8404 118.026 63.6019 115.293C68.0276 113.596 72.5916 112.284 77.2432 111.372C85.7807 109.272 89.2401 112.355 97.8197 115.267C107.032 118.385 115.101 118.279 121.055 121.359C130.8 121.698 138.865 118.139 147.228 118.223C148.03 117.852 148.865 117.557 149.722 117.34C167.476 113.031 168.017 106.107 177.655 103.489C188.542 100.535 201.873 103.439 211.669 103.742C219.453 103.98 225.957 103.921 231.667 102.961C238.164 101.863 244.279 97.8711 250.143 94.5767C252.938 93.0113 255.054 91.5274 256.898 91.8223C268.211 93.6153 269.197 101.604 278.981 114.15C282.502 118.667 285.851 124.013 290.71 128.887C297.029 135.235 310.575 155.761 336.204 170.502C337.518 171.232 338.954 172.043 340.512 172.855C352.097 178.832 371.076 186.154 397.649 186.489" stroke="#DDFA69" stroke-width="0.391181" stroke-miterlimit="10"/>
<path d="M-7.80359 141.386C0.867741 138.754 8.8991 135.894 16.3059 133.635C29.5445 129.566 36.5928 128.018 45.52 122.973C52.7603 118.881 56.243 114.949 62.716 112.229C67.0297 110.484 71.4703 109.071 75.999 108.002C84.3147 105.692 87.9653 108.264 96.3811 110.908C105.279 113.713 112.827 113.777 119.089 117.097C128.378 117.721 136.344 114.947 144.94 115.624C145.756 115.332 146.598 115.117 147.454 114.979C165.397 112.265 166.983 106.473 176.207 104.263C187.301 101.606 200.631 104.546 210.68 104.794C218.523 104.982 225.15 104.793 230.948 103.618C237.562 102.276 243.732 97.7506 249.497 94.1814C252.3 92.4431 254.432 90.8656 256.268 91.1605C267.574 92.9605 268.36 101.697 277.828 114.962C281.203 119.688 284.457 125.242 289.322 130.303C295.274 136.505 309.133 157.603 335.149 172.699C336.47 173.466 337.927 174.27 339.507 175.103C351.185 181.181 370.408 188.7 397.29 189.16" stroke="#DDFA69" stroke-width="0.391181" stroke-miterlimit="10"/>
<path d="M-7.39725 138.57C0.985649 135.944 8.90213 133.018 16.3099 130.629C28.8925 126.548 36.116 124.713 44.9928 119.66C52.0522 115.646 55.6496 111.808 61.8411 109.122C66.0424 107.363 70.355 105.883 74.7508 104.69C82.8517 102.177 86.6937 104.224 94.9239 106.614C103.514 109.093 110.563 109.355 117.105 112.9C125.93 113.795 133.796 111.813 142.64 113.09C143.47 112.876 144.319 112.74 145.174 112.684C163.308 111.55 165.916 106.941 174.74 105.11C186.041 102.757 199.371 105.726 209.673 105.904C217.566 106.049 224.324 105.732 230.211 104.341C236.928 102.754 243.166 97.696 248.825 93.852C251.644 91.9336 253.783 90.2841 255.619 90.5645C266.911 92.3645 267.518 101.857 276.664 115.84C279.886 120.767 283.073 126.522 287.915 131.785C293.523 137.833 307.666 159.473 334.068 174.955C335.396 175.736 336.868 176.554 338.47 177.403C350.233 183.582 369.671 191.305 396.898 191.861" stroke="#DDFA69" stroke-width="0.391181" stroke-miterlimit="10"/>
<path d="M-6.99281 135.755C1.13061 133.119 8.91044 130.149 16.3048 127.63C28.2889 123.559 35.6228 121.414 44.4563 116.361C51.3277 112.433 55.0467 108.718 60.9499 106.03C65.0407 104.229 69.2313 102.665 73.501 101.343C81.3871 98.6262 85.4059 100.156 93.5011 102.285C101.776 104.452 108.334 104.905 115.155 108.661C123.524 109.834 131.291 108.644 140.376 110.5C141.223 110.393 142.075 110.339 142.929 110.339C161.247 109.66 164.898 107.366 173.308 105.9C184.815 103.895 198.152 106.993 208.693 106.971C216.624 106.951 223.533 106.62 229.508 105.013C236.327 103.182 242.62 97.5841 248.188 93.4727C251.022 91.3741 253.177 89.631 255.006 89.9186C266.29 91.7185 266.719 101.952 275.528 116.654C278.604 121.788 281.696 127.745 286.551 133.224C291.77 139.118 306.247 161.367 332.993 177.168C334.338 177.966 335.819 178.796 337.438 179.659C349.287 185.962 368.961 193.874 396.512 194.569" stroke="#DDFA69" stroke-width="0.391181" stroke-miterlimit="10"/>
<path d="M-6.57675 132.948C1.28707 130.317 8.91587 127.295 16.3111 124.654C27.6751 120.6 35.141 118.146 43.9314 113.079C50.6075 109.235 54.4483 105.63 60.0774 102.954C65.2869 100.469 69.4791 99.0583 72.2628 97.9975C79.9412 95.0915 84.137 96.096 92.0684 97.9503C99.2427 99.6539 106.3 101.818 113.195 104.43C120.76 107.154 128.656 109.866 138.093 107.925C138.95 107.812 139.819 107.838 140.667 108.002C159.21 109.971 163.862 107.814 171.866 106.698C183.587 105.07 196.917 108.125 207.71 108.047C215.721 107.991 222.732 107.517 228.795 105.702C235.71 103.59 242.064 97.4806 247.54 93.1018C250.383 90.823 252.56 88.9935 254.389 89.2883C265.652 91.0953 265.916 102.078 274.366 117.497C277.297 122.84 280.315 128.984 285.147 134.672C289.978 140.36 304.812 163.196 331.908 179.403C333.258 180.199 334.78 181.054 336.395 181.939C348.338 188.343 368.234 196.451 396.122 197.271" stroke="#DDFA69" stroke-width="0.391181" stroke-miterlimit="10"/>
<path d="M-6.1702 130.129C1.43408 127.497 8.9187 124.474 16.3154 121.645C27.0519 117.608 34.6572 114.838 43.3972 109.763C49.914 106.005 53.8477 102.508 59.1884 99.8444C64.1745 97.3509 68.2235 95.8021 71.015 94.6477C78.493 91.5527 82.8513 92.0393 90.6261 93.6185C98.2641 95.1677 103.325 97.1088 111.226 100.188C118.343 102.967 125.938 103.55 135.809 105.346C136.716 105.512 137.589 105.504 138.402 105.654C157.165 109.168 162.817 108.273 170.414 107.493C182.341 106.277 195.679 109.245 206.711 109.118C214.779 109.02 221.921 108.41 228.072 106.393C235.09 104.066 241.491 97.3946 246.883 92.7412C249.735 90.2822 251.962 88.3666 253.755 88.6611C265.004 90.468 265.111 102.206 273.231 118.366C276.024 123.917 278.976 130.233 283.777 136.152C288.299 141.723 303.388 165.101 330.857 181.657C332.221 182.467 333.728 183.337 335.387 184.243C347.415 190.749 367.548 199.053 395.752 199.999" stroke="#DDFA69" stroke-width="0.391181" stroke-miterlimit="10"/>
<path d="M-5.72148 127.321C1.62326 124.687 8.97134 121.605 16.3543 118.683C26.4778 114.67 34.2079 111.606 42.9049 106.494C49.1975 102.82 53.2891 99.4334 58.3485 96.7746C63.1038 94.2866 66.9808 92.6067 69.8093 91.33C77.094 88.0461 81.6148 88.0149 89.2331 89.3117C96.5489 90.563 101.17 92.5368 109.299 95.9498C115.99 98.7826 123.442 100.143 133.56 102.763C134.459 102.994 135.352 103.094 136.18 103.309C155.176 108.36 161.845 107.415 169.005 108.29C181.203 109.722 193.481 110.353 205.761 110.179C213.887 110.045 221.153 109.299 227.413 107.052C234.534 104.481 240.976 97.2688 246.268 92.3479C249.121 89.7087 251.35 87.7138 253.164 88.0013C264.405 89.8153 264.348 102.302 272.125 119.144C274.779 124.896 277.679 131.385 282.435 137.541C286.613 142.943 301.978 166.922 329.826 183.82C331.197 184.645 332.698 185.528 334.4 186.45C346.52 193.072 366.875 201.572 395.411 202.628" stroke="#DDFA69" stroke-width="0.391181" stroke-miterlimit="10"/>
<path d="M-5.35736 125.298C1.72785 122.662 8.93911 119.558 16.3376 116.484C25.8552 112.51 33.6961 109.086 42.3858 103.996C48.4901 100.436 52.7036 97.1223 57.4817 94.483C62.0064 91.9861 65.7185 90.1752 68.5694 88.7977C75.6825 85.3323 80.3441 84.783 87.8058 85.7975C94.8066 86.7508 99.0097 88.7215 107.344 92.5615C113.624 95.4561 120.963 97.5655 131.29 101.031C132.189 101.333 133.081 101.535 133.93 101.822C153.175 108.396 160.819 109.059 167.568 109.931C179.906 111.542 192.342 112.269 204.783 112.104C212.961 111.927 220.357 111.045 226.677 108.583C233.908 105.753 240.382 98.0218 245.626 92.8626C248.473 90.0431 250.709 87.9545 252.546 88.2494C263.772 90.0705 263.573 103.306 270.983 120.874C273.498 126.841 276.369 133.488 281.058 139.882C284.905 145.123 300.54 169.695 328.768 186.942C330.146 187.781 331.69 188.679 333.384 189.615C345.591 196.346 366.182 205.043 395.041 206.223" stroke="url(#paint25_linear_288_209)" stroke-width="0.391181" stroke-miterlimit="10"/>
<path d="M-4.98048 124.211C1.84519 121.572 8.93389 118.467 16.2759 115.227C25.1877 111.292 33.1751 107.552 41.764 102.439C47.6804 98.9432 52.0084 95.7527 56.5051 93.1329C60.8064 90.6271 64.3535 88.6997 67.2343 87.1782C74.1757 83.5313 78.9781 82.4712 86.2762 83.196C92.9619 83.8586 96.776 85.7759 105.288 90.057C111.164 92.9846 118.41 95.8648 128.911 100.182C129.817 100.55 130.716 100.852 131.571 101.211C151.092 109.324 159.655 111.615 166.029 112.463C178.439 114.105 191.921 115.201 203.697 114.906C211.932 114.701 219.452 113.675 225.867 110.998C233.193 107.938 239.7 99.6587 244.882 94.189C247.73 91.1821 250.017 89.0218 251.825 89.3165C263.044 91.1303 262.695 105.129 269.747 123.408C272.123 129.583 274.978 136.381 279.579 143.027C283.103 148.1 299.001 173.265 327.608 190.86C329 191.707 330.551 192.627 332.267 193.584C344.566 200.417 365.38 209.31 394.57 210.63" stroke="url(#paint26_linear_288_209)" stroke-width="0.391181" stroke-miterlimit="10"/>
<path d="M-4.56464 123.177C2.00864 120.544 8.98199 117.438 16.2893 114.017C24.8316 110.092 33.1619 105.721 41.2461 100.923C46.9745 97.5048 51.3882 94.4158 55.6397 91.8231C59.7032 89.2939 63.0925 87.2571 66.0031 85.6133C72.78 81.7777 77.7159 80.2139 84.8504 80.6419C91.2282 81.021 94.6754 82.8419 103.335 87.5999C108.835 90.6185 115.997 94.219 126.643 99.3811C127.548 99.8204 128.454 100.224 129.323 100.648C149.114 110.298 158.527 114.6 164.594 115.042C177.269 115.944 190.692 118.12 202.721 117.755C211.014 117.522 218.658 116.338 225.161 113.452C232.59 110.148 239.123 101.3 244.241 95.5701C247.077 92.3829 249.401 90.1363 251.208 90.4237C262.413 92.2519 261.899 107.006 268.607 125.996C270.973 133.109 274.196 139.907 278.204 146.241C281.412 151.16 297.565 176.911 326.544 194.855C327.944 195.717 329.509 196.651 331.246 197.623C343.631 204.564 364.681 213.654 394.195 215.078" stroke="url(#paint27_linear_288_209)" stroke-width="0.391181" stroke-miterlimit="10"/>
<path d="M-4.16812 122.186C11.3252 115.716 26.3221 108.117 40.7017 99.4488C63.8336 85.4971 70.1842 77.9164 83.3981 78.1374C93.0219 78.3027 95.2624 82.4145 124.341 98.6294C146.211 110.825 157.147 116.898 163.132 117.664C184.641 120.34 208.149 123.629 224.428 115.957C236.164 110.428 245.524 90.822 250.564 91.6382C265.507 94.071 259.402 120.904 276.81 149.512C279.709 154.277 296.11 180.607 325.469 198.9C336.865 206 359.762 217.836 393.808 219.596" stroke="url(#paint28_linear_288_209)" stroke-width="0.391181" stroke-miterlimit="10"/>
<defs>
<linearGradient id="paint0_linear_288_209" x1="196.93" y1="170.624" x2="197.374" y2="111.016" gradientUnits="userSpaceOnUse">
<stop stop-color="#2F2F2F"/>
<stop offset="1" stop-color="#606060"/>
</linearGradient>
<linearGradient id="paint1_linear_288_209" x1="196.754" y1="170.184" x2="197.216" y2="108.06" gradientUnits="userSpaceOnUse">
<stop stop-color="#2F2F2F"/>
<stop offset="1" stop-color="#606060"/>
</linearGradient>
<linearGradient id="paint2_linear_288_209" x1="196.547" y1="170.039" x2="197.03" y2="105.101" gradientUnits="userSpaceOnUse">
<stop stop-color="#2F2F2F"/>
<stop offset="1" stop-color="#606060"/>
</linearGradient>
<linearGradient id="paint3_linear_288_209" x1="196.319" y1="170.448" x2="196.833" y2="101.479" gradientUnits="userSpaceOnUse">
<stop stop-color="#2F2F2F"/>
<stop offset="1" stop-color="#606060"/>
</linearGradient>
<linearGradient id="paint4_linear_288_209" x1="196.131" y1="170.857" x2="196.674" y2="97.8658" gradientUnits="userSpaceOnUse">
<stop stop-color="#2F2F2F"/>
<stop offset="1" stop-color="#606060"/>
</linearGradient>
<linearGradient id="paint5_linear_288_209" x1="195.905" y1="171.267" x2="196.479" y2="94.2137" gradientUnits="userSpaceOnUse">
<stop stop-color="#2F2F2F"/>
<stop offset="1" stop-color="#606060"/>
</linearGradient>
<linearGradient id="paint6_linear_288_209" x1="195.685" y1="171.677" x2="196.289" y2="90.6344" gradientUnits="userSpaceOnUse">
<stop stop-color="#2F2F2F"/>
<stop offset="1" stop-color="#606060"/>
</linearGradient>
<linearGradient id="paint7_linear_288_209" x1="195.49" y1="172.084" x2="196.123" y2="87.0437" gradientUnits="userSpaceOnUse">
<stop stop-color="#2F2F2F"/>
<stop offset="1" stop-color="#606060"/>
</linearGradient>
<linearGradient id="paint8_linear_288_209" x1="195.28" y1="172.494" x2="195.943" y2="83.405" gradientUnits="userSpaceOnUse">
<stop stop-color="#2F2F2F"/>
<stop offset="1" stop-color="#606060"/>
</linearGradient>
<linearGradient id="paint9_linear_288_209" x1="195.089" y1="172.905" x2="195.782" y2="79.8174" gradientUnits="userSpaceOnUse">
<stop stop-color="#2F2F2F"/>
<stop offset="1" stop-color="#606060"/>
</linearGradient>
<linearGradient id="paint10_linear_288_209" x1="194.866" y1="173.312" x2="195.589" y2="76.163" gradientUnits="userSpaceOnUse">
<stop stop-color="#2F2F2F"/>
<stop offset="1" stop-color="#606060"/>
</linearGradient>
<linearGradient id="paint11_linear_288_209" x1="194.657" y1="173.723" x2="195.41" y2="72.5437" gradientUnits="userSpaceOnUse">
<stop stop-color="#2F2F2F"/>
<stop offset="1" stop-color="#606060"/>
</linearGradient>
<linearGradient id="paint12_linear_288_209" x1="194.433" y1="174.132" x2="195.216" y2="68.9231" gradientUnits="userSpaceOnUse">
<stop stop-color="#2F2F2F"/>
<stop offset="1" stop-color="#606060"/>
</linearGradient>
<linearGradient id="paint13_linear_288_209" x1="194.464" y1="173.23" x2="195.218" y2="71.9028" gradientUnits="userSpaceOnUse">
<stop stop-color="#2F2F2F"/>
<stop offset="1" stop-color="#606060"/>
</linearGradient>
<linearGradient id="paint14_linear_288_209" x1="194.473" y1="172.33" x2="195.198" y2="74.8845" gradientUnits="userSpaceOnUse">
<stop stop-color="#2F2F2F"/>
<stop offset="1" stop-color="#606060"/>
</linearGradient>
<linearGradient id="paint15_linear_288_209" x1="194.467" y1="171.429" x2="195.164" y2="77.8481" gradientUnits="userSpaceOnUse">
<stop stop-color="#2F2F2F"/>
<stop offset="1" stop-color="#606060"/>
</linearGradient>
<linearGradient id="paint16_linear_288_209" x1="194.521" y1="170.535" x2="195.189" y2="80.8356" gradientUnits="userSpaceOnUse">
<stop stop-color="#2F2F2F"/>
<stop offset="1" stop-color="#606060"/>
</linearGradient>
<linearGradient id="paint17_linear_288_209" x1="194.55" y1="169.632" x2="195.188" y2="83.8195" gradientUnits="userSpaceOnUse">
<stop stop-color="#2F2F2F"/>
<stop offset="1" stop-color="#606060"/>
</linearGradient>
<linearGradient id="paint18_linear_288_209" x1="194.568" y1="168.726" x2="195.178" y2="86.7677" gradientUnits="userSpaceOnUse">
<stop stop-color="#2F2F2F"/>
<stop offset="1" stop-color="#606060"/>
</linearGradient>
<linearGradient id="paint19_linear_288_209" x1="194.576" y1="167.845" x2="195.158" y2="89.7668" gradientUnits="userSpaceOnUse">
<stop stop-color="#2F2F2F"/>
<stop offset="1" stop-color="#606060"/>
</linearGradient>
<linearGradient id="paint20_linear_288_209" x1="194.63" y1="166.959" x2="195.183" y2="92.7447" gradientUnits="userSpaceOnUse">
<stop stop-color="#2F2F2F"/>
<stop offset="1" stop-color="#606060"/>
</linearGradient>
<linearGradient id="paint21_linear_288_209" x1="194.648" y1="166.418" x2="195.177" y2="95.3432" gradientUnits="userSpaceOnUse">
<stop stop-color="#2F2F2F"/>
<stop offset="1" stop-color="#606060"/>
</linearGradient>
<linearGradient id="paint22_linear_288_209" x1="194.614" y1="168.768" x2="195.162" y2="95.0936" gradientUnits="userSpaceOnUse">
<stop stop-color="#2F2F2F"/>
<stop offset="1" stop-color="#606060"/>
</linearGradient>
<linearGradient id="paint23_linear_288_209" x1="194.599" y1="171.514" x2="195.173" y2="94.4587" gradientUnits="userSpaceOnUse">
<stop stop-color="#2F2F2F"/>
<stop offset="1" stop-color="#606060"/>
</linearGradient>
<linearGradient id="paint24_linear_288_209" x1="194.629" y1="174.225" x2="195.228" y2="93.8005" gradientUnits="userSpaceOnUse">
<stop stop-color="#2F2F2F"/>
<stop offset="1" stop-color="#606060"/>
</linearGradient>
<linearGradient id="paint25_linear_288_209" x1="194.552" y1="204.731" x2="195.434" y2="86.1865" gradientUnits="userSpaceOnUse">
<stop stop-color="#2F2F2F"/>
<stop offset="1" stop-color="#606060"/>
</linearGradient>
<linearGradient id="paint26_linear_288_209" x1="194.484" y1="209.141" x2="195.417" y2="83.8228" gradientUnits="userSpaceOnUse">
<stop stop-color="#2F2F2F"/>
<stop offset="1" stop-color="#606060"/>
</linearGradient>
<linearGradient id="paint27_linear_288_209" x1="194.484" y1="213.591" x2="195.468" y2="81.4122" gradientUnits="userSpaceOnUse">
<stop stop-color="#2F2F2F"/>
<stop offset="1" stop-color="#606060"/>
</linearGradient>
<linearGradient id="paint28_linear_288_209" x1="194.468" y1="218.112" x2="195.504" y2="78.9703" gradientUnits="userSpaceOnUse">
<stop stop-color="#2F2F2F"/>
<stop offset="1" stop-color="#606060"/>
</linearGradient>
</defs>
</svg>
