<svg width="896" height="411" viewBox="0 0 896 411" fill="none" xmlns="http://www.w3.org/2000/svg">
<path d="M222.505 728.563C243.993 690.943 257.501 649.3 262.186 606.23C268.753 542.245 250.057 518.158 267.065 472.786C283.608 428.707 323.045 393.358 364.212 378.466C420.392 358.156 443.992 388.894 539.838 398.683C596.187 404.414 701.896 415.226 778.822 356.195C817.683 326.368 845.985 281.182 872.299 239.19C904.552 187.72 904.06 172.629 925.66 151.156C951.31 125.641 999.762 99.4162 1100.29 108.076" stroke="#DDFA69" stroke-width="1.03189" stroke-miterlimit="10"/>
<path d="M217.661 723.243C237.267 689.71 250.535 652.855 256.801 614.519C257.38 610.822 257.916 607.062 258.426 603.227C266.206 540.309 248.759 517.035 265.745 472.524C273.124 453.082 284.293 435.302 298.605 420.216C308.864 409.421 320.498 400.023 333.208 392.263C342.716 386.465 352.847 381.756 363.409 378.225C375.087 374.154 387.359 372.042 399.726 371.974C422.513 371.891 442.982 378.625 471.812 384.983C493.521 389.761 515.603 392.649 537.811 393.615C549.625 394.206 563.571 395.117 579.073 395.243C620.584 395.632 671.208 392.38 719.962 370.454C736.552 363.085 752.257 353.864 766.775 342.967C769.003 341.302 771.173 339.585 773.289 337.857C794.268 320.772 811.805 300.814 828.547 278.667C841.123 262.169 851.884 244.869 862.803 228.08C867.341 220.995 871.367 214.617 874.944 208.765C896.515 173.378 899.435 160.152 918.52 142.522C933.023 129.128 954.325 115.62 987.125 107.139C1014.01 100.171 1048.95 96.5925 1094.25 98.9897" stroke="#DDFA69" stroke-width="1.03189" stroke-miterlimit="10"/>
<path d="M212.859 717.849C232.521 685.052 246.061 648.956 252.82 611.319C253.457 607.698 254.058 604.024 254.624 600.297C263.684 538.376 247.54 515.927 264.441 472.249C271.765 452.654 282.894 434.701 297.185 419.424C307.503 408.564 319.247 399.154 332.094 391.45C341.688 385.75 351.936 381.234 362.616 377.998C374.448 374.265 386.779 372.354 399.186 372.333C422.816 372.145 443.582 378.02 471.443 383.333C492.696 387.294 514.294 389.104 535.91 388.735C547.282 388.661 560.558 389.012 575.328 388.278C614.689 386.328 660.773 381.094 708.063 357.927C724.456 350.006 740.083 340.589 754.745 329.796C757.004 328.11 759.21 326.414 761.354 324.691C782.828 307.527 800.374 288.751 818.118 267.148C831.474 250.862 842.177 233.783 853.287 217.005C857.909 210.047 862.072 203.737 865.849 197.912C888.147 163.412 891.773 150.63 911.369 133.939C926.298 121.221 947.842 108.419 980.859 99.9545C1007.84 93.0608 1042.95 89.0077 1088.18 89.8699" stroke="#DDFA69" stroke-width="1.03189" stroke-miterlimit="10"/>
<path d="M207.967 712.651C227.738 680.528 241.58 645.116 248.833 608.1C249.506 604.546 250.174 600.949 250.795 597.316C261.178 536.388 246.235 514.784 263.109 471.992C271.104 451.734 280.806 434.522 295.712 418.644C306.096 407.707 317.96 398.277 330.958 390.629C340.644 385.029 351.015 380.709 361.812 377.779C373.8 374.377 386.204 372.66 398.666 372.677C423.109 372.406 444.134 377.401 471.03 381.642C491.843 384.786 512.953 385.485 533.928 383.724C544.937 382.933 557.481 382.766 571.502 381.182C608.962 376.957 650.291 369.724 696.136 345.348C712.328 336.869 727.892 327.24 742.708 316.536C744.993 314.856 747.289 313.123 749.38 311.458C770.533 294.743 790.027 276.03 807.594 255.578C821.74 239.52 832.359 222.588 843.774 205.858C848.46 198.995 852.754 192.78 856.747 186.972C879.768 153.384 884.137 141.067 904.196 125.279C919.547 113.194 941.411 101.115 974.597 92.6982C1001.63 85.7729 1036.95 81.4351 1082.18 80.8415" stroke="#DDFA69" stroke-width="1.03189" stroke-miterlimit="10"/>
<path d="M203.117 707.358C222.953 675.93 237.081 641.245 244.851 604.902C245.567 601.411 246.314 597.899 246.972 594.355C258.556 534.41 245.021 513.72 261.778 471.713C270.032 451.124 279.105 434.032 294.265 417.849C304.702 406.838 316.681 397.399 329.828 389.828C339.618 384.293 350.132 380.151 361.066 377.522C373.172 374.441 385.617 372.892 398.109 372.911C423.375 372.572 444.707 376.586 470.671 379.94C488.977 382.289 508.562 381.961 532.001 378.703C542.652 377.237 554.552 376.515 567.767 374.097C603.526 367.554 639.877 358.333 684.199 332.8C700.178 323.791 715.679 313.96 730.64 303.345C732.968 301.66 735.243 299.963 737.402 298.299C758.837 281.919 778.844 263.75 797.207 243.987C812.176 228.135 822.605 211.399 834.326 194.784C838.995 188.069 843.501 181.828 847.715 176.078C871.389 143.335 876.554 131.562 897.119 116.671C912.901 105.235 935.034 93.8691 968.394 85.4732C995.497 78.6587 1030.98 73.8727 1076.16 71.8022" stroke="#DDFA69" stroke-width="1.03189" stroke-miterlimit="10"/>
<path d="M198.288 702.051C218.176 671.313 232.585 637.361 240.875 601.701C241.643 598.289 242.453 594.872 243.174 591.423C256.103 532.571 243.743 512.583 260.441 471.484C268.943 450.547 277.389 433.576 292.786 417.097C303.288 406.007 315.393 396.553 328.697 389.051C338.554 383.612 349.165 379.67 360.183 377.356C372.424 374.606 384.937 373.247 397.484 373.305C423.567 372.856 445.191 375.831 470.19 378.319C488.634 380.12 507.761 378.451 529.961 373.779C540.286 371.616 551.522 370.308 563.937 367.166C598.278 358.254 629.415 347.066 672.314 320.355C687.224 311.076 703.76 300.875 718.629 290.23C720.999 288.539 723.253 286.88 725.48 285.215C747.164 269.196 767.641 251.604 786.745 232.582C802.505 216.958 812.855 200.343 824.834 183.74C829.646 177.067 834.235 171.021 838.645 165.255C862.919 133.278 868.696 121.669 889.898 108.044C906.281 97.511 928.54 86.6091 962.09 78.2925C989.303 71.61 1024.94 66.3336 1070.06 62.7703" stroke="#DDFA69" stroke-width="1.03189" stroke-miterlimit="10"/>
<path d="M193.45 696.771C213.388 666.708 228.078 633.479 236.895 598.5C237.715 595.167 238.594 591.819 239.362 588.475C253.577 530.595 242.509 511.485 259.106 471.229C267.83 450.007 275.669 433.12 291.325 416.31C301.881 405.174 314.083 395.724 327.505 388.289C337.464 382.938 348.203 379.186 359.327 377.17C371.694 374.78 384.265 373.609 396.86 373.673C423.766 373.157 445.786 375.114 469.7 376.725C488.339 378.031 506.962 374.916 527.903 368.866C537.933 365.985 547.954 361.512 559.992 360.105C589.986 341.91 620.562 338.085 660.241 307.805C674.245 297.096 691.561 287.518 706.462 277.057C708.863 275.346 711.186 273.686 713.392 272.059C737.04 254.66 754.829 240.884 776.221 221.125C792.783 205.745 802.996 189.267 815.275 172.737C820.071 166.212 824.861 160.193 829.488 154.443C854.42 123.421 861.288 112.731 882.763 99.5868C899.425 89.439 922.137 79.4924 955.835 71.1917C983.08 64.4881 1018.93 58.9113 1064.02 53.8341" stroke="#DDFA69" stroke-width="1.03189" stroke-miterlimit="10"/>
<path d="M188.604 691.476C208.588 662.091 223.565 629.597 232.927 595.316C233.806 592.036 234.748 588.782 235.563 585.545C251.164 528.615 241.35 510.36 257.835 470.933C266.882 449.337 274.03 432.613 289.913 415.491C300.553 404.248 312.913 394.769 326.531 387.408C337.545 381.337 348.197 378.774 358.674 376.875C371.168 374.832 383.811 373.84 396.47 373.911C424.189 373.31 446.616 374.129 469.481 374.953C488.226 375.663 506.46 371.139 526.047 363.843C535.819 360.197 544.928 354.799 556.308 352.986C583.995 331.324 608.445 324.127 648.439 295.214C662.775 284.832 679.617 274.13 694.502 263.749C696.972 262.105 699.306 260.393 701.517 258.808C725.724 241.357 743.554 228.81 765.806 209.416C783.143 194.274 793.244 177.938 805.814 161.467C810.673 155.037 815.595 149.113 820.438 143.379C846.018 113.159 853.671 102.997 875.668 90.8082C892.751 81.2938 915.732 72.0595 949.614 63.7959C976.875 57.0818 1012.96 51.1677 1058.01 44.5872" stroke="#DDFA69" stroke-width="1.03189" stroke-miterlimit="10"/>
<path d="M183.781 686.187C203.788 657.47 219.048 625.724 228.978 592.163C229.899 588.946 230.91 585.762 231.878 582.582C248.722 526.698 240.221 509.283 256.558 470.731C265.863 448.803 272.373 432.184 288.52 414.772C299.199 403.457 311.657 393.966 325.402 386.674C336.622 380.603 347.3 378.388 357.866 376.726C370.913 374.671 382.712 374.588 395.873 374.285C424.409 373.574 447.67 369.087 469.054 373.318C487.777 369.839 509.311 372.645 524.099 358.856C531.797 351.68 541.864 348.135 552.542 345.919C577.949 320.795 598.027 312.623 636.561 282.648C650.624 271.717 667.672 260.742 682.493 250.539C685.011 248.865 687.418 247.264 689.603 245.604C714.338 228.122 732.256 216.841 755.373 197.854C773.569 182.94 783.502 166.762 796.346 150.36C801.268 144.024 806.327 138.169 811.38 132.478C837.519 103.097 846.126 93.5113 868.571 82.1666C886.112 73.3066 909.377 64.7742 943.412 56.5688C970.767 49.9286 1006.94 43.6348 1052.02 35.5089" stroke="#DDFA69" stroke-width="1.03189" stroke-miterlimit="10"/>
<path d="M178.949 680.905C198.979 652.825 214.51 621.794 224.983 588.929C225.956 585.792 227.072 582.765 228.077 579.607C246.34 524.653 238.977 508.194 255.234 470.449C264.824 448.194 270.68 431.69 287.054 413.967C297.804 402.586 310.382 393.084 324.268 385.853C335.694 379.783 346.429 377.963 357.07 376.481C370.031 374.711 381.904 374.944 395.329 374.625C424.699 373.863 448.309 367.842 468.723 371.644C487.5 367.147 509.383 368.625 522.199 353.863C529.212 345.794 538.811 341.442 548.767 338.862C571.893 310.275 587.594 301.086 624.674 270.092C638.473 258.628 655.564 247.441 670.49 237.329L677.727 232.515C703.031 214.997 721.038 204.913 745.008 186.386C764.022 171.704 773.791 155.658 786.936 139.33C791.921 133.09 797.112 127.33 802.392 121.67C829.068 93.0973 838.603 84.0818 861.516 73.6131C879.5 65.4183 903.048 57.5875 937.241 49.414C964.666 42.8425 1001.08 36.09 1046.06 26.5187" stroke="#DDFA69" stroke-width="1.03189" stroke-miterlimit="10"/>
<path d="M174.12 675.643C194.13 648.203 209.918 617.921 220.958 585.804C222.043 582.799 223.159 579.772 224.259 576.756C243.807 522.842 237.773 507.213 253.902 470.238C263.788 447.672 269.058 431.215 285.607 413.24C296.402 401.773 309.095 392.256 323.127 385.105C334.774 379.024 345.488 377.515 356.25 376.318C369.19 374.928 381.078 375.356 394.756 375.006C424.954 374.15 448.919 366.636 468.258 370.057C487.115 364.548 502.746 356.662 520.176 348.973C528.001 341.301 535.645 334.868 544.931 331.865C565.719 299.763 577.043 289.626 612.731 257.639C626.204 245.547 643.358 233.975 658.422 224.206C660.987 222.499 663.441 220.867 665.705 219.36C691.958 202.375 709.617 193.004 734.483 174.863C754.33 160.403 763.93 144.515 777.381 128.235C782.44 122.106 787.773 116.388 793.222 110.844C820.435 83.079 830.856 74.7078 854.285 65.0836C872.716 57.5274 896.533 50.4092 930.927 42.2621C958.409 35.7434 994.953 28.6324 1039.95 17.542" stroke="#DDFA69" stroke-width="1.03189" stroke-miterlimit="10"/>
<path d="M169.3 670.353C189.341 643.528 205.429 613.964 217.07 582.567C218.138 579.572 219.344 576.646 220.507 573.725C241.447 520.804 236.635 506.051 252.627 469.967C262.777 447.043 267.324 430.77 284.179 412.431C295.061 400.857 307.913 391.309 322.137 384.233C334.053 378.111 344.799 376.924 355.523 376.048C368.489 374.938 380.377 375.641 394.329 375.359C425.324 374.43 449.675 365.402 467.97 368.422C486.881 361.894 501.944 352.673 518.341 344.05C525.729 335.48 532.667 328.261 541.278 324.862C559.801 289.356 566.669 278.117 600.95 245.147C614.128 232.475 631.435 220.687 646.515 211.044C649.112 209.317 651.566 207.684 653.846 206.167C680.648 189.183 698.421 181.083 724.131 163.317C744.78 149.101 754.232 133.334 767.983 117.128C773.095 111.077 778.544 105.534 784.262 99.8799C811.991 72.8905 823.434 65.0953 847.268 56.3893C866.142 49.4981 890.233 43.0658 924.795 34.9664C952.335 28.5005 989.133 20.9466 1034.03 8.3951" stroke="#DDFA69" stroke-width="1.03189" stroke-miterlimit="10"/>
<path d="M164.475 665.088C184.511 638.867 200.872 610.031 213.102 579.381C214.186 576.375 215.508 573.623 216.724 570.781C239.082 518.859 235.493 504.983 251.32 469.716C261.766 446.481 265.659 430.323 282.756 411.663C293.673 400.038 306.612 390.495 320.941 383.497C332.931 377.485 343.882 376.504 354.707 375.882C367.556 375.146 379.508 376.081 393.708 375.657C425.541 374.649 450.237 364.114 467.514 366.736C486.505 359.197 501 348.778 516.295 339.014C523.241 329.574 529.478 321.541 537.399 317.756C553.631 278.772 556.069 266.505 588.959 232.543C601.831 219.274 619.45 207.508 634.355 197.775C636.984 196.026 639.454 194.383 641.734 192.866C669.116 175.861 686.503 168.315 713.531 151.637C735.329 138.187 744.296 122.034 758.316 105.855C763.565 99.8747 769.137 94.1857 775.006 88.813C803.241 62.5837 815.654 55.4224 839.957 47.5924C859.289 41.3558 883.638 35.6199 918.369 27.5681C946.046 21.1024 982.966 13.2163 1027.82 -0.838529" stroke="#DDFA69" stroke-width="1.03189" stroke-miterlimit="10"/>
<path d="M161.897 663.218C181.909 637.563 198.527 609.433 211.341 579.526C212.53 576.679 213.867 573.916 215.162 571.159C238.922 520.245 236.588 507.225 252.23 472.813C262.95 449.235 266.189 433.193 283.524 414.237C294.499 402.531 307.557 392.969 322.031 386.04C334.316 379.992 345.241 379.348 356.165 378.979C368.988 378.718 380.928 379.911 395.418 379.408C428.033 378.27 453.157 366.284 469.38 368.489C488.435 359.947 502.345 348.272 516.603 337.463C523.096 327.136 528.627 318.317 535.863 314.12C549.814 271.673 547.754 258.242 579.357 223.513C591.941 209.638 609.733 197.687 624.681 188.086L632.186 183.299C659.737 165.656 677.998 160.589 705.469 143.685C727.8 129.972 736.887 114.447 751.24 98.3891C756.619 92.4511 762.334 86.8265 768.357 81.543C797.018 56.1264 810.501 49.578 835.246 42.6188C855.037 37.0367 879.659 31.9867 914.559 23.9826C942.278 17.5802 979.404 9.28299 1024.22 -6.27516" stroke="#DDFA69" stroke-width="1.03189" stroke-miterlimit="10"/>
<path d="M160.286 662.848C180.299 637.82 197.211 610.463 210.655 581.373C211.903 578.579 213.303 575.911 214.662 573.249C239.882 523.26 238.665 511.095 254.232 477.532C265.264 453.633 267.822 437.701 285.4 418.423C296.456 406.657 309.651 397.103 324.281 390.274C336.767 384.252 347.702 383.831 358.705 383.82C371.422 383.743 383.463 385.19 398.137 384.724C431.611 383.539 457.059 370.013 472.254 371.806C491.389 362.251 506.912 351.422 517.924 337.45C525.809 327.431 528.752 316.541 535.355 312.149C547.01 266.25 540.437 251.664 570.68 215.99C582.921 201.497 600.93 189.356 615.861 179.903C618.553 178.112 621.139 176.575 623.446 175.132C651.577 157.468 669.9 153.662 698.262 137.17C721.405 123.716 730.334 108.297 745.019 92.3608C750.505 86.4505 756.36 80.8928 762.547 75.7208C791.677 51.0431 806.178 45.1656 831.381 39.0667C851.624 34.1654 876.52 29.8015 911.578 21.8292C939.339 15.4901 976.671 6.7816 1021.51 -10.1849" stroke="url(#paint0_linear_52_821)" stroke-width="1.03189" stroke-miterlimit="10"/>
<path d="M158.774 662.462C178.766 638.003 195.955 611.382 210.022 583.097C211.338 580.372 212.818 577.789 214.213 575.216C240.888 526.315 240.899 515.069 256.233 482.255C267.545 458.055 269.438 442.223 287.35 422.587C298.412 410.684 311.703 401.067 326.468 394.28C339.186 388.263 350.199 388.2 361.202 388.396C373.872 388.625 385.965 390.356 400.972 389.807C435.242 388.548 461.05 373.504 475.243 374.889C494.458 364.391 509.361 351.941 519.313 337.235C526.788 326.187 529.072 314.754 534.922 309.743C544.27 260.376 533.193 244.652 562.134 208.085C574.049 192.964 592.221 180.692 607.158 171.281L614.832 166.542C643.517 148.852 661.928 146.312 691.161 130.201C715.157 117.001 723.834 101.613 738.866 85.7878C744.452 79.8913 750.435 74.3846 756.774 69.3064C786.346 45.3623 801.891 40.161 827.552 34.9223C848.238 30.6861 873.391 27.0187 908.634 19.0835C946.238 11.133 983.059 -0.152589 1018.66 -14.6394" stroke="url(#paint1_linear_52_821)" stroke-width="1.03189" stroke-miterlimit="10"/>
<path d="M157.646 662.756C177.595 638.825 195.048 612.918 209.73 585.439C211.115 582.782 212.647 580.278 214.105 577.801C242.251 529.908 243.4 519.481 258.602 487.532C270.241 463.001 271.438 447.289 289.513 427.384C300.65 415.412 314.085 405.806 329.016 399.14C341.935 393.151 353.001 393.373 364.072 393.842C376.677 394.388 388.812 396.388 404.041 395.828C439.14 394.476 465.245 377.955 478.467 378.912C497.721 367.337 512.002 353.405 520.979 337.954C528.006 325.856 529.574 313.757 534.744 308.377C541.811 255.548 526.204 238.68 553.828 201.231C565.416 185.482 583.811 173.062 598.768 163.82C601.571 162.093 604.204 160.523 606.532 159.112C635.845 141.371 654.26 140.107 684.341 124.413C709.15 111.473 717.71 96.2532 733.001 80.4391C738.713 74.5882 744.846 69.1644 751.352 64.2113C781.372 40.9745 797.965 36.4916 824.073 32.0972C845.212 28.5419 870.629 25.5446 906.051 17.6729C943.96 9.61156 980.924 -2.38529 1016.34 -18.1227" stroke="url(#paint2_linear_52_821)" stroke-width="1.03189" stroke-miterlimit="10"/>
<path d="M157.327 664.27C177.245 640.871 194.97 615.691 210.28 589.048C211.717 586.47 213.318 584.035 214.829 581.636C244.492 534.79 246.907 525.235 261.812 494.076C273.763 469.223 274.269 453.605 292.608 433.411C303.794 421.354 317.346 411.732 332.417 405.147C345.562 399.189 356.67 399.68 367.794 400.434C380.32 401.238 392.529 403.555 408.011 402.964C443.922 401.528 470.44 383.499 482.592 384.049C501.909 371.472 515.486 355.999 523.535 339.772C530.047 326.623 530.988 313.891 535.482 308.114C540.243 251.817 520.101 233.832 546.449 195.496C557.668 179.124 576.279 166.515 591.263 157.415C594.092 155.693 596.752 154.129 599.09 152.733C628.925 134.987 647.439 135.006 678.374 119.703C704.022 107.027 712.413 91.8967 727.973 76.1778C733.814 70.3623 740.091 65.0026 746.751 60.1456C777.208 37.6002 794.844 33.862 821.401 30.3121C842.961 27.3901 868.698 25.1158 904.278 17.2759C942.485 9.19011 979.586 -3.44358 1014.79 -20.3551" stroke="url(#paint3_linear_52_821)" stroke-width="1.03189" stroke-miterlimit="10"/>
<path d="M157.022 665.774C176.887 642.879 194.876 618.423 210.817 592.642C212.323 590.132 213.997 587.808 215.561 585.489C246.727 539.63 250.164 531.062 265.021 500.621C277.278 475.473 277.109 459.939 295.675 439.434C306.907 427.278 320.588 417.639 335.816 411.154C349.199 405.244 360.327 405.972 371.53 407.017C384.04 408.174 396.243 410.723 411.978 410.1C448.686 408.522 475.632 389.043 486.725 389.202C504.066 377.366 517.71 360.87 526.084 341.616C532.053 327.412 532.409 314.041 536.202 307.863C538.683 248.104 513.979 228.996 539.067 189.761C549.908 172.751 568.777 160.015 583.74 151.021C586.627 149.283 589.297 147.735 591.672 146.361C622.077 128.647 640.643 129.773 672.485 114.94C698.928 102.534 707.193 87.4884 723.053 71.8437C728.576 66.411 735.132 61.7757 742.237 56.0439C771.693 32.2686 791.817 31.1702 818.831 28.4804C840.876 26.2868 866.845 24.6351 902.594 16.8429C941.128 8.7112 978.397 -4.55746 1013.4 -22.6076" stroke="url(#paint4_linear_52_821)" stroke-width="1.03189" stroke-miterlimit="10"/>
<path d="M156.707 667.287C176.524 644.879 194.787 621.145 211.37 596.249C212.955 593.824 214.671 591.563 216.314 589.328C249.072 544.695 253.631 536.75 268.235 507.164C280.819 481.684 279.89 466.312 298.762 445.443C310.067 433.178 323.898 423.51 339.3 417.106C352.903 411.254 364.064 412.235 375.334 413.555C387.749 415.049 400.026 417.846 416.014 417.192C453.592 415.584 480.915 394.575 490.916 394.295C508.236 381.415 521.347 363.686 528.59 343.353C533.98 328.141 533.772 314.094 536.875 307.53C537.075 244.308 507.794 224.088 531.612 183.94C542.1 166.296 561.201 153.429 576.201 144.524C579.114 142.792 581.837 141.254 584.197 139.891C615.192 122.172 633.862 124.622 666.532 110.107C693.829 97.9547 701.825 83.0195 718.086 67.4279C724.342 61.8826 730.888 56.6739 737.697 51.8237C767.769 28.8718 788.758 28.3862 816.235 26.5302C838.717 25.0281 864.965 24.036 900.819 16.3335C939.644 8.14469 977.032 -5.78062 1011.75 -24.9841" stroke="url(#paint5_linear_52_821)" stroke-width="1.03189" stroke-miterlimit="10"/>
<path d="M156.391 668.8C176.161 646.858 194.708 623.844 211.948 599.863C213.586 597.517 215.344 595.319 217.061 593.195C251.315 549.576 257.056 542.514 271.468 513.602C284.364 487.938 282.733 472.645 301.843 451.481C313.174 439.131 327.109 429.455 342.639 423.154C356.48 417.35 367.688 418.574 378.995 420.189C391.399 421.942 403.681 425.055 419.938 424.359C458.313 422.677 486.022 400.087 495.021 399.537C512.396 385.615 525.038 366.657 531.211 345.265C535.969 329.034 535.235 314.333 537.663 307.373C535.556 240.683 501.635 219.256 524.288 178.284C534.396 160.001 553.73 147.003 568.719 138.219C571.674 136.482 574.424 134.949 576.804 133.617C608.406 115.883 627.112 119.589 660.651 105.454C688.798 93.5824 696.588 78.7156 713.129 63.2351C719.483 57.6998 726.17 52.5575 733.151 47.837C763.839 25.7085 785.692 25.8356 813.628 24.8399C836.568 23.9923 863.105 23.6756 899.086 15.9574C938.23 7.7136 975.765 -6.86411 1010.21 -27.2008" stroke="url(#paint6_linear_52_821)" stroke-width="1.03189" stroke-miterlimit="10"/>
<path d="M156.104 670.291C178.646 645.359 198.317 622.154 212.503 603.443C214.225 601.155 216.057 599.068 217.789 597.003C253.641 554.514 260.473 548.233 274.715 520.302C287.954 494.227 285.696 478.986 304.985 457.543C316.364 445.103 330.422 435.415 346.098 429.211C360.187 423.47 371.42 424.905 382.791 426.821C395.131 428.89 407.455 432.273 423.965 431.545C463.168 429.77 491.264 405.666 499.161 404.661C516.567 389.687 528.719 369.532 533.835 347.149C537.946 329.91 537.808 314.698 538.459 307.161C544.404 237.125 495.483 214.438 516.966 172.599C526.669 153.673 546.293 140.527 561.271 131.865C564.269 130.122 567.039 128.621 569.446 127.294C601.591 109.587 620.348 114.538 654.763 100.757C683.759 89.1661 691.353 74.3835 708.232 58.9982C714.546 53.2985 721.384 48.2067 728.654 43.7904C760.865 23.9157 782.687 23.241 811.075 23.0634C834.463 22.9229 861.248 23.287 897.492 15.6218C936.969 7.30447 974.665 -7.92792 1008.84 -29.3718" stroke="url(#paint7_linear_52_821)" stroke-width="1.03189" stroke-miterlimit="10"/>
<path d="M155.769 671.816C178.749 646.89 198.714 624.471 213.036 607.063C214.837 604.86 216.722 602.852 218.507 600.865C255.987 559.486 263.868 553.992 277.878 526.81C291.455 500.418 288.468 485.251 307.996 463.512C319.429 450.972 333.623 441.263 349.456 435.155C363.788 429.504 375.031 431.16 386.465 433.377C398.773 435.741 411.06 439.446 427.887 438.645C467.912 436.801 496.289 411.231 503.264 409.767C522.913 392.126 532.472 369.413 536.343 348.93C539.753 330.672 538.962 314.684 539.133 306.873C540.794 232.971 489.226 209.532 509.512 166.823C518.82 147.268 538.734 133.975 553.702 125.434C556.752 123.701 559.555 122.18 561.956 120.879C594.703 103.184 613.548 109.4 648.796 95.9792C678.614 84.6629 686.003 69.9486 703.203 54.6691C709.642 49.0017 716.624 43.9822 724.047 39.6833C756.685 20.4156 779.566 20.5437 808.428 21.2157C832.253 21.7667 859.317 22.7903 895.761 15.1517C924.003 9.22451 962.867 -2.67362 1007.33 -31.6614" stroke="url(#paint8_linear_52_821)" stroke-width="1.03189" stroke-miterlimit="10"/>
<path d="M155.453 673.329C178.823 648.372 199.136 626.818 213.579 610.655C215.469 608.553 217.407 606.624 219.191 604.637C258.279 564.541 267.293 559.755 281.092 533.354C294.89 506.952 291.313 491.583 311.094 469.539C322.561 456.892 336.879 447.163 352.86 441.16C367.445 435.615 378.71 437.441 390.195 439.942C402.446 442.596 414.832 446.554 431.849 445.764C472.65 443.747 501.45 416.753 507.381 414.887C527.111 396.234 535.801 372.18 538.902 350.747C541.669 331.592 540.109 314.791 539.901 306.683C537.166 229.127 483.019 204.731 502.178 161.15C511.054 140.946 531.253 127.532 546.242 119.091C549.319 117.364 552.158 115.864 554.633 114.537C587.997 96.9105 606.857 104.282 642.97 91.2681C673.626 80.2164 680.825 65.56 698.346 50.3863C704.908 44.7459 712.03 39.7934 719.602 35.6066C752.677 16.9617 776.586 17.9137 805.927 19.409C830.189 20.6514 857.532 22.3347 894.177 14.7227C922.492 8.83777 961.542 -3.4347 1005.95 -33.9574" stroke="url(#paint9_linear_52_821)" stroke-width="1.03189" stroke-miterlimit="10"/>
<path d="M155.146 674.836C178.911 649.889 199.551 629.169 214.102 614.235C216.072 612.217 218.052 610.352 219.952 608.539C260.606 569.594 270.711 565.522 284.287 539.885C298.581 512.924 294.134 497.929 314.157 475.563C325.662 462.804 340.116 453.055 356.256 447.169C371.104 441.746 382.39 443.74 393.918 446.51C406.131 449.487 418.533 453.708 435.829 452.892C477.48 450.881 508.389 424.449 511.5 420.026C527.589 397.24 539.126 374.992 541.453 352.567C543.53 332.478 541.338 314.864 540.581 306.344C533.409 225.345 476.684 199.786 494.73 155.323C503.185 134.486 523.696 120.955 538.663 112.62C541.798 110.878 544.648 109.393 547.086 108.114C581.009 90.4348 599.947 99.1251 636.929 86.4919C668.419 75.7311 675.401 61.1272 693.261 46.0488C699.946 40.4372 707.209 35.5519 714.927 31.4752C748.429 13.4373 773.392 15.2184 803.181 17.5581C827.854 19.4181 855.528 21.8401 892.357 14.2651C920.73 8.43303 959.976 -4.26647 1004.34 -36.2662" stroke="url(#paint10_linear_52_821)" stroke-width="1.03189" stroke-miterlimit="10"/>
<path d="M154.83 676.347C178.955 651.322 199.989 631.573 214.676 617.874C216.735 615.956 218.757 614.154 220.726 612.41C262.961 574.675 274.152 571.273 287.511 546.442C302.201 519.082 296.941 504.307 317.287 481.636C328.842 468.778 343.428 459.012 359.718 453.226C374.809 447.961 386.11 450.082 397.653 453.116C409.856 456.42 422.263 460.889 439.802 460.025C482.281 457.921 512.048 428.227 515.638 425.177C537.504 406.542 542.454 377.826 543.959 354.44C544.758 338.292 543.851 322.105 541.254 306.148C529.701 221.827 470.356 194.973 487.354 149.585C495.372 128.126 516.178 114.421 531.161 106.213C534.322 104.476 537.225 103.002 539.626 101.77C574.15 84.1706 593.145 94.0794 630.981 81.7688C663.299 71.3253 670.065 56.7053 688.267 41.7644C695.079 36.1814 702.486 31.3683 710.356 27.4128C744.299 9.9714 770.301 12.6608 800.553 15.7658C825.711 18.4226 853.6 21.4093 890.635 13.8345C919.082 8.04467 958.497 -5.01862 1002.83 -38.5321" stroke="url(#paint11_linear_52_821)" stroke-width="1.03189" stroke-miterlimit="10"/>
<path d="M154.515 677.86C179.056 652.946 200.432 634.02 215.229 621.481C264.198 579.997 276.975 578.121 290.724 552.985C305.763 525.461 299.823 510.592 320.327 487.609C331.92 474.639 346.637 464.848 363.08 459.168C394.496 448.777 408.939 468.908 443.774 467.16C487.076 464.987 516.935 433.406 519.766 430.312C557.552 389.186 545.631 325.599 542.042 305.853C526.173 218.373 464.124 190.097 479.962 143.86C489.156 117.026 518.318 102.354 532.229 95.3846C567.307 77.7597 586.38 88.9186 625.081 77.015C668.705 63.6183 666.368 42.6967 705.836 23.2933C768.846 -7.59078 807.182 29.8812 888.877 13.4523C917.381 7.71523 956.986 -5.74875 1001.28 -40.7656" stroke="url(#paint12_linear_52_821)" stroke-width="1.03189" stroke-miterlimit="10"/>
<path d="M154.049 675.313C178.083 650.736 198.874 631.789 213.608 619.154C260.936 578.259 273.887 575.856 287.5 550.789C302.185 523.66 296.782 508.981 316.637 486.361C327.95 473.605 342.234 463.836 358.224 457.919C388.565 446.667 402.956 466.102 437.032 464.037C479.205 461.61 508.488 431.463 512.015 428.18C545.06 397.54 541.206 347.454 538.304 321.289C537.719 315.945 536.932 311.535 536.492 308.264C523.779 223.915 464.551 196.481 480.831 151.937C490.573 125.378 520.104 110.781 534.501 103.374C547.673 96.5548 562.04 92.3491 576.811 90.9882C591.592 89.1725 606.135 88.5434 625.959 81.3631C632.027 79.1537 637.146 76.7535 641.726 74.5743C669.494 61.3782 673.271 45.8692 707.412 30.9915C720.602 25.2083 734.678 21.7068 749.04 20.6363C787.933 17.6048 824.628 34.309 882.378 25.9055C885.768 25.4165 889.253 24.8187 892.834 24.1119C921.702 18.4754 962.098 5.10186 1007.27 -30.1356" stroke="url(#paint13_linear_52_821)" stroke-width="1.03189" stroke-miterlimit="10"/>
<path d="M153.592 672.763C177.056 648.565 197.419 629.697 212.022 616.831C257.687 576.562 270.745 573.631 284.273 548.574C298.715 521.973 293.655 507.225 312.903 485.17C323.941 472.611 337.796 462.845 353.335 456.674C382.606 444.671 396.929 463.215 430.294 460.938C471.28 458.135 500.946 430.52 504.242 426.066C530.344 391 534.142 348.501 532.289 323.26C531.909 318.122 531.185 313.875 530.835 310.773C521.178 229.508 464.956 202.952 481.613 160.075C491.819 133.87 521.788 119.279 536.681 111.45C549.898 104.489 564.22 99.8691 579.013 97.7934C593.611 95.3235 607.754 93.7498 626.74 85.7563C632.655 83.2831 637.595 80.5452 642.175 78.366C669.865 65.2225 674.477 51.898 708.897 38.7771C722.361 33.7012 736.539 30.7747 750.913 30.1048C788.745 27.7791 826.99 44.8909 886.09 36.5942C889.525 36.0913 893.07 35.5146 896.705 34.8325C925.921 29.3071 967.108 16.024 1013.19 -19.4288" stroke="url(#paint14_linear_52_821)" stroke-width="1.03189" stroke-miterlimit="10"/>
<path d="M153.127 670.216C176.032 646.413 195.899 627.555 210.328 614.462C254.379 574.856 267.542 571.329 280.975 546.336C295.116 520.208 290.5 505.509 309.199 483.864C319.968 471.529 333.405 461.808 348.491 455.441C376.618 442.783 390.953 460.383 423.563 457.831C463.405 454.716 492.885 429.121 496.513 423.966C516.467 394.96 526.88 360.455 526.302 325.254C526.128 320.322 525.483 316.228 525.196 313.29C518.648 235.255 465.347 209.383 482.335 168.205C493.058 142.296 523.438 127.773 538.806 119.491C552.088 112.411 566.367 107.387 581.155 104.59C595.6 101.445 609.349 98.9003 627.471 90.157C633.244 87.3672 637.999 84.3179 642.58 82.1387C670.248 69.0321 675.586 57.8974 710.289 46.5753C724.015 42.2359 738.29 39.8771 752.683 39.5702C789.528 38.0611 829.297 55.3696 889.695 47.3063C893.166 46.8244 896.76 46.253 900.478 45.5921C930.032 40.162 972.026 26.9588 1018.99 -8.7147" stroke="url(#paint15_linear_52_821)" stroke-width="1.03189" stroke-miterlimit="10"/>
<path d="M152.679 667.682C175.003 644.243 194.401 625.4 208.745 612.111C251.181 573.168 264.467 569.035 277.731 544.131C291.545 518.473 287.455 503.811 305.468 482.646C315.949 470.475 328.954 460.733 343.579 454.095C370.657 440.65 384.908 457.437 416.791 454.615C455.574 451.315 482.242 424.62 488.759 421.815C517.751 392.775 520.135 350.691 520.306 327.187C520.347 322.477 519.776 318.563 519.652 315.698C516.214 240.827 465.908 215.749 483.232 176.311C494.503 150.677 525.237 136.239 541.117 127.525C554.469 120.313 568.709 114.879 583.472 111.363C597.781 107.532 611.077 104.033 628.392 94.5237C634.018 91.4436 638.579 88.067 643.191 85.8667C670.827 72.7813 676.933 63.8995 711.972 54.2499C726.824 50.1714 740.65 49.2884 754.765 48.9437C790.602 48.1509 831.917 65.8934 893.617 57.9C897.12 57.4428 900.767 56.882 904.558 56.2176C934.487 50.904 977.272 37.7913 1025.12 1.89706" stroke="url(#paint16_linear_52_821)" stroke-width="1.03189" stroke-miterlimit="10"/>
<path d="M152.2 665.144C173.918 642.131 192.893 623.272 207.254 609.836C248.054 571.593 261.33 566.827 274.636 541.986C288.101 516.765 284.439 502.23 301.918 481.465C312.101 469.496 324.668 459.783 338.817 452.945C364.871 438.993 379.013 454.688 410.142 451.591C447.669 447.846 473.583 422.453 481.065 419.691C509.47 391.933 513.133 351.807 514.353 329.159C514.6 324.654 514.108 320.893 514.111 318.15C513.786 246.483 466.512 222.152 484.109 184.429C495.928 159.07 527.042 144.722 543.381 135.566C560.016 126.235 573.36 122.087 585.759 118.132C599.931 113.616 614.302 111.182 629.278 98.9124C633.68 95.2469 638.52 92.1422 643.687 89.6697C671.308 76.5947 678.098 69.9079 713.519 62.0362C728.339 58.7331 742.317 58.4567 756.775 58.3866C791.572 58.2628 834.4 76.3918 897.451 68.5737C901.006 68.1272 904.71 67.5822 908.561 66.939C938.827 61.7206 982.403 48.6983 1031.16 12.5887" stroke="url(#paint17_linear_52_821)" stroke-width="1.03189" stroke-miterlimit="10"/>
<path d="M151.728 662.582C172.938 639.906 191.381 621.104 205.562 607.536C244.838 569.988 258.204 564.568 271.394 539.758C284.584 514.949 281.375 500.546 298.195 480.197C312.855 462.473 328.926 453.496 333.996 451.607C361.071 441.591 373.055 451.778 403.446 448.395C439.813 444.348 464.971 420.189 473.36 417.486C501.152 391.003 506.122 352.909 508.417 331.053C508.853 326.765 508.44 323.157 508.543 320.53C511.333 252.068 467.17 228.5 484.997 192.428C497.396 167.323 528.842 153.096 545.683 143.492C562.524 133.888 575.794 129.354 588.078 124.814C602.098 119.622 616.417 116.287 630.176 103.182C634.299 99.1843 639.036 95.8715 644.205 93.3693C671.794 80.3154 679.283 75.8129 715.062 69.7139C729.865 67.1756 743.959 67.5534 758.622 67.7578C792.321 68.1814 836.763 86.8131 901.148 79.181C904.745 78.752 908.501 78.2177 912.416 77.5781C943.046 72.4603 987.413 59.5285 1037.06 23.2141" stroke="url(#paint18_linear_52_821)" stroke-width="1.03189" stroke-miterlimit="10"/>
<path d="M151.294 660.081C171.903 637.737 189.85 618.945 203.973 605.256C241.697 568.465 255.106 562.355 268.201 537.608C281.043 513.305 278.314 498.902 294.527 478.98C308.68 461.593 323.986 452.394 329.089 450.415C355.409 440.261 366.983 449.007 396.651 445.329C431.869 440.996 456.187 418.081 465.589 415.458C492.794 390.256 499.096 354.337 502.387 333.12C502.741 329.789 502.924 326.443 502.935 323.094C508.807 257.857 467.814 235.036 485.766 200.663C498.772 175.816 530.56 161.727 547.866 151.654C564.527 141.986 578.094 136.867 590.267 131.715C604.151 125.837 618.344 121.489 630.953 107.687C634.806 103.338 639.472 99.7839 644.688 97.2254C672.272 84.1979 680.424 81.8587 716.596 77.5534C731.399 75.7694 745.555 76.7908 760.529 77.2909C793.231 78.3781 839.175 97.3806 904.894 89.9344C908.534 89.523 912.343 88.9993 916.321 88.3632C947.267 83.3776 992.457 70.5152 1043 33.9696" stroke="url(#paint19_linear_52_821)" stroke-width="1.03189" stroke-miterlimit="10"/>
<path d="M150.856 657.566C170.917 635.633 188.41 616.915 202.396 602.951C238.532 566.897 251.994 560.111 265.073 535.376C277.603 511.531 275.349 497.224 290.95 477.755C304.692 460.641 319.153 451.272 324.351 449.162C349.901 438.812 361.16 446.123 390.038 442.217C424.096 437.583 447.679 415.864 457.935 413.289C484.538 389.379 492.035 355.497 496.523 335.083C497.011 331.919 497.322 328.73 497.456 325.532C506.452 263.516 468.65 241.473 486.705 208.767C500.307 184.164 532.401 170.191 550.192 159.68C566.933 149.823 580.579 144.24 592.627 138.487C606.904 131.584 620.128 122.687 631.902 112.062C637.001 107.642 640.761 103.131 645.242 100.904C672.804 87.9133 681.597 87.7057 718.174 85.21C732.902 84.2065 747.231 85.8663 762.511 86.6199C794.163 88.223 841.658 107.77 908.774 100.468C912.435 100.065 916.323 99.5575 920.385 98.9338C951.732 94.0699 997.708 81.2557 1049.08 44.521" stroke="url(#paint20_linear_52_821)" stroke-width="1.03189" stroke-miterlimit="10"/>
<path d="M149.977 654.22C169.478 632.682 186.481 613.947 200.372 599.841C234.903 564.604 248.419 557.143 261.277 532.486C273.511 509.089 271.705 494.872 286.699 475.83C299.87 459.096 313.625 449.488 318.908 447.231C343.688 436.616 354.563 442.629 382.75 438.406C415.632 433.48 438.449 412.979 449.613 410.464C475.66 387.814 484.311 356.179 489.921 336.321C490.546 333.326 490.994 330.297 491.265 327.25C503.259 268.539 468.816 247.185 486.934 216.151C501.162 191.77 533.531 177.934 551.824 166.976C568.602 156.934 582.343 150.876 594.265 144.522C607.859 137.282 619.045 128.311 632.176 115.67C637.144 110.88 640.709 106.11 645.226 103.973C672.757 91.0034 682.207 92.9168 719.209 92.2624C733.894 92.0185 748.329 94.3166 763.92 95.3658C794.516 97.4426 843.561 117.535 911.959 110.476C915.683 110.1 919.597 109.598 923.739 108.99C955.402 104.19 1002.14 91.5291 1054.47 54.5475" stroke="url(#paint21_linear_52_821)" stroke-width="1.03189" stroke-miterlimit="10"/>
<path d="M146.192 646.849C165.123 625.69 181.672 607.028 195.432 592.69C228.512 558.189 242.028 549.974 254.844 525.46C266.766 502.521 265.414 488.368 279.811 469.768C292.476 453.371 305.461 443.568 310.844 441.152C334.833 430.242 345.362 434.978 372.81 430.469C404.569 425.331 426.557 405.953 438.665 403.517C464.015 382.085 470.697 351.235 480.72 333.443C481.299 329.952 481.882 327.051 482.454 324.889C497.504 269.467 466.399 248.771 484.547 219.43C499.44 195.292 532.082 181.594 550.85 170.183C567.665 159.956 581.502 153.424 593.319 146.499C606.777 138.574 617.489 128.41 629.771 115.283C634.608 110.124 637.978 105.095 642.49 102.984C670.005 90.0254 680.044 93.9913 717.498 95.252C732.135 95.7253 746.685 98.6777 762.597 100.038C792.143 102.563 842.743 123.242 912.476 116.369C916.228 115.989 920.207 115.505 924.414 114.914C956.388 110.136 1003.97 97.534 1057.09 60.2999" stroke="url(#paint22_linear_52_821)" stroke-width="1.03189" stroke-miterlimit="10"/>
<path d="M142.891 640.135C161.299 619.323 177.384 600.72 191.034 586.181C222.61 552.475 236.18 543.448 248.779 518.986C260.4 496.522 259.501 482.433 273.276 464.27C285.444 448.226 297.702 438.29 303.158 435.642C326.352 424.393 336.528 427.879 363.302 423.042C393.9 417.534 415.117 399.468 428.148 397.081C452.948 377.02 460.546 347.959 471.956 331.118C472.509 328.386 473.225 325.69 474.1 323.044C492.138 270.912 464.524 250.999 482.601 223.235C498.175 199.33 531.06 185.791 550.292 173.91C567.171 163.504 581.103 156.497 592.757 148.95C606.079 140.339 616.312 128.94 627.814 115.327C632.493 109.794 635.694 104.512 640.259 102.48C667.737 89.5685 678.439 95.6291 716.302 98.7416C730.827 99.9744 745.545 103.523 761.732 105.227C790.207 108.167 842.368 129.475 913.445 122.804C917.285 122.534 921.279 121.978 925.541 121.381C957.927 116.809 1006.21 104.266 1060.36 66.8955" stroke="url(#paint23_linear_52_821)" stroke-width="1.03189" stroke-miterlimit="10"/>
<path d="M139.672 633.369C157.494 612.947 173.131 594.39 186.617 579.64C216.72 546.777 230.196 537.059 242.769 512.591C254.078 490.586 253.633 476.56 266.811 458.84C278.505 443.112 290.803 434.268 295.518 430.195C314.57 413.684 327.75 420.86 353.711 415.764C383.071 409.938 403.585 393.116 417.549 390.793C441.762 372.013 450.287 344.825 463.162 328.882C463.838 326.301 464.686 323.767 465.701 321.3C486.722 272.482 462.62 253.317 480.701 227.104C496.949 203.458 530.071 190.035 549.805 177.707C566.737 167.105 580.738 159.619 592.277 151.486C605.462 142.189 615.164 129.545 625.891 115.42C630.427 109.501 633.439 104.002 637.941 101.876C665.413 88.9905 676.746 97.0982 715.019 102.131C729.559 104.039 744.345 108.273 760.885 110.268C788.246 113.628 842.026 135.55 914.49 129.144C918.32 128.789 922.419 128.347 926.787 127.817C959.52 123.355 1008.65 110.955 1063.65 73.3171" stroke="url(#paint24_linear_52_821)" stroke-width="1.03189" stroke-miterlimit="10"/>
<path d="M136.409 626.608C153.619 606.502 168.828 588.093 182.209 573.116C210.84 541.095 224.279 530.601 236.746 506.181C247.755 484.651 247.806 470.752 260.266 453.326C271.468 437.925 283.097 429.001 287.796 424.665C305.989 407.994 318.89 413.756 344.13 408.364C372.376 402.342 392.077 386.632 406.959 384.384C430.559 366.88 440.126 341.534 454.266 326.599C455.063 324.164 456.044 321.794 457.201 319.508C481.161 274.011 460.666 255.53 478.545 231.005C495.569 207.597 528.865 194.332 549.048 181.545C566.043 170.765 580.129 162.788 591.541 154.054C604.59 144.071 613.739 130.15 623.776 115.639C628.134 109.313 630.988 103.577 635.484 101.477C662.925 88.613 674.909 98.731 713.65 105.669C728.142 108.294 743.033 113.166 759.888 115.499C786.268 119.169 841.535 141.815 915.26 135.485C919.146 135.169 923.276 134.705 927.651 134.094C960.738 129.717 1010.64 117.418 1066.54 79.5488" stroke="#DDFA69" stroke-width="1.03189" stroke-miterlimit="10"/>
<path d="M133.158 619.863C149.803 600.248 164.553 581.801 177.802 566.591C205.029 535.413 218.354 524.128 230.736 499.787C241.449 478.705 241.885 464.801 253.801 447.897C264.497 432.833 275.456 423.829 280.155 419.219C297.42 402.32 310.122 406.753 334.613 401.059C361.694 394.761 380.618 380.254 396.433 378.07C419.447 361.847 429.893 338.406 445.499 324.37C446.424 322.084 447.541 319.881 448.839 317.785C475.602 275.609 458.909 257.933 476.592 234.932C494.274 211.931 527.792 198.587 548.497 185.384C565.54 174.435 579.721 165.983 591.039 156.627C603.936 145.969 612.596 130.865 621.852 115.8C626.031 109.068 628.748 103.126 633.218 101.021C660.638 88.1935 673.269 100.28 712.372 109.238C726.837 112.543 741.832 118.054 759.015 120.74C784.318 124.716 841.156 148.076 916.252 142.021C920.156 141.708 924.328 141.216 928.833 140.709C962.279 136.528 1012.99 124.309 1069.73 86.1554" stroke="#DDFA69" stroke-width="1.03189" stroke-miterlimit="10"/>
<path d="M129.912 613.136C146.035 593.868 160.3 575.515 173.428 560.089C199.156 529.817 212.455 517.704 224.732 493.41C235.133 472.786 236.064 458.941 247.368 442.559C257.59 427.81 267.879 418.727 272.562 413.853C288.967 396.795 301.376 399.824 325.16 393.824C351.07 387.277 369.197 373.94 385.914 371.841C408.335 356.926 419.724 335.348 436.732 322.252C437.798 320.107 439.05 318.059 440.472 316.132C470.175 277.139 457.195 260.374 474.655 238.892C493.239 216.045 526.819 203.002 547.963 189.256C565.064 178.154 579.33 169.212 590.491 159.275C603.251 147.931 611.274 131.492 619.892 116.052C623.85 108.85 626.446 102.761 630.926 100.671C658.32 87.8385 671.609 101.909 711.121 112.856C725.543 116.852 740.649 122.907 758.136 126.052C782.396 130.311 840.773 154.405 917.213 148.552C921.17 148.25 925.42 147.829 929.964 147.288C963.725 143.102 1015.24 130.989 1072.92 92.6839" stroke="#DDFA69" stroke-width="1.03189" stroke-miterlimit="10"/>
<path d="M126.637 606.361C142.189 587.472 156.011 569.209 168.997 553.535C193.311 524.158 206.531 511.206 218.676 486.955C228.787 466.821 230.13 453.045 240.869 437.084C248.033 426.836 256.068 417.225 264.886 408.361C280.443 391.159 292.557 392.785 315.608 386.473C340.348 379.678 357.824 367.526 375.385 365.46C397.183 351.805 409.551 332.111 427.95 319.939C429.156 317.944 430.544 316.065 432.096 314.326C464.529 278.68 455.482 262.747 472.676 242.789C492.104 220.248 525.527 206.9 547.383 193.091C564.748 182.111 578.872 172.372 589.933 161.839C602.509 149.841 609.975 132.083 617.923 116.219C621.718 108.67 624.151 102.3 628.615 100.221C655.987 87.4257 669.944 103.427 709.86 116.389C724.229 121.061 739.445 127.796 757.265 131.268C780.453 135.806 840.38 160.651 918.166 155C922.117 154.655 926.453 154.306 931.058 153.778C965.205 149.724 1017.5 137.686 1076.07 99.1598" stroke="#DDFA69" stroke-width="1.03189" stroke-miterlimit="10"/>
<path d="M123.372 599.601C138.434 581.038 151.759 562.922 164.608 547.042C187.529 518.593 200.644 504.797 212.7 480.582C222.477 460.944 224.279 447.205 234.406 431.697C241.255 421.511 248.872 411.862 257.189 402.835C271.949 385.502 283.727 385.73 306.025 379.074C329.615 372.061 346.204 361.048 364.794 359.051C386.015 346.693 399.325 328.862 419.111 317.641C420.465 315.798 421.985 314.084 423.652 312.518C458.856 280.077 453.765 265.076 470.656 246.621C490.975 224.424 524.451 211.155 546.777 196.851C564.194 185.675 578.398 175.472 589.333 164.338C601.804 151.633 608.601 132.63 615.928 116.312C619.486 108.372 621.813 101.776 626.262 99.7072C653.629 86.9379 668.253 104.87 708.542 119.869C722.9 125.211 738.215 132.542 756.325 136.415C778.495 141.174 839.951 166.806 919.107 161.362C923.127 161.086 927.5 160.689 932.184 160.177C966.685 156.208 1019.8 144.239 1079.23 105.529" stroke="#DDFA69" stroke-width="1.03189" stroke-miterlimit="10"/>
<path d="M120.096 592.851C134.535 574.726 147.513 556.636 160.172 540.472C181.641 512.964 194.715 498.282 206.649 474.125C216.147 454.925 218.339 441.223 227.901 426.205C234.484 416.154 241.721 406.548 249.566 397.448C263.556 379.987 274.977 378.785 296.494 371.849C318.929 364.576 334.72 354.734 354.254 352.817C374.863 341.734 389.125 325.782 410.339 315.507C411.836 313.812 413.489 312.261 415.276 310.875C453.23 281.607 452.12 267.681 468.699 250.644C489.92 228.807 523.437 215.601 546.212 200.77C563.677 189.426 577.977 178.748 588.786 167.012C601.12 153.621 607.28 133.352 613.969 116.59C617.295 108.233 619.533 101.468 623.961 99.3678C651.296 86.6196 666.647 106.467 707.292 123.513C721.612 129.519 737.08 137.388 755.437 141.737C776.625 146.669 839.505 173.067 920.075 167.893C924.131 167.639 928.557 167.253 933.31 166.74C968.148 162.866 1022.03 151.025 1082.36 112.015" stroke="#DDFA69" stroke-width="1.03189" stroke-miterlimit="10"/>
<path d="M116.832 586.091C130.69 568.329 143.304 550.345 155.742 533.916C175.918 507.315 188.777 491.793 200.616 467.7C209.828 448.963 212.469 435.352 221.397 420.755C227.677 410.777 234.523 401.166 241.902 391.97C255.122 374.382 266.164 371.787 287.001 364.481C308.286 356.991 323.285 348.292 343.742 346.424C363.764 336.623 378.98 322.549 401.575 313.183C403.268 311.698 405.053 310.321 406.917 309.058C445.946 280.513 450.535 270.105 466.749 254.477C488.934 233.094 522.657 220.162 545.66 204.54C562.961 192.779 577.573 181.849 588.255 169.511C600.454 155.435 605.934 133.904 612.028 116.694C615.122 107.92 617.255 100.927 621.677 98.8536C648.996 86.116 665.052 107.848 706.022 126.961C720.331 133.637 735.888 142.087 754.593 146.889C774.705 152.057 839.214 179.291 921.007 174.308C925.125 174.066 929.59 173.692 934.401 173.187C969.608 169.455 1024.29 157.679 1085.53 118.496" stroke="#DDFA69" stroke-width="1.03189" stroke-miterlimit="10"/>
<path d="M113.583 579.346C126.881 561.979 139.089 544.105 151.348 527.407C170.193 501.759 182.884 485.367 194.607 461.305C203.518 443.043 206.586 429.49 214.934 415.325C222.648 402.199 229.725 392.923 234.241 386.492C246.728 368.797 257.382 364.794 277.454 357.129C295.649 350.253 314.269 344.557 333.198 340.078C353.753 334.855 375.015 329.116 392.772 310.931C394.477 309.42 396.414 308.193 398.509 307.297C441.942 284.205 448.922 272.619 464.765 258.356C487.973 237.481 521.617 224.464 545.089 208.347C562.513 196.391 577.135 184.996 587.702 172.073C599.696 157.242 604.555 134.503 610.053 116.843C612.9 107.663 614.954 100.449 619.386 98.3914C646.669 85.7012 663.472 109.311 704.719 130.524C719.017 137.87 734.69 146.837 753.652 152.13C772.615 157.424 838.768 185.413 921.927 180.801C926.052 180.546 930.642 180.166 935.479 179.712C971.039 176.065 1026.5 164.389 1088.66 124.98" stroke="#DDFA69" stroke-width="1.03189" stroke-miterlimit="10"/>
<path d="M110.314 572.589C123.042 555.601 134.933 537.938 146.918 520.828C164.417 496.144 176.946 478.856 188.548 454.852C197.237 437.011 200.668 423.559 208.404 409.847C215.616 397.031 222.177 387.665 226.572 381.018C238.341 363.206 248.585 357.831 267.909 349.796C286.889 341.897 300.818 338.662 322.633 333.72C342.291 329.277 359.749 319.33 383.976 308.673C386.203 307.694 388.098 306.388 390.098 305.515C436.292 285.474 447.321 275.168 462.772 262.239C487.04 241.961 520.574 228.744 544.495 212.169C561.982 200.033 576.689 188.148 587.151 174.655C599.05 159.202 603.183 135.164 608.09 117.029C610.69 107.443 612.728 99.9651 617.082 97.9597C644.332 85.2906 661.909 110.784 703.529 134.103C717.831 142.108 733.614 151.549 752.85 157.391C770.963 162.884 838.477 191.682 922.965 187.282C927.143 187.038 931.722 186.71 936.686 186.241C972.583 182.689 1028.85 171.093 1091.88 131.49" stroke="#DDFA69" stroke-width="1.03189" stroke-miterlimit="10"/>
<path d="M107.141 565.79C119.3 549.182 130.805 531.592 142.622 514.297C158.817 490.572 171.183 472.455 182.637 448.435C190.962 431.111 194.9 417.665 202.028 404.379C208.745 391.917 214.735 382.518 219.031 375.549C230.099 357.61 239.932 350.863 258.497 342.442C276.333 334.369 289.348 331.855 312.155 327.304C330.963 323.609 349.258 315.573 375.239 306.352C377.545 305.527 379.646 304.426 381.772 303.674C430.748 286.648 443.926 274.73 460.866 266.065C489.637 251.173 517.401 234.412 543.981 215.89C561.542 203.591 576.318 191.226 586.681 177.069C598.443 160.929 601.865 135.651 606.161 117.078C608.497 107.096 610.419 99.4439 614.81 97.3911C642.056 84.7483 660.379 112.121 702.256 137.438C716.552 146.087 732.477 155.982 751.966 162.41C769.076 168.044 838.082 197.746 923.904 193.531C928.119 193.309 932.703 193.023 937.783 192.522C974.055 189.087 1031.1 177.592 1095.02 137.742" stroke="#DDFA69" stroke-width="1.03189" stroke-miterlimit="10"/>
<path d="M104.957 560.826C116.546 544.597 127.719 527.159 139.346 509.511C154.274 486.766 166.351 467.699 177.821 443.737C185.902 426.94 190.215 413.473 196.757 400.646C202.956 388.505 208.393 379.063 212.589 371.841C223.013 353.76 232.389 345.672 250.195 336.865C266.902 328.606 278.999 326.703 302.887 322.781C320.887 319.829 340.04 313.598 367.729 305.914C370.14 305.246 372.388 304.368 374.667 303.742C426.436 289.678 444.121 279.832 460.159 271.767C489.501 257.062 517.753 240.275 544.698 221.536C562.306 209.068 577.167 196.213 587.341 181.496C598.962 164.629 601.689 138.168 605.526 119.146C607.583 108.779 609.384 100.911 613.833 98.842C641.057 86.2361 660.175 115.455 702.324 142.899C716.636 152.223 732.729 162.508 752.423 169.554C768.574 175.324 839.044 205.923 926.212 201.911C930.463 201.71 935.163 201.393 940.249 200.933C976.869 197.61 1034.72 186.194 1099.53 146.139" stroke="url(#paint25_linear_52_821)" stroke-width="1.03189" stroke-miterlimit="10"/>
<path d="M104.173 557.898C115.191 542.048 126.095 524.789 137.353 506.861C151.015 485.096 162.945 465.122 174.161 441.26C181.926 424.879 186.671 411.513 192.628 399.144C198.325 387.313 203.23 377.861 207.277 370.28C217.059 352.055 225.988 342.643 243.008 333.445C258.597 325.016 269.765 323.571 294.691 320.352C311.857 318.069 331.947 313.658 361.275 307.579C363.797 307.044 366.208 306.376 368.608 305.899C423.254 294.786 445.352 287.144 460.535 279.579C490.082 264.834 521.162 247.311 546.461 229.27C564.154 216.655 579.074 203.304 589.137 187.975C600.627 170.464 602.616 142.758 605.859 123.15C607.642 112.37 609.448 104.27 613.834 102.244C641.032 89.6328 660.95 120.741 703.365 150.268C717.682 160.252 733.964 170.891 753.837 178.617C769.033 184.497 840.953 216.005 929.465 212.194C933.759 211.988 938.507 211.708 943.671 211.264C980.644 208.025 1039.27 196.711 1105.01 156.472" stroke="url(#paint26_linear_52_821)" stroke-width="1.03189" stroke-miterlimit="10"/>
<path d="M103.545 555.025C114.02 539.56 124.671 522.47 135.586 504.199C148.455 483 160.203 461.141 170.78 438.712C178.249 422.779 183.331 409.508 188.792 397.561C193.936 386.03 198.333 376.572 202.266 368.68C211.409 350.286 219.885 339.576 236.109 329.971C250.607 321.377 260.831 320.264 286.784 317.868C303.264 316.339 324.233 313.627 355.126 309.18C357.753 308.803 360.328 308.346 362.854 307.99C420.361 299.839 447.288 295.335 461.2 287.337C490.232 270.581 522.781 255.507 548.529 236.939C566.307 224.176 581.264 210.298 591.212 194.383C602.565 176.187 603.77 147.198 606.49 127.115C607.978 115.961 609.738 107.618 614.113 105.576C641.3 93.0172 661.976 126.02 704.69 157.61C720.368 169.658 737.454 179.753 755.571 187.673C769.849 193.684 843.193 226.095 933.034 222.497C937.365 222.312 942.165 222.042 947.398 221.599C984.719 218.471 1044.15 207.237 1110.75 166.746" stroke="url(#paint27_linear_52_821)" stroke-width="1.03189" stroke-miterlimit="10"/>
<path d="M102.945 552.272C127.245 515.243 148.791 476.479 167.411 436.293C197.35 371.629 200.029 345.681 229.233 326.642C250.509 312.785 261.479 318.461 348.983 310.936C414.795 305.278 447.664 302.393 461.876 295.223C512.834 269.296 569.068 241.755 593.308 200.937C610.786 171.516 602.276 114.843 614.498 109.179C650.746 92.4204 677.047 160.078 757.354 196.879C770.73 203.011 845.47 236.32 936.656 232.924C972.051 231.603 1039.57 223.642 1116.58 177.19" stroke="url(#paint28_linear_52_821)" stroke-width="1.03189" stroke-miterlimit="10"/>
<defs>
<linearGradient id="paint0_linear_52_821" x1="613.981" y1="361.033" x2="526.887" y2="230.111" gradientUnits="userSpaceOnUse">
<stop stop-color="#2F2F2F"/>
<stop offset="1" stop-color="#606060"/>
</linearGradient>
<linearGradient id="paint1_linear_52_821" x1="612.944" y1="360.33" x2="522.175" y2="223.884" gradientUnits="userSpaceOnUse">
<stop stop-color="#2F2F2F"/>
<stop offset="1" stop-color="#606060"/>
</linearGradient>
<linearGradient id="paint2_linear_52_821" x1="612.274" y1="360.319" x2="517.392" y2="217.69" gradientUnits="userSpaceOnUse">
<stop stop-color="#2F2F2F"/>
<stop offset="1" stop-color="#606060"/>
</linearGradient>
<linearGradient id="paint3_linear_52_821" x1="612.392" y1="361.543" x2="511.621" y2="210.063" gradientUnits="userSpaceOnUse">
<stop stop-color="#2F2F2F"/>
<stop offset="1" stop-color="#606060"/>
</linearGradient>
<linearGradient id="paint4_linear_52_821" x1="612.578" y1="362.721" x2="505.93" y2="202.406" gradientUnits="userSpaceOnUse">
<stop stop-color="#2F2F2F"/>
<stop offset="1" stop-color="#606060"/>
</linearGradient>
<linearGradient id="paint5_linear_52_821" x1="612.698" y1="363.944" x2="500.115" y2="194.707" gradientUnits="userSpaceOnUse">
<stop stop-color="#2F2F2F"/>
<stop offset="1" stop-color="#606060"/>
</linearGradient>
<linearGradient id="paint6_linear_52_821" x1="612.817" y1="365.168" x2="494.405" y2="187.169" gradientUnits="userSpaceOnUse">
<stop stop-color="#2F2F2F"/>
<stop offset="1" stop-color="#606060"/>
</linearGradient>
<linearGradient id="paint7_linear_52_821" x1="612.997" y1="366.347" x2="488.744" y2="179.568" gradientUnits="userSpaceOnUse">
<stop stop-color="#2F2F2F"/>
<stop offset="1" stop-color="#606060"/>
</linearGradient>
<linearGradient id="paint8_linear_52_821" x1="613.137" y1="367.557" x2="482.968" y2="171.885" gradientUnits="userSpaceOnUse">
<stop stop-color="#2F2F2F"/>
<stop offset="1" stop-color="#606060"/>
</linearGradient>
<linearGradient id="paint9_linear_52_821" x1="613.328" y1="368.733" x2="477.317" y2="164.278" gradientUnits="userSpaceOnUse">
<stop stop-color="#2F2F2F"/>
<stop offset="1" stop-color="#606060"/>
</linearGradient>
<linearGradient id="paint10_linear_52_821" x1="613.448" y1="369.955" x2="471.503" y2="156.58" gradientUnits="userSpaceOnUse">
<stop stop-color="#2F2F2F"/>
<stop offset="1" stop-color="#606060"/>
</linearGradient>
<linearGradient id="paint11_linear_52_821" x1="613.592" y1="371.161" x2="465.758" y2="148.935" gradientUnits="userSpaceOnUse">
<stop stop-color="#2F2F2F"/>
<stop offset="1" stop-color="#606060"/>
</linearGradient>
<linearGradient id="paint12_linear_52_821" x1="613.712" y1="372.384" x2="459.99" y2="141.307" gradientUnits="userSpaceOnUse">
<stop stop-color="#2F2F2F"/>
<stop offset="1" stop-color="#606060"/>
</linearGradient>
<linearGradient id="paint13_linear_52_821" x1="612.446" y1="370.369" x2="464.396" y2="147.817" gradientUnits="userSpaceOnUse">
<stop stop-color="#2F2F2F"/>
<stop offset="1" stop-color="#606060"/>
</linearGradient>
<linearGradient id="paint14_linear_52_821" x1="611.142" y1="368.383" x2="468.765" y2="154.358" gradientUnits="userSpaceOnUse">
<stop stop-color="#2F2F2F"/>
<stop offset="1" stop-color="#606060"/>
</linearGradient>
<linearGradient id="paint15_linear_52_821" x1="609.791" y1="366.426" x2="473.06" y2="160.889" gradientUnits="userSpaceOnUse">
<stop stop-color="#2F2F2F"/>
<stop offset="1" stop-color="#606060"/>
</linearGradient>
<linearGradient id="paint16_linear_52_821" x1="608.59" y1="364.392" x2="477.53" y2="167.38" gradientUnits="userSpaceOnUse">
<stop stop-color="#2F2F2F"/>
<stop offset="1" stop-color="#606060"/>
</linearGradient>
<linearGradient id="paint17_linear_52_821" x1="607.32" y1="362.38" x2="481.938" y2="173.904" gradientUnits="userSpaceOnUse">
<stop stop-color="#2F2F2F"/>
<stop offset="1" stop-color="#606060"/>
</linearGradient>
<linearGradient id="paint18_linear_52_821" x1="606.016" y1="360.371" x2="486.267" y2="180.362" gradientUnits="userSpaceOnUse">
<stop stop-color="#2F2F2F"/>
<stop offset="1" stop-color="#606060"/>
</linearGradient>
<linearGradient id="paint19_linear_52_821" x1="604.735" y1="358.434" x2="490.655" y2="186.947" gradientUnits="userSpaceOnUse">
<stop stop-color="#2F2F2F"/>
<stop offset="1" stop-color="#606060"/>
</linearGradient>
<linearGradient id="paint20_linear_52_821" x1="603.546" y1="356.419" x2="495.111" y2="193.418" gradientUnits="userSpaceOnUse">
<stop stop-color="#2F2F2F"/>
<stop offset="1" stop-color="#606060"/>
</linearGradient>
<linearGradient id="paint21_linear_52_821" x1="602.774" y1="355.21" x2="498.927" y2="199.105" gradientUnits="userSpaceOnUse">
<stop stop-color="#2F2F2F"/>
<stop offset="1" stop-color="#606060"/>
</linearGradient>
<linearGradient id="paint22_linear_52_821" x1="606.177" y1="360.395" x2="498.532" y2="198.58" gradientUnits="userSpaceOnUse">
<stop stop-color="#2F2F2F"/>
<stop offset="1" stop-color="#606060"/>
</linearGradient>
<linearGradient id="paint23_linear_52_821" x1="610.208" y1="366.418" x2="497.621" y2="197.176" gradientUnits="userSpaceOnUse">
<stop stop-color="#2F2F2F"/>
<stop offset="1" stop-color="#606060"/>
</linearGradient>
<linearGradient id="paint24_linear_52_821" x1="614.272" y1="372.3" x2="496.763" y2="195.658" gradientUnits="userSpaceOnUse">
<stop stop-color="#2F2F2F"/>
<stop offset="1" stop-color="#606060"/>
</linearGradient>
<linearGradient id="paint25_linear_52_821" x1="659.182" y1="439.075" x2="485.976" y2="178.709" gradientUnits="userSpaceOnUse">
<stop stop-color="#2F2F2F"/>
<stop offset="1" stop-color="#606060"/>
</linearGradient>
<linearGradient id="paint26_linear_52_821" x1="665.549" y1="448.818" x2="482.445" y2="173.574" gradientUnits="userSpaceOnUse">
<stop stop-color="#2F2F2F"/>
<stop offset="1" stop-color="#606060"/>
</linearGradient>
<linearGradient id="paint27_linear_52_821" x1="672.114" y1="458.544" x2="478.987" y2="168.231" gradientUnits="userSpaceOnUse">
<stop stop-color="#2F2F2F"/>
<stop offset="1" stop-color="#606060"/>
</linearGradient>
<linearGradient id="paint28_linear_52_821" x1="678.756" y1="468.446" x2="475.455" y2="162.84" gradientUnits="userSpaceOnUse">
<stop stop-color="#2F2F2F"/>
<stop offset="1" stop-color="#606060"/>
</linearGradient>
</defs>
</svg>
