<svg width="193" height="177" viewBox="0 0 193 177" fill="none" xmlns="http://www.w3.org/2000/svg">
<g clip-path="url(#clip0_61_2106)">
<rect x="0.333008" width="192.667" height="177" rx="20" fill="white"/>
<path d="M492.322 31.4442C409.539 49.4378 353.775 76.3333 317.95 97.7978C281.723 119.504 256.76 141.155 206.91 158.12C151.942 176.909 113.865 177.657 98.6576 177.17C77.573 176.488 78.3737 173.811 43.4114 170.189C-23.7499 163.23 -34.5656 172.274 -65.3154 165.649C-116.299 154.669 -107.202 125.367 -162.672 102.45C-202.844 85.8455 -265.828 77.1677 -317.589 97.1331C-366.332 115.937 -366.705 145.318 -419.47 157.192C-441.144 162.07 -460.122 161.048 -498.064 159.002C-546.683 156.43 -580.322 149.409 -593.687 147.169C-633.283 140.514 -694.957 141.7 -788.815 179.992" stroke="#DDFA69" stroke-width="0.823181" stroke-miterlimit="10"/>
<path d="M491.469 22.6362C411.242 39.3691 353.654 64.6959 314.382 87.213C282.514 105.688 259.047 124.276 224.88 140.085C217.405 143.535 209.495 146.974 200.887 150.202C146.642 170.528 109.198 173.91 93.4952 174.932C72.4389 176.312 72.0915 174.448 37.8354 170.938C13.6947 168.476 -3.34615 167.542 -16.4722 167.211C-38.7841 166.655 -49.6553 167.975 -68.043 163.344C-74.9 161.638 -81.475 159.284 -87.6381 156.329C-116.142 142.673 -119.16 120.554 -165.426 103.359C-205.699 88.3906 -267.904 81.6809 -318.792 101.379C-322.824 102.942 -326.761 104.669 -330.59 106.554C-369.221 125.592 -374.157 149.93 -420.547 160.374C-425.434 161.48 -430.398 162.32 -435.406 162.886C-452.225 164.833 -470.155 163.931 -498.572 162.38C-545.662 159.755 -578.774 152.853 -593.514 150.359C-604.304 148.563 -615.282 147.517 -626.331 147.232C-664.579 146.161 -717.07 153.094 -787.672 180.245" stroke="#DDFA69" stroke-width="0.823181" stroke-miterlimit="10"/>
<path d="M490.426 12.9041C412.782 28.4129 353.289 52.0536 310.66 75.8189C276.806 94.6834 252.243 114.196 218.82 130.418C211.193 134.131 203.278 137.919 194.68 141.429C141.164 163.314 104.581 170.305 88.1342 171.862C66.938 173.846 65.5781 174.247 32.0832 170.856C8.62865 168.468 -8.43975 167.029 -21.4158 166.16C-43.2727 164.724 -53.5499 165.283 -70.8853 160.205C-77.4964 158.24 -83.8334 155.729 -89.8005 152.711C-117.417 139.021 -122.451 118.544 -168.373 103.411C-208.749 90.09 -270.176 85.3557 -320.184 104.799C-324.411 106.485 -328.304 108.122 -331.903 109.932C-371.808 129.369 -377.119 152.661 -421.821 162.694C-426.669 163.801 -431.594 164.644 -436.562 165.22C-453.655 167.268 -471.543 166.442 -499.289 164.823C-544.852 162.197 -577.416 155.382 -593.524 152.74C-604.227 150.952 -615.11 149.877 -626.065 149.524C-664.014 148.228 -716.412 154.361 -786.624 179.721" stroke="#DDFA69" stroke-width="0.823181" stroke-miterlimit="10"/>
<path d="M489.195 2.34818C414.137 16.6111 352.814 38.7068 306.768 63.5856C271 82.922 245.295 103.317 212.65 119.968C204.859 123.949 196.925 128.079 188.364 131.879C135.579 155.318 99.5334 163.822 82.6711 168.053C61.8086 173.278 58.9596 173.311 26.2142 170.05C3.42512 167.766 -13.6712 165.814 -26.5598 164.419C-47.9445 162.117 -57.6552 161.899 -73.9353 156.389C-80.2544 154.156 -86.32 151.484 -92.0675 148.404C-118.796 134.696 -125.929 115.88 -171.406 102.814C-211.939 91.1548 -272.538 88.3916 -321.657 107.604C-325.847 109.282 -329.717 110.913 -333.297 112.686C-374.436 132.579 -380.161 154.791 -423.123 164.527C-427.936 165.635 -432.825 166.485 -437.758 167.071C-455.12 169.234 -473.023 168.473 -500.047 166.841C-544.053 164.231 -576.093 157.524 -593.57 154.648C-604.204 152.895 -615.001 151.798 -625.872 151.366C-663.518 149.852 -715.819 155.188 -785.615 178.781" stroke="#333333" stroke-width="0.823181" stroke-miterlimit="10"/>
<path d="M487.943 -8.30633C415.468 4.74461 352.344 25.2758 302.871 51.2833C265.181 71.1069 238.352 92.3968 206.457 109.465C198.515 113.711 190.578 118.193 182.028 122.279C129.97 147.248 94.7222 158.257 77.1839 164.19C56.463 171.203 52.3656 172.317 20.3191 169.196C-1.86107 166.996 -18.9018 164.554 -31.6705 162.662C-52.5795 159.506 -61.7132 158.491 -76.9484 152.564C-82.9637 150.068 -88.7589 147.24 -94.2953 144.099C-120.145 130.4 -129.384 113.234 -174.443 102.179C-215.134 92.1976 -274.896 91.402 -323.135 110.381C-327.275 112.05 -331.12 113.677 -334.693 115.425C-377.077 135.771 -383.206 156.795 -424.426 166.304C-429.207 167.4 -434.059 168.257 -438.953 168.869C-456.562 171.134 -474.399 170.441 -500.802 168.813C-543.28 166.208 -574.784 159.6 -593.626 156.524C-604.181 154.785 -614.891 153.664 -625.676 153.167C-663.033 151.431 -715.23 155.995 -784.617 177.81" stroke="#333333" stroke-width="0.823181" stroke-miterlimit="10"/>
<path d="M487.097 -15.6621C417.233 -3.76048 352.327 15.2467 299.479 42.4142C259.91 62.7586 231.979 84.9901 200.851 102.454C192.779 106.98 184.811 111.782 176.297 116.189C125.029 142.721 90.5499 156.215 72.4101 163.93C51.8161 172.675 46.411 174.968 15.1535 171.998C-2.11079 170.343 -19.2168 167.853 -36.076 164.542C-56.5455 160.57 -65.0799 158.742 -79.2259 152.463C-85.4059 149.705 -90.4877 146.554 -95.9091 143.558C-120.883 129.942 -132.272 114.372 -176.869 105.426C-217.758 97.183 -276.648 98.3991 -323.966 117.18C-328.066 118.844 -331.885 120.468 -335.434 122.194C-379.051 142.991 -385.526 162.999 -425.014 172.169C-429.755 173.263 -434.565 174.127 -439.417 174.756C-457.295 177.121 -475.084 176.548 -500.769 174.97C-541.694 172.443 -572.681 165.949 -592.874 162.69C-603.361 160.981 -613.991 159.851 -624.695 159.305C-661.745 157.383 -713.814 161.199 -782.753 181.313" stroke="#333333" stroke-width="0.823181" stroke-miterlimit="10"/>
<path d="M486.52 -21.3012C419.295 -10.5022 352.622 7.02276 296.405 35.3568C254.974 56.2409 225.985 79.443 195.598 97.2457C187.39 102.067 179.423 107.198 170.93 111.91C120.405 140.001 86.6931 155.984 67.9775 165.507C47.5484 175.935 40.8621 179.461 10.3461 176.671C-6.75267 175.108 -23.6219 172.347 -40.0783 168.418C-60.0544 163.652 -68.0463 161.002 -81.1467 154.296C-86.9585 151.341 -91.726 147.988 -97.1188 144.951C-121.25 131.347 -134.767 117.583 -178.895 110.645C-220.001 104.183 -278.002 107.412 -324.382 126.023C-328.428 127.683 -332.205 129.305 -335.756 131.012C-380.596 152.249 -387.452 171.218 -425.152 180.036C-429.855 181.139 -434.625 182.016 -439.439 182.662C-457.554 185.153 -475.323 184.691 -500.313 183.102C-539.689 180.637 -570.141 174.301 -591.714 170.852C-602.124 169.184 -612.665 168.048 -623.278 167.451C-660.032 165.359 -711.979 168.455 -780.453 186.907" stroke="#333333" stroke-width="0.823181" stroke-miterlimit="10"/>
<path d="M485.873 -27.0182C421.277 -17.3674 352.87 -1.28041 293.262 28.2351C249.984 49.6745 219.957 73.873 190.323 92.0789C181.982 97.2178 173.991 102.682 165.53 107.677C115.771 137.307 82.7983 155.741 63.5629 167.143C43.1534 179.232 35.3228 184.006 5.56197 181.393C-11.4085 179.868 -28.0702 176.783 -44.1109 172.194C-63.5654 166.65 -71.0369 163.136 -83.0917 156.074C-88.4991 152.904 -92.9722 149.383 -98.3294 146.271C-121.616 132.747 -137.311 120.71 -180.935 115.792C-222.261 111.131 -279.331 116.352 -324.739 134.769C-328.744 136.427 -332.493 138.048 -336.018 139.744C-382.065 161.501 -389.221 179.391 -425.218 187.975C-429.88 189.077 -434.607 189.966 -439.376 190.639C-457.743 193.312 -475.475 192.904 -499.767 191.323C-537.601 188.949 -567.508 182.733 -590.455 179.127C-600.792 177.484 -611.25 176.336 -621.778 175.687C-658.215 173.465 -710.041 175.837 -778.048 192.587" stroke="#333333" stroke-width="0.823181" stroke-miterlimit="10"/>
<path d="M485.226 -32.766C423.247 -24.246 353.088 -9.61256 290.116 21.0908C244.981 43.0937 213.919 68.3053 185.014 86.8552C176.56 92.2774 168.526 98.0468 160.127 103.407C111.122 134.581 78.8676 155.472 59.1288 168.753C38.7655 182.492 29.7846 188.54 0.766719 186.101C-16.0694 184.617 -32.5196 181.236 -48.123 176.054C-67.1613 169.733 -73.9989 165.335 -85.0087 157.913C-90.0268 154.518 -94.2273 150.853 -99.536 147.662C-121.98 134.203 -139.815 123.92 -182.936 120.987C-224.498 118.159 -280.627 125.327 -325.137 143.582C-329.102 145.238 -332.823 146.859 -336.326 148.523C-383.606 170.732 -391.081 187.606 -425.344 195.905C-429.97 197.007 -434.657 197.909 -439.386 198.608C-457.997 201.431 -475.752 201.106 -499.316 199.546C-535.585 197.233 -564.972 191.148 -589.281 187.374C-599.541 185.75 -609.913 184.58 -620.353 183.87C-656.499 181.442 -708.198 183.132 -775.749 198.201" stroke="#333333" stroke-width="0.823181" stroke-miterlimit="10"/>
<path d="M484.568 -38.5139C425.209 -31.0982 353.273 -17.9009 286.94 13.9906C239.9 36.5817 207.884 62.8121 179.678 81.6908C171.105 87.431 163.043 93.5049 154.68 99.1711C106.44 131.861 74.8919 155.203 54.676 170.418C34.3006 185.764 24.2186 193.126 -4.04278 190.857C-20.7615 189.383 -37.0088 185.679 -52.149 179.891C-70.7151 172.814 -76.9794 167.496 -86.9429 159.721C-91.572 156.099 -95.4599 152.293 -100.799 149.023C-122.422 135.638 -142.406 127.178 -185.006 126.161C-226.795 125.187 -281.972 134.278 -325.561 152.358C-329.472 154.01 -333.165 155.631 -336.666 157.223C-385.163 179.9 -392.972 195.761 -425.481 203.749C-430.073 204.873 -434.731 205.79 -439.433 206.494C-458.303 209.383 -475.96 209.221 -498.88 207.725C-533.597 205.471 -562.449 199.512 -588.132 195.571C-597.412 194.142 -607.633 192.883 -618.952 192.076C-654.786 189.482 -706.365 190.445 -773.449 203.842" stroke="#333333" stroke-width="0.823181" stroke-miterlimit="10"/>
<path d="M483.926 -44.1283C427.24 -37.8737 353.537 -26.123 283.821 6.96081C234.993 30.1297 201.927 57.4218 174.404 76.6229C165.726 82.6804 157.621 89.0515 149.299 95.0455C101.774 129.263 70.9096 155.055 50.3077 172.185C29.935 189.206 18.7556 197.82 -8.76156 195.721C-25.3814 194.255 -41.4421 190.239 -56.1153 183.879C-74.2377 176.036 -79.8301 169.769 -88.8207 161.669C-93.0613 157.819 -96.6642 153.863 -101.916 150.507C-122.714 137.213 -144.842 130.513 -186.896 131.453C-228.949 132.393 -283.138 143.36 -325.794 161.263C-329.664 162.914 -333.329 164.534 -336.803 166.126C-386.528 189.278 -394.672 204.129 -425.478 211.821C-430.019 212.95 -434.625 213.874 -439.276 214.59C-458.428 217.635 -476.015 217.552 -498.189 216.027C-531.365 213.841 -559.671 207.993 -586.724 203.897C-595.961 202.489 -606.101 201.237 -617.301 200.367C-652.822 197.603 -704.279 197.849 -770.915 209.553" stroke="#333333" stroke-width="0.823181" stroke-miterlimit="10"/>
<path d="M483.268 -49.699C429.149 -44.6068 353.764 -34.271 280.665 0.00549385C229.945 23.7424 195.968 52.1366 169.122 71.6203C160.328 78.009 152.178 84.6682 143.872 90.9949C97.0926 126.754 66.8958 154.971 45.9361 174.083C25.4958 192.675 13.2329 202.675 -13.4392 200.718C-31.1498 199.416 -48.0788 193.785 -60.0283 187.991C-77.7167 179.401 -82.7579 172.178 -90.6612 163.733C-94.4881 159.649 -97.8191 155.544 -103.024 152.096C-123.005 138.912 -147.223 134.023 -188.762 136.871C-230.995 139.737 -284.276 152.561 -326 170.288C-329.816 171.935 -333.453 173.556 -336.911 175.15C-387.847 198.79 -396.316 212.631 -425.358 220.005C-429.861 221.139 -434.428 222.077 -439.04 222.813C-458.406 226.016 -475.976 226.009 -497.526 224.504C-529.15 222.37 -556.881 216.637 -585.306 212.376C-594.496 210.999 -604.56 209.732 -615.622 208.818C-650.845 205.873 -702.182 205.398 -768.351 215.447" stroke="#333333" stroke-width="0.823181" stroke-miterlimit="10"/>
<path d="M482.623 -55.2204C431.109 -51.2928 354.063 -42.2579 277.525 -6.88902C225.084 17.5575 190.028 46.9236 163.838 66.7265C154.957 73.4545 146.722 80.3983 138.51 87.0474C92.4129 124.297 62.8901 155.033 41.5595 176.048C21.0489 196.26 7.83387 207.566 -18.1935 205.8C-35.2628 204.609 -52.1942 198.553 -64.0057 192.181C-81.2608 182.84 -85.6097 174.647 -92.5563 165.862C-96.0082 161.547 -99.0379 157.309 -104.209 153.77C-123.383 140.639 -149.71 137.645 -190.737 142.306C-233.203 147.141 -285.515 161.782 -326.305 179.344C-330.086 180.983 -333.691 182.603 -337.119 184.204C-389.297 208.309 -398.089 221.163 -425.393 228.219C-429.852 229.363 -434.376 230.313 -438.946 231.063C-458.556 234.407 -476.106 234.486 -496.966 233.001C-527.023 230.923 -554.253 225.259 -584.053 220.877C-593.201 219.511 -603.17 218.256 -614.122 217.29C-649.034 214.161 -700.249 212.963 -765.977 221.301" stroke="#333333" stroke-width="0.823181" stroke-miterlimit="10"/>
<path d="M481.982 -60.6799C433.086 -57.9046 354.273 -50.3175 274.391 -13.7197C220.103 11.3212 184.091 41.8203 158.558 61.8794C149.586 68.927 141.309 76.1721 133.127 83.1545C87.7313 121.919 58.8136 155.148 37.2166 178.123C16.6144 199.976 2.40662 212.642 -22.8134 211.02C-39.2521 209.95 -56.2009 203.459 -67.8533 196.482C-84.7016 186.39 -88.3638 177.201 -94.3141 168.077C-97.3167 163.508 -100.137 159.138 -105.246 155.514C-123.706 142.49 -152.328 140.334 -192.621 147.88C-234.983 155.814 -286.657 171.149 -326.529 188.536C-330.265 190.173 -333.838 191.793 -337.247 193.396C-390.69 217.909 -399.766 229.844 -425.334 236.58C-429.756 237.727 -434.241 238.686 -438.772 239.452C-458.627 242.927 -476.192 243.118 -496.293 241.662C-524.758 239.569 -551.514 233.966 -582.658 229.479C-591.762 228.133 -601.651 226.873 -612.468 225.85C-647.081 222.536 -698.176 220.61 -763.447 227.253" stroke="#333333" stroke-width="0.823181" stroke-miterlimit="10"/>
<path d="M481.395 -66.102C435.105 -64.4742 354.532 -58.3607 271.312 -20.515C215.179 5.12474 178.288 36.7406 153.358 57.119C144.261 64.5144 135.936 72.0305 127.83 79.3835C83.1172 119.704 54.8843 155.357 32.9359 180.322C12.1889 203.807 -3.04683 217.78 -27.532 216.332C-43.3272 215.38 -60.2915 208.463 -71.7981 200.879C-88.2363 190.054 -91.175 179.859 -96.2042 170.414C-98.7836 165.593 -101.366 161.098 -106.431 157.369C-124.024 144.426 -154.419 145.195 -194.469 153.532C-237.217 162.397 -287.744 180.599 -326.686 197.807C-330.316 199.44 -333.946 201.074 -337.308 202.666C-391.957 227.68 -401.387 238.619 -425.223 245.021C-429.601 246.179 -434.043 247.151 -438.53 247.93C-458.628 251.547 -476.109 251.814 -495.575 250.36C-522.543 248.37 -548.7 242.926 -581.208 238.22C-590.281 236.895 -600.093 235.682 -610.823 234.555C-645.113 231.115 -696.11 228.408 -760.876 233.341" stroke="#333333" stroke-width="0.823181" stroke-miterlimit="10"/>
<path d="M480.698 -71.4628C437.015 -71.0339 354.704 -66.3574 268.122 -27.2624C210.095 -1.01158 172.373 31.7733 148.083 52.3908C138.953 60.1323 130.489 67.9236 122.448 75.5854C78.3136 117.332 50.8333 155.623 28.6702 182.531C7.85623 207.707 -8.30307 222.977 -32.1359 221.682C-47.2877 220.847 -64.293 213.505 -75.6396 205.32C-91.6932 193.696 -93.8723 182.55 -97.9851 172.761C-100.105 167.671 -102.475 163.062 -107.48 159.236C-124.294 146.385 -156.719 149.132 -196.263 159.216C-239.147 170.103 -288.798 190.092 -326.796 207.13C-330.423 208.768 -333.961 210.391 -337.337 211.904C-393.205 237.424 -402.945 247.392 -425.061 253.469C-429.434 254.624 -433.87 255.591 -438.353 256.367C-456.967 259.811 -476.056 260.717 -494.861 259.049C-520.278 257.097 -545.898 251.765 -579.772 246.894C-588.797 245.598 -598.524 244.345 -609.087 243.188C-658.428 237.98 -708.381 236.692 -758.268 239.341" stroke="#333333" stroke-width="0.823181" stroke-miterlimit="10"/>
<path d="M480.064 -76.803C438.976 -77.5578 354.911 -74.3416 264.997 -33.9838C205.18 -7.13398 166.529 26.7755 142.785 47.7008C37.4105 140.646 15.5294 229.725 -36.8144 227.132C-51.3228 226.413 -68.3691 218.644 -79.5455 209.843C-103.412 191.063 -94.191 172.62 -108.609 161.172C-143.957 133.095 -267.814 189.559 -337.425 221.287C-405.295 252.227 -406.715 259.049 -438.051 264.95C-492.744 275.277 -524.871 261.422 -607.373 251.937C-656.414 246.359 -706.039 244.194 -755.734 245.462" stroke="#333333" stroke-width="0.823181" stroke-miterlimit="10"/>
<path d="M480.073 -80.2141C437.791 -81.4657 356.411 -77.8587 270.414 -39.3234C211.064 -12.6777 174.299 21.1595 148.726 43.2196C46.5525 131.258 25.1018 212.951 -27.5229 214.009C-48.0825 214.426 -69.4598 212.228 -84.4634 206.14C-113.946 194.165 -106.882 178.34 -124.657 167.877C-163.574 144.953 -279.613 195.14 -346.059 224.583C-410.774 253.328 -412.536 258.928 -446.087 262.981C-501.838 269.717 -532.264 257.756 -610.075 248.413C-658.62 242.591 -707.841 240.582 -757.085 242.415" stroke="#333333" stroke-width="0.823181" stroke-miterlimit="10"/>
<path d="M480.045 -83.767C409.434 -86.2975 338.818 -72.8195 275.803 -44.7846C216.918 -18.3515 182.123 15.4264 154.64 38.62C55.8617 121.924 34.4278 197.484 -18.2605 200.798C-44.9957 202.471 -69.8258 205.65 -89.4157 202.305C-123.018 196.606 -119.103 183.996 -140.756 174.419C-182.118 156.147 -291.453 200.574 -354.743 227.744C-416.183 254.285 -418.279 258.771 -454.167 260.887C-510.79 264.238 -539.705 253.863 -612.803 244.758C-660.836 238.698 -709.639 236.845 -758.408 239.229" stroke="#333333" stroke-width="0.823181" stroke-miterlimit="10"/>
<path d="M479.385 -90.0481C410.723 -93.0462 341.901 -80.1806 280.598 -52.887C222.213 -26.6253 189.39 7.12634 160.018 31.4599C64.9387 110.216 41.5295 172.372 -9.43421 185.182C-41.3166 193.194 -70.2752 196.304 -94.8263 196.081C-131.921 195.756 -131.412 187.164 -157.323 178.548C-200.217 164.284 -303.761 203.543 -363.815 228.577C-422.08 252.862 -424.329 256.417 -462.601 256.531C-520.021 256.703 -547.483 247.739 -615.886 238.883C-663.408 232.581 -711.801 230.893 -760.09 233.852" stroke="#333333" stroke-width="0.823181" stroke-miterlimit="10"/>
<path d="M477.963 -99.5876C411.268 -103.025 344.261 -90.7288 284.704 -64.1229C226.829 -37.9813 196.012 -4.22283 164.753 21.2695C73.5205 95.6699 49.4416 152.363 -1.17034 166.704C-38.7723 177.351 -71.3835 189.835 -100.751 187.029C-141.162 183.169 -142.734 182.716 -174.398 179.86C-215.129 162.683 -316.531 203.795 -373.358 226.703C-428.375 248.838 -430.786 251.478 -471.477 249.512C-529.611 246.698 -555.671 238.94 -619.359 230.393C-666.364 223.866 -714.345 222.362 -762.132 225.918" stroke="#DDFA69" stroke-width="0.823181" stroke-miterlimit="10"/>
<path d="M476.492 -109.354C411.766 -113.24 346.566 -101.542 288.722 -75.6647C231.354 -49.6623 202.562 -15.866 169.402 10.7799C82.1386 80.9145 57.5055 132.613 7.09755 147.915C-36.3599 161.094 -71.5969 176.851 -106.755 177.685C-152.088 178.764 -155.579 181.593 -191.544 180.894C-233.58 166.494 -329.315 203.859 -382.88 224.548C-434.65 244.531 -437.215 246.363 -480.333 242.209C-539.229 236.567 -563.843 229.836 -622.825 221.62C-669.314 214.866 -716.887 213.548 -764.165 217.703" stroke="#DDFA69" stroke-width="0.823181" stroke-miterlimit="10"/>
<path d="M474.974 -119.306C412.237 -123.617 348.865 -112.502 292.754 -87.3466C235.897 -61.4712 209.156 -27.6398 174.07 0.156715C90.829 66.1029 65.689 113.058 15.2175 129.018C-33.9907 144.579 -73.7681 157.255 -112.728 168.235C-160.836 181.797 -168.385 180.385 -208.65 181.837C-252.066 170.165 -342.12 203.787 -392.531 222.317C-441.054 240.145 -443.762 241.232 -489.32 234.827C-548.84 226.454 -572.127 220.605 -626.359 212.744C-672.335 205.77 -719.506 204.639 -766.266 209.387" stroke="#DDFA69" stroke-width="0.823181" stroke-miterlimit="10"/>
<path d="M473.426 -129.393C423.74 -133.444 358.86 -127.424 296.716 -99.1691C240.311 -73.5187 215.697 -39.5328 178.682 -10.603C99.5681 51.2232 73.912 93.5961 23.3697 109.968C-31.7375 127.81 -75.2457 143.667 -118.761 158.668C-170.873 176.647 -181.311 185.218 -225.806 182.68C-271.908 180.052 -354.942 203.577 -402.131 219.966C-447.407 235.649 -450.277 236.024 -498.254 227.333C-558.56 216.348 -580.378 211.23 -629.97 203.773C-660.8 199.137 -706.956 193.971 -768.442 200.977" stroke="#DDFA69" stroke-width="0.823181" stroke-miterlimit="10"/>
<path d="M471.839 -139.649C420.93 -144.141 358.818 -137.702 300.653 -111.155C244.758 -85.6396 222.232 -51.5577 183.259 -21.519C108.346 36.2372 82.3198 74.1111 31.471 90.7593C-29.5706 110.754 -76.8815 129.884 -124.808 148.957C-181.066 171.35 -193.797 183.763 -242.967 183.396C-289.841 183.013 -367.753 203.324 -411.763 217.489C-453.818 231.027 -456.899 230.851 -507.224 219.696C-568.303 206.172 -588.634 201.674 -633.54 194.653C-663.957 189.895 -709.457 184.636 -770.577 192.409" stroke="#DDFA69" stroke-width="0.823181" stroke-miterlimit="10"/>
<path d="M470.222 -150.025C418.043 -155.005 358.748 -148.101 304.557 -123.273C249.172 -97.8919 228.763 -63.707 187.805 -32.5624C117.14 21.1769 90.7126 54.5965 39.5507 71.4148C-27.5076 93.4618 -78.6142 115.958 -130.877 139.132C-191.383 165.954 -206.359 181.969 -260.14 184.019C-307.858 185.84 -380.586 202.922 -421.396 214.911C-460.152 226.311 -463.536 225.585 -516.198 211.954C-578.118 195.94 -596.9 191.976 -637.128 185.426C-667.147 180.535 -711.972 175.138 -772.726 183.743" stroke="#DDFA69" stroke-width="0.823181" stroke-miterlimit="10"/>
<path d="M468.572 -160.55C415.227 -165.958 358.634 -158.636 308.429 -135.533C253.557 -110.275 235.294 -75.9593 192.32 -43.7436C125.963 6.01871 100.989 39.9924 47.5828 51.9264C-28.1324 68.8497 -80.4146 101.896 -136.97 129.184C-201.771 160.439 -219.647 190.829 -277.325 184.537C-325.514 179.245 -393.371 202.469 -431.058 212.224C-466.548 221.454 -470.22 220.252 -525.2 204.106C-587.992 185.649 -605.167 182.112 -640.735 176.075C-670.345 171.039 -714.516 165.539 -774.897 174.945" stroke="#DDFA69" stroke-width="0.823181" stroke-miterlimit="10"/>
<path d="M466.844 -171.417C412.274 -177.286 358.461 -169.492 312.199 -148.196C257.854 -123.061 241.772 -88.5731 196.751 -55.3185C134.685 -9.4784 109.153 19.3004 55.5435 32.0405C-26.0588 51.4545 -82.3412 87.4538 -143.143 118.871C-212.283 154.581 -231.592 187.036 -294.576 184.72C-344.536 182.874 -406.31 201.618 -440.76 209.195C-472.993 216.286 -477.053 214.633 -534.246 195.9C-597.968 175.037 -613.494 171.867 -644.41 166.376C-673.601 161.182 -717.112 155.599 -777.13 165.811" stroke="#333333" stroke-width="0.823181" stroke-miterlimit="10"/>
<path d="M464.949 -182.965C409.171 -189.297 358.13 -181.069 315.843 -161.42C262.016 -136.399 248.164 -101.697 201.056 -67.4287C143.427 -25.4983 117.202 -1.92768 63.3694 11.629C-24.1158 33.6583 -84.3995 72.5094 -149.401 108.069C-222.927 148.293 -244.048 182.264 -311.888 184.454C-363.472 186.119 -419.244 200.38 -450.544 205.734C-479.492 210.691 -483.977 208.603 -543.373 187.256C-608.045 164.009 -621.923 161.141 -648.142 156.219C-676.918 150.836 -719.839 145.215 -779.414 156.227" stroke="#333333" stroke-width="0.823181" stroke-miterlimit="10"/>
<path d="M463.012 -194.713C406.014 -201.504 357.75 -192.823 319.43 -174.913C266.123 -149.993 254.551 -115.02 205.305 -79.8006C152.082 -41.7289 125.233 -23.4182 71.1475 -9.05983C-22.1411 15.7027 -86.5308 57.3234 -155.699 97.0324C-233.685 141.786 -256.916 176.879 -329.226 183.985C-382.293 189.201 -432.213 198.957 -460.347 202.049C-485.996 204.884 -490.966 202.392 -552.522 178.376C-618.219 152.763 -630.276 150.07 -651.911 145.821C-680.254 140.212 -722.465 134.555 -781.733 146.401" stroke="#333333" stroke-width="0.823181" stroke-miterlimit="10"/>
<path d="M460.834 -207.491C402.621 -214.73 357.184 -205.545 322.785 -189.419C270.06 -164.504 260.792 -129.264 209.337 -93.1537C160.552 -58.9117 133.06 -45.8846 78.701 -30.7224C-20.3058 -3.10699 -88.8757 41.1999 -162.12 85.083C-244.448 134.379 -271.411 165.913 -346.653 182.666C-400.272 194.594 -445.254 196.687 -470.248 197.515C-492.635 198.251 -498.093 195.333 -561.767 168.647C-628.502 140.652 -638.742 138.177 -655.761 134.573C-683.645 128.657 -725.245 123.057 -784.127 135.722" stroke="#333333" stroke-width="0.823181" stroke-miterlimit="10"/>
<path d="M458.682 -220.143C399.265 -227.845 356.592 -218.212 326.145 -203.82C273.955 -179.013 267.147 -143.305 213.385 -106.407C169.05 -75.9792 140.919 -68.272 86.2711 -52.3143C-18.4179 -21.7451 -91.2192 25.1758 -168.641 73.2376C-255.417 127.126 -284.95 161.384 -364.168 181.476C-419.194 195.408 -458.399 194.616 -480.218 193.101C-499.357 191.742 -505.337 188.425 -571.087 159.012C-638.919 128.671 -647.273 126.305 -659.718 123.403C-687.081 117.027 -728.115 111.654 -786.625 125.141" stroke="#333333" stroke-width="0.823181" stroke-miterlimit="10"/>
<path d="M456.531 -232.805C395.94 -240.964 355.924 -230.88 329.517 -218.233C277.899 -193.542 273.62 -157.203 217.43 -119.669C177.546 -93.026 148.778 -90.6956 93.8168 -73.9372C-16.4645 -40.3092 -93.5691 9.17994 -175.092 61.3881C-266.313 119.87 -298.507 156.918 -381.601 180.312C-438.254 196.255 -471.507 192.615 -490.141 188.69C-506.04 185.34 -512.51 181.519 -580.363 149.366C-649.305 116.664 -655.717 114.364 -663.607 112.22C-690.281 104.963 -730.922 100.215 -789.058 114.523" stroke="#333333" stroke-width="0.823181" stroke-miterlimit="10"/>
</g>
<defs>
<clipPath id="clip0_61_2106">
<rect x="0.333008" width="192.667" height="177" rx="20" fill="white"/>
</clipPath>
</defs>
</svg>
