<svg width="194" height="177" viewBox="0 0 194 177" fill="none" xmlns="http://www.w3.org/2000/svg">
<g clip-path="url(#clip0_61_2105)">
<rect x="0.666992" width="192.667" height="177" rx="20" fill="white"/>
<path d="M695.639 36.0012C612.46 53.6838 556.048 81.5307 519.699 103.935C482.942 126.592 457.44 149.425 407.194 166.685C351.786 185.804 313.722 185.817 298.54 184.975C277.49 183.8 278.359 180.93 243.519 176.295C176.593 167.389 165.553 176.919 135 169.132C84.342 156.227 94.1883 124.812 39.3551 98.9381C-0.354453 80.1919 -63.0624 69.5198 -115.296 89.9756C-164.484 109.241 -165.615 140.923 -218.643 152.631C-240.424 157.441 -259.36 155.943 -297.218 152.945C-345.73 149.158 -379.16 140.885 -392.456 138.19C-431.847 130.187 -493.502 130.181 -588.27 169.527" stroke="#DDFA69" stroke-width="0.823181" stroke-miterlimit="10"/>
<path d="M694.822 26.1043C614.252 42.5363 556.083 68.6944 516.284 92.1911C483.982 111.477 460.071 131.054 425.54 147.418C417.986 150.989 409.996 154.538 401.316 157.847C346.613 178.678 309.119 181.572 293.406 182.357C272.336 183.421 272.035 181.404 237.901 176.928C213.845 173.785 196.844 172.434 183.739 171.813C161.463 170.763 150.569 171.968 132.315 166.603C125.508 164.624 118.998 161.953 112.915 158.641C84.7825 143.337 82.323 119.418 36.5331 99.9378C-3.32513 82.9804 -65.3014 74.4893 -116.635 94.7116C-120.702 96.3161 -124.679 98.0997 -128.551 100.056C-167.623 119.812 -173.166 145.965 -219.774 156.295C-224.684 157.39 -229.664 158.195 -234.681 158.705C-251.533 160.467 -269.423 159.132 -297.774 156.886C-344.753 153.106 -377.659 144.994 -392.322 142.007C-403.057 139.852 -413.998 138.502 -425.028 137.972C-463.213 136.047 -515.828 142.467 -587.044 170.331" stroke="#DDFA69" stroke-width="0.823181" stroke-miterlimit="10"/>
<path d="M693.86 15.2868C615.918 30.4953 555.909 54.8293 512.743 79.6275C478.463 99.3117 453.447 119.876 419.662 136.719C411.953 140.575 403.953 144.505 395.278 148.123C341.282 170.68 304.567 177.504 288.1 178.862C266.877 180.588 265.509 180.993 232.133 176.682C208.762 173.647 191.747 171.761 178.806 170.57C157.008 168.594 146.728 168.996 129.536 163.18C122.98 160.932 116.711 158.1 110.824 154.727C83.5733 139.422 79.0462 117.238 33.5441 100.018C-6.4621 84.8614 -67.707 78.5539 -118.139 98.5469C-122.402 100.282 -126.332 101.972 -129.971 103.853C-170.31 124.036 -176.186 149.054 -221.086 159.001C-225.957 160.1 -230.897 160.913 -235.874 161.437C-252.998 163.311 -270.848 162.071 -298.524 159.783C-343.974 156.059 -376.337 148.072 -392.362 144.907C-403.01 142.77 -413.855 141.397 -424.79 140.802C-462.666 138.662 -515.159 144.252 -585.918 170.231" stroke="#DDFA69" stroke-width="0.823181" stroke-miterlimit="10"/>
<path d="M692.759 3.68455C617.442 17.631 555.658 40.2867 509.065 66.2354C472.873 86.4038 446.707 107.906 413.697 125.238C405.82 129.382 397.795 133.684 389.153 137.619C335.864 161.886 299.654 170.368 282.71 174.608C261.745 179.844 258.898 179.825 226.269 175.682C203.56 172.784 186.53 170.353 173.69 168.602C152.385 165.71 142.69 165.291 126.561 159.038C120.303 156.508 114.309 153.512 108.642 150.08C82.2737 134.787 75.6011 114.361 30.4899 99.4007C-9.7168 86.0535 -70.1808 81.9157 -119.706 101.695C-123.932 103.424 -127.836 105.11 -131.455 106.953C-173.025 127.62 -179.279 151.463 -222.426 161.14C-227.26 162.244 -232.164 163.067 -237.105 163.605C-254.5 165.605 -272.364 164.443 -299.318 162.167C-343.212 158.511 -375.054 150.665 -392.442 147.231C-403.021 145.136 -413.78 143.747 -424.629 143.074C-462.195 140.722 -514.565 145.476 -584.849 169.585" stroke="#333333" stroke-width="0.823181" stroke-miterlimit="10"/>
<path d="M691.656 -7.9679C618.958 4.74476 555.422 25.6977 505.393 52.8109C467.277 73.4777 439.976 95.9289 407.715 113.733C399.682 118.163 391.648 122.847 383.011 127.092C330.424 153.037 294.957 164.245 277.299 170.313C256.437 177.486 252.318 178.611 220.383 174.645C198.281 171.857 181.318 168.905 168.61 166.626C147.8 162.83 138.701 161.565 123.624 154.889C117.675 152.085 111.954 148.928 106.498 145.438C81.0036 130.183 72.1821 111.502 27.4379 98.7383C-12.9684 87.2139 -72.6405 85.2359 -121.273 104.795C-125.447 106.516 -129.326 108.198 -132.936 110.016C-175.751 131.158 -182.371 153.71 -223.768 163.19C-228.569 164.282 -233.435 165.115 -238.338 165.683C-255.979 167.795 -273.779 166.714 -300.113 164.464C-342.478 160.859 -373.789 153.144 -392.535 149.474C-403.037 147.402 -413.708 145.992 -424.468 145.254C-461.74 142.682 -513.983 146.624 -583.805 168.844" stroke="#333333" stroke-width="0.823181" stroke-miterlimit="10"/>
<path d="M691.048 -15.6621C620.978 -4.16167 555.688 15.0958 502.247 43.3832C462.234 64.5665 433.8 88.0068 402.288 106.245C394.117 110.972 386.042 115.998 377.432 120.587C325.584 148.219 290.82 162.113 272.515 170.086C251.734 179.124 246.28 181.493 215.13 177.693C197.925 175.579 180.898 172.568 164.138 168.675C143.787 164 135.306 161.867 121.327 154.825C115.221 151.734 110.22 148.238 104.877 144.904C80.2587 129.744 69.2576 112.737 24.9259 102.238C-15.7181 92.5684 -74.571 92.7554 -122.287 112.104C-126.422 113.821 -130.275 115.5 -133.862 117.292C-177.929 138.887 -184.878 160.339 -224.542 169.474C-229.304 170.563 -234.129 171.402 -238.99 171.988C-256.905 174.197 -274.66 173.24 -300.278 171.048C-341.095 167.541 -371.891 159.947 -391.983 156.047C-402.416 154.004 -413.008 152.582 -423.686 151.79C-460.648 149.009 -512.749 152.13 -582.094 172.504" stroke="#333333" stroke-width="0.823181" stroke-miterlimit="10"/>
<path d="M690.758 -21.3012C623.335 -10.9826 556.298 6.60147 499.438 36.051C457.532 57.7573 427.999 82.2099 397.204 100.811C388.884 105.849 380.798 111.225 372.198 116.14C321.03 145.44 286.958 162.012 268.026 171.915C247.36 182.758 240.593 186.429 210.178 182.816C193.135 180.792 176.352 177.48 160.009 172.918C140.172 167.382 132.254 164.366 119.333 156.873C113.6 153.571 108.921 149.861 103.608 146.479C79.8384 131.327 66.6756 116.215 22.7649 107.858C-18.1383 100.076 -76.159 102.412 -122.952 121.568C-127.035 123.279 -130.848 124.954 -134.438 126.725C-179.757 148.745 -187.075 169.068 -224.955 177.835C-229.679 178.932 -234.467 179.783 -239.292 180.384C-257.449 182.713 -275.188 181.864 -300.114 179.656C-339.388 176.218 -369.651 168.782 -391.117 164.636C-401.475 162.63 -411.977 161.196 -422.564 160.343C-459.229 157.36 -511.199 159.671 -580.058 178.22" stroke="#333333" stroke-width="0.823181" stroke-miterlimit="10"/>
<path d="M690.412 -27.0181C625.63 -17.928 556.877 -1.97337 496.573 28.6456C452.79 50.887 422.176 76.3751 392.107 95.4075C383.642 100.78 375.52 106.511 366.94 111.726C316.473 142.669 283.063 161.879 263.555 173.785C242.857 186.408 234.913 191.398 205.245 187.971C188.329 185.98 171.761 182.311 155.851 177.034C136.556 170.656 129.18 166.713 117.316 158.849C111.994 155.32 107.614 151.431 102.341 147.964C79.4187 132.901 64.0443 119.597 20.5852 113.401C-20.5848 107.529 -77.7349 111.995 -123.569 130.932C-127.613 132.639 -131.4 134.311 -134.965 136.069C-181.523 158.595 -189.127 177.747 -225.309 186.271C-229.994 187.364 -234.739 188.227 -239.522 188.854C-257.939 191.363 -275.645 190.561 -299.875 188.358C-337.613 185.025 -367.336 177.709 -390.17 173.351C-400.456 171.368 -410.875 169.915 -421.377 169.001C-457.724 165.859 -509.564 167.36 -577.933 184.037" stroke="#333333" stroke-width="0.823181" stroke-miterlimit="10"/>
<path d="M690.072 -32.7623C627.919 -24.8781 557.435 -10.5726 493.713 21.2158C448.041 43.9962 416.347 70.5335 386.981 89.9313C378.393 95.6014 370.215 101.655 361.683 107.259C311.905 139.85 279.132 161.701 259.063 175.61C238.358 189.998 229.227 196.332 200.295 193.091C183.511 191.136 167.162 187.144 151.705 181.226C132.846 174.008 126.129 169.121 115.321 160.884C110.395 157.117 106.293 153.076 101.071 149.522C78.9955 134.534 61.4418 123.068 18.431 118.997C-23.0249 115.072 -79.2968 121.622 -124.248 140.373C-128.252 142.075 -132.012 143.745 -135.556 145.466C-183.377 168.424 -191.285 186.465 -225.738 194.695C-230.388 195.786 -235.095 196.66 -239.839 197.314C-258.509 199.967 -276.241 199.243 -299.747 197.064C-335.927 193.806 -365.132 186.625 -389.324 182.042C-399.534 180.075 -409.868 178.595 -420.281 177.609C-456.336 174.23 -508.038 174.964 -575.928 189.794" stroke="#333333" stroke-width="0.823181" stroke-miterlimit="10"/>
<path d="M689.731 -38.4908C630.212 -31.7803 557.971 -19.1081 490.831 13.8423C443.22 37.1823 410.526 64.7717 381.835 84.5168C373.115 90.5204 364.896 96.895 356.388 102.823C307.308 137.026 275.159 161.511 254.551 177.479C233.78 193.585 223.509 201.304 195.326 198.245C178.657 196.294 162.519 191.949 147.542 185.38C129.176 177.347 123.058 171.478 113.307 162.879C108.778 158.873 104.993 154.685 99.7451 151.043C78.4919 136.144 58.7453 126.588 16.1998 124.57C-25.537 122.615 -80.92 131.222 -124.963 149.772C-128.915 151.47 -132.649 153.137 -136.191 154.778C-185.26 178.179 -193.486 195.112 -226.188 203.021C-230.806 204.134 -235.485 205.021 -240.203 205.679C-259.138 208.386 -276.78 207.828 -299.645 205.718C-334.28 202.537 -362.955 195.487 -388.517 190.682C-397.753 188.939 -407.934 187.36 -419.225 186.246C-454.967 182.672 -506.538 182.594 -573.936 195.586" stroke="#333333" stroke-width="0.823181" stroke-miterlimit="10"/>
<path d="M689.41 -44.0654C632.582 -38.5845 558.595 -27.5581 488.012 6.55007C438.578 30.4363 404.786 59.117 376.755 79.2003C367.916 85.5363 359.641 92.223 351.161 98.4983C302.729 134.322 271.178 161.435 250.12 179.44C229.294 197.332 217.886 206.368 190.439 203.494C173.867 201.545 157.923 196.859 143.43 189.677C125.529 180.821 120.11 173.942 111.344 165.012C107.21 160.768 103.716 156.424 98.5581 152.69C78.1312 137.899 56.196 130.186 14.1369 130.264C-27.9222 130.342 -82.3833 140.957 -125.506 159.305C-129.419 160.998 -133.126 162.663 -136.641 164.302C-186.972 188.149 -195.516 203.975 -226.516 211.581C-231.085 212.697 -235.715 213.59 -240.383 214.258C-259.609 217.115 -277.185 216.634 -299.307 214.498C-332.407 211.404 -360.541 204.471 -387.47 199.455C-396.664 197.732 -406.766 196.157 -417.936 194.971C-453.365 191.202 -504.804 190.322 -571.727 201.455" stroke="#333333" stroke-width="0.823181" stroke-miterlimit="10"/>
<path d="M689.082 -49.5772C634.839 -45.3254 559.19 -35.9097 485.163 -0.651251C433.8 23.7634 399.047 53.5769 371.669 73.954C362.701 80.6359 354.368 87.6239 345.89 94.2501C298.133 131.705 267.163 161.415 245.68 181.526C224.731 201.088 212.195 211.581 185.585 208.864C167.916 207.059 151.148 200.606 139.362 194.093C121.918 184.436 117.078 176.539 109.411 167.262C105.699 162.774 102.482 158.276 97.3746 154.443C77.7647 139.785 53.6898 133.966 12.0842 136.087C-30.2154 138.212 -83.8353 150.812 -126.038 168.958C-129.898 170.645 -133.579 172.308 -137.081 173.946C-188.657 198.252 -197.507 212.97 -226.744 220.251C-231.277 221.37 -235.869 222.276 -240.5 222.963C-259.949 225.973 -277.514 225.564 -299.015 223.452C-330.57 220.432 -358.134 213.624 -386.432 208.385C-395.582 206.693 -405.608 205.098 -416.641 203.861C-451.772 199.886 -503.079 198.204 -569.507 207.521" stroke="#333333" stroke-width="0.823181" stroke-miterlimit="10"/>
<path d="M688.771 -55.0269C637.152 -52.0005 559.86 -44.0713 482.334 -7.77888C429.208 17.3167 393.327 48.1145 366.582 68.8234C357.512 75.8595 349.082 83.1431 340.683 90.11C293.54 129.137 263.154 161.539 241.233 183.666C220.154 204.948 206.621 216.812 180.647 214.303C163.613 212.623 146.854 205.708 135.224 198.572C118.235 188.113 114.118 179.19 107.42 169.57C104.09 164.844 101.18 160.211 96.1097 156.28C77.3085 141.696 51.0689 137.858 9.9154 141.919C-32.6824 146.133 -85.4013 160.676 -126.682 178.631C-130.509 180.307 -134.159 181.968 -137.633 183.611C-190.485 208.345 -199.638 221.978 -227.139 228.938C-231.629 230.066 -236.18 230.983 -240.77 231.684C-260.472 234.826 -278.022 234.502 -298.837 232.416C-328.833 229.478 -355.9 222.745 -385.573 217.331C-394.681 215.647 -404.613 214.064 -415.537 212.768C-450.357 208.585 -501.532 206.099 -567.487 213.542" stroke="#333333" stroke-width="0.823181" stroke-miterlimit="10"/>
<path d="M688.471 -60.4009C639.492 -58.5814 560.453 -52.2987 479.515 -14.8303C424.503 10.815 387.613 42.7684 361.503 63.7399C352.328 71.1081 343.842 78.7052 335.458 86.0221C288.947 126.644 259.073 161.704 236.815 185.906C215.584 208.925 201.011 222.213 175.836 219.866C159.426 218.323 142.662 210.936 131.209 203.151C114.649 191.892 111.25 181.919 105.561 171.96C102.689 166.973 99.9945 162.205 94.9888 158.184C76.9007 143.733 48.3386 140.73 7.82515 147.887C-34.7681 155.412 -86.8865 170.678 -127.261 188.433C-131.044 190.105 -134.663 191.763 -138.119 193.405C-192.27 218.503 -201.689 231.127 -227.453 237.764C-231.908 238.893 -236.421 239.817 -240.974 240.534C-260.931 243.799 -278.502 243.586 -298.563 241.539C-326.971 238.608 -353.568 231.942 -384.586 226.373C-393.652 224.707 -403.506 223.115 -414.294 221.757C-448.815 217.366 -499.859 214.076 -565.326 219.665" stroke="#333333" stroke-width="0.823181" stroke-miterlimit="10"/>
<path d="M688.228 -65.7281C641.876 -65.1049 561.102 -60.4942 476.754 -21.8357C419.857 4.36079 382.033 37.4499 356.502 58.75C347.187 66.4787 338.64 74.3558 330.317 82.063C284.416 124.319 255.136 161.959 232.453 188.263C211.016 213.004 195.368 227.654 170.918 225.502C155.146 224.094 138.378 216.245 127.089 207.812C110.962 195.774 108.319 184.743 103.564 174.468C101.124 169.223 98.6716 164.327 93.7143 160.195C76.4934 145.853 46.0671 145.941 5.76198 153.927C-37.2573 162.417 -88.3299 180.754 -127.785 198.305C-131.463 199.973 -135.142 201.64 -138.551 203.27C-193.946 228.83 -203.697 240.36 -227.727 246.662C-232.14 247.8 -236.611 248.736 -241.123 249.465C-261.332 252.864 -278.826 252.725 -298.255 250.688C-325.173 247.893 -351.179 241.404 -383.56 235.553C-392.596 233.908 -402.377 232.366 -413.077 230.893C-447.276 226.36 -498.21 222.209 -563.139 225.935" stroke="#333333" stroke-width="0.823181" stroke-miterlimit="10"/>
<path d="M687.875 -70.9854C644.157 -71.6085 561.665 -68.6274 473.882 -28.7838C415.049 -2.02751 376.339 32.2507 351.426 53.7931C342.063 61.8817 333.364 70.0403 325.092 78.0703C279.701 121.815 251.074 162.261 228.104 190.614C206.535 217.138 189.916 233.139 166.109 231.157C150.974 229.884 134.177 221.576 123.066 212.503C107.348 199.62 105.497 187.594 101.672 176.978C99.701 171.457 97.4666 166.449 92.5724 162.214C76.129 147.995 43.6062 150.141 3.744 159.991C-39.4844 170.621 -89.7521 190.859 -128.274 208.217C-131.951 209.886 -135.539 211.542 -138.961 213.082C-195.613 239.107 -205.653 249.572 -227.959 255.551C-232.369 256.683 -236.836 257.612 -241.344 258.334C-260.069 261.571 -279.195 262.071 -297.96 259.813C-323.333 257.086 -348.808 250.723 -382.556 244.65C-391.548 243.035 -401.243 241.448 -411.777 239.943C-460.99 233.125 -510.93 230.502 -560.922 232.11" stroke="#333333" stroke-width="0.823181" stroke-miterlimit="10"/>
<path d="M687.591 -76.218C646.494 -78.0654 562.27 -76.7365 471.08 -35.6976C410.414 -8.39458 370.718 27.0188 346.329 48.8747C238.092 145.956 213.526 240.997 161.221 236.893C146.723 235.755 129.896 226.987 118.975 217.26C95.6537 196.505 105.434 176.945 91.3483 164.296C56.8148 133.274 -68.827 190.74 -139.44 223.03C-208.288 254.519 -209.914 261.805 -241.45 267.346C-296.493 277.047 -328.23 261.368 -410.509 249.106C-459.42 241.883 -509.017 238.305 -558.787 238.412" stroke="#333333" stroke-width="0.823181" stroke-miterlimit="10"/>
<path d="M687.302 -79.602C645.033 -81.9997 563.499 -80.1546 476.309 -40.9167C416.134 -13.7824 378.345 21.6374 352.102 44.6893C247.258 136.683 223.371 223.875 170.685 223.699C150.101 223.634 128.777 220.741 113.945 213.829C84.8009 200.235 92.3381 183.418 74.8631 171.739C36.6044 146.153 -80.9903 197.153 -148.348 227.115C-213.953 256.37 -215.883 262.34 -249.573 265.856C-305.557 271.7 -335.645 258.098 -413.224 246.125C-461.624 238.663 -510.813 235.28 -560.14 236.021" stroke="#333333" stroke-width="0.823181" stroke-miterlimit="10"/>
<path d="M686.989 -83.1277C616.423 -87.5833 545.382 -74.8375 481.518 -46.2629C421.832 -19.3079 386.03 16.1317 357.855 40.3779C256.589 127.461 232.927 208.125 180.12 210.39C153.324 211.53 128.39 214.336 108.891 210.26C75.4416 203.31 79.7288 189.857 58.3485 179.033C17.5062 158.382 -93.1794 203.431 -157.294 231.069C-219.538 258.078 -221.767 262.847 -257.732 264.238C-314.477 266.446 -343.099 254.586 -415.96 243.006C-463.835 235.313 -512.603 232.121 -561.463 233.483" stroke="#333333" stroke-width="0.823181" stroke-miterlimit="10"/>
<path d="M686.224 -89.3852C617.625 -94.2876 548.402 -82.1443 486.279 -54.3101C427.104 -27.5136 393.282 7.95822 363.188 33.3923C265.77 115.71 240.534 181.94 189.177 194.461C157.049 202.291 127.989 204.925 103.436 204.085C66.3378 202.828 67.0977 193.607 41.4302 183.712C-1.06156 167.332 -105.792 206.993 -166.599 232.428C-225.595 257.103 -227.949 260.87 -266.238 260.055C-323.684 258.835 -350.893 248.529 -419.061 237.337C-466.416 229.401 -514.777 226.402 -563.169 228.402" stroke="#333333" stroke-width="0.823181" stroke-miterlimit="10"/>
<path d="M684.916 -98.9047C618.293 -104.24 550.897 -92.6767 490.533 -65.5547C431.866 -38.8902 400.043 -3.37555 368.022 23.2463C274.564 100.943 248.809 161.267 197.754 175.43C159.824 185.945 126.832 198.556 97.5338 194.819C57.2193 189.677 55.6602 189.151 24.0668 185.303C-16.177 165.844 -118.83 207.523 -176.354 230.739C-232.045 253.168 -234.534 255.946 -275.185 252.832C-333.26 248.378 -359.104 239.4 -422.567 228.649C-469.401 220.479 -517.357 217.682 -565.269 220.327" stroke="#DDFA69" stroke-width="0.823181" stroke-miterlimit="10"/>
<path d="M683.571 -108.649C618.928 -114.426 553.35 -103.475 494.713 -77.1109C436.549 -50.6004 406.745 -15.0102 372.781 12.791C283.404 85.967 257.232 140.89 206.347 156.079C162.479 169.16 126.759 185.212 91.5592 185.238C46.1715 185.274 42.5954 188.226 6.63347 186.585C-34.9991 170.076 -131.884 207.841 -186.087 228.739C-238.472 248.921 -241.093 250.826 -284.11 245.296C-342.868 237.778 -367.296 229.937 -426.065 219.651C-472.378 211.245 -519.936 208.651 -567.36 211.943" stroke="#DDFA69" stroke-width="0.823181" stroke-miterlimit="10"/>
<path d="M682.195 -118.581C619.549 -124.774 555.811 -114.419 498.921 -88.8048C441.263 -62.4365 413.502 -26.7739 377.571 2.20027C292.325 70.9403 265.777 120.735 214.803 136.615C165.104 152.098 124.927 164.719 85.6189 175.539C37.0809 188.903 29.5689 187.198 -10.7624 187.754C-53.8574 174.137 -144.961 207.997 -195.951 226.637C-245.032 244.573 -247.773 245.672 -293.167 237.658C-352.474 227.184 -375.601 220.322 -429.631 210.529C-475.427 201.894 -522.592 199.502 -569.52 203.436" stroke="#DDFA69" stroke-width="0.823181" stroke-miterlimit="10"/>
<path d="M680.797 -128.644C631.199 -134.24 566.095 -129.406 503.067 -100.637C445.86 -74.518 420.215 -38.6535 382.312 -8.52796C301.301 55.8537 274.364 100.695 223.3 117.001C167.623 134.77 123.613 150.699 79.6211 165.71C26.9378 183.701 16.2369 192.64 -28.2126 188.798C-74.2672 184.82 -158.058 207.989 -205.768 224.397C-251.542 240.095 -254.425 240.426 -302.175 229.891C-362.194 216.586 -383.875 210.545 -433.277 201.294C-463.989 195.545 -510.022 188.84 -571.758 194.817" stroke="#DDFA69" stroke-width="0.823181" stroke-miterlimit="10"/>
<path d="M679.371 -138.882C628.558 -144.989 566.205 -139.65 507.199 -112.634C450.496 -86.668 426.931 -50.666 387.027 -19.4183C310.324 40.663 283.143 80.6455 231.756 97.2243C170.068 117.136 122.147 136.467 73.612 155.722C16.6386 178.329 3.52566 191.327 -45.6706 189.69C-92.5692 188.093 -171.15 207.918 -215.619 222.005C-258.112 235.47 -261.19 235.202 -311.219 221.96C-371.939 205.904 -392.152 200.563 -436.882 191.895C-467.179 186.02 -512.556 179.227 -573.956 186.022" stroke="#DDFA69" stroke-width="0.823181" stroke-miterlimit="10"/>
<path d="M677.924 -149.238C625.849 -155.908 566.294 -150.012 511.308 -124.762C455.11 -98.948 433.652 -62.8004 391.719 -30.4372C319.374 25.405 291.915 60.5784 240.202 77.3151C172.42 99.2554 120.591 122.084 67.5838 145.61C6.21733 172.838 -9.25458 189.636 -63.1443 190.465C-110.959 191.203 -184.266 207.673 -225.473 219.493C-264.606 230.734 -267.971 229.869 -320.268 213.907C-381.759 195.154 -400.438 190.424 -440.504 182.373C-470.401 176.363 -515.103 169.432 -576.17 177.116" stroke="#DDFA69" stroke-width="0.823181" stroke-miterlimit="10"/>
<path d="M676.453 -159.746C623.22 -166.912 566.349 -160.513 515.395 -137.031C459.704 -111.358 440.383 -75.0346 396.391 -41.5965C328.46 10.0545 302.433 45.8392 248.612 57.2644C172.31 73.4668 118.975 107.556 61.5366 135.363C-4.27433 167.211 -23.0891 199.336 -80.6333 191.111C-128.709 184.2 -197.336 207.36 -235.356 216.852C-271.161 225.838 -274.8 224.454 -329.345 205.733C-391.639 184.334 -408.723 180.101 -444.143 172.716C-473.63 166.558 -517.677 159.527 -578.402 168.063" stroke="#DDFA69" stroke-width="0.823181" stroke-miterlimit="10"/>
<path d="M674.926 -170.595C620.475 -178.296 566.364 -171.334 519.402 -149.708C464.23 -124.177 447.08 -87.6347 400.996 -53.1615C337.463 -5.64188 311.026 24.5386 256.969 36.8056C174.685 55.5009 117.243 92.6242 55.4164 124.721C-14.8883 161.201 -35.2079 195.482 -98.1906 191.372C-148.15 188.103 -210.563 206.592 -245.282 213.821C-277.767 220.587 -281.781 218.711 -338.466 197.157C-401.623 173.152 -417.07 169.354 -447.852 162.67C-476.916 156.35 -520.306 149.242 -580.701 158.634" stroke="#333333" stroke-width="0.823181" stroke-miterlimit="10"/>
<path d="M673.283 -182.127C617.628 -190.364 566.271 -182.884 523.327 -162.944C468.664 -137.55 453.73 -100.746 405.511 -65.2742C346.523 -21.8708 319.542 2.68891 265.225 15.8034C176.954 37.1139 115.402 77.1502 49.2278 113.538C-25.626 154.699 -47.8159 190.531 -115.808 191.107C-167.509 191.544 -223.788 205.361 -255.292 210.28C-284.428 214.833 -288.855 212.48 -347.671 188.067C-411.711 161.483 -425.518 158.048 -451.619 152.094C-480.267 145.578 -523.069 138.437 -583.057 148.676" stroke="#333333" stroke-width="0.823181" stroke-miterlimit="10"/>
<path d="M671.608 -193.859C614.738 -202.63 566.137 -194.609 527.21 -176.449C473.057 -151.181 460.388 -114.053 409.984 -77.6545C355.509 -38.3077 328.056 -19.4166 273.45 -5.47302C179.264 18.5739 113.496 61.4252 43.0028 102.105C-36.4767 147.951 -60.8243 184.9 -133.457 190.601C-186.761 194.787 -237.054 203.914 -265.323 206.482C-291.096 208.841 -295.996 206.043 -356.898 178.718C-421.897 149.573 -433.888 146.373 -455.423 141.256C-483.632 134.506 -525.729 127.34 -585.448 138.458" stroke="#333333" stroke-width="0.823181" stroke-miterlimit="10"/>
<path d="M669.761 -206.626C611.678 -215.919 565.882 -207.305 530.924 -190.975C477.337 -165.733 466.957 -128.293 414.294 -91.0449C364.363 -55.7238 336.42 -42.524 281.5 -27.756C181.472 -0.858701 111.41 44.6996 36.6804 89.6801C-47.3172 140.208 -75.3055 173.213 -151.193 189.127C-205.271 200.456 -250.391 201.497 -275.451 201.716C-297.898 201.907 -303.274 198.642 -366.221 168.407C-432.194 136.691 -442.373 133.772 -459.308 129.465C-487.053 122.396 -528.546 115.3 -587.919 127.276" stroke="#333333" stroke-width="0.823181" stroke-miterlimit="10"/>
<path d="M667.933 -219.265C608.649 -229.093 565.595 -219.947 534.641 -205.387C481.577 -180.282 473.637 -142.307 418.618 -104.324C373.247 -73.001 344.823 -65.5216 289.574 -49.9388C183.734 -20.0879 109.327 28.0938 30.2561 77.3705C-58.37 132.621 -89.0314 168.435 -169.026 187.776C-224.59 201.184 -263.842 199.283 -285.654 197.077C-304.785 195.11 -310.672 191.405 -375.621 158.206C-442.626 123.959 -450.921 121.207 -463.298 117.771C-490.511 110.222 -531.453 103.377 -590.493 116.215" stroke="#333333" stroke-width="0.823181" stroke-miterlimit="10"/>
<path d="M666.107 -231.914C605.649 -242.271 565.232 -232.591 538.372 -219.803C485.869 -194.841 480.434 -156.156 422.943 -117.605C382.137 -90.24 353.236 -88.5328 297.633 -72.1311C186.064 -39.2187 107.239 11.5299 23.9006 65.0619C-69.354 125.029 -102.783 163.714 -186.786 186.436C-244.058 201.921 -277.265 197.132 -295.813 192.435C-311.639 188.427 -318.001 184.171 -384.978 147.998C-453.03 111.209 -459.382 108.579 -467.22 106.076C-493.72 97.6025 -534.294 91.4292 -593.002 105.128" stroke="#333333" stroke-width="0.823181" stroke-miterlimit="10"/>
</g>
<defs>
<clipPath id="clip0_61_2105">
<rect x="0.666992" width="192.667" height="177" rx="20" fill="white"/>
</clipPath>
</defs>
</svg>
