<svg width="193" height="177" viewBox="0 0 193 177" fill="none" xmlns="http://www.w3.org/2000/svg">
<g clip-path="url(#clip0_61_2104)">
<rect width="192.667" height="177" rx="20" fill="white"/>
<path d="M894.462 33.6867C811.484 51.5273 755.402 78.891 719.319 100.818C682.831 122.992 657.603 145.225 607.558 162.335C552.374 181.287 514.303 181.673 499.108 181.011C478.041 180.086 478.875 177.314 443.973 173.194C376.928 165.277 366.001 174.56 335.348 167.363C284.525 155.435 293.991 125.094 238.834 100.722C198.889 83.0633 136.041 73.4041 84.0473 93.6108C35.0858 112.642 34.3394 143.155 -18.5544 154.948C-40.2814 159.792 -59.2384 158.536 -97.1397 156.021C-145.706 152.851 -179.242 145.215 -192.573 142.75C-232.068 135.432 -293.733 136.031 -388.038 174.842" stroke="#DDFA69" stroke-width="0.823181" stroke-miterlimit="10"/>
<path d="M893.627 24.3427C813.231 40.9276 755.357 66.6635 715.826 89.6626C683.745 108.536 660.06 127.611 625.713 143.693C618.199 147.203 610.25 150.696 601.606 153.964C547.136 174.538 509.668 177.68 493.96 178.586C472.897 179.81 472.573 177.871 438.376 173.886C414.277 171.089 397.256 169.949 384.14 169.475C361.846 168.676 350.964 169.94 332.642 164.947C325.809 163.107 319.266 160.597 313.143 157.467C284.822 143 282.078 119.995 236.046 101.676C195.977 85.7284 133.885 78.1421 82.7772 98.0984C78.7285 99.6817 74.7716 101.437 70.9216 103.356C32.0737 122.747 26.8394 147.979 -19.6577 158.367C-24.5566 159.468 -29.5286 160.29 -34.5408 160.829C-51.3763 162.685 -69.2861 161.57 -97.6712 159.677C-144.706 156.483 -177.717 148.986 -192.419 146.249C-203.182 144.277 -214.141 143.081 -225.181 142.675C-263.398 141.184 -315.951 147.865 -386.854 175.367" stroke="#DDFA69" stroke-width="0.823181" stroke-miterlimit="10"/>
<path d="M892.624 14.0765C814.833 29.4375 755.086 53.4194 712.193 77.6929C678.13 96.9607 653.344 116.991 619.743 133.518C612.075 137.302 604.119 141.16 595.482 144.722C541.731 166.939 505.083 173.847 488.626 175.306C467.417 177.163 466.053 177.566 432.616 173.723C409.203 171.016 392.161 169.357 379.202 168.33C357.374 166.628 347.095 167.11 329.83 161.669C323.246 159.565 316.943 156.896 311.016 153.703C283.579 139.218 278.794 117.902 233.078 101.742C192.884 87.5173 131.547 82.0088 81.3303 101.723C77.0856 103.433 73.1745 105.096 69.5563 106.941C29.4375 126.745 23.8484 150.886 -20.951 160.877C-25.8101 161.98 -30.7421 162.808 -35.7147 163.358C-52.8231 165.321 -70.6926 164.291 -98.4041 162.343C-143.912 159.176 -176.377 151.785 -192.444 148.885C-203.12 146.926 -213.984 145.704 -224.93 145.232C-262.842 143.521 -315.287 149.387 -385.768 175.052" stroke="#DDFA69" stroke-width="0.823181" stroke-miterlimit="10"/>
<path d="M891.456 3.00573C816.271 17.1129 754.721 39.4842 708.406 64.8894C672.429 84.6352 646.498 105.575 613.673 122.562C605.84 126.622 597.861 130.837 589.26 134.704C536.227 158.55 500.101 167.043 483.198 171.278C462.285 176.509 459.438 176.516 426.749 172.821C404 170.235 386.936 168.048 374.071 166.478C352.726 163.885 343.023 163.568 326.817 157.693C320.528 155.313 314.497 152.482 308.79 149.228C282.238 134.74 275.332 115.133 230.035 101.134C189.662 88.6446 129.129 85.2051 79.8103 104.697C75.6029 106.399 71.7164 108.058 68.1172 109.865C26.7662 130.139 20.7812 153.154 -22.2723 162.86C-27.0956 163.966 -31.9915 164.803 -36.9287 165.365C-54.3073 167.448 -72.1909 166.49 -99.1802 164.541C-143.131 161.416 -175.074 154.149 -192.507 150.999C-203.114 149.077 -213.892 147.836 -224.752 147.286C-262.359 145.36 -314.694 150.409 -384.73 174.256" stroke="#333333" stroke-width="0.823181" stroke-miterlimit="10"/>
<path d="M890.277 -8.13979C817.693 4.7447 754.366 25.4834 704.62 52.035C666.72 72.2735 639.659 94.1348 607.584 111.565C599.597 115.901 591.612 120.483 583.02 124.647C530.701 150.097 495.346 161.204 477.749 167.203C456.958 174.295 452.85 175.414 420.859 171.878C398.717 169.388 381.715 166.695 368.975 164.613C348.115 161.142 338.999 160.004 323.841 153.708C317.859 151.06 312.1 148.07 306.603 144.758C280.928 130.293 271.894 112.382 226.99 100.486C186.439 89.7453 126.722 88.3679 78.2889 107.632C74.1319 109.327 70.2702 110.981 66.6793 112.764C24.0835 133.501 17.7133 155.277 -23.5942 164.772C-28.3854 165.866 -33.2439 166.711 -38.1426 167.302C-55.7672 169.491 -73.5858 168.607 -99.955 166.673C-142.377 163.576 -173.786 156.424 -192.581 153.055C-203.111 151.152 -213.801 149.889 -224.574 149.274C-261.889 147.126 -314.108 151.384 -383.71 173.398" stroke="#333333" stroke-width="0.823181" stroke-miterlimit="10"/>
<path d="M889.549 -15.6621C819.584 -3.95786 754.489 15.1725 701.349 42.891C661.562 63.6482 633.383 86.4745 602.066 104.32C593.946 108.945 585.925 113.856 577.364 118.353C525.811 145.426 491.191 159.117 472.971 166.959C452.285 175.848 446.855 178.179 415.651 174.8C398.415 172.919 381.348 170.173 364.538 166.576C344.127 162.258 335.619 160.28 321.555 153.625C315.411 150.703 310.369 147.382 304.986 144.221C280.187 129.844 268.989 113.568 224.522 103.857C183.754 94.9124 124.882 95.6221 77.3685 114.682C73.251 116.373 69.4157 118.024 65.8477 119.782C22.0095 140.971 15.3015 161.69 -24.2731 170.843C-29.0247 171.935 -33.8417 172.786 -38.6987 173.394C-56.5946 175.682 -74.3669 174.92 -100.019 173.041C-140.891 170.031 -171.784 162.996 -191.927 159.421C-202.388 157.548 -212.999 156.274 -223.69 155.607C-260.697 153.262 -312.782 156.737 -381.92 176.978" stroke="#333333" stroke-width="0.823181" stroke-miterlimit="10"/>
<path d="M889.112 -21.3012C821.79 -10.7386 754.938 6.81547 698.405 35.6984C656.74 56.987 627.484 80.8045 596.896 99.0001C588.633 103.928 580.607 109.18 572.062 113.991C521.22 142.677 487.331 158.95 468.509 168.66C447.964 179.292 441.238 182.89 410.771 179.695C393.7 177.905 376.873 174.873 360.473 170.632C340.565 165.488 332.609 162.657 319.597 155.564C313.824 152.439 309.1 148.91 303.747 145.703C279.793 131.337 266.45 116.91 222.429 109.274C181.423 102.162 123.413 104.952 76.8299 123.831C72.7654 125.516 68.9702 127.164 65.4003 128.902C20.3252 150.525 13.2417 170.16 -24.5468 178.953C-29.2602 180.053 -34.0391 180.917 -38.8587 181.541C-56.9944 183.952 -74.7485 183.3 -99.7071 181.406C-139.033 178.463 -169.392 171.585 -190.912 167.793C-201.297 165.959 -211.819 164.677 -222.419 163.953C-259.129 161.423 -311.087 164.133 -379.751 182.632" stroke="#333333" stroke-width="0.823181" stroke-miterlimit="10"/>
<path d="M888.614 -27.0182C823.926 -17.6433 755.35 -1.62142 695.399 28.4371C651.873 50.2711 621.557 75.1042 591.709 93.7168C583.307 98.9707 575.251 104.566 566.732 109.669C516.625 139.946 483.437 158.762 464.068 170.412C443.516 182.763 435.63 187.644 405.915 184.63C388.971 182.875 372.355 179.503 356.379 174.576C337.003 168.622 329.579 164.896 317.617 157.439C312.252 154.093 307.825 150.391 302.509 147.104C279.401 132.823 263.864 120.162 220.321 114.615C179.072 109.358 121.963 114.208 76.345 132.881C72.3207 134.563 68.5528 136.209 65.0085 137.935C18.7102 160.071 11.3338 178.582 -24.7539 187.136C-29.4275 188.234 -34.1634 189.11 -38.9393 189.76C-57.3309 192.353 -75.0497 191.751 -99.3114 189.864C-137.098 187.018 -166.915 180.261 -189.806 176.285C-200.118 174.475 -210.557 173.176 -221.072 172.397C-257.465 169.722 -309.298 171.666 -377.483 188.379" stroke="#333333" stroke-width="0.823181" stroke-miterlimit="10"/>
<path d="M888.118 -32.7642C826.053 -24.557 755.734 -10.085 692.394 21.1524C646.994 43.5379 615.621 69.4018 586.489 88.3691C577.969 93.9133 569.865 99.8224 561.4 105.303C512.016 137.174 479.506 158.538 459.605 172.128C439.073 186.186 430.018 192.375 401.043 189.541C384.232 187.825 367.832 184.144 352.301 178.599C333.351 171.836 326.572 167.198 315.661 159.375C310.689 155.797 306.537 151.947 301.271 148.577C279.008 134.366 261.311 123.501 218.245 120.008C176.735 116.64 120.535 123.504 75.8084 142.002C71.8242 143.682 68.0838 145.326 64.5612 147.018C17.0148 169.596 9.32691 187.044 -25.0296 195.31C-29.6676 196.406 -34.3646 197.295 -39.101 197.971C-57.7408 200.71 -75.4845 200.189 -99.0199 198.325C-135.245 195.547 -164.543 188.922 -188.794 184.75C-199.029 182.957 -209.383 181.635 -219.81 180.789C-255.911 177.893 -307.611 179.113 -375.329 194.064" stroke="#333333" stroke-width="0.823181" stroke-miterlimit="10"/>
<path d="M887.616 -38.5025C828.178 -31.4339 756.092 -18.4951 689.363 13.9176C642.042 36.8773 609.692 63.7766 581.247 83.0817C572.602 88.9515 564.463 95.1734 556.029 100.969C507.376 134.403 475.532 158.308 455.123 173.893C434.553 189.613 424.378 197.151 396.155 194.493C379.461 192.784 363.267 188.765 348.208 182.593C329.74 175.045 323.547 169.456 313.689 161.275C309.108 157.465 305.272 153.47 299.977 150.017C278.536 135.887 258.669 126.888 216.096 125.378C174.332 123.921 119.054 132.774 75.2417 151.085C71.3105 152.76 67.5973 154.403 64.0763 156.019C15.2974 179.053 7.28377 195.441 -25.3202 203.391C-29.9254 204.509 -34.5936 205.411 -39.3033 206.093C-58.2055 208.892 -75.8547 208.535 -98.7478 206.737C-133.424 204.027 -162.189 197.531 -187.813 193.165C-197.071 191.581 -207.272 190.165 -218.578 189.207C-254.366 186.13 -305.942 186.581 -373.18 199.779" stroke="#333333" stroke-width="0.823181" stroke-miterlimit="10"/>
<path d="M887.132 -44.0973C830.377 -38.2237 756.534 -26.8294 686.391 6.75859C637.266 30.2806 603.842 58.2562 576.069 77.8916C567.312 84.0862 559.123 90.6126 550.724 96.7451C502.752 131.754 471.55 158.195 450.724 175.756C430.128 193.206 418.836 202.028 391.354 199.547C374.757 197.843 358.754 193.497 344.169 186.733C326.156 178.391 320.649 171.823 311.769 163.315C307.581 159.27 304.031 155.123 298.826 151.581C278.21 137.551 256.177 130.352 214.121 130.868C172.065 131.383 117.742 142.177 74.8561 160.299C70.9651 161.971 67.2791 163.613 63.7854 165.228C13.7624 188.722 5.42156 204.053 -25.4801 211.703C-30.035 212.825 -34.6527 213.734 -39.3124 214.426C-58.5003 217.379 -76.0822 217.1 -98.2304 215.274C-131.369 212.641 -159.59 206.259 -186.582 201.711C-195.798 200.148 -205.919 198.736 -217.104 197.711C-252.58 194.452 -304.029 194.144 -370.806 205.567" stroke="#333333" stroke-width="0.823181" stroke-miterlimit="10"/>
<path d="M886.637 -49.639C832.457 -44.9605 756.942 -35.0777 683.387 -0.317828C632.35 23.7528 597.991 52.8457 570.883 72.7692C562.004 79.3023 553.764 86.1234 545.374 92.5975C498.113 129.191 467.536 158.144 446.319 177.747C425.628 196.817 413.23 207.06 386.589 204.729C368.899 203.179 352.049 197.143 340.18 190.995C322.612 181.88 317.67 174.325 309.883 165.471C306.112 161.188 302.838 156.889 297.681 153.252C277.882 139.342 253.735 133.995 212.163 136.485C169.897 138.986 116.449 151.7 74.49 169.633C70.652 171.3 66.9933 172.942 63.514 174.557C12.2627 198.525 3.60629 212.798 -25.5315 220.126C-30.0493 221.253 -34.6285 222.175 -39.2497 222.887C-58.6569 225.995 -76.2242 225.79 -97.75 223.986C-129.34 221.416 -156.989 215.153 -185.352 210.411C-194.522 208.879 -204.567 207.45 -215.615 206.377C-250.793 202.925 -302.115 201.856 -368.411 211.545" stroke="#333333" stroke-width="0.823181" stroke-miterlimit="10"/>
<path d="M886.157 -55.1251C834.591 -51.6413 757.424 -43.1508 680.4 -7.32719C627.622 17.4389 592.16 47.51 565.697 67.7591C556.723 74.6388 548.392 81.7499 540.088 88.5555C493.476 126.68 463.528 158.236 441.907 179.799C421.117 200.538 407.745 212.119 381.744 209.987C364.692 208.555 347.846 202.076 336.124 195.328C318.999 185.437 314.764 176.884 307.94 167.688C304.548 163.17 301.578 158.738 296.456 155.006C277.466 141.159 251.182 137.75 210.093 142.116C167.562 146.644 115.049 161.237 74.0178 178.993C70.2143 180.651 66.5872 182.29 63.1363 183.912C10.6265 208.327 1.65674 221.564 -25.7438 228.573C-30.2186 229.709 -34.7554 230.643 -39.3349 231.369C-58.9904 234.614 -76.541 234.494 -97.3784 232.713C-127.405 230.211 -154.555 224.021 -184.293 219.131C-193.421 217.608 -203.372 216.192 -214.31 215.063C-249.177 211.415 -300.372 209.583 -366.212 217.481" stroke="#333333" stroke-width="0.823181" stroke-miterlimit="10"/>
<path d="M885.684 -60.5425C836.747 -58.238 757.823 -51.2933 677.421 -14.2667C622.777 11.0718 586.333 42.2873 560.516 62.7957C551.444 70.0012 543.064 77.4197 534.783 84.5668C488.838 124.246 459.449 158.377 437.527 181.956C416.615 204.383 402.228 217.356 377.03 215.377C360.606 214.074 343.748 207.142 332.193 199.767C315.487 189.1 311.954 179.524 306.133 169.989C303.195 165.215 300.436 160.649 295.378 156.829C277.101 143.102 248.508 140.529 208.107 147.883C165.631 155.616 113.738 170.917 73.619 188.485C69.8599 190.14 66.2643 191.778 62.8321 193.4C9.04092 218.202 -0.204477 230.476 -25.8688 237.163C-30.3071 238.301 -34.806 239.243 -39.3473 239.985C-59.2525 243.357 -76.8207 243.349 -96.9021 241.602C-125.339 239.096 -152.017 232.969 -183.098 227.949C-192.184 226.446 -202.056 225.022 -212.858 223.834C-247.426 219.99 -298.496 217.392 -363.864 223.516" stroke="#333333" stroke-width="0.823181" stroke-miterlimit="10"/>
<path d="M885.267 -65.9178C838.947 -64.7849 758.275 -59.4117 674.499 -21.1656C617.99 4.74841 580.639 37.09 555.414 57.9224C546.209 65.4821 537.776 73.176 529.563 80.7035C484.265 121.978 455.516 158.61 433.207 184.234C412.12 208.337 396.681 222.645 372.213 220.849C356.429 219.673 339.562 212.297 328.162 204.294C311.877 192.872 309.084 182.265 304.19 172.411C301.679 167.381 299.16 162.689 294.149 158.761C276.739 145.129 246.329 145.563 206.153 153.727C163.271 162.407 112.476 180.675 73.281 198.053C69.6273 199.703 65.9735 201.353 62.5885 202.963C7.57197 228.246 -2.01633 239.477 -25.9472 245.829C-30.3424 246.978 -34.7989 247.932 -39.2985 248.687C-59.4512 252.196 -76.9381 252.263 -96.3861 250.522C-123.329 248.135 -149.412 242.176 -181.858 236.906C-190.912 235.423 -200.709 234.049 -211.424 232.751C-245.67 228.773 -296.636 225.354 -361.482 229.693" stroke="#333333" stroke-width="0.823181" stroke-miterlimit="10"/>
<path d="M884.74 -71.2275C841.039 -71.317 758.639 -67.4758 671.466 -28.012C613.042 -1.51213 574.834 32.0086 550.237 53.0818C540.992 60.9943 532.413 68.9666 524.257 76.8098C479.504 119.541 451.46 158.894 428.899 186.514C407.713 212.354 391.328 227.984 367.508 226.351C352.364 225.3 335.461 217.482 324.231 208.859C308.343 196.615 306.325 185.035 302.354 174.839C300.307 169.536 298.004 164.731 293.054 160.703C276.422 147.178 243.949 149.629 204.248 159.598C161.195 170.358 111.24 190.47 72.9841 207.666C69.332 209.319 65.7695 210.958 62.3712 212.484C6.11739 238.253 -3.77078 248.466 -25.9803 254.495C-30.3713 255.639 -34.8231 256.587 -39.3179 257.336C-57.9865 260.678 -77.0941 261.384 -95.8792 259.425C-121.275 257.092 -146.823 251.252 -180.635 245.788C-189.644 244.335 -199.355 242.918 -209.903 241.589C-259.181 235.588 -309.128 233.642 -359.067 235.778" stroke="#333333" stroke-width="0.823181" stroke-miterlimit="10"/>
<path d="M884.279 -76.5146C843.187 -77.8079 759.043 -75.5219 668.501 -34.8284C608.266 -7.75525 569.1 26.8954 545.039 48.2794C438.254 143.263 415.051 235.28 362.726 231.943C348.223 231.017 331.285 222.756 320.234 213.498C296.636 193.745 306.132 174.751 291.878 162.711C256.931 133.183 132.195 190.141 62.0908 222.146C-6.26133 253.356 -7.78258 260.407 -39.2169 266.131C-94.0826 276.15 -126.017 261.395 -208.409 250.542C-257.386 244.153 -306.998 241.292 -356.73 241.988" stroke="#333333" stroke-width="0.823181" stroke-miterlimit="10"/>
<path d="M884.14 -79.9126C841.865 -81.7289 760.409 -78.9901 673.825 -40.1086C614.068 -13.2221 576.799 21.395 550.896 43.9438C447.408 133.931 424.757 218.334 372.102 218.783C351.531 218.963 330.179 216.423 315.261 209.929C285.945 197.156 293.241 180.842 275.614 169.78C237.022 145.544 120.217 196.132 53.3214 225.831C-11.8316 254.827 -13.6762 260.609 -47.2961 264.397C-103.162 270.694 -133.421 257.924 -211.118 247.286C-259.592 240.655 -308.797 237.969 -358.082 239.264" stroke="#333333" stroke-width="0.823181" stroke-miterlimit="10"/>
<path d="M883.972 -83.4521C813.383 -86.931 742.558 -73.8138 679.125 -45.5129C619.846 -18.8227 584.555 15.7738 556.731 39.4861C456.728 124.652 434.197 202.727 381.45 205.524C354.685 206.934 329.804 209.929 310.259 206.225C276.732 199.909 280.83 186.884 259.311 176.692C218.205 157.248 108.205 201.982 44.5093 229.382C-17.3265 256.154 -19.488 260.779 -55.4139 262.538C-112.097 265.326 -140.868 254.219 -213.849 243.895C-261.805 237.03 -310.59 234.518 -359.404 236.398" stroke="#333333" stroke-width="0.823181" stroke-miterlimit="10"/>
<path d="M883.26 -89.7215C814.628 -93.6578 745.609 -81.148 683.902 -53.5881C625.128 -27.0629 591.814 7.53617 562.087 32.4119C465.856 112.923 441.547 177.086 390.39 189.753C358.386 197.676 329.378 200.551 304.826 200.024C267.73 199.24 268.362 190.338 242.571 181.092C199.875 165.786 95.7469 205.243 35.3223 230.474C-23.3029 254.952 -25.6035 258.611 -63.8837 258.267C-121.317 257.753 -148.655 248.128 -216.941 238.122C-264.381 231.015 -312.759 228.681 -361.098 231.167" stroke="#333333" stroke-width="0.823181" stroke-miterlimit="10"/>
<path d="M881.894 -99.2512C815.235 -103.624 748.036 -91.6885 688.082 -64.8283C629.817 -38.4291 598.505 -3.80541 566.87 22.2434C474.542 98.2681 449.638 156.75 398.808 171.003C361.044 181.585 328.245 194.132 298.912 190.867C258.549 186.375 256.983 185.887 225.354 182.542C184.863 164.24 82.8446 205.632 25.6747 228.692C-29.6741 250.971 -32.1235 253.679 -72.795 251.147C-130.9 247.526 -156.853 239.167 -220.431 229.534C-267.352 222.197 -315.32 220.056 -363.169 223.164" stroke="#DDFA69" stroke-width="0.823181" stroke-miterlimit="10"/>
<path d="M880.485 -109.007C815.8 -113.825 750.414 -102.495 692.179 -76.3773C634.419 -50.1246 605.129 -15.4444 571.574 11.7708C483.269 83.4039 457.878 136.691 407.236 151.938C363.576 165.068 328.101 180.971 292.923 181.407C247.563 181.972 244.03 184.861 208.066 183.698C166.229 168.259 69.9277 205.821 16.0485 226.613C-36.0243 246.694 -38.6168 248.562 -81.6855 243.73C-140.513 237.164 -165.035 229.886 -223.912 220.65C-270.315 213.082 -317.881 211.135 -365.231 214.865" stroke="#DDFA69" stroke-width="0.823181" stroke-miterlimit="10"/>
<path d="M879.038 -118.949C816.345 -124.187 752.793 -113.446 696.299 -88.0652C639.047 -61.9469 611.804 -27.2131 576.302 1.16369C492.074 68.4865 466.24 116.841 415.521 132.762C366.072 148.284 326.098 160.933 286.966 171.834C238.646 185.298 231.115 183.743 190.818 184.753C147.56 172.122 56.9895 205.862 6.29265 224.446C-42.5047 242.327 -45.2294 243.419 -90.7063 236.222C-150.121 226.814 -173.329 220.466 -227.462 211.653C-273.349 203.86 -320.517 202.108 -367.36 206.455" stroke="#DDFA69" stroke-width="0.823181" stroke-miterlimit="10"/>
<path d="M877.564 -129.024C827.921 -133.836 762.931 -128.401 700.352 -99.8923C643.552 -74.0112 618.43 -39.0995 580.978 -9.58041C500.93 53.5051 474.643 97.0945 423.843 113.434C368.456 131.24 324.7 147.132 280.95 162.138C228.557 180.123 217.99 188.875 173.517 185.695C127.438 182.402 44.0316 205.751 -3.41397 222.149C-48.9349 237.84 -51.8118 238.194 -99.677 228.594C-159.842 216.466 -181.592 210.892 -231.091 202.551C-261.862 197.367 -307.958 191.442 -369.567 197.941" stroke="#DDFA69" stroke-width="0.823181" stroke-miterlimit="10"/>
<path d="M876.056 -139.271C825.194 -144.559 762.964 -138.662 704.384 -111.884C648.092 -86.1465 625.054 -51.1182 585.622 -20.4836C509.828 38.4184 483.233 77.3316 432.119 93.9456C370.759 113.899 323.147 133.129 274.922 152.291C218.311 174.789 205.392 187.491 156.209 186.498C109.323 185.517 31.0818 205.588 -13.1542 219.715C-55.4252 233.217 -58.5051 232.995 -108.684 220.812C-169.586 206.04 -189.859 201.126 -234.678 193.294C-265.036 187.985 -310.476 181.97 -371.734 189.261" stroke="#DDFA69" stroke-width="0.823181" stroke-miterlimit="10"/>
<path d="M874.523 -149.637C822.395 -155.45 762.972 -149.043 708.39 -124.007C652.604 -98.4125 631.678 -63.2602 590.24 -31.5149C518.748 23.261 491.812 57.545 440.379 74.3231C372.964 96.3175 321.502 118.978 268.872 142.325C207.943 169.347 192.722 185.748 138.888 187.196C91.1223 188.483 18.1087 205.264 -22.8967 217.169C-61.8386 228.491 -65.213 227.697 -117.695 212.916C-179.404 195.553 -198.135 191.211 -238.283 183.921C-268.242 178.479 -313.007 172.326 -373.915 180.476" stroke="#DDFA69" stroke-width="0.823181" stroke-miterlimit="10"/>
<path d="M872.962 -160.154C819.672 -166.428 762.942 -159.561 712.368 -136.271C657.092 -110.809 638.309 -75.5035 594.833 -42.6852C527.701 8.00821 502.208 42.8746 448.598 54.5578C372.593 71.1257 319.793 104.686 262.802 132.23C197.504 163.777 179.165 195.022 121.553 187.778C73.4203 181.688 5.18377 204.88 -32.6674 214.505C-68.3126 223.615 -71.9685 222.323 -126.734 204.908C-189.281 185 -206.411 181.121 -241.906 174.419C-271.455 168.83 -315.566 162.575 -376.116 171.552" stroke="#DDFA69" stroke-width="0.823181" stroke-miterlimit="10"/>
<path d="M871.333 -171.012C816.822 -177.784 762.861 -170.4 716.255 -148.942C661.502 -123.611 644.894 -88.1105 599.35 -54.2551C536.561 -7.58693 510.583 21.8829 456.753 34.3898C374.815 53.4494 317.962 90.0029 256.654 121.755C186.941 157.844 167.134 191.2 104.151 187.999C54.1911 185.452 -7.89813 204.071 -42.4806 211.475C-74.8371 218.407 -78.8751 216.643 -135.818 196.519C-199.261 174.108 -214.748 170.628 -245.598 164.549C-274.727 158.8 -318.178 152.465 -378.382 162.272" stroke="#333333" stroke-width="0.823181" stroke-miterlimit="10"/>
<path d="M869.563 -182.552C813.846 -189.823 762.649 -181.964 720.038 -162.171C665.799 -136.966 651.414 -101.228 603.759 -66.3663C545.46 -23.7095 518.863 0.348745 464.792 13.6874C376.919 35.3622 316.011 74.7977 250.431 110.765C176.251 151.452 154.603 186.34 86.6883 187.734C35.0468 188.794 -20.9748 202.836 -52.3751 207.976C-81.4161 212.733 -85.8726 210.515 -144.983 187.656C-209.344 162.764 -223.186 159.616 -249.347 154.185C-278.06 148.243 -320.923 141.873 -380.701 152.504" stroke="#333333" stroke-width="0.823181" stroke-miterlimit="10"/>
<path d="M867.756 -194.292C810.821 -202.059 762.39 -193.704 723.772 -175.67C670.048 -150.579 657.935 -114.543 608.119 -78.7422C554.279 -40.0417 527.131 -21.4448 472.79 -7.29095C379.059 17.1187 313.99 59.3463 244.169 99.5338C165.447 144.827 141.666 180.835 69.1967 187.248C16.0131 191.956 -34.0907 201.402 -62.2908 204.235C-88.0017 206.835 -92.9367 204.192 -154.171 178.545C-219.524 151.19 -231.548 148.247 -253.134 143.57C-281.411 137.398 -323.566 130.997 -383.056 142.484" stroke="#333333" stroke-width="0.823181" stroke-miterlimit="10"/>
<path d="M865.741 -207.064C807.592 -215.316 761.979 -206.413 727.304 -190.186C674.154 -165.11 664.338 -128.785 612.288 -92.1135C562.938 -57.3392 535.224 -44.2269 480.588 -29.2592C381.078 -1.99799 311.773 42.9262 237.797 87.3506C154.645 137.254 127.177 169.514 51.6172 185.853C-2.22808 197.485 -47.2785 199.059 -72.3048 199.587C-94.7212 200.054 -100.139 196.965 -163.455 168.529C-229.814 138.698 -240.024 136.005 -257.002 132.053C-284.817 125.569 -326.364 119.231 -385.488 131.556" stroke="#333333" stroke-width="0.823181" stroke-miterlimit="10"/>
<path d="M863.75 -219.71C804.398 -228.46 761.537 -219.068 730.841 -204.593C678.22 -179.639 670.854 -142.813 616.472 -105.379C571.626 -74.5099 543.351 -66.9151 488.407 -51.1423C383.15 -20.9275 309.558 26.6154 231.323 75.2766C143.635 129.837 113.546 164.863 33.9446 184.584C-21.3468 198.258 -60.5748 196.919 -82.3903 195.062C-101.526 193.404 -107.46 189.895 -172.815 158.614C-240.239 126.346 -248.564 123.79 -260.976 120.625C-288.264 113.67 -329.253 107.571 -388.024 120.737" stroke="#333333" stroke-width="0.823181" stroke-miterlimit="10"/>
<path d="M861.759 -232.365C801.234 -241.609 761.02 -231.724 734.39 -219.008C682.336 -194.183 677.487 -156.686 620.655 -118.651C580.316 -91.6512 551.483 -89.6284 496.205 -73.046C385.289 -39.7711 307.336 10.3395 224.918 63.2009C132.695 122.416 99.8919 160.272 16.35 183.334C-40.6086 199.051 -73.8389 194.844 -92.43 190.538C-108.294 186.863 -114.71 182.827 -182.131 148.691C-250.635 113.973 -257.017 111.509 -264.881 109.188C-291.469 101.331 -332.078 95.8794 -390.495 109.887" stroke="#333333" stroke-width="0.823181" stroke-miterlimit="10"/>
</g>
<defs>
<clipPath id="clip0_61_2104">
<rect width="192.667" height="177" rx="20" fill="white"/>
</clipPath>
</defs>
</svg>
