<svg width="55" height="17" viewBox="0 0 55 17" fill="none" xmlns="http://www.w3.org/2000/svg">
<path d="M9.128 17L4.928 10.64H4.184V17H0.464V0.199999H7.184C10.952 0.199999 12.896 2.528 12.896 5.456C12.896 7.904 11.576 9.848 8.984 10.448L13.784 17H9.128ZM4.184 3.584V7.52H6.632C8.12 7.52 8.96 6.944 8.96 5.552C8.96 4.304 8.12 3.584 6.632 3.584H4.184ZM26.8445 17L25.6445 13.592H19.1645L17.9885 17H13.8125L20.4365 0.199999H24.3725L30.9965 17H26.8445ZM20.3405 10.28H24.4925L22.4045 4.352L20.3405 10.28ZM54.0884 0.199999L48.4484 17H45.1604L41.4644 6.104H41.4164L37.7204 17H34.4324L28.7924 0.199999H33.1364L36.1364 11H36.1844L39.8084 0.199999H43.0724L46.6964 11H46.7444L49.7444 0.199999H54.0884Z" fill="#333333"/>
</svg>
