<svg width="1203" height="461" viewBox="0 0 1203 461" fill="none" xmlns="http://www.w3.org/2000/svg">
<g clip-path="url(#clip0_57_297)">
<path d="M-62.6995 395.346C21.9505 368.056 77.5372 330.918 112.842 301.745C148.543 272.244 172.493 243.418 222.872 219.203C278.416 192.398 318.082 189.403 334 189.204C356.072 188.937 355.496 192.377 392.336 195.096C463.106 200.322 473.515 188.259 506.251 195.017C560.527 206.216 553.877 243.9 613.995 270.011C657.533 288.93 724.109 296.562 776.192 268.435C825.236 241.946 822.773 204.629 876.688 186.72C898.834 179.363 918.74 179.641 958.538 180.2C1009.53 180.852 1045.32 187.956 1059.48 190.082C1101.45 196.402 1165.71 191.582 1259.94 137.929" stroke="white" stroke-opacity="0.1" stroke-width="0.891595" stroke-miterlimit="10"/>
<path d="M-60.5771 407.107C21.4818 381.461 79.0768 346.149 117.838 315.408C149.272 290.206 171.929 265.321 206.024 243.376C213.484 238.586 221.399 233.786 230.063 229.216C284.661 200.436 323.395 194.086 339.677 191.927C361.51 189.02 362.055 191.366 398.14 193.941C423.568 195.742 441.439 195.993 455.166 195.692C478.499 195.173 489.711 192.9 509.35 197.77C516.672 199.559 523.762 202.186 530.483 205.599C561.562 221.37 566.883 249.283 616.842 268.571C660.33 285.362 725.888 290.465 777.046 262.665C781.098 260.46 785.036 258.051 788.846 255.448C827.28 229.16 830.039 197.993 877.413 182.188C882.404 180.515 887.5 179.178 892.669 178.184C910.026 174.788 928.82 174.949 958.621 175.358C1008.01 176.106 1043.23 183.049 1058.86 185.406C1070.29 187.094 1081.85 187.819 1093.4 187.575C1133.41 186.834 1187.49 175.152 1258.49 136.808" stroke="white" stroke-opacity="0.1" stroke-width="0.891595" stroke-miterlimit="10"/>
<path d="M-58.2156 419.897C21.2328 395.872 80.9419 362.541 123.049 329.995C156.489 304.16 180.175 278.021 213.428 255.564C221.015 250.424 228.895 245.175 237.516 240.239C291.165 209.47 328.629 198.553 345.629 195.657C367.541 191.953 368.92 191.369 404.192 193.799C428.893 195.519 446.839 196.391 460.46 196.768C483.4 197.369 494.064 196.085 512.649 201.561C519.739 203.685 526.598 206.518 533.121 210.015C563.283 225.847 570.565 251.554 619.964 268.193C663.398 282.843 727.938 285.418 778.171 257.944C782.413 255.568 786.311 253.273 789.885 250.775C829.58 223.874 832.811 194.015 878.441 178.782C883.389 177.106 888.441 175.76 893.567 174.752C911.192 171.197 929.932 171.245 959.033 171.748C1006.82 172.534 1041.46 179.363 1058.52 181.816C1069.86 183.486 1081.32 184.243 1092.78 184.079C1132.49 183.602 1186.54 172.887 1257.26 136.775" stroke="white" stroke-opacity="0.1" stroke-width="0.891595" stroke-miterlimit="10"/>
<path d="M-55.6406 433.54C21.2097 411.189 82.9535 379.678 128.488 345.501C163.858 318.939 188.627 291.604 221.009 268.627C228.736 263.135 236.598 257.445 245.146 252.137C297.853 219.406 334.593 206.573 351.756 200.249C372.99 192.437 375.958 192.234 410.432 194.516C434.426 196.122 452.45 197.63 466.03 198.669C488.561 200.379 498.709 200.104 516.237 206.173C523.05 208.649 529.642 211.695 535.944 215.278C565.186 231.157 574.504 254.626 623.234 268.628C666.668 281.124 730.14 281.196 779.445 254.035C783.647 251.669 787.519 249.379 791.076 246.927C831.991 219.354 835.743 190.846 879.575 176.059C884.483 174.38 889.496 173.024 894.582 172.001C912.473 168.273 931.218 168.223 959.563 168.762C1005.72 169.581 1039.8 176.276 1058.31 178.933C1069.58 180.556 1080.94 181.336 1092.32 181.267C1131.74 181.054 1185.74 171.321 1256.17 137.43" stroke="white" stroke-opacity="0.1" stroke-width="0.891595" stroke-miterlimit="10"/>
<path d="M-53.0744 447.213C21.1846 426.506 84.9429 396.847 133.916 361.024C171.225 333.72 197.062 305.178 228.605 281.701C236.459 275.859 244.285 269.719 252.79 264.046C304.564 229.392 340.211 213.409 357.902 204.878C378.804 194.796 382.964 193.148 416.693 195.27C440.041 196.79 458.054 198.911 471.558 200.58C493.677 203.386 503.303 204.15 519.784 210.795C526.307 213.617 532.633 216.871 538.722 220.538C567.051 236.434 578.408 257.678 626.502 269.119C669.932 279.448 732.326 277.034 780.72 250.196C784.869 247.842 788.715 245.558 792.264 243.135C834.415 214.9 838.694 187.882 880.72 173.459C885.595 171.794 890.568 170.43 895.61 169.372C913.743 165.491 932.411 165.348 960.105 165.899C1004.66 166.77 1038.17 173.347 1058.13 176.17C1069.31 177.77 1080.59 178.579 1091.88 178.591C1131.01 178.653 1184.98 169.874 1255.14 138.227" stroke="white" stroke-opacity="0.1" stroke-width="0.891595" stroke-miterlimit="10"/>
<path d="M-51.5996 456.068C20.0683 437.006 85.8572 409.209 138.255 371.742C177.487 343.685 204.395 313.894 235.112 289.97C243.077 283.77 250.907 277.226 259.346 271.151C310.16 234.58 344.769 215.504 362.915 204.686C383.518 192.422 388.925 189.206 421.819 191.203C439.988 192.324 458.076 194.513 475.988 197.758C497.731 201.638 506.814 203.473 522.193 210.638C528.913 213.787 534.527 217.497 540.48 220.991C567.884 236.852 581.316 255.96 628.717 264.783C672.181 272.924 733.473 268.042 780.942 241.53C785.052 239.185 788.872 236.908 792.401 234.517C835.809 205.656 840.563 179.903 880.827 166.028C885.662 164.372 890.591 163.003 895.589 161.93C913.996 157.916 932.605 157.633 959.547 158.179C1002.48 159.065 1035.44 165.548 1056.83 168.539C1067.93 170.112 1079.13 170.944 1090.35 171.029C1129.18 171.368 1183.1 163.573 1252.98 134.143" stroke="white" stroke-opacity="0.1" stroke-width="0.891595" stroke-miterlimit="10"/>
<path d="M-50.7603 462.431C18.2972 444.99 86.1137 419.042 141.956 379.954C183.111 351.145 211.058 320.084 240.996 295.799C249.082 289.223 256.886 282.268 265.279 275.816C315.208 237.352 348.795 215.193 367.377 202.065C387.657 187.694 394.283 182.847 426.391 184.693C444.382 185.728 462.251 188.296 479.806 192.368C501.115 197.308 509.713 200.228 524.041 208.013C530.396 211.441 535.7 215.432 541.626 218.987C568.142 234.915 583.603 251.635 630.32 257.991C673.837 263.91 734.02 256.59 780.562 230.391C784.619 228.059 788.399 225.79 791.934 223.426C836.609 193.979 841.887 169.521 880.342 156.234C885.138 154.572 890.028 153.194 894.986 152.107C913.636 147.939 932.217 147.538 958.443 148.167C999.761 149.109 1032.15 155.46 1055 158.64C1066.02 160.179 1077.13 161.036 1088.26 161.204C1126.8 161.818 1180.69 155.004 1250.29 127.779" stroke="white" stroke-opacity="0.1" stroke-width="0.891595" stroke-miterlimit="10"/>
<path d="M-49.8593 468.877C16.6 453.11 86.4056 428.965 145.719 388.251C188.781 358.678 217.747 326.324 246.888 301.599C255.089 294.622 262.893 287.25 271.233 280.449C320.258 240.125 352.86 214.929 371.817 199.408C391.931 182.95 399.635 176.463 430.944 178.161C448.801 179.173 466.489 182.183 483.675 187.135C504.517 193.114 512.656 197.169 525.925 205.478C531.878 209.207 536.889 213.433 542.783 217.093C568.404 232.993 585.958 247.42 631.958 251.289C675.535 254.957 734.574 245.222 780.154 219.371C784.172 217.048 787.925 214.786 791.437 212.441C837.358 182.315 843.076 159.214 879.797 146.357C884.554 144.705 889.399 143.319 894.31 142.206C913.213 137.812 931.756 137.365 957.258 138.05C996.967 139.005 1028.78 145.268 1053.08 148.596C1064.02 150.119 1075.05 151.008 1086.1 151.258C1124.34 152.096 1178.18 146.263 1247.51 121.299" stroke="#DDFA69" stroke-opacity="0.3" stroke-width="0.891595" stroke-miterlimit="10"/>
<path d="M-48.9663 475.352C14.9018 461.229 86.7157 438.909 149.473 396.575C194.455 366.236 224.437 332.576 252.813 307.487C261.112 300.154 268.939 292.401 277.188 285.149C325.321 242.962 356.966 214.724 376.284 196.812C396.209 178.286 404.998 170.13 435.522 171.677C453.239 172.661 470.736 176.074 487.524 181.82C508.007 188.828 515.57 194.045 527.78 202.878C533.346 206.919 538.085 211.348 543.935 215.115C568.663 231 588.274 243.101 633.566 244.523C677.221 245.894 735.114 233.799 779.806 208.252C783.784 205.938 787.511 203.682 791.006 201.383C838.207 170.668 844.376 148.851 879.336 136.487C884.058 134.841 888.863 133.446 893.732 132.307C912.884 127.73 931.447 127.195 956.194 127.917C994.275 128.917 1025.54 135.072 1051.27 138.566C1062.14 140.079 1073.08 141.01 1084.05 141.355C1122.01 142.507 1175.81 137.602 1244.86 114.869" stroke="#DDFA69" stroke-opacity="0.3" stroke-width="0.891595" stroke-miterlimit="10"/>
<path d="M-48.0772 481.801C13.1906 469.283 87.0362 448.77 153.241 404.828C200.192 373.699 231.109 338.738 258.752 313.305C267.153 305.572 274.989 297.443 283.178 289.815C330.416 245.808 361.12 214.537 380.771 194.172C400.576 173.632 410.397 163.762 440.123 165.162C457.72 166.156 475.039 170.005 491.401 176.557C511.464 184.565 518.514 190.985 529.662 200.329C534.842 204.683 539.266 209.309 545.154 213.179C569.013 229.03 590.689 238.72 635.265 237.779C678.991 236.827 735.731 222.402 779.512 197.178C783.437 194.876 787.138 192.626 790.641 190.423C839.106 159.108 845.74 138.572 878.919 126.734C883.606 125.067 888.381 123.66 893.223 122.52C912.649 117.865 931.1 117.147 955.175 117.846C991.639 118.887 1022.33 124.938 1049.53 128.593C1059.35 129.922 1070.15 130.984 1082.04 131.414C1119.71 132.831 1173.47 128.907 1242.23 108.395" stroke="#DDFA69" stroke-opacity="0.3" stroke-width="0.891595" stroke-miterlimit="10"/>
<path d="M-47.2339 488.065C11.3799 477.22 87.2469 458.529 156.928 412.988C205.731 381.094 237.681 344.782 264.607 319.015C273.097 310.887 280.959 302.39 289.083 294.361C335.478 248.521 365.27 214.225 385.164 191.441C404.83 168.807 415.69 157.307 444.63 158.556C462.128 159.56 479.284 163.829 495.212 171.141C514.884 180.157 521.32 187.817 531.478 197.628C536.272 202.293 540.41 207.125 546.214 211.112C569.197 226.902 592.944 234.263 636.779 230.91C680.614 227.557 736.174 210.863 779.03 185.965C782.916 183.673 786.59 181.429 790.067 179.231C839.809 147.314 846.908 128.06 878.355 116.721C882.99 115.057 887.714 113.648 892.504 112.501C912.219 107.655 930.597 106.857 953.901 107.651C988.76 108.718 1018.88 114.681 1047.52 118.485C1057.3 119.796 1068.02 120.863 1079.79 121.391C1117.16 123.071 1170.88 120.115 1239.37 101.847" stroke="#DDFA69" stroke-opacity="0.3" stroke-width="0.891595" stroke-miterlimit="10"/>
<path d="M-46.3936 494.248C9.67465 485.064 87.4718 468.162 160.633 421.033C211.402 388.391 244.238 350.692 270.46 324.645C279.048 316.104 286.939 307.253 295.024 298.816C340.546 251.137 369.45 213.851 389.556 188.573C409.168 163.978 421.043 150.686 449.095 151.822C467.723 152.577 485.94 158.861 498.969 165.6C518.257 175.594 524.202 184.494 533.252 194.798C537.634 199.782 541.5 204.816 547.262 208.923C569.377 224.624 595.14 229.599 638.275 223.893C682.134 218.131 736.601 199.19 778.533 174.619C782.366 172.338 786.014 170.101 789.478 167.906C840.481 135.376 848.031 117.407 877.683 106.596C882.281 104.932 886.966 103.514 891.715 102.348C911.65 97.3117 930.009 96.4345 952.666 97.2537C985.909 98.3635 1015.42 104.23 1045.52 108.197C1055.25 109.478 1065.89 110.576 1077.53 111.177C1114.61 113.132 1168.3 111.143 1236.49 95.0699" stroke="#DDFA69" stroke-opacity="0.3" stroke-width="0.891595" stroke-miterlimit="10"/>
<path d="M-45.5857 500.354C7.89447 492.828 87.5881 477.569 164.302 428.989C216.846 395.434 250.759 356.512 276.294 330.138C284.952 321.178 292.914 311.977 300.88 303.151C345.602 253.699 373.604 213.316 393.947 185.648C413.508 159.037 426.271 144.066 453.64 145.013C471.592 145.675 489.853 152.504 502.791 159.987C521.695 170.96 527.002 181.12 535.08 191.9C539.089 197.193 542.649 202.409 548.383 206.634C569.645 222.311 597.442 224.798 639.892 216.862C683.831 208.635 737.15 187.502 778.154 163.244C781.953 160.98 785.571 158.75 789.006 156.553C841.306 123.444 849.301 106.732 877.185 96.4439C881.74 94.7736 886.38 93.3471 891.086 92.1706C911.273 86.9642 929.611 85.9948 951.552 86.8415C983.163 87.9832 1012.15 93.8054 1043.71 97.8778C1053.4 99.1547 1063.93 100.249 1075.47 100.929C1112.25 103.161 1165.9 102.141 1233.82 88.3251" stroke="#DDFA69" stroke-opacity="0.3" stroke-width="0.891595" stroke-miterlimit="10"/>
<path d="M-44.7985 506.368C6.07434 500.476 87.7895 487.04 167.951 436.853C222.414 402.533 257.264 362.197 282.117 335.579C290.85 326.227 298.838 316.659 306.752 307.428C350.653 256.18 377.833 212.736 398.302 182.622C417.834 153.975 431.525 137.26 458.046 138.084C475.334 138.637 493.654 146.022 506.481 154.281C525.028 166.226 529.703 177.672 536.764 188.924C540.325 194.558 543.676 199.948 549.352 204.283C569.854 219.859 599.981 221.193 641.42 209.685C684.987 197.585 737.609 175.669 777.702 151.733C781.458 149.48 785.045 147.257 788.462 145.064C842.09 111.452 850.482 95.9124 876.598 86.1461C881.117 84.4793 885.718 83.0479 890.385 81.8578C910.827 76.4948 929.177 75.3976 950.33 76.2607C980.287 77.5228 1008.78 83.3072 1041.76 87.4656C1051.4 88.7253 1061.86 89.8378 1073.27 90.6048C1109.76 93.1113 1163.37 93.0587 1231.01 81.4767" stroke="#DDFA69" stroke-opacity="0.3" stroke-width="0.891595" stroke-miterlimit="10"/>
<path d="M-44.0813 512.329C4.19423 508.055 87.9238 496.471 171.53 444.664C227.913 409.577 263.623 367.861 287.844 340.917C296.686 331.137 304.709 321.241 312.519 311.562C355.616 258.472 381.9 212.069 402.585 179.472C422.147 148.804 436.811 130.418 462.557 131.075C479.167 131.521 497.544 139.449 510.272 148.481C528.455 161.372 532.459 174.113 538.581 185.807C541.719 191.774 544.831 197.331 550.468 201.801C570.052 217.312 601.778 214.884 642.915 202.432C686.825 189.183 738.022 163.763 777.19 140.153C780.839 137.916 784.487 135.679 787.858 133.505C842.747 99.2805 851.614 85.0063 875.965 75.7754C880.439 74.102 884.997 72.6623 889.62 71.4619C910.315 65.9291 928.577 64.7549 949.073 65.6597C977.465 66.8827 1005.32 72.5088 1039.76 76.8982C1049.37 78.1377 1059.75 79.1996 1071.07 80.1098C1107.26 82.8145 1160.85 83.7926 1228.16 74.457" stroke="#DDFA69" stroke-opacity="0.3" stroke-width="0.891595" stroke-miterlimit="10"/>
<path d="M-43.2586 518.196C2.4187 515.596 88.1373 505.814 175.217 452.394C233.573 416.529 270.088 373.375 293.646 346.21C302.502 336.01 310.655 325.778 318.379 315.73C360.796 260.964 386.096 211.344 406.859 176.34C426.367 143.586 441.899 123.553 466.958 124.064C482.891 124.404 501.35 132.868 513.965 142.663C531.815 156.576 535.103 170.54 540.291 182.7C542.97 189.024 545.866 194.729 551.449 199.322C570.207 214.747 603.893 209.752 644.366 195.162C688.262 179.401 738.418 151.834 776.645 128.54C780.294 126.302 783.85 124.086 787.245 122.019C843.408 87.1781 852.701 74.1388 875.297 65.4269C879.769 63.7631 884.325 62.3331 888.946 61.1429C908.114 55.9196 928.01 53.8766 947.841 55.0951C974.617 56.3601 1001.91 61.8817 1037.8 66.4331C1047.36 67.6423 1057.66 68.7651 1068.82 69.7283C1120.92 73.9747 1173.32 73.2459 1225.29 67.5517" stroke="#DDFA69" stroke-opacity="0.3" stroke-width="0.891595" stroke-miterlimit="10"/>
<path d="M-42.5134 524.038C0.572719 523.083 88.2996 515.127 178.824 460.086C239.047 423.468 276.478 378.934 299.463 351.458C401.466 229.418 416.399 116.127 471.434 116.965C486.689 117.198 505.231 126.199 517.721 136.773C544.39 159.335 536.388 183.01 552.508 196.769C592.031 230.516 716.652 153.6 786.692 110.379C854.981 68.2315 855.857 59.5663 888.136 50.6737C944.474 35.1192 979.352 51.091 1066.58 59.2158C1118.42 63.9695 1170.57 64.3958 1222.49 60.49" stroke="#DDFA69" stroke-opacity="0.3" stroke-width="0.891595" stroke-miterlimit="10"/>
<path d="M-41.6364 527.808C2.73078 527.402 87.5823 519.03 174.117 466.376C233.835 429.972 269.265 385.557 294.042 356.524C393.047 240.656 408.135 136.582 463.12 132.778C484.601 131.286 507.173 133.056 523.426 140.032C555.363 153.756 549.396 174.053 568.943 186.418C611.741 213.512 728.67 144.748 795.562 104.482C860.705 65.1776 862.045 58.0302 896.796 51.3421C954.541 40.2262 987.464 53.8874 1069.75 62.022C1121.08 67.0886 1172.78 67.3112 1224.16 62.6869" stroke="white" stroke-opacity="0.1" stroke-width="0.891595" stroke-miterlimit="10"/>
<path d="M-40.7232 531.736C33.3885 531.579 106.053 511.206 169.444 472.811C228.659 436.636 262.002 392.33 288.654 361.737C384.451 251.852 400.023 155.419 454.852 148.733C482.674 145.35 508.366 140.156 529.166 143.45C564.843 149.051 561.89 165.16 585.415 176.226C630.351 197.335 740.721 136.042 804.479 98.7271C866.357 62.294 868.143 56.5295 905.501 52.153C964.444 45.2328 995.64 56.9612 1072.95 64.9871C1123.76 70.3584 1174.99 70.3812 1225.8 65.055" stroke="white" stroke-opacity="0.1" stroke-width="0.891595" stroke-miterlimit="10"/>
<path d="M-39.099 538.723C33.0094 539.236 103.842 519.702 165.495 482.302C224.191 446.345 255.461 402.146 283.977 370.007C376.289 265.991 395.127 186.361 447.281 167.749C479.908 156.108 509.923 150.799 535.628 149.909C574.467 148.551 574.716 159.428 602.608 169.076C648.781 185.048 753.541 130.52 814.093 96.0342C872.842 62.5791 874.872 57.9808 914.902 56.0123C974.961 53.0565 1004.51 63.0702 1076.88 70.9943C1127.17 76.6887 1177.95 76.5135 1228.2 70.4723" stroke="white" stroke-opacity="0.1" stroke-width="0.891595" stroke-miterlimit="10"/>
<path d="M-36.6268 549.36C33.471 550.536 102.468 531.829 162.372 495.408C220.559 459.652 249.743 415.562 280.139 381.889C368.852 283.614 388.906 210.885 440.563 190.374C478.942 175.145 511.932 157.834 542.916 159.983C585.55 162.939 587.235 163.437 620.626 165.54C664.803 185.297 767.176 128.572 824.559 96.9494C880.119 66.3893 882.402 62.9409 925.158 63.4928C986.24 64.2866 1014.21 72.8461 1081.63 80.6159C1131.4 86.6273 1181.74 86.2491 1231.42 79.4907" stroke="white" stroke-opacity="0.1" stroke-width="0.891595" stroke-miterlimit="10"/>
<path d="M-34.0965 560.249C33.9903 562.099 101.164 544.256 159.358 508.863C217.042 473.336 244.117 429.319 276.409 394.122C361.389 301.48 382.493 235.065 433.861 213.371C478.148 194.685 513.598 173.134 550.316 170.421C597.659 166.919 601.056 163.184 638.757 162.369C684.05 178.559 780.857 126.879 835.042 98.2367C887.412 70.5717 889.931 68.1382 935.43 71.3456C997.573 75.6859 1023.94 83.0206 1086.41 90.6065C1135.67 96.936 1185.57 96.3543 1234.67 88.8781" stroke="white" stroke-opacity="0.1" stroke-width="0.891595" stroke-miterlimit="10"/>
<path d="M-31.5152 571.349C34.5379 573.842 99.8647 556.846 156.327 522.476C213.505 487.163 238.445 443.226 272.663 406.512C353.844 319.407 375.926 258.989 427.314 236.485C477.416 214.543 517.907 196.684 557.695 181.003C606.825 161.635 614.854 163.062 656.867 159.34C703.36 172.029 794.585 125.384 845.679 99.641C894.86 74.871 897.596 73.3735 945.856 79.3152C1008.91 87.0847 1033.81 93.3709 1091.28 100.743C1140.03 107.383 1189.5 106.597 1238.02 98.411" stroke="white" stroke-opacity="0.1" stroke-width="0.891595" stroke-miterlimit="10"/>
<path d="M-28.901 582.592C23.4757 585.382 90.8541 574.764 153.371 536.237C210.113 501.262 232.828 457.259 268.979 419.053C346.245 337.401 369.298 282.774 420.737 259.772C476.822 234.703 520.944 212.678 565.15 191.732C618.088 166.631 628.245 155.336 675.053 156.461C723.55 157.623 808.359 124.085 856.287 101.218C902.274 79.33 905.245 78.7228 956.25 87.4446C1020.37 98.4818 1043.67 103.917 1096.25 111.008C1128.94 115.414 1177.72 119.776 1241.46 108.073" stroke="white" stroke-opacity="0.1" stroke-width="0.891595" stroke-miterlimit="10"/>
<path d="M-26.2423 594.035C27.462 597.336 91.9184 586.341 150.443 550.187C206.683 515.44 227.218 471.443 265.336 431.779C338.604 355.518 362.464 306.58 414.214 283.241C476.337 255.213 524.16 228.91 572.633 202.651C629.534 171.821 641.752 155.587 693.267 153.77C742.379 152.08 822.137 122.87 866.949 102.978C909.77 83.9657 913.012 84.0458 966.701 95.77C1031.86 109.983 1053.55 114.709 1101.2 121.474C1133.47 126.061 1181.58 130.578 1244.88 117.949" stroke="white" stroke-opacity="0.1" stroke-width="0.891595" stroke-miterlimit="10"/>
<path d="M-23.5531 605.609C31.5337 609.478 93.0132 598.05 147.549 564.282C203.286 529.762 221.612 485.765 261.727 444.65C330.937 373.709 355.634 330.398 407.712 306.858C475.971 276 527.485 245.31 580.15 213.714C641.121 177.145 655.377 156.283 711.514 151.223C761.323 146.732 835.963 121.865 877.631 104.886C917.201 88.7408 920.809 89.4999 977.173 104.243C1043.44 121.56 1063.47 125.687 1106.18 132.085C1138.05 136.862 1185.47 141.594 1248.33 127.957" stroke="white" stroke-opacity="0.1" stroke-width="0.891595" stroke-miterlimit="10"/>
<path d="M-20.8219 617.354C35.5336 621.72 94.1601 609.913 144.694 578.534C199.925 544.23 216.006 500.198 258.157 457.68C323.242 392.004 346.382 348.097 401.262 330.63C479.065 305.863 530.891 261.873 587.706 224.936C652.803 182.627 668.828 143.555 729.801 148.835C780.745 153.291 849.757 120.952 888.366 106.948C924.719 93.7045 928.672 95.0504 987.694 112.858C1055.1 133.217 1073.41 136.882 1111.2 142.854C1142.66 147.837 1189.41 152.739 1251.82 138.136" stroke="white" stroke-opacity="0.1" stroke-width="0.891595" stroke-miterlimit="10"/>
<path d="M-18.0023 629.482C39.687 634.385 95.3761 622.135 141.959 593.245C196.671 559.158 210.469 515.046 254.694 471.17C315.665 410.689 339.868 373.328 394.905 354.867C478.68 326.738 534.46 278.898 595.382 236.615C664.658 188.555 682.017 146.853 748.207 146.904C800.712 146.955 863.772 120.57 899.194 109.475C932.335 99.0898 936.735 100.985 998.311 121.95C1066.91 145.296 1083.46 148.578 1116.34 154.08C1147.38 159.287 1193.46 164.332 1255.43 148.76" stroke="white" stroke-opacity="0.1" stroke-width="0.891595" stroke-miterlimit="10"/>
<path d="M-15.0066 642.374C44.0033 647.817 96.7673 635.178 139.353 608.578C193.56 574.706 205.022 530.47 251.373 485.28C308.075 429.987 333.483 399.183 388.704 379.719C478.446 348.092 538.201 296.549 603.19 248.93C676.702 195.065 695.846 151.419 766.746 145.61C820.657 141.193 877.848 120.758 910.177 112.618C940.077 105.085 944.961 107.506 1009.08 131.658C1078.9 157.96 1093.7 160.94 1121.61 165.943C1152.24 171.412 1197.71 176.543 1259.17 160.019" stroke="white" stroke-opacity="0.1" stroke-width="0.891595" stroke-miterlimit="10"/>
<path d="M-11.9568 655.49C48.3868 661.471 98.2197 648.415 136.82 624.215C190.517 590.545 199.586 546.115 248.125 499.694C300.583 449.514 327.125 425.323 382.563 404.879C478.185 369.619 542.038 314.484 611.067 261.536C688.898 201.859 710.177 156.759 785.354 144.606C840.525 135.686 892 121.206 921.22 116.068C947.86 111.363 953.287 114.269 1019.92 141.673C1091.03 170.899 1103.9 173.742 1126.95 178.11C1157.15 183.886 1201.9 189.103 1262.99 171.582" stroke="white" stroke-opacity="0.1" stroke-width="0.891595" stroke-miterlimit="10"/>
<path d="M-8.6384 669.766C53.0359 676.271 99.8827 662.742 134.552 640.998C187.673 607.42 194.326 562.815 245.142 515.254C293.32 470.153 321.016 452.6 376.7 431.181C478.119 392.171 546.169 333.573 619.157 275.3C701.201 209.837 726.731 169.097 804.175 144.76C859.364 127.43 906.352 122.816 932.489 120.673C955.901 118.76 961.878 122.179 1030.97 152.831C1103.39 184.99 1114.34 187.64 1132.5 191.408C1162.26 197.594 1206.37 202.778 1267.01 184.291" stroke="white" stroke-opacity="0.1" stroke-width="0.891595" stroke-miterlimit="10"/>
<path d="M-5.35521 683.897C57.6396 690.944 101.571 677.008 132.265 657.647C184.868 624.287 188.921 579.258 242.127 530.683C286.003 490.625 314.846 479.739 370.792 457.356C477.967 414.479 550.278 352.514 627.337 288.919C713.706 217.615 741.723 173.407 823.086 144.769C879.604 124.907 920.799 124.183 943.818 125.126C964.013 125.99 970.573 129.884 1042.09 163.849C1115.87 198.886 1124.84 201.484 1138.14 204.574C1167.4 211.363 1210.91 216.297 1271.12 196.841" stroke="white" stroke-opacity="0.1" stroke-width="0.891595" stroke-miterlimit="10"/>
<path d="M-2.06752 698.041C62.2185 705.62 103.344 691.268 129.967 674.298C182.01 641.165 183.375 595.51 239.113 546.11C278.675 511.043 308.663 506.879 364.898 483.526C477.734 436.666 554.39 371.399 635.449 302.538C726.146 225.407 756.743 177.654 841.929 144.779C900.009 122.372 935.218 125.485 955.109 129.587C972.082 133.089 979.2 137.589 1053.17 174.875C1128.33 212.801 1135.26 215.401 1143.72 217.741C1172.34 225.665 1215.39 229.843 1275.17 209.418" stroke="white" stroke-opacity="0.1" stroke-width="0.891595" stroke-miterlimit="10"/>
<path fill-rule="evenodd" clip-rule="evenodd" d="M1100.44 144.201C1100.17 144.478 1091.18 144.742 1080.47 144.786L1060.99 144.866L1054.6 154.717C1042.08 174.013 1021.73 205.271 1013.79 217.409C1005.91 229.458 992.544 250.068 971.658 282.379C965.952 291.208 955.729 306.953 948.943 317.368C942.157 327.782 933.517 341.058 929.745 346.871C925.972 352.683 918.337 364.374 912.779 372.851C887.615 411.225 875.032 430.825 875.032 431.648C875.032 433.233 880.264 433.429 909.682 432.942L938.607 432.463L946.23 422.205C950.423 416.563 956.571 407.608 959.894 402.307C963.216 397.005 970.386 385.533 975.828 376.814C981.269 368.095 994.8 346.997 1005.9 329.927C1016.99 312.858 1031.41 290.665 1037.93 280.608C1044.45 270.553 1062.64 242.905 1078.35 219.171C1094.06 195.436 1108.81 172.648 1111.12 168.531C1113.44 164.414 1117.55 157.526 1120.27 153.224C1122.99 148.924 1124.98 145.17 1124.69 144.882C1124 144.192 1101.07 143.547 1100.44 144.201ZM884.279 146.016C859.326 150.975 840.378 166.901 830.246 191.429C825.018 204.085 822.638 224.34 824.792 237.843C829.037 264.453 844.467 286.637 865.784 296.774C874.777 301.052 880.582 302.186 899.251 303.317C913.841 304.2 916.744 304.152 921.922 302.937C930.129 301.011 938.584 296.544 946.937 289.72C967.374 273.025 977.359 249.355 976.094 220.607C974.785 190.895 959.92 165.699 936.846 154.084C922.84 147.034 898.191 143.251 884.279 146.016ZM1053.14 158.432C1048.91 164.988 1040.69 177.649 1034.88 186.568C1029.06 195.488 1019.16 210.736 1012.86 220.454C1006.56 230.171 998.627 242.378 995.225 247.581C991.822 252.784 981.857 268.137 973.081 281.7C964.304 295.262 955 309.615 952.406 313.594C914.803 371.262 916.309 368.818 917.976 369.479C918.818 369.813 919.941 370.113 920.472 370.147C921.003 370.181 924.843 364.958 929.006 358.54C933.168 352.121 939.867 341.82 943.893 335.646C947.918 329.474 953.845 320.358 957.063 315.39C972.415 291.693 1013.16 228.954 1017.26 222.693C1019.8 218.818 1026.75 208.118 1032.71 198.915C1038.66 189.711 1048.47 174.663 1054.5 165.474C1060.53 156.284 1065.66 148.259 1065.9 147.64C1066.19 146.874 1065.45 146.513 1063.59 146.513C1061.03 146.513 1060.32 147.325 1053.14 158.432ZM1105.55 147.096C1106.16 147.341 1107.15 147.341 1107.75 147.096C1108.36 146.853 1107.86 146.653 1106.65 146.653C1105.44 146.653 1104.95 146.853 1105.55 147.096ZM1119.42 148.683C1119.65 149.67 1119.62 149.982 1119.34 149.376C1119.06 148.771 1118.28 148.275 1117.59 148.275C1116.08 148.275 1116.06 148.466 1117.36 151.313C1118.32 153.42 1118.44 153.455 1119.34 151.902C1119.87 150.994 1120.77 149.495 1121.34 148.571C1122.21 147.143 1122.11 146.891 1120.67 146.891C1119.42 146.891 1119.1 147.353 1119.42 148.683ZM876.115 149.172C852.509 157.562 835.391 176.527 828.421 202.013C825.802 211.59 824.808 222.103 826.373 223.669C829.011 226.306 829.843 225.068 830.434 217.629C832.021 197.676 840.168 179.654 853.87 165.782C861.451 158.109 868.386 153.393 877.233 149.893C884.142 147.161 883.3 146.618 876.115 149.172ZM1111.28 148.001C1112.12 148.223 1113.51 148.223 1114.36 148.001C1115.21 147.78 1114.51 147.598 1112.82 147.598C1111.12 147.598 1110.43 147.78 1111.28 148.001ZM892.106 149.234C878.937 151.437 865.296 158.706 855.213 168.894C839.834 184.436 832.916 204.04 833.899 229.298C834.134 235.353 834.953 242.883 835.718 246.032C843.177 276.731 866.618 298.685 894.407 301.003C897.975 301.3 899.302 301.205 897.93 300.752C895.914 300.084 895.877 299.984 897.489 299.571C898.458 299.324 897.269 299.286 894.847 299.489C891.458 299.771 890.748 299.63 891.765 298.871C892.789 298.107 892.394 298.008 890.003 298.433C887.584 298.863 887.205 298.764 888.242 297.975C889.303 297.167 889.101 297.069 887.211 297.48C884.417 298.087 881.865 297.287 882.633 296.044C882.976 295.49 882.441 295.396 881.197 295.791C879.712 296.262 879.388 296.138 879.91 295.295C880.414 294.478 880.171 294.337 879.023 294.777C877.392 295.403 867.059 290.356 864.463 287.665C863.289 286.447 863.289 286.377 864.463 287.029C865.576 287.646 865.605 287.54 864.647 286.358C863.79 285.299 863.767 284.867 864.557 284.604C865.133 284.412 863.982 282.97 861.998 281.399C856.909 277.368 850.68 268.826 846.725 260.455C836.834 239.513 837.005 214.132 847.18 192.803C858.488 169.095 878.227 155.182 902.52 153.795C916.551 152.994 931.732 156.518 941.524 162.849C944.378 164.695 944.628 164.758 942.845 163.178C939.475 160.195 930.82 156.416 922.59 154.335C912.119 151.687 896.067 152.263 886.595 155.625C876.7 159.137 869.297 163.698 861.689 170.966C857.887 174.599 854.776 177.079 854.776 176.476C854.776 175.874 853.996 176.317 853.043 177.46C852.091 178.604 851.299 179.127 851.282 178.624C851.242 177.343 862.624 165.008 863.847 165.008C864.397 165.008 862.483 167.485 859.592 170.512L854.335 176.017L859.817 170.783C862.831 167.905 865.113 165.365 864.889 165.139C864.317 164.569 866.249 162.366 867.321 162.366C867.806 162.366 867.658 163.059 866.993 163.907C865.899 165.302 865.93 165.334 867.316 164.248C868.158 163.587 868.639 162.709 868.384 162.298C867.72 161.223 874.067 157.426 881.925 154.198C887.51 151.902 889.828 151.429 895.288 151.466C899.374 151.494 900.885 151.29 899.251 150.934C897.798 150.616 900.968 150.356 906.296 150.356C912.636 150.356 915.071 150.595 913.342 151.047C911.493 151.53 912.155 151.621 915.543 151.349C919.079 151.067 920.031 151.21 919.066 151.882C918.056 152.587 918.408 152.722 920.561 152.46C922.11 152.271 923.176 152.441 922.931 152.838C922.686 153.234 923.004 153.564 923.638 153.571C924.272 153.578 925.782 153.819 926.992 154.106C931.283 155.125 922.209 150.843 917.34 149.551C912.134 148.169 899.424 148.01 892.106 149.234ZM1075.28 148.875C1071.78 149.158 1070.31 149.763 1068.68 151.593C1067.06 153.414 1066.98 153.659 1068.34 152.679C1069.31 151.983 1068.42 153.116 1066.36 155.199C1064.3 157.281 1060.89 161.232 1058.79 163.978C1055.1 168.806 1037.08 198.604 1037.08 199.881C1037.08 200.227 1036.09 201.809 1034.88 203.396C1033.67 204.984 1032.68 206.555 1032.68 206.887C1032.68 207.219 1030.49 210.614 1027.81 214.431C1025.14 218.248 1023.25 221.378 1023.63 221.385C1024 221.393 1023.9 221.69 1023.4 222.046C1022.9 222.402 1019.89 226.656 1016.71 231.5C1011.35 239.653 1008.35 244.278 994.368 265.847C991.543 270.207 985.873 278.925 981.767 285.222C977.662 291.519 972.115 300.04 969.441 304.157C959.924 318.808 952.012 330.396 938.469 349.513C919.892 375.735 909.445 392.099 902.766 405.437C901.432 408.101 900.056 410.479 899.708 410.721C898.384 411.641 896.993 415.203 897.584 416.159C897.938 416.732 897.812 416.917 897.289 416.593C896.189 415.913 892.645 423.769 892.645 426.887C892.645 429.74 894.595 430.155 909.561 430.482C925.306 430.825 931.209 430.078 933.318 427.474C934.222 426.358 934.853 425.333 934.72 425.199C934.586 425.066 932.297 425.535 929.634 426.243C921.694 428.352 910.087 425.463 907.564 420.748C904.506 415.035 910.815 398.703 922.495 382.098C934.034 365.695 956.936 331.138 956.936 330.132C956.936 329.836 956.441 329.879 955.835 330.227C955.196 330.595 955.042 330.524 955.468 330.058C955.872 329.618 956.57 329.257 957.018 329.257C958.305 329.257 980.746 294.161 980.276 292.883C980.044 292.252 980.232 291.969 980.694 292.255C981.155 292.54 982.537 291.181 983.765 289.236C986.258 285.287 986.52 284.378 984.898 285.311C984.259 285.679 984.104 285.609 984.531 285.143C984.935 284.703 985.728 284.332 986.292 284.321C986.857 284.309 987.265 283.619 987.199 282.789C987.133 281.958 987.388 281.469 987.765 281.703C988.356 282.068 995.686 271.373 995.686 270.148C995.686 269.905 995.191 269.992 994.586 270.34C993.946 270.708 993.792 270.637 994.218 270.171C994.623 269.731 995.382 269.37 995.907 269.37C996.431 269.37 997.044 268.819 997.268 268.147C997.54 267.331 997.299 267.156 996.545 267.622C995.798 268.084 995.631 267.971 996.052 267.29C996.402 266.723 997.018 266.463 997.421 266.711C998.489 267.372 1015.26 240.902 1014.53 239.714C1014.17 239.134 1014.3 238.955 1014.84 239.288C1015.97 239.99 1030.34 218.174 1029.56 216.922C1029.27 216.439 1029.55 216.153 1030.19 216.286C1030.83 216.42 1031.3 215.844 1031.23 214.997C1031.17 214.154 1031.43 213.661 1031.82 213.901C1032.74 214.468 1036.32 208.671 1036 207.137C1035.87 206.489 1036.3 206.075 1036.97 206.216C1037.75 206.383 1037.99 205.98 1037.64 205.07C1037.34 204.298 1037.44 203.879 1037.86 204.139C1038.94 204.805 1043.44 197.742 1042.7 196.546C1042.35 195.983 1042.49 195.804 1043.01 196.129C1044.14 196.824 1047.05 192.608 1046.3 191.382C1046 190.899 1046.16 190.613 1046.65 190.746C1047.15 190.879 1049.46 188.008 1051.78 184.365C1054.11 180.721 1057.8 175.204 1059.98 172.103C1062.16 169.002 1063.83 166.107 1063.7 165.671C1063.56 165.234 1063.8 165.088 1064.22 165.346C1065.28 166.006 1071.61 159.337 1070.78 158.427C1070.41 158.016 1070.6 157.967 1071.21 158.317C1071.82 158.668 1073.41 158.175 1074.75 157.222C1078.9 154.268 1086.01 152.392 1091.07 152.917C1097.51 153.585 1103.04 156.013 1104.83 158.956L1106.35 161.445L1110.14 155.713C1112.23 152.56 1113.65 149.696 1113.3 149.348C1112.61 148.658 1082.58 148.285 1075.28 148.875ZM1110.83 157.218C1108.13 161.261 1105.34 166.549 1104.63 168.971C1103.93 171.393 1102.72 174.861 1101.96 176.677C1101.2 178.494 1100.71 179.98 1100.88 179.98C1101.04 179.98 1104.01 175.635 1107.47 170.325C1115 158.781 1117.63 153.248 1116.52 151.271C1115.9 150.159 1114.72 151.388 1110.83 157.218ZM891.545 152.381C892.151 152.625 893.141 152.625 893.746 152.381C894.352 152.137 893.856 151.937 892.645 151.937C891.435 151.937 890.94 152.137 891.545 152.381ZM886.481 153.559C884.871 154.599 886.261 154.599 888.682 153.559C889.844 153.06 889.994 152.786 889.123 152.754C888.396 152.727 887.207 153.09 886.481 153.559ZM1084.87 154.572C1082.82 154.93 1079.65 155.917 1077.83 156.766C1072.66 159.168 1062.7 169.816 1056.12 179.98C1052.83 185.066 1045.34 196.559 1039.49 205.52C1033.64 214.481 1012.41 247.176 992.316 278.177C938.55 361.134 936.495 364.262 926.963 377.695C913.554 396.592 906.054 413.216 908.072 419.572C908.968 422.396 915.265 425.044 922.16 425.494C931.48 426.103 937.472 422.749 941.853 414.473C942.896 412.503 942.892 412.503 939.746 414.639C929.327 421.709 918.186 419.059 918.186 409.511C918.186 399.274 924.304 387.332 942.355 362.337C945.35 358.19 950.987 349.843 954.881 343.788C958.776 337.734 970.581 319.503 981.116 303.277C991.651 287.05 1005.41 265.847 1011.69 256.16C1017.98 246.472 1027.66 231.61 1033.21 223.134C1038.76 214.657 1046.45 202.527 1050.3 196.179C1065.57 170.969 1075.26 161.479 1085.71 161.489C1093.53 161.495 1096.9 165.906 1095.68 174.556L1095.11 178.659L1099.22 172.494C1104.38 164.757 1105.07 162.955 1104 160.122C1102.52 156.231 1092.32 153.272 1084.87 154.572ZM895.728 155.683C871.305 160.455 852.44 177.792 844.377 202.878C837.052 225.662 840.568 251.065 853.728 270.444C860.668 280.664 872.06 288.703 886.04 293.245C894.417 295.967 909.4 297.004 917.742 295.439C923.353 294.388 933.297 288.946 939.762 283.39L943.285 280.363L937.915 283.014C922.665 290.544 900.771 291.955 884.548 286.453C875.708 283.454 869.788 279.681 862.69 272.522C852.631 262.377 846.959 249.081 845.512 232.258C842.958 202.564 861.826 172.986 889.347 163.537C895.862 161.301 897.786 161.045 908.058 161.045C920.773 161.045 927.603 162.593 938.302 167.903C944.989 171.22 953.889 179.142 957.829 185.282C959.4 187.731 960.86 189.56 961.073 189.346C961.509 188.91 959.278 184.565 954.907 177.338C949.711 168.746 936.358 159.907 923.692 156.677C915.89 154.687 903.146 154.234 895.728 155.683ZM941.678 159.677C949.983 165.148 956.607 171.664 961.429 179.106C964.889 184.444 965.731 184.859 962.937 179.848C959.679 174.005 949.122 163.3 942.072 158.689C938.498 156.352 935.158 154.44 934.651 154.44C934.144 154.44 937.306 156.796 941.678 159.677ZM878.554 156.641C877.343 157.334 876.749 157.9 877.233 157.9C877.718 157.9 879.105 157.334 880.316 156.641C881.527 155.949 882.121 155.383 881.637 155.383C881.152 155.383 879.765 155.949 878.554 156.641ZM897.489 162.73C880.675 166.001 867.155 175.278 857.383 190.246C849.795 201.871 846.537 213.304 846.632 227.977C846.826 257.962 863.051 280.098 890.003 287.152C898.385 289.345 915.56 289.109 924.615 286.676C941.213 282.218 951.772 273.615 959.369 258.361C965.867 245.314 967.875 236.928 967.803 223.134C967.736 210.198 966.38 204.084 961.159 193.19C956.525 183.519 946.353 173.023 937.422 168.698C925.371 162.862 909.217 160.448 897.489 162.73ZM1078.52 164.13C1072.92 166.741 1063.05 177.409 1056.89 187.491C1045.84 205.606 1026.96 234.879 970.55 321.331C965.177 329.565 957.858 340.86 954.285 346.43C950.713 352.001 944.398 361.314 940.25 367.127C930.014 381.474 927.659 385.275 923.465 394.225C917.721 406.485 917.57 414.221 923.032 416.503C927.302 418.287 930.267 418.07 935.612 415.581C941.391 412.891 947.331 406.871 952.635 398.332C956.116 392.727 983.001 351.316 1005.2 317.368C1008.84 311.797 1014.86 302.484 1018.58 296.671C1022.29 290.859 1029.6 279.564 1034.82 271.572C1040.04 263.579 1047.27 252.483 1050.89 246.912C1054.5 241.342 1064.96 225.333 1074.12 211.337C1083.28 197.34 1091.63 183.667 1092.67 180.953C1095.29 174.168 1095.37 167.426 1092.86 164.912C1090.09 162.139 1083.56 161.783 1078.52 164.13ZM1096.27 179.834C1082.99 201.086 1080.21 205.786 1080.65 206.234C1081.6 207.179 1087.9 199.232 1093.28 190.316C1098.3 181.983 1103.71 170.575 1102.98 169.846C1102.82 169.688 1099.8 174.182 1096.27 179.834ZM955.323 174.734C957.421 177.42 959.848 180.591 960.718 181.78C962.279 183.918 962.281 183.913 960.856 181.265C960.064 179.792 957.637 176.622 955.463 174.219L951.509 169.852L955.323 174.734ZM935.134 176.549C934.047 176.952 933.157 177.425 933.157 177.602C933.157 177.778 934.699 182.249 936.582 187.538C942.037 202.853 943.249 209.966 943.249 226.656C943.249 242.568 942.139 249.661 937.499 263.386C934.443 272.428 934.393 273.048 936.656 273.765C942.164 275.514 953.927 265.182 959.582 253.627C967.799 236.835 968.574 218.47 961.795 201.116C956.526 187.627 941.821 174.076 935.134 176.549ZM853.132 178.454C852.534 179.051 851.625 179.539 851.111 179.539C849.553 179.539 843.624 190.187 840.733 198.177C830.249 227.151 836.097 259.37 855.535 279.718C859.121 283.472 862.364 286.543 862.741 286.543C864.471 286.543 862.619 283.419 858.157 278.809C852.276 272.734 850.357 269.995 846.489 262.161C840.447 249.919 837.316 234.009 838.482 221.464C839.791 207.368 845.886 190.148 852.75 181.148C854.986 178.217 855.253 176.332 853.132 178.454ZM934.919 178.255C934.919 178.759 936.257 183.02 937.894 187.723C943.353 203.416 944.169 208.563 944.135 227.097C944.107 242.41 943.903 244.594 941.726 252.845C940.417 257.803 938.548 264.131 937.573 266.906C936.597 269.681 935.799 272.064 935.799 272.201C935.799 272.34 936.921 272.452 938.291 272.452C943.664 272.452 952.088 264.774 957.615 254.839C964.072 243.231 966.5 225.997 963.631 212.143C960.698 197.985 951.88 184.686 941.863 179.319C937.924 177.209 934.919 176.748 934.919 178.255ZM872.83 179.699C867.66 182.459 863.606 186.312 859.751 192.132C855.872 197.987 852.97 203.939 853.063 205.847C853.089 206.393 853.884 204.936 854.829 202.607C858.644 193.208 866.525 183.819 873.711 180.113C875.648 179.114 876.837 178.295 876.353 178.292C875.868 178.291 874.283 178.924 872.83 179.699ZM877.961 180.588C877.982 181.949 877.733 184.251 877.407 185.704C877.081 187.157 877.476 186.456 878.284 184.146C879.303 181.236 879.473 179.665 878.838 179.03C878.203 178.395 877.934 178.874 877.961 180.588ZM898.433 179.474C896.531 180.181 893.955 181.498 892.709 182.4C891.464 183.303 889.154 184.563 887.577 185.201C881.223 187.774 875.771 197.144 873.564 209.287C871.184 222.376 873.433 241.277 878.568 251.341C881.701 257.485 891.524 267.801 896.607 270.288C909.432 276.563 924.244 270.554 931.304 256.211C936.314 246.037 937.836 237.809 937.336 223.623C936.872 210.475 935.312 203.571 930.782 194.616C928.278 189.666 921.583 182.635 917.219 180.37C913.193 178.281 902.958 177.793 898.433 179.474ZM898.391 180.451C892.565 182.673 893.128 183.177 901.655 183.374C910.951 183.589 916.699 185.719 921.294 190.655C922.733 192.198 923.385 193.162 922.744 192.794C921.787 192.244 921.779 192.446 922.7 193.922C923.317 194.91 924.098 195.548 924.434 195.34C924.771 195.132 925.281 195.574 925.569 196.324C925.882 197.14 925.725 197.458 925.176 197.119C924.672 196.808 924.885 198.049 925.649 199.876C929.053 208.024 930.768 217.327 930.83 227.977C930.922 243.94 927.785 254.923 921.514 260.594L918.626 263.205L920.934 260.563C923.56 257.557 926.526 253.077 925.89 253.077C925.656 253.077 924.46 254.564 923.231 256.38C919.281 262.217 915.794 265.448 914.133 264.811C913.17 264.441 912.825 264.57 913.191 265.163C914.668 267.554 903.223 267.335 897.023 264.854C895.133 264.097 893.078 263.662 892.455 263.888C891.833 264.112 890.532 263.663 889.563 262.889C888.594 262.115 889.142 262.933 890.78 264.707C897.447 271.927 909.819 273.697 918.414 268.66C929.619 262.094 935.578 249.356 936.429 230.151C937.43 207.555 930.352 189.523 917.533 182.011C912.669 179.16 903.693 178.429 898.391 180.451ZM847.463 185.968C844.216 191.508 839.764 202.023 839.868 203.909C839.904 204.553 840.665 203.019 841.561 200.501C843.318 195.56 846.805 188.313 849.633 183.723C850.603 182.148 851.185 180.86 850.926 180.86C850.668 180.86 849.109 183.159 847.463 185.968ZM893.11 185.225C892.823 185.688 892.05 185.861 891.392 185.608C890.672 185.332 889.047 186.749 887.309 189.168C885.721 191.379 884.221 192.985 883.973 192.737C883.726 192.49 884.423 191.07 885.524 189.582C887.423 187.013 887.433 186.925 885.717 187.843C882.784 189.413 879.36 194.561 877.027 200.908C875.318 205.559 874.782 208.935 874.546 216.528C874.284 224.994 874.354 225.605 875.109 221.372C877.545 207.708 878.895 202.157 880.872 197.69C882.544 193.908 883.231 193.081 883.867 194.087C884.321 194.804 884.698 194.967 884.706 194.449C884.725 193.136 890.898 186.049 891.63 186.501C891.959 186.705 893.213 186.325 894.418 185.658C896.004 184.78 896.197 184.437 895.119 184.414C894.3 184.397 893.396 184.762 893.11 185.225ZM921.268 187.025C922.144 187.994 923.06 188.787 923.302 188.787C923.545 188.787 923.025 187.994 922.149 187.025C921.272 186.057 920.356 185.264 920.114 185.264C919.872 185.264 920.392 186.057 921.268 187.025ZM897.489 187.036C889.75 189.435 883.736 199.033 881.424 212.677C878.24 231.467 884.339 255.053 893.91 260.969C901.606 265.725 912.021 259.79 916.37 248.17C921.741 233.828 920.51 208.057 913.835 195.082C910.147 187.915 904.161 184.967 897.489 187.036ZM964.565 194.152C966.939 201.433 969.266 213.177 969.266 217.875C969.266 222.131 969.99 224.014 971.625 224.014C974.098 224.014 971.201 207.838 966.581 195.859C963.184 187.05 961.893 185.957 964.565 194.152ZM874.294 195.572C871.429 206.305 870.641 212.922 870.647 226.216C870.652 241.046 872.487 251.1 877.257 262.436C879.065 266.734 880.592 271.241 880.65 272.452C880.742 274.353 880.41 274.629 878.227 274.474C876.836 274.374 875.956 274.55 876.27 274.865C876.585 275.18 878.02 275.519 879.46 275.618C881.754 275.777 882.075 275.511 882.058 273.465C882.047 272.182 881.213 269.348 880.204 267.168C877.146 260.564 874.246 251.458 872.841 244.05C870.274 230.519 871.473 208.43 875.547 194.197C876.289 191.601 876.723 189.304 876.512 189.093C876.3 188.881 875.302 191.797 874.294 195.572ZM913.312 191.909C916.539 196.664 919.072 204.173 920.277 212.557C921.318 219.801 921.436 220.061 923.813 220.337C925.834 220.573 926.193 220.337 925.824 219.016C925.577 218.132 925.105 215.038 924.774 212.141C923.662 202.397 918.468 192.647 912.766 189.595C911.452 188.891 911.551 189.315 913.312 191.909ZM924.35 190.294C924.35 190.799 925.044 191.757 925.892 192.422C927.317 193.54 927.336 193.498 926.141 191.869C925.43 190.9 924.737 189.943 924.6 189.74C924.462 189.539 924.35 189.788 924.35 190.294ZM920.342 195.006C922.062 197.618 923.47 200.127 923.47 200.583C923.47 201.038 923.716 201.164 924.017 200.863C924.68 200.2 920.613 193.077 918.632 191.433C917.853 190.787 918.622 192.395 920.342 195.006ZM882.481 196.772C882.162 197.288 882.09 197.9 882.32 198.131C882.551 198.362 882.975 197.939 883.262 197.191C883.857 195.639 883.35 195.366 882.481 196.772ZM928.37 196.971C928.701 197.839 929.193 198.328 929.465 198.057C929.736 197.786 929.465 197.076 928.863 196.478C927.993 195.615 927.893 195.716 928.37 196.971ZM878.579 208.321C876.954 215.721 876.36 225.776 877.547 225.776C878.195 225.776 878.556 223.814 878.56 220.271C878.562 217.244 878.95 212.414 879.421 209.538C880.503 202.929 879.941 202.117 878.579 208.321ZM838.993 206.914C839.035 207.94 839.244 208.149 839.525 207.447C839.779 206.811 839.748 206.051 839.455 205.758C839.163 205.466 838.955 205.986 838.993 206.914ZM1069.24 221.592C1046.58 255.964 969.937 374.325 963.6 384.74C959.769 391.037 954.82 398.623 952.602 401.597C948.702 406.827 943.64 414.639 942.981 416.445C942.218 418.534 949.408 409.688 953.717 403.235C964.373 387.279 988.607 350.226 1007.71 320.679C1015.31 308.928 1029.9 286.433 1040.15 270.691C1050.39 254.949 1061.71 237.511 1065.31 231.941C1068.9 226.37 1073.9 218.774 1076.41 215.061C1080.54 208.935 1081.16 207.281 1079.31 207.281C1078.96 207.281 1074.43 213.722 1069.24 221.592ZM837.714 211.427C836.616 216.358 836.158 232.507 836.982 237.225C837.679 241.214 837.749 240.36 837.383 232.381C837.133 226.931 837.384 219.848 837.957 216.188C838.957 209.806 838.793 206.585 837.714 211.427ZM851.392 211.685C851.392 212.896 851.592 213.391 851.836 212.785C852.081 212.18 852.081 211.19 851.836 210.584C851.592 209.979 851.392 210.474 851.392 211.685ZM927.062 213.079C927.104 214.105 927.313 214.313 927.594 213.612C927.849 212.976 927.817 212.216 927.524 211.923C927.232 211.631 927.024 212.151 927.062 213.079ZM850.544 216.528C850.562 217.982 850.759 218.469 850.983 217.613C851.206 216.756 851.191 215.567 850.95 214.97C850.709 214.374 850.526 215.075 850.544 216.528ZM920.813 229.02C920.777 244.927 915.521 257.297 906.85 261.879C903.93 263.422 903.844 263.57 905.856 263.587C909.312 263.618 914.857 260.696 917.883 257.251C922.851 251.591 926.691 237.02 925.951 226.631C925.699 223.072 925.439 222.667 923.25 222.415L920.828 222.136L920.813 229.02ZM849.731 226.656C849.731 228.836 849.903 229.728 850.113 228.638C850.323 227.548 850.323 225.765 850.113 224.675C849.903 223.585 849.731 224.477 849.731 226.656ZM935.141 227.097C935.15 229.034 935.331 229.723 935.541 228.627C935.752 227.532 935.744 225.947 935.524 225.105C935.304 224.263 935.131 225.159 935.141 227.097ZM969.364 233.95C967.929 245.452 964.898 255.02 959.402 265.407C956.967 270.008 954.722 273.983 954.414 274.239C954.105 274.496 951.872 276.835 949.45 279.437C945.151 284.058 945.129 284.11 948.509 281.614C957.247 275.162 966.749 259.755 970.121 246.571C972.509 237.232 973.356 226.183 971.732 225.559C970.73 225.174 970.244 226.899 969.364 233.95ZM825.968 233.141C827.554 256.282 839.833 278.088 858.146 290.286C864.923 294.8 865.841 294.46 859.494 289.788C843.232 277.817 832.404 256.861 830.444 233.562C829.914 227.262 829.731 226.788 827.677 226.396L825.477 225.975L825.968 233.141ZM874.597 232.928C875.281 238.897 877.905 248.239 879.514 250.435C880.301 251.509 880.37 251.427 879.883 249.995C878.1 244.747 875.912 234.753 875.912 231.852C875.912 230.02 875.471 228.249 874.932 227.916C874.227 227.48 874.132 228.885 874.597 232.928ZM877.252 233.922C878.581 245.508 883.806 258.218 888.126 260.373L890.699 261.657L887.784 257.837C886.18 255.737 884.01 251.726 882.962 248.924C881.26 244.374 880.603 241.494 878.94 231.28C878.684 229.705 878.058 228.418 877.548 228.418C876.93 228.418 876.831 230.256 877.252 233.922ZM850.544 235.023C850.562 236.476 850.759 236.964 850.983 236.107C851.206 235.25 851.191 234.061 850.95 233.465C850.709 232.869 850.526 233.57 850.544 235.023ZM934.108 236.857C934.15 237.883 934.359 238.092 934.64 237.39C934.894 236.754 934.862 235.994 934.57 235.702C934.278 235.41 934.07 235.929 934.108 236.857ZM851.403 240.307C851.389 241.276 851.717 242.861 852.134 243.83C853.098 246.074 853.098 243.759 852.134 240.747C851.567 238.977 851.424 238.891 851.403 240.307ZM838.089 243.517C837.964 247.395 846.525 268.93 848.193 268.93C848.435 268.93 847.241 266.165 845.539 262.786C843.838 259.408 841.476 253.363 840.291 249.355C839.106 245.347 838.115 242.72 838.089 243.517ZM932.346 245.664C932.388 246.69 932.597 246.899 932.878 246.197C933.133 245.561 933.101 244.801 932.809 244.509C932.516 244.216 932.308 244.736 932.346 245.664ZM929.325 252.764C923.743 264.145 916.867 269.003 906.154 269.135C900.549 269.203 900.374 269.262 903.639 269.978C910.797 271.55 919.559 267.931 925.006 261.151C927.752 257.735 932.641 248.745 932.067 248.171C931.886 247.99 930.653 250.056 929.325 252.764ZM853.922 249.114C853.922 249.598 854.306 250.589 854.776 251.316C855.245 252.042 855.629 252.24 855.629 251.756C855.629 251.272 855.245 250.281 854.776 249.554C854.306 248.828 853.922 248.63 853.922 249.114ZM856.537 255.667C856.537 256.123 856.929 256.738 857.408 257.034C857.907 257.342 858.055 256.989 857.754 256.205C857.169 254.68 856.537 254.401 856.537 255.667ZM858.835 259.462C861.785 264.536 871.948 274.214 874.327 274.214C874.821 274.214 872.857 272.471 869.963 270.34C867.069 268.209 863.392 264.642 861.79 262.413C859.09 258.653 857.36 256.925 858.835 259.462ZM892.645 264.859C892.645 265.041 893.339 265.735 894.187 266.4C895.583 267.495 895.614 267.464 894.52 266.067C893.369 264.6 892.645 264.134 892.645 264.859ZM955.155 268.701C952.931 271.95 937.998 287.424 937.088 287.424C936.812 287.424 935.128 288.415 933.347 289.626C931.564 290.837 930.496 291.823 930.971 291.817C932.868 291.794 939.179 287.451 944.494 282.512C949.741 277.636 958.456 266.634 957.683 265.86C957.493 265.67 956.355 266.948 955.155 268.701ZM849.34 271.145C849.82 272.12 852.527 275.33 855.356 278.276C858.186 281.223 858.909 281.812 856.963 279.584C855.018 277.357 852.311 274.148 850.947 272.452C849.583 270.757 848.86 270.169 849.34 271.145ZM1082.94 275.118C1072.65 277.278 1061.78 282.221 1053.37 288.572C1046.55 293.724 1041.83 298.58 1043.65 298.58C1044.4 298.58 1044.8 298.375 1044.55 298.127C1043.88 297.456 1048.67 292.708 1050.01 292.708C1050.65 292.708 1051.17 292.341 1051.17 291.891C1051.17 290.336 1064.31 282.297 1071.15 279.662C1077.84 277.091 1086.6 275.028 1090.3 275.158C1091.3 275.193 1088.95 276 1085.08 276.951C1071.1 280.381 1057.75 288.638 1048.3 299.695C1043.19 305.668 1036.02 319.865 1033.58 328.817C1032.59 332.449 1031.33 339.881 1030.78 345.33C1029.79 355.047 1029.73 355.237 1027.57 355.237H1025.37L1025.9 345.77C1026.2 340.434 1027.24 333.42 1028.29 329.697C1030.35 322.373 1035.92 309.361 1037.43 308.354C1037.96 307.998 1038.04 307.701 1037.6 307.693C1037.16 307.686 1037.41 306.986 1038.15 306.139C1038.89 305.292 1039.96 303.607 1040.54 302.396C1041.54 300.273 1041.53 300.258 1040.14 301.955C1033.16 310.53 1027.15 326.176 1025.02 341.322C1022.62 358.463 1024.99 375.471 1031.88 390.328C1039.99 407.847 1052.99 420.335 1069.26 426.239C1086.19 432.387 1106.06 433.89 1121.34 430.181C1156.43 421.661 1178.04 390.284 1175.94 350.924C1174.73 328.32 1167.29 309.75 1154 296.121C1140.05 281.826 1123.08 275.165 1099.17 274.595C1092.39 274.433 1085.08 274.669 1082.94 275.118ZM1087.42 279.526C1076.33 282.431 1067.7 287.63 1058.22 297.113C1046.43 308.9 1039.95 320.813 1036.16 337.623C1034.56 344.75 1034.34 347.883 1034.7 358.76C1035.14 372.215 1036.25 377.941 1040.33 387.823C1048.49 407.564 1062.43 420.877 1081.55 427.177C1087.49 429.134 1090.62 429.56 1101.47 429.89C1116.32 430.343 1124.26 428.855 1135.52 423.511C1141.42 420.715 1151.58 413.713 1152.94 411.513C1153.26 411.004 1151 412.458 1147.92 414.746C1140.78 420.049 1132 424.144 1122.51 426.594C1115.97 428.28 1113.51 428.465 1103.13 428.048C1089.46 427.497 1082.98 425.85 1071.87 420.111C1046.05 406.773 1032.11 371.644 1039.23 337.85C1044.69 311.959 1061.59 291.663 1084.67 283.305C1090.79 281.088 1092.24 280.922 1105.77 280.89C1120.54 280.855 1123.86 281.456 1134.03 285.996C1134.97 286.416 1135.42 286.175 1135.42 285.26C1135.42 284.006 1134.55 283.52 1132.82 283.809C1132.44 283.873 1131.39 283.531 1130.48 283.049C1129.58 282.566 1124.94 281.178 1120.17 279.962C1109.23 277.176 1097.01 277.013 1087.42 279.526ZM1092.12 282.559C1066.23 288.242 1046.19 309.982 1040.15 338.945C1038.32 347.731 1038.26 363.083 1040.02 372.029C1043.84 391.427 1054.57 408.148 1069.05 417.295C1082.64 425.876 1102.03 429.393 1118.33 426.237C1124 425.139 1126.88 423.986 1124.19 423.884C1123.51 423.858 1125.21 423.114 1127.97 422.231C1130.73 421.347 1134.82 419.553 1137.05 418.244C1139.29 416.933 1141.6 416.048 1142.2 416.275C1142.79 416.503 1144.03 416.14 1144.95 415.467C1145.87 414.794 1146.3 414.244 1145.9 414.244C1145.51 414.244 1145.7 413.632 1146.32 412.882C1146.94 412.133 1147.94 411.711 1148.54 411.942C1149.15 412.174 1150.33 411.597 1151.18 410.662C1152.03 409.726 1152.41 408.959 1152.04 408.959C1151.66 408.959 1151.84 408.369 1152.44 407.648C1153.04 406.927 1153.89 406.56 1154.33 406.833C1154.77 407.106 1155.03 406.822 1154.89 406.203C1154.76 405.583 1155.21 405.058 1155.89 405.036C1156.57 405.014 1157.23 404.313 1157.35 403.477C1157.63 401.582 1160.83 397.426 1161.58 397.981C1161.89 398.206 1161.94 398.128 1161.7 397.805C1161.46 397.483 1162.19 395.601 1163.34 393.622C1169.05 383.738 1172.71 370.098 1172.71 358.703C1172.71 351.836 1172.67 351.715 1170.5 351.715C1169.29 351.715 1168.29 351.615 1168.29 351.494C1167.84 345.181 1166.31 334.585 1165.19 330.006C1162.15 317.56 1153.88 302.395 1147.47 297.51C1145.8 296.238 1144.75 294.807 1145.09 294.263C1145.46 293.659 1145.2 293.48 1144.39 293.788C1143.68 294.063 1142.13 293.501 1140.95 292.541C1139.76 291.58 1139.36 291.088 1140.04 291.447C1140.88 291.892 1141.06 291.757 1140.61 291.023C1140.24 290.431 1139.39 290.157 1138.72 290.415C1138.05 290.673 1137.59 290.403 1137.71 289.814C1137.82 289.223 1137.05 288.774 1135.99 288.809C1134.93 288.845 1134.13 288.516 1134.23 288.079C1134.32 287.642 1132.56 286.55 1130.32 285.651C1119.95 281.491 1103.18 280.133 1092.12 282.559ZM1094.75 283.421C1072.6 287.448 1054.24 303.323 1045.01 326.455C1043.49 330.242 1042.45 333.808 1042.68 334.381C1042.94 335.025 1043.14 334.919 1043.19 334.101C1043.24 333.374 1044.59 329.6 1046.19 325.715C1056.57 300.51 1076.28 285.872 1103.57 283.092C1109.7 282.468 1109.98 282.369 1105.77 282.336C1103.11 282.316 1098.15 282.804 1094.75 283.421ZM1114.82 283.631C1115.67 283.855 1116.86 283.84 1117.46 283.598C1118.05 283.357 1117.35 283.175 1115.9 283.192C1114.45 283.21 1113.96 283.407 1114.82 283.631ZM1119.06 284.225C1119.26 284.402 1121.01 284.79 1122.95 285.085C1125.4 285.458 1125.94 285.379 1124.71 284.823C1123.02 284.057 1118.3 283.558 1119.06 284.225ZM865.344 285.183C865.344 286.292 878.102 292.9 884.279 294.992C890.401 297.066 892.939 297.408 903.654 297.606L915.984 297.834L904.094 297.126C889.052 296.23 877.803 292.828 868.731 286.431C866.419 284.801 865.344 284.404 865.344 285.183ZM1130.43 287.424C1131.16 287.893 1132.15 288.277 1132.63 288.277C1133.12 288.277 1132.92 287.893 1132.19 287.424C1131.47 286.955 1130.48 286.571 1129.99 286.571C1129.51 286.571 1129.71 286.955 1130.43 287.424ZM1059.11 292.77C1056.16 295.226 1051.95 299.486 1049.76 302.237C1045.55 307.541 1038.39 321.309 1037.55 325.734C1037.09 328.17 1037.15 328.135 1038.27 325.284C1043.01 313.222 1050.04 302.69 1059.02 294.227C1062.47 290.97 1065.11 288.305 1064.88 288.305C1064.66 288.305 1062.06 290.315 1059.11 292.77ZM868.867 289.564C868.867 289.806 869.659 290.428 870.628 290.947C871.597 291.466 872.39 291.691 872.39 291.449C872.39 291.207 871.597 290.585 870.628 290.066C869.659 289.547 868.867 289.322 868.867 289.564ZM1150.7 297.628C1160.32 307.652 1163.94 312.954 1168.02 322.993C1171.38 331.29 1171.97 330.706 1168.78 322.234C1164.18 310.015 1153.06 295.037 1145.27 290.582C1143.2 289.399 1144.82 291.5 1150.7 297.628ZM923.305 295.952C923.94 296.206 924.7 296.175 924.992 295.882C925.285 295.59 924.765 295.382 923.837 295.42C922.811 295.462 922.602 295.671 923.305 295.952ZM918.021 300.355C918.656 300.61 919.416 300.578 919.708 300.286C920.001 299.993 919.481 299.785 918.553 299.823C917.527 299.866 917.318 300.074 918.021 300.355ZM1098.46 304.495C1091.18 307.209 1083.39 314.717 1077.93 324.289C1074.94 329.535 1073.07 338.493 1073.55 345.283C1073.85 349.522 1073.77 350.372 1073.26 348.192L1072.54 345.109L1072.42 348.852C1072.36 350.91 1072.7 352.595 1073.19 352.595C1073.67 352.595 1074.07 354.28 1074.07 356.338C1074.09 368.58 1078.88 385.723 1084.29 392.911C1098.88 412.297 1122.38 409.404 1133.38 386.863C1138.31 376.766 1139.44 371.44 1139.69 356.999L1139.91 344.229L1139.3 356.558C1138.61 370.302 1137.05 377.278 1132.63 386.502C1124.98 402.461 1110.06 408.757 1096.24 401.854C1090.58 399.026 1085.71 394.172 1082.74 388.398C1081.78 386.534 1081.21 384.433 1081.48 383.729C1081.75 383.024 1081.63 382.661 1081.21 382.922C1079.38 384.05 1076.84 373.837 1076.13 362.503C1075.59 353.869 1075.64 353.476 1077.33 353.476C1078.91 353.476 1079.15 354.238 1079.63 360.742C1080.93 378.385 1086.24 388.894 1096.19 393.525C1105.82 398.01 1115.66 395.931 1122.51 387.966C1128.67 380.797 1129.85 376.321 1129.7 360.597C1129.63 353.131 1129.15 344.668 1128.63 341.791C1128.11 338.914 1127.9 336.337 1128.17 336.064C1128.45 335.792 1128.67 336.295 1128.67 337.183C1128.67 338.071 1128.9 338.572 1129.17 338.296C1129.94 337.531 1127.63 330.57 1126.79 331.093C1126.38 331.344 1126.28 330.94 1126.57 330.194C1127.31 328.27 1123.31 321.857 1118.76 317.658C1113.71 313.011 1107.3 310.834 1100.62 311.501C1093.5 312.214 1091.26 312.657 1089.21 313.755C1086.04 315.449 1085.97 314.814 1088.97 311.719C1090.57 310.065 1094.27 307.638 1097.2 306.325C1101.68 304.312 1103.36 304.006 1107.91 304.37C1121.01 305.422 1130.39 314.824 1136.26 332.78C1137.37 336.17 1138.3 338.262 1138.32 337.429C1138.38 335.001 1133.55 322.491 1130.97 318.408C1127.64 313.127 1122.31 308.196 1117.43 305.888C1112.2 303.414 1103.14 302.748 1098.46 304.495ZM1072.61 307.729C1063.9 312.042 1055.01 324.991 1051.48 338.504C1049.32 346.811 1049.51 363.267 1051.88 372.09C1056.25 388.335 1066.46 401.615 1076.88 404.604C1080.15 405.542 1082.87 404.963 1082.87 403.331C1082.87 402.722 1081.51 399.063 1079.83 395.2C1074.48 382.845 1072.26 372.417 1071.69 356.877C1071.09 340.685 1072.49 330.773 1077.26 317.368C1078.89 312.766 1080.23 308.307 1080.23 307.46C1080.23 305.359 1077.18 305.468 1072.61 307.729ZM1072.48 309.079C1061.66 314.473 1053.16 329.727 1051.17 347.353C1048.34 372.284 1060.84 398.87 1077.64 403.69C1081.84 404.894 1082.03 403.646 1078.83 395.926C1067.96 369.715 1067.09 342.215 1076.33 316.695C1077.99 312.105 1079.35 308.001 1079.35 307.575C1079.35 306.247 1077.23 306.711 1072.48 309.079ZM1088.23 315.826C1087.09 316.917 1086.43 317.313 1086.77 316.707C1087.69 315.054 1085.99 315.383 1084.37 317.171C1080.3 321.673 1076.13 335.254 1075.65 345.55C1075.41 350.785 1075.55 351.296 1077.23 351.538C1078.92 351.779 1079.09 351.332 1079.26 346.031C1079.68 332.919 1082.45 324.602 1088.58 317.979C1090.28 316.135 1091.68 314.452 1091.68 314.236C1091.68 313.292 1090.15 313.997 1088.23 315.826ZM1098.05 315.61C1094.78 317.598 1093.95 317.802 1094.82 316.399C1095.25 315.704 1094.9 315.707 1093.58 316.411C1091.95 317.284 1088.63 321.165 1086.92 324.193C1085.53 326.652 1087.15 325.049 1089.83 321.331C1091.39 319.151 1093.04 317.368 1093.49 317.368C1093.94 317.368 1092.87 319.25 1091.1 321.551C1083.01 332.077 1079.99 345.752 1081.85 363.434C1083.01 374.399 1085.47 381.506 1089.74 386.234C1093.61 390.521 1096.14 391.849 1101.93 392.632C1109.97 393.721 1117.34 389.168 1121.87 380.304C1123.8 376.523 1126.03 365.068 1126.03 358.895V353.672L1122.95 353.094C1119.87 352.516 1119.86 352.513 1120.02 347.932L1120.18 343.348L1120.51 347.531C1120.83 351.533 1120.96 351.715 1123.52 351.715H1126.2L1125.61 346.21C1124.87 339.233 1122.05 328.559 1120.13 325.468C1117.85 321.782 1114.38 318.216 1111.72 316.826C1108.82 315.31 1108.63 315.869 1111.16 318.505C1113.34 320.771 1118.13 330.41 1118.04 332.339C1118.01 333.066 1117.46 332.251 1116.83 330.53C1114.56 324.387 1112.01 320.283 1108.48 317.088C1104.4 313.409 1102.17 313.093 1098.05 315.61ZM1162.58 318.028C1166.1 326.558 1169.18 340.095 1169.18 347.013C1169.18 349.837 1171.08 351.87 1172.44 350.507C1173.2 349.75 1171.18 338.309 1169.11 331.674C1167.05 325.042 1163.34 316.487 1162.53 316.487C1162.21 316.487 1162.23 317.181 1162.58 318.028ZM1084.52 319.789C1083.43 321.186 1083.46 321.217 1084.86 320.122C1086.32 318.971 1086.79 318.248 1086.06 318.248C1085.88 318.248 1085.19 318.942 1084.52 319.789ZM1081.73 324.865C1080.92 326.554 1080.44 327.936 1080.66 327.936C1081.27 327.936 1083.94 322.543 1083.54 322.141C1083.35 321.95 1082.53 323.175 1081.73 324.865ZM1121.26 323.092C1121.6 324.061 1122.82 327.231 1123.97 330.138C1125.44 333.853 1125.89 334.507 1125.49 332.339C1125.19 330.644 1123.97 327.474 1122.79 325.294C1121.61 323.114 1120.92 322.123 1121.26 323.092ZM1076.78 328.449C1076.82 329.475 1077.03 329.684 1077.31 328.982C1077.57 328.346 1077.53 327.586 1077.24 327.294C1076.95 327.001 1076.74 327.521 1076.78 328.449ZM1075.09 334.981C1075.09 336.192 1075.29 336.688 1075.53 336.082C1075.78 335.477 1075.78 334.486 1075.53 333.881C1075.29 333.276 1075.09 333.77 1075.09 334.981ZM1118.24 335.862C1118.24 337.073 1118.44 337.569 1118.69 336.963C1118.93 336.358 1118.93 335.367 1118.69 334.761C1118.44 334.156 1118.24 334.651 1118.24 335.862ZM1041.55 337.256C1041.59 338.282 1041.8 338.491 1042.08 337.789C1042.34 337.153 1042.31 336.393 1042.01 336.101C1041.72 335.808 1041.51 336.328 1041.55 337.256ZM1077.66 337.256C1077.7 338.282 1077.91 338.491 1078.19 337.789C1078.45 337.153 1078.41 336.393 1078.12 336.101C1077.83 335.808 1077.62 336.328 1077.66 337.256ZM1126.49 338.064C1127.64 344.682 1127.97 364.075 1127.02 369.518C1125.86 376.146 1123.15 382.896 1120.42 385.962C1119.15 387.383 1118.97 387.931 1119.86 387.654C1121.66 387.096 1126.78 377.031 1127.48 372.697C1127.79 370.766 1128.31 369.631 1128.65 370.176C1128.99 370.721 1129.14 369.069 1128.99 366.504C1128.83 363.94 1128.53 357.087 1128.31 351.274C1128.09 345.462 1127.49 339.517 1126.97 338.064L1126.04 335.422L1126.49 338.064ZM1074.27 340.266C1074.27 341.961 1074.45 342.654 1074.67 341.807C1074.9 340.96 1074.9 339.572 1074.67 338.724C1074.45 337.877 1074.27 338.57 1074.27 340.266ZM1119.15 340.706C1119.17 342.159 1119.37 342.647 1119.59 341.79C1119.82 340.933 1119.8 339.744 1119.56 339.148C1119.32 338.552 1119.14 339.253 1119.15 340.706ZM1040.74 341.146C1040.74 342.357 1040.94 342.853 1041.18 342.247C1041.43 341.642 1041.43 340.651 1041.18 340.045C1040.94 339.44 1040.74 339.935 1040.74 341.146ZM1076.78 340.779C1076.82 341.805 1077.03 342.014 1077.31 341.312C1077.57 340.676 1077.53 339.916 1077.24 339.624C1076.95 339.331 1076.74 339.851 1076.78 340.779ZM1129.72 341.587C1129.74 343.04 1129.94 343.528 1130.16 342.671C1130.39 341.814 1130.37 340.625 1130.13 340.029C1129.89 339.432 1129.71 340.133 1129.72 341.587ZM1138.53 341.587C1138.55 343.04 1138.74 343.528 1138.97 342.671C1139.19 341.814 1139.18 340.625 1138.94 340.029C1138.69 339.432 1138.51 340.133 1138.53 341.587ZM1130.67 348.192C1130.67 350.371 1130.84 351.264 1131.05 350.173C1131.26 349.083 1131.26 347.301 1131.05 346.21C1130.84 345.12 1130.67 346.012 1130.67 348.192ZM1039.94 348.632C1039.95 350.57 1040.13 351.258 1040.34 350.163C1040.55 349.067 1040.55 347.482 1040.33 346.64C1040.11 345.798 1039.93 346.695 1039.94 348.632ZM1025.63 359.223C1025.63 364.47 1029.01 379.491 1031.73 386.346C1033.12 389.85 1035.75 395.282 1037.56 398.417C1041.66 405.487 1053.65 417.346 1060.07 420.666C1063.97 422.685 1064.35 422.77 1062.18 421.136C1052.25 413.658 1038.54 396.61 1040.24 393.854C1040.61 393.263 1040.49 393.072 1039.96 393.399C1037.88 394.688 1032.36 376.599 1031.23 364.784C1030.6 358.072 1030.33 357.465 1027.61 356.617C1025.81 356.054 1025.63 356.284 1025.63 359.223ZM1039.94 363.604C1039.95 365.541 1040.13 366.23 1040.34 365.135C1040.55 364.039 1040.55 362.454 1040.33 361.612C1040.11 360.77 1039.93 361.666 1039.94 363.604ZM1130.6 364.485C1130.62 365.938 1130.82 366.426 1131.04 365.569C1131.27 364.712 1131.25 363.523 1131.01 362.927C1130.77 362.33 1130.59 363.031 1130.6 364.485ZM1040.74 370.209C1040.74 371.42 1040.94 371.916 1041.18 371.31C1041.43 370.705 1041.43 369.714 1041.18 369.108C1040.94 368.503 1040.74 368.998 1040.74 370.209ZM909.857 379.248C906.971 383.722 898.322 397.05 890.635 408.866C880.111 425.043 876.947 430.532 877.827 431.09C880.659 432.885 879.281 434.747 908.39 389.789C914.746 379.972 919.947 371.749 919.947 371.515C919.947 371.281 918.857 371.096 917.525 371.102C915.441 371.114 914.37 372.251 909.857 379.248ZM1041.63 374.172C1041.62 375.141 1041.95 376.726 1042.36 377.695C1043.33 379.939 1043.33 377.624 1042.36 374.613C1041.8 372.842 1041.65 372.756 1041.63 374.172ZM1045.03 385.621C1045.03 386.106 1045.42 387.096 1045.89 387.823C1046.36 388.549 1046.74 388.748 1046.74 388.263C1046.74 387.779 1046.36 386.788 1045.89 386.061C1045.42 385.335 1045.03 385.137 1045.03 385.621ZM1082.91 385.621C1082.91 386.106 1083.72 387.493 1084.71 388.704C1085.91 390.166 1086.21 390.313 1085.61 389.144C1084.12 386.271 1082.9 384.679 1082.91 385.621ZM1048.53 393.107C1049.52 395.045 1050.52 396.63 1050.77 396.63C1051.01 396.63 1050.4 395.045 1049.41 393.107C1048.42 391.169 1047.41 389.584 1047.17 389.584C1046.93 389.584 1047.54 391.169 1048.53 393.107ZM1089.92 394.321C1089.92 394.503 1090.61 395.197 1091.46 395.862C1092.86 396.957 1092.89 396.926 1091.79 395.529C1090.64 394.062 1089.92 393.596 1089.92 394.321ZM1052.02 399.223C1052.53 400.165 1053.38 401.204 1053.91 401.533C1054.44 401.862 1054.19 401.091 1053.36 399.821C1051.6 397.13 1050.69 396.722 1052.02 399.223ZM1111.77 400.754C1112.41 401.009 1113.17 400.977 1113.46 400.685C1113.75 400.392 1113.23 400.184 1112.3 400.222C1111.28 400.264 1111.07 400.473 1111.77 400.754ZM1056.45 404.937C1061.42 410.678 1072.31 419.259 1072.31 417.438C1072.31 417.159 1071.11 416.312 1069.65 415.556C1068.19 414.8 1064.12 411.529 1060.62 408.288C1057.12 405.047 1055.24 403.539 1056.45 404.937ZM944.74 416.747C940.697 420.94 936.804 425.493 936.089 426.863C934.836 429.266 934.861 429.345 936.804 429.065C938.949 428.757 943.137 423.739 948.994 414.464C950.905 411.437 952.384 408.996 952.281 409.04C952.177 409.085 948.784 412.553 944.74 416.747ZM1149.69 410.501C1148.6 411.897 1148.63 411.928 1150.03 410.834C1151.49 409.682 1151.96 408.959 1151.24 408.959C1151.05 408.959 1150.36 409.653 1149.69 410.501ZM1143.94 412.702C1142.9 414.363 1142.8 416.084 1143.78 415.481C1144.25 415.188 1144.42 414.727 1144.15 414.457C1143.88 414.186 1144.1 413.433 1144.64 412.783C1145.18 412.133 1145.4 411.602 1145.12 411.602C1144.85 411.602 1144.32 412.097 1143.94 412.702ZM891.737 421.652C888.764 428.073 888.541 429.684 890.516 430.442C893.12 431.442 893.804 430.981 892.255 429.271C890.908 427.782 890.85 427.136 891.796 424.207C892.393 422.36 893.433 419.759 894.107 418.427C894.781 417.094 895.111 416.005 894.841 416.005C894.572 416.005 893.174 418.546 891.737 421.652ZM1074.46 419.039C1075.4 419.792 1076.55 420.408 1077.03 420.408C1078.14 420.408 1077.64 420.002 1074.95 418.718C1072.87 417.729 1072.84 417.747 1074.46 419.039ZM1135.5 420.032C1132.08 421.884 1132.47 422.523 1135.94 420.76C1139.26 419.071 1139.84 418.634 1138.73 418.682C1138.28 418.702 1136.83 419.309 1135.5 420.032ZM1079.35 421.289C1080.08 421.759 1081.07 422.143 1081.55 422.143C1082.04 422.143 1081.84 421.759 1081.11 421.289C1080.39 420.82 1079.4 420.436 1078.91 420.436C1078.43 420.436 1078.63 420.82 1079.35 421.289ZM1089.76 424.533C1090.39 424.787 1091.15 424.756 1091.44 424.463C1091.74 424.171 1091.22 423.963 1090.29 424.001C1089.26 424.043 1089.05 424.252 1089.76 424.533ZM1120.58 424.533C1121.21 424.787 1121.97 424.756 1122.27 424.463C1122.56 424.171 1122.04 423.963 1121.11 424.001C1120.09 424.043 1119.88 424.252 1120.58 424.533ZM1094.1 425.395C1094.71 425.64 1095.7 425.64 1096.31 425.395C1096.91 425.151 1096.42 424.951 1095.2 424.951C1093.99 424.951 1093.5 425.151 1094.1 425.395ZM1115.24 425.395C1115.85 425.64 1116.84 425.64 1117.44 425.395C1118.05 425.151 1117.55 424.951 1116.34 424.951C1115.13 424.951 1114.64 425.151 1115.24 425.395ZM1103.35 426.323C1104.68 426.525 1106.86 426.525 1108.19 426.323C1109.53 426.121 1108.44 425.957 1105.77 425.957C1103.11 425.957 1102.02 426.121 1103.35 426.323ZM886.693 428.322C885.282 430.581 885.316 430.977 886.921 430.977C887.743 430.977 888.242 430.145 888.242 428.775C888.242 426.118 888.096 426.075 886.693 428.322Z" fill="#DDFA69"/>
</g>
<defs>
<clipPath id="clip0_57_297">
<rect width="1203" height="461" rx="40" fill="white"/>
</clipPath>
</defs>
</svg>
