<svg width="132" height="169" viewBox="0 0 132 169" fill="none" xmlns="http://www.w3.org/2000/svg">
<path fill-rule="evenodd" clip-rule="evenodd" d="M132.692 0.158672C132.562 0.320761 128.249 0.475131 123.106 0.500345L113.756 0.547172L110.689 6.30311C104.68 17.5772 94.9139 35.8407 91.1021 42.9325C87.3182 49.9722 80.9023 62.0141 70.8771 80.8925C68.1377 86.0515 63.231 95.2509 59.9734 101.336C56.7162 107.42 52.5691 115.177 50.7581 118.574C48.9471 121.97 45.2824 128.801 42.6145 133.753C30.5356 156.174 24.4955 167.626 24.4955 168.107C24.4955 169.033 27.007 169.147 41.1277 168.863L55.0121 168.583L58.6713 162.59C60.684 159.293 63.6351 154.061 65.2301 150.963C66.8247 147.866 70.2662 141.163 72.8783 136.069C75.4904 130.975 81.9849 118.647 87.311 108.674C92.6375 98.7011 99.5564 85.734 102.687 79.8582C105.817 73.9829 114.548 57.8291 122.089 43.9616C129.63 30.094 136.709 16.7797 137.82 14.3741C138.932 11.9685 140.908 7.94405 142.213 5.43091C143.517 2.91829 144.471 0.724696 144.334 0.556947C144.002 0.153528 132.996 -0.223135 132.692 0.158672ZM28.9343 1.21919C16.9569 4.11671 7.86166 13.4216 2.99806 27.7528C0.488693 35.1476 -0.653971 46.9821 0.380046 54.8714C2.41764 70.419 9.82443 83.3804 20.0568 89.3036C24.3734 91.8028 27.1596 92.4656 36.1208 93.1263C43.1243 93.6424 44.5177 93.6141 47.0034 92.904C50.9429 91.7792 55.0011 89.1688 59.0108 85.1819C68.8204 75.4273 73.6134 61.5978 73.006 44.8009C72.3778 27.441 65.2424 12.7197 54.1667 5.93313C47.4439 1.81403 35.6123 -0.396542 28.9343 1.21919ZM109.991 8.47354C107.958 12.304 104.013 19.7014 101.222 24.9129C98.4324 30.1244 93.6766 39.0336 90.654 44.7113C87.6314 50.389 83.8221 57.5214 82.1891 60.561C80.5556 63.601 75.7724 72.5714 71.5598 80.4958C67.3468 88.4201 62.881 96.8059 61.6356 99.1307C43.586 132.825 44.3088 131.397 45.1091 131.783C45.5132 131.978 46.0522 132.154 46.3071 132.174C46.562 132.193 48.4052 129.142 50.4035 125.392C52.4013 121.641 55.6171 115.623 57.5494 112.015C59.4813 108.409 62.3263 103.083 63.871 100.18C71.2402 86.3345 90.7965 49.6779 92.7656 46.0199C93.9843 43.7558 97.3206 37.5038 100.18 32.1266C103.039 26.7494 107.747 17.957 110.641 12.588C113.537 7.21852 115.998 2.5298 116.113 2.16806C116.254 1.72039 115.899 1.50993 115.003 1.50993C113.776 1.50993 113.434 1.98436 109.991 8.47354ZM135.147 1.85057C135.438 1.99362 135.914 1.99362 136.204 1.85057C136.495 1.70803 136.257 1.59123 135.676 1.59123C135.094 1.59123 134.857 1.70803 135.147 1.85057ZM141.801 2.77782C141.916 3.35413 141.9 3.53629 141.766 3.18226C141.633 2.82876 141.254 2.53906 140.925 2.53906C140.2 2.53906 140.193 2.65072 140.816 4.31431C141.276 5.54515 141.333 5.56573 141.767 4.65855C142.02 4.12804 142.451 3.25173 142.723 2.71195C143.143 1.87784 143.095 1.73067 142.406 1.73067C141.804 1.73067 141.648 2.00031 141.801 2.77782ZM25.0155 3.0634C13.6844 7.96515 5.46769 19.0458 2.12215 33.9368C0.864927 39.5327 0.38808 45.6751 1.13928 46.59C2.40538 48.1306 2.80445 47.4076 3.08853 43.0611C3.8503 31.4031 7.76062 20.873 14.338 12.7681C17.9765 8.28469 21.3056 5.5292 25.5524 3.48432C28.8683 1.88813 28.4646 1.57116 25.0155 3.0634ZM137.895 2.37902C138.302 2.5087 138.968 2.5087 139.375 2.37902C139.781 2.24987 139.448 2.14387 138.635 2.14387C137.821 2.14387 137.488 2.24987 137.895 2.37902ZM32.6912 3.09942C26.37 4.38635 19.8222 8.63357 14.9827 14.5866C7.6004 23.6671 4.2798 35.1214 4.75158 49.8791C4.86445 53.4167 5.2576 57.8163 5.62453 59.6558C9.20512 77.5926 20.4567 90.4202 33.7958 91.774C35.5083 91.9479 36.1453 91.8923 35.4867 91.6273C34.5191 91.2373 34.5013 91.1792 35.2754 90.9378C35.7404 90.7932 35.1697 90.7711 34.0071 90.8895C32.3804 91.0546 32.0397 90.9718 32.5276 90.5287C33.0192 90.0821 32.8294 90.0245 31.6821 90.2725C30.5208 90.5236 30.339 90.466 30.8366 90.0049C31.346 89.5331 31.2488 89.476 30.3416 89.7157C29.0007 90.0703 27.7756 89.6031 28.1442 88.877C28.3086 88.5533 28.052 88.4983 27.4547 88.7288C26.742 89.0041 26.5868 88.9315 26.8371 88.4391C27.0793 87.9621 26.9626 87.8793 26.4114 88.1365C25.6285 88.5024 20.6685 85.5534 19.4227 83.9809C18.8592 83.2698 18.8592 83.2286 19.4227 83.6094C19.9566 83.9701 19.9706 83.9084 19.5106 83.2173C19.0993 82.5988 19.0883 82.3466 19.4675 82.1928C19.744 82.0806 19.1915 81.2383 18.2394 80.3203C15.7964 77.9651 12.8064 72.9738 10.9083 68.0829C6.16056 55.847 6.24257 41.0178 11.1265 28.5555C16.5544 14.7039 26.0292 6.5748 37.69 5.76436C44.4251 5.2961 51.7122 7.35539 56.4122 11.0546C57.7823 12.1331 57.9024 12.1697 57.0463 11.2465C55.429 9.5037 51.2743 7.2957 47.3238 6.07978C42.2979 4.53248 34.5926 4.86901 30.0461 6.83362C25.2962 8.88571 21.7431 11.5501 18.0911 15.7968C16.2661 17.9194 14.7726 19.3684 14.7726 19.0165C14.7726 18.6645 14.3985 18.9233 13.9411 19.5913C13.4841 20.2597 13.1036 20.5653 13.0956 20.2715C13.0761 19.5228 18.5396 12.3158 19.1268 12.3158C19.391 12.3158 18.472 13.7633 17.0845 15.5318L14.5612 18.7479L17.1923 15.6898C18.6394 14.0082 19.7347 12.5242 19.6269 12.3925C19.3525 12.059 20.2796 10.7721 20.7945 10.7721C21.027 10.7721 20.956 11.1771 20.6368 11.6726C20.1117 12.4877 20.1265 12.5062 20.7919 11.8717C21.1961 11.4858 21.4269 10.9728 21.3047 10.7325C20.986 10.1042 24.0326 7.88591 27.8043 5.99951C30.4853 4.65856 31.598 4.38172 34.2185 4.40333C36.18 4.4198 36.9054 4.30093 36.1208 4.09253C35.4233 3.90677 36.9452 3.75498 39.5027 3.75498C42.546 3.75498 43.7145 3.89442 42.8846 4.15891C41.9973 4.44089 42.3148 4.4944 43.9415 4.3354C45.6388 4.17023 46.0953 4.2541 45.6324 4.64671C45.1475 5.05837 45.3166 5.13761 46.3498 4.98427C47.0934 4.87364 47.6053 4.97295 47.4874 5.20502C47.3699 5.43658 47.5225 5.62954 47.8269 5.63366C48.1312 5.63726 48.8558 5.77825 49.4371 5.946C51.4966 6.54135 47.1408 4.03953 44.8039 3.28467C42.3051 2.47731 36.2041 2.38417 32.6912 3.09942ZM120.617 2.88948C118.934 3.05517 118.229 3.40868 117.447 4.47794C116.668 5.54155 116.632 5.68511 117.286 5.1124C117.751 4.70538 117.323 5.36762 116.334 6.58457C115.345 7.801 113.711 10.1093 112.703 11.7138C110.931 14.5346 102.279 31.9449 102.279 32.6911C102.279 32.8933 101.804 33.8174 101.222 34.7452C100.641 35.673 100.166 36.5904 100.166 36.7844C100.166 36.9784 99.1151 38.9621 97.8308 41.1927C96.547 43.4228 95.6436 45.2516 95.8228 45.2557C96.0025 45.2604 95.9534 45.4338 95.7142 45.6417C95.4745 45.8495 94.0291 48.3354 92.5018 51.1655C89.9311 55.9288 88.487 58.6313 81.7778 71.2336C80.4216 73.7807 77.7 78.8749 75.7292 82.554C73.7589 86.2332 71.096 91.2116 69.8126 93.6172C65.2445 102.177 61.4466 108.948 54.9458 120.117C46.029 135.438 41.014 144.999 37.8084 152.792C37.1679 154.349 36.5072 155.738 36.3402 155.88C35.7049 156.417 35.0374 158.498 35.321 159.057C35.4909 159.392 35.4301 159.5 35.179 159.311C34.651 158.914 32.9503 163.503 32.9503 165.325C32.9503 166.992 33.8862 167.235 41.0698 167.425C48.6275 167.626 51.4611 167.19 52.4732 165.668C52.9073 165.016 53.2104 164.417 53.1462 164.339C53.0819 164.261 51.9832 164.535 50.7049 164.949C46.8939 166.181 41.3222 164.493 40.111 161.738C38.6433 158.4 41.6718 148.858 47.2781 139.156C52.8169 129.572 63.8102 109.381 63.8102 108.794C63.8102 108.62 63.5726 108.646 63.2817 108.849C62.9748 109.064 62.9008 109.023 63.1054 108.751C63.2995 108.493 63.6343 108.282 63.8495 108.282C64.4675 108.282 75.2393 87.7769 75.0135 87.0297C74.9024 86.6613 74.9924 86.4961 75.2139 86.6628C75.4354 86.8295 76.0987 86.0356 76.6884 84.8989C77.8848 82.5916 78.0108 82.0606 77.2321 82.606C76.9252 82.8211 76.8512 82.7799 77.0558 82.5077C77.2498 82.2504 77.6303 82.0338 77.9013 82.0271C78.1727 82.0204 78.3684 81.6175 78.3367 81.1323C78.305 80.6465 78.4272 80.3609 78.6085 80.4978C78.8917 80.7108 82.4106 74.4625 82.4106 73.7462C82.4106 73.6047 82.173 73.6551 81.8822 73.8584C81.5753 74.0735 81.5013 74.0323 81.7059 73.7601C81.8999 73.5028 82.2643 73.2918 82.5163 73.2918C82.7682 73.2918 83.0625 72.9702 83.1698 72.5771C83.3005 72.1006 83.1846 71.9982 82.8228 72.2704C82.4643 72.5406 82.384 72.4747 82.586 72.0764C82.7543 71.745 83.0498 71.5932 83.2434 71.7384C83.7558 72.1243 91.8064 56.6585 91.4542 55.9649C91.2822 55.6258 91.3447 55.5213 91.6035 55.7158C92.1484 56.1259 99.0432 43.3791 98.6721 42.6479C98.5288 42.3659 98.6636 42.1987 98.9718 42.2764C99.2812 42.3546 99.5057 42.0181 99.4736 41.5231C99.4419 41.0306 99.5683 40.7425 99.7543 40.8829C100.195 41.2143 101.917 37.8269 101.763 36.9306C101.698 36.5524 101.906 36.3105 102.226 36.3928C102.602 36.4901 102.715 36.2544 102.547 35.7229C102.405 35.2721 102.454 35.0272 102.655 35.179C103.173 35.568 105.332 31.4417 104.978 30.7424C104.811 30.4136 104.874 30.3091 105.127 30.499C105.667 30.905 107.068 28.4418 106.704 27.7255C106.561 27.4435 106.638 27.2763 106.875 27.354C107.113 27.4317 108.221 25.7542 109.338 23.6254C110.454 21.4967 112.224 18.2729 113.27 16.4611C114.317 14.6494 115.12 12.958 115.057 12.7033C114.993 12.4481 115.104 12.3626 115.305 12.5134C115.817 12.8988 118.855 9.00251 118.457 8.47045C118.279 8.23066 118.371 8.20185 118.663 8.40665C118.955 8.61145 119.72 8.32329 120.363 7.76653C122.354 6.04067 125.767 4.94465 128.196 5.25133C131.287 5.64137 133.942 7.06003 134.801 8.77971L135.528 10.2339L137.35 6.88508C138.352 5.04293 139.035 3.36956 138.868 3.16631C138.537 2.76289 124.12 2.54472 120.617 2.88948ZM137.68 7.76447C136.384 10.1263 135.046 13.2163 134.707 14.6313C134.367 16.0464 133.79 18.0728 133.424 19.1338C133.059 20.1953 132.824 21.0634 132.903 21.0634C132.983 21.0634 134.407 18.5251 136.069 15.4222C139.682 8.67731 140.943 5.44481 140.412 4.28961C140.113 3.63971 139.548 4.35805 137.68 7.76447ZM32.4219 4.93796C32.7127 5.08101 33.1883 5.08101 33.4787 4.93796C33.7696 4.79543 33.5316 4.67862 32.9503 4.67862C32.369 4.67862 32.1315 4.79543 32.4219 4.93796ZM29.9911 5.62645C29.2184 6.23415 29.8859 6.23415 31.048 5.62645C31.6056 5.33469 31.6774 5.17466 31.2593 5.15614C30.9106 5.14019 30.3399 5.35219 29.9911 5.62645ZM125.22 6.2182C124.236 6.42763 122.714 7.00446 121.838 7.49999C119.357 8.90372 114.578 15.1248 111.419 21.0634C109.838 24.035 106.245 30.7501 103.436 35.9858C100.626 41.2215 90.4371 60.3248 80.7928 78.4375C54.9847 126.907 53.9984 128.735 49.4231 136.583C42.9865 147.624 39.3865 157.337 40.355 161.051C40.7853 162.701 43.8079 164.248 47.1175 164.511C51.5909 164.867 54.4672 162.908 56.5703 158.072C57.0709 156.921 57.0692 156.921 55.5587 158.169C50.5577 162.3 45.2097 160.752 45.2097 155.173C45.2097 149.191 48.1465 142.214 56.8113 127.61C58.249 125.187 60.9546 120.31 62.8239 116.773C64.6932 113.235 70.36 102.583 75.4168 93.1026C80.4736 83.6217 87.0789 71.2336 90.0947 65.5733C93.1109 59.9131 97.7581 51.2298 100.423 46.2771C103.087 41.3244 106.777 34.2373 108.624 30.5283C115.957 15.7989 120.606 10.2539 125.622 10.2596C129.378 10.2632 130.994 12.8407 130.41 17.8947L130.133 20.2916L132.106 16.6896C134.583 12.1692 134.917 11.1163 134.4 9.46099C133.69 7.18764 128.794 5.4587 125.22 6.2182ZM34.4299 6.86758C22.7069 9.6555 13.6515 19.7852 9.78089 34.4421C6.26498 47.7545 7.95255 62.5966 14.2695 73.9196C17.6007 79.8906 23.0692 84.5876 29.7798 87.2417C33.8004 88.8317 40.9925 89.4379 44.9966 88.5235C47.6899 87.9091 52.4634 84.7296 55.5668 81.4832L57.2577 79.7146L54.6799 81.264C47.3597 85.6635 36.8505 86.4879 29.0632 83.2729C24.8202 81.5208 21.9786 79.3164 18.5713 75.1335C13.7432 69.2062 11.0204 61.4373 10.3258 51.6085C9.09986 34.2589 18.1566 16.9773 31.3671 11.4565C34.4941 10.15 35.4178 10.0003 40.3482 10.0003C46.4517 10.0003 49.73 10.9049 54.8659 14.0072C58.0753 15.9456 62.3475 20.5741 64.2388 24.1616C64.993 25.5921 65.6939 26.6609 65.7962 26.5358C66.0054 26.2811 64.9342 23.7428 62.8362 19.5197C60.342 14.4996 53.9325 9.33544 47.8531 7.44801C44.108 6.28561 37.9906 6.02112 34.4299 6.86758ZM56.4862 9.20114C60.4726 12.3976 63.6525 16.2049 65.9669 20.553C67.6275 23.6718 68.032 23.9141 66.6907 20.9862C65.127 17.5726 60.0592 11.3181 56.6752 8.62379C54.9597 7.25814 53.3567 6.14102 53.1132 6.14102C52.8697 6.14102 54.3877 7.518 56.4862 9.20114ZM26.1865 7.42743C25.6052 7.83188 25.3199 8.16275 25.5524 8.16275C25.7849 8.16275 26.4507 7.83188 27.032 7.42743C27.6132 7.02298 27.8986 6.69212 27.6661 6.69212C27.4336 6.69212 26.7678 7.02298 26.1865 7.42743ZM35.2754 10.9846C27.2044 12.8962 20.7146 18.3162 16.0243 27.0617C12.3816 33.854 10.8179 40.5341 10.8635 49.1073C10.9565 66.6267 18.7446 79.5603 31.6821 83.6814C35.7053 84.9627 43.9495 84.8248 48.2957 83.4036C56.263 80.7988 61.3316 75.772 64.9782 66.8598C68.0971 59.2365 69.061 54.3368 69.0263 46.2771C68.9942 38.7192 68.3432 35.1471 65.8372 28.7819C63.6127 23.1315 58.7301 16.9989 54.4431 14.4718C48.6588 11.0618 40.9049 9.65138 35.2754 10.9846ZM122.173 11.8028C119.484 13.3285 114.743 19.5614 111.791 25.4521C106.486 36.0362 97.4208 53.1394 70.3448 103.651C67.7657 108.462 64.2528 115.062 62.5377 118.316C60.8231 121.571 57.7916 127.012 55.801 130.409C50.8875 138.791 49.7571 141.012 47.744 146.242C44.9865 153.405 44.9142 157.924 47.536 159.258C49.5854 160.3 51.0088 160.174 53.5744 158.719C56.3484 157.147 59.1998 153.63 61.7455 148.641C63.4166 145.366 76.3215 121.171 86.977 101.336C88.725 98.081 91.6144 92.6395 93.3976 89.2434C95.1807 85.8472 98.6898 79.2479 101.196 74.5782C103.702 69.9086 107.172 63.425 108.908 60.1704C110.644 56.9158 115.661 47.562 120.058 39.3845C124.454 31.2065 128.463 23.2179 128.965 21.632C130.222 17.6678 130.259 13.7288 129.053 12.2597C127.723 10.6394 124.589 10.4315 122.173 11.8028ZM130.691 20.978C124.315 33.395 122.98 36.1412 123.195 36.4031C123.649 36.9553 126.675 32.3118 129.255 27.1029C131.667 22.2341 134.261 15.5684 133.911 15.1423C133.835 15.0502 132.386 17.676 130.691 20.978ZM63.0361 17.9987C64.0431 19.5681 65.2081 21.4205 65.6254 22.1152C66.3749 23.3646 66.3757 23.3615 65.6917 21.8142C65.3117 20.9538 64.1466 19.1014 63.1029 17.6976L61.2052 15.1459L63.0361 17.9987ZM53.3453 19.0592C52.8232 19.2943 52.3962 19.5707 52.3962 19.6741C52.3962 19.777 53.136 22.3895 54.0403 25.4794C56.6587 34.4277 57.2404 38.5839 57.2404 48.3354C57.2404 57.6321 56.7073 61.7764 54.4803 69.7959C53.0134 75.0784 52.9893 75.4407 54.0758 75.86C56.7196 76.8814 62.3657 70.8451 65.0801 64.0935C69.0246 54.2827 69.3966 43.5525 66.1424 33.413C63.6132 25.5314 56.5547 17.6143 53.3453 19.0592ZM13.9833 20.1717C13.6967 20.5206 13.26 20.8061 13.0136 20.8061C12.2657 20.8061 9.41945 27.0272 8.03202 31.6954C2.99933 48.6246 5.80673 67.4489 15.137 79.338C16.8584 81.5311 18.4149 83.3259 18.5958 83.3259C19.4265 83.3259 18.5375 81.5002 16.3955 78.8069C13.5728 75.2575 12.6517 73.6572 10.795 69.0796C7.89463 61.9271 6.3918 52.6315 6.9515 45.3015C7.57969 37.0659 10.5055 27.0046 13.8003 21.7462C14.8736 20.0333 15.0017 18.9321 13.9833 20.1717ZM53.2417 20.0559C53.2417 20.3502 53.8843 22.8397 54.6697 25.5875C57.2903 34.7565 57.6821 37.7642 57.6657 48.5927C57.6521 57.54 57.5541 58.8161 56.509 63.6365C55.8809 66.5335 54.9838 70.2307 54.5158 71.8521C54.0474 73.4735 53.6644 74.8659 53.6644 74.9462C53.6644 75.0269 54.2026 75.0928 54.8604 75.0928C57.4395 75.0928 61.483 70.6063 64.1361 64.8015C67.2356 58.0195 68.4011 47.95 67.0238 39.8559C65.6161 31.5832 61.3832 23.8133 56.575 20.6775C54.6841 19.4446 53.2417 19.1755 53.2417 20.0559ZM23.4387 20.8993C20.9572 22.5119 19.0114 24.7632 17.1606 28.1639C15.2989 31.5847 13.906 35.0622 13.9503 36.1772C13.963 36.4963 14.3443 35.6447 14.7979 34.2842C16.6292 28.7922 20.4123 23.3064 23.8614 21.1411C24.7915 20.5576 25.3622 20.0791 25.1296 20.0775C24.8971 20.0765 24.1362 20.4465 23.4387 20.8993ZM25.9016 21.419C25.9117 22.214 25.7921 23.5591 25.6357 24.4081C25.4793 25.2571 25.6686 24.8475 26.0567 23.4978C26.5458 21.7977 26.6274 20.8797 26.3226 20.5087C26.0178 20.1377 25.8885 20.4171 25.9016 21.419ZM35.7285 20.7681C34.8154 21.1813 33.5789 21.9505 32.9807 22.4774C32.383 23.0049 31.2741 23.7412 30.5174 24.1143C27.4674 25.6173 24.8506 31.0923 23.7908 38.1866C22.6486 45.8346 23.7283 56.8777 26.1928 62.7582C27.6969 66.3478 32.4122 72.3754 34.8518 73.8285C41.0081 77.4948 48.1177 73.9839 51.5068 65.6037C53.9113 59.6589 54.6422 54.8519 54.4021 46.5632C54.1793 38.8808 53.4307 34.8471 51.2561 29.615C50.0543 26.7231 46.8406 22.6148 44.7455 21.2914C42.8132 20.0708 37.9001 19.7858 35.7285 20.7681ZM35.7082 21.3387C32.9118 22.637 33.182 22.9313 37.2749 23.0466C41.7369 23.1721 44.4961 24.4168 46.702 27.3005C47.3927 28.2025 47.7055 28.7654 47.3978 28.5503C46.9383 28.2293 46.9345 28.3471 47.3766 29.2095C47.673 29.7868 48.0475 30.1594 48.209 30.038C48.3709 29.9165 48.6157 30.1748 48.7539 30.6127C48.904 31.0897 48.8288 31.2755 48.565 31.0774C48.3232 30.8957 48.4255 31.6208 48.792 32.6885C50.4263 37.4487 51.2493 42.8846 51.2789 49.1073C51.3233 58.4338 49.8175 64.8509 46.8072 68.1642L45.4211 69.6899L46.5291 68.1462C47.7892 66.39 49.213 63.7724 48.9078 63.7724C48.7958 63.7724 48.2213 64.641 47.6316 65.702C45.7356 69.1125 44.062 71.0005 43.2647 70.6279C42.8022 70.4118 42.6365 70.4874 42.8123 70.8337C43.5213 72.2308 38.0278 72.1027 35.0517 70.6531C34.1445 70.2111 33.1579 69.9569 32.859 70.0887C32.5605 70.2199 31.9357 69.9574 31.4707 69.5051C31.0057 69.0528 31.2686 69.5309 32.0549 70.5672C35.2551 74.7856 41.1937 75.8199 45.3192 72.8771C50.6977 69.0405 53.5583 61.5983 53.9667 50.3772C54.4469 37.175 51.0498 26.6393 44.8964 22.25C42.5617 20.5844 38.2531 20.1573 35.7082 21.3387ZM11.2626 24.5625C9.70395 27.7991 7.56701 33.943 7.61689 35.0447C7.6338 35.4208 7.99947 34.5245 8.42939 33.0533C9.27276 30.1666 10.9464 25.9322 12.3038 23.2503C12.7696 22.3303 13.0491 21.578 12.9248 21.578C12.8009 21.578 12.0527 22.921 11.2626 24.5625ZM33.1731 24.1282C33.0357 24.3988 32.6645 24.4997 32.3487 24.352C32.0029 24.1904 31.223 25.0184 30.3889 26.4319C29.6267 27.7234 28.9064 28.662 28.7876 28.5174C28.6688 28.3728 29.0036 27.5434 29.532 26.6737C30.4435 25.1727 30.4481 25.1213 29.6246 25.658C28.2169 26.5749 26.5733 29.5831 25.4535 33.2916C24.6329 36.0085 24.3755 37.9813 24.2626 42.4179C24.1366 47.3639 24.1705 47.721 24.5327 45.248C25.702 37.2645 26.3501 34.0212 27.2987 31.4108C28.1015 29.2013 28.4312 28.7181 28.7364 29.3057C28.9546 29.7251 29.1355 29.8203 29.1393 29.5177C29.1482 28.75 32.1116 24.6098 32.4629 24.8738C32.6206 24.9926 33.2225 24.7709 33.8013 24.3813C34.5622 23.8683 34.6552 23.6676 34.1378 23.6543C33.7446 23.6445 33.3105 23.8575 33.1731 24.1282ZM46.6893 25.1799C47.1099 25.746 47.5495 26.2091 47.6658 26.2091C47.782 26.2091 47.5326 25.746 47.112 25.1799C46.6914 24.6139 46.2517 24.1508 46.1355 24.1508C46.0192 24.1508 46.2686 24.6139 46.6893 25.1799ZM35.2754 25.1861C31.5603 26.5878 28.6739 32.1955 27.5638 40.1677C26.0356 51.146 28.963 64.9265 33.5574 68.3834C37.2512 71.162 42.2505 67.6944 44.3384 60.9052C46.9163 52.5255 46.3253 37.4683 43.1214 29.8872C41.3514 25.6997 38.4776 23.9774 35.2754 25.1861ZM67.4723 29.3438C68.6116 33.5977 69.7285 40.4595 69.7285 43.2047C69.7285 45.691 70.076 46.7917 70.861 46.7917C72.048 46.7917 70.6572 37.3402 68.44 30.3416C66.8091 25.1944 66.1897 24.5558 67.4723 29.3438ZM24.1413 30.1738C22.7661 36.4448 22.3882 40.3107 22.3907 48.0781C22.3933 56.7429 23.2743 62.6172 25.5638 69.2407C26.4317 71.7517 27.1647 74.3853 27.1926 75.0928C27.2366 76.2032 27.0772 76.3648 26.0292 76.2738C25.3617 76.2156 24.939 76.3185 25.0899 76.5027C25.2413 76.6864 25.9299 76.8845 26.6211 76.9427C27.7223 77.0353 27.8762 76.8799 27.8681 75.6846C27.8631 74.9348 27.4627 73.279 26.9783 72.0054C25.5105 68.1467 24.1185 62.8261 23.4438 58.4981C22.2119 50.5923 22.7873 37.6865 24.7428 29.3701C25.0992 27.8536 25.3076 26.5116 25.2062 26.3881C25.1043 26.2641 24.6253 27.9679 24.1413 30.1738ZM42.8703 28.0332C44.4192 30.8119 45.635 35.1991 46.2137 40.0972C46.7134 44.33 46.77 44.4818 47.911 44.6434C48.8812 44.7813 49.0532 44.6434 48.8761 43.8716C48.7577 43.3549 48.5311 41.5473 48.3722 39.8543C47.8383 34.1612 45.3454 28.4644 42.6082 26.6814C41.9774 26.2703 42.0252 26.5178 42.8703 28.0332ZM48.1689 27.0895C48.1689 27.3849 48.502 27.9447 48.9086 28.3332C49.5931 28.9862 49.6019 28.962 49.0283 28.0101C48.6871 27.444 48.3544 26.8847 48.2885 26.7664C48.2225 26.6485 48.1689 26.7941 48.1689 27.0895ZM46.245 29.8429C47.0706 31.3691 47.7461 32.8351 47.7461 33.1012C47.7461 33.3672 47.8645 33.4408 48.0086 33.2648C48.327 32.8773 46.3747 28.716 45.424 27.7553C45.0499 27.3777 45.4194 28.3173 46.245 29.8429ZM28.0715 30.8746C27.918 31.1762 27.8834 31.5338 27.9941 31.6686C28.1049 31.8034 28.3082 31.5564 28.446 31.1196C28.7318 30.2129 28.4883 30.0534 28.0715 30.8746ZM50.0982 30.9909C50.2572 31.4983 50.4935 31.7839 50.6237 31.6254C50.7539 31.4674 50.6241 31.0522 50.335 30.7028C49.9173 30.1985 49.8691 30.2577 50.0982 30.9909ZM26.1983 37.6227C25.4184 41.946 25.133 47.8208 25.7029 47.8208C26.014 47.8208 26.1873 46.6744 26.189 44.6048C26.1903 42.8362 26.3763 40.0139 26.6025 38.3333C27.122 34.472 26.8519 33.9975 26.1983 37.6227ZM7.19669 36.8004C7.21698 37.3999 7.31717 37.5218 7.45203 37.1117C7.5742 36.7402 7.55898 36.2961 7.41863 36.1253C7.27828 35.9544 7.17851 36.258 7.19669 36.8004ZM117.718 45.3766C106.839 65.4591 70.0506 134.614 67.009 140.7C65.1701 144.379 62.7943 148.811 61.7299 150.549C59.8576 153.605 57.4281 158.169 57.1114 159.224C56.7454 160.445 60.1966 155.276 62.265 151.506C67.3802 142.183 79.0122 120.534 88.1818 103.27C91.8288 96.4046 98.8352 83.2615 103.752 74.0637C108.669 64.8658 114.103 54.6774 115.829 51.4228C117.555 48.1682 119.953 43.73 121.157 41.5606C123.143 37.9813 123.439 37.015 122.55 37.015C122.383 37.015 120.209 40.778 117.718 45.3766ZM6.58288 39.4375C6.05572 42.3181 5.8359 51.7537 6.23159 54.5102C6.56597 56.8412 6.59979 56.342 6.42393 51.6801C6.30387 48.4959 6.42435 44.3573 6.69955 42.2193C7.17936 38.4902 7.10073 36.6085 6.58288 39.4375ZM13.1484 39.5878C13.1484 40.2953 13.2444 40.585 13.3615 40.231C13.479 39.8775 13.479 39.2986 13.3615 38.9446C13.2444 38.5911 13.1484 38.8803 13.1484 39.5878ZM49.4705 40.4023C49.4908 41.0018 49.5909 41.1238 49.7258 40.7136C49.848 40.3421 49.8327 39.8981 49.6924 39.7272C49.5521 39.5564 49.4523 39.86 49.4705 40.4023ZM12.7413 42.4179C12.7498 43.2669 12.8445 43.552 12.9518 43.0513C13.0592 42.5506 13.052 41.856 12.9362 41.5076C12.8204 41.1593 12.7329 41.5689 12.7413 42.4179ZM46.4707 49.7165C46.4538 59.0106 43.9305 66.2382 39.7686 68.9149C38.3668 69.8165 38.3258 69.9029 39.2914 69.9132C40.9502 69.9312 43.6122 68.2239 45.0643 66.2109C47.4494 62.9043 49.2925 54.3908 48.9374 48.3205C48.8161 46.2411 48.6914 46.0044 47.6404 45.8572L46.4779 45.6941L46.4707 49.7165ZM12.3511 48.3354C12.3511 49.609 12.4336 50.1302 12.5346 49.4932C12.6352 48.8561 12.6352 47.8147 12.5346 47.1776C12.4336 46.5406 12.3511 47.0619 12.3511 48.3354ZM53.3482 48.5927C53.3529 49.7247 53.4395 50.1271 53.5406 49.487C53.6416 48.8469 53.6378 47.9207 53.5321 47.4287C53.4264 46.9368 53.3436 47.4606 53.3482 48.5927ZM69.7758 52.597C69.0868 59.3173 67.6321 64.9075 64.9938 70.9763C63.8249 73.6649 62.7474 75.9871 62.5994 76.1369C62.4515 76.2866 61.3794 77.6533 60.2169 79.1738C58.1531 81.8738 58.1425 81.9041 59.765 80.4458C63.9594 76.6761 68.5203 67.6743 70.139 59.9713C71.2854 54.5143 71.6921 48.0586 70.9126 47.6943C70.4315 47.4694 70.1981 48.4774 69.7758 52.597ZM0.944823 52.1241C1.70617 65.6449 7.59998 78.3855 16.3904 85.5128C19.6434 88.1499 20.0838 87.9513 17.0372 85.2215C9.23133 78.227 4.03419 65.9829 3.09318 52.3701C2.83869 48.6894 2.75076 48.4121 1.76494 48.1831L0.708936 47.9371L0.944823 52.1241ZM24.2867 51.9996C24.6152 55.4874 25.8749 60.9453 26.6473 62.2287C27.0248 62.8564 27.0582 62.8081 26.8244 61.9714C25.9684 58.9051 24.9183 53.0663 24.9183 51.3708C24.9183 50.3005 24.7065 49.2657 24.4478 49.0712C24.1092 48.8165 24.0639 49.6373 24.2867 51.9996ZM25.5613 52.5806C26.1992 59.3497 28.7073 66.7759 30.7808 68.035L32.016 68.7853L30.6168 66.5536C29.847 65.3264 28.8054 62.983 28.3023 61.3457C27.4851 58.6874 27.1698 57.0048 26.3717 51.0369C26.2486 50.1168 25.9481 49.3645 25.7033 49.3645C25.4065 49.3645 25.3592 50.4384 25.5613 52.5806ZM12.7413 53.2238C12.7498 54.0728 12.8445 54.3579 12.9518 53.8572C13.0592 53.3565 13.052 52.6619 12.9362 52.3135C12.8204 51.9651 12.7329 52.3747 12.7413 53.2238ZM52.8524 54.2956C52.8727 54.8951 52.9729 55.017 53.1077 54.6069C53.2299 54.2354 53.2146 53.7913 53.0743 53.6205C52.934 53.4497 52.8342 53.7533 52.8524 54.2956ZM13.1535 56.3112C13.1467 56.8772 13.3044 57.8034 13.5044 58.3694C13.9673 59.6805 13.9673 58.3278 13.5044 56.5685C13.2321 55.5342 13.1636 55.4837 13.1535 56.3112ZM6.76296 58.1868C6.70293 60.4524 10.8124 73.0346 11.6126 73.0346C11.7289 73.0346 11.1556 71.4193 10.3389 69.4449C9.52217 67.4711 8.38881 63.9396 7.81981 61.5978C7.2508 59.256 6.77522 57.7211 6.76296 58.1868ZM52.0069 59.4413C52.0272 60.0407 52.1274 60.1627 52.2622 59.7526C52.3844 59.3811 52.3692 58.937 52.2288 58.7662C52.0885 58.5953 51.9887 58.8989 52.0069 59.4413ZM50.5569 63.5892C47.8772 70.2389 44.5769 73.0773 39.4342 73.1544C36.7439 73.1946 36.6602 73.2291 38.2273 73.6474C41.6633 74.5654 45.8687 72.451 48.4838 68.4899C49.8015 66.4939 52.1485 61.2412 51.8729 60.9057C51.7862 60.8002 51.194 62.0074 50.5569 63.5892ZM14.3629 61.4568C14.3629 61.7398 14.5473 62.3187 14.7726 62.7432C14.9979 63.1678 15.1822 63.2835 15.1822 63.0005C15.1822 62.7175 14.9979 62.1386 14.7726 61.7141C14.5473 61.2896 14.3629 61.1738 14.3629 61.4568ZM15.6181 65.2857C15.6181 65.5523 15.8062 65.9114 16.0361 66.0843C16.2754 66.2644 16.3464 66.0581 16.2023 65.6001C15.9212 64.7089 15.6181 64.5458 15.6181 65.2857ZM16.721 67.503C18.1371 70.4674 23.0155 76.1219 24.1574 76.1219C24.3945 76.1219 23.4518 75.1036 22.0627 73.8584C20.6736 72.6136 18.9082 70.5297 18.1397 69.2273C16.8436 67.0301 16.0129 66.0205 16.721 67.503ZM32.9503 70.6562C32.9503 70.7627 33.283 71.1682 33.6901 71.5567C34.3605 72.1963 34.3753 72.1783 33.8499 71.3622C33.2974 70.5049 32.9503 70.2327 32.9503 70.6562ZM62.9554 72.9013C61.8875 74.7995 54.72 83.8404 54.2829 83.8404C54.1506 83.8404 53.3423 84.4193 52.4871 85.1268C51.6315 85.8344 51.1187 86.4107 51.347 86.4071C52.2576 86.3937 55.2865 83.8564 57.8381 80.9702C60.3564 78.1215 64.5398 71.6931 64.1686 71.2413C64.0773 71.1301 63.5311 71.8768 62.9554 72.9013ZM12.1634 74.3287C12.3938 74.8988 13.6933 76.7739 15.0512 78.4956C16.4094 80.2174 16.7565 80.5616 15.8227 79.2598C14.8888 77.9584 13.5893 76.0834 12.9349 75.0928C12.2801 74.1023 11.933 73.7586 12.1634 74.3287ZM124.293 76.6504C119.352 77.9121 114.137 80.8004 110.1 84.5114C106.825 87.5211 104.562 90.3584 105.435 90.3584C105.792 90.3584 105.986 90.2391 105.867 90.094C105.545 89.7019 107.842 86.9278 108.488 86.9278C108.793 86.9278 109.043 86.7132 109.043 86.4503C109.043 85.5416 115.349 80.8446 118.635 79.3051C121.843 77.803 126.051 76.5979 127.827 76.6736C128.307 76.6941 127.179 77.1655 125.318 77.7212C118.611 79.7254 112.203 84.5495 107.665 91.0099C105.214 94.5002 101.77 102.795 100.601 108.025C100.126 110.148 99.5209 114.49 99.2559 117.673C98.7828 123.351 98.7532 123.462 97.7154 123.462H96.6569L96.9126 117.93C97.0564 114.813 97.5573 110.715 98.0604 108.54C99.0496 104.26 101.725 96.6578 102.449 96.0691C102.704 95.8612 102.741 95.6878 102.531 95.6832C102.32 95.679 102.439 95.27 102.794 94.7749C103.148 94.2799 103.664 93.2956 103.939 92.588C104.422 91.3479 104.415 91.3387 103.751 92.3308C100.397 97.3406 97.5121 106.482 96.4916 115.331C95.3367 125.347 96.4789 135.284 99.7822 143.964C103.678 154.201 109.917 161.497 117.725 164.947C125.854 168.538 135.392 169.417 142.725 167.249C159.568 162.272 169.943 143.939 168.932 120.942C168.352 107.735 164.783 96.8847 158.4 88.9218C151.705 80.5698 143.562 76.6777 132.082 76.3448C128.827 76.2501 125.322 76.388 124.293 76.6504ZM126.443 79.2258C121.12 80.9234 116.976 83.9608 112.425 89.5017C106.768 96.3881 103.655 103.349 101.84 113.171C101.071 117.335 100.967 119.165 101.138 125.52C101.351 133.382 101.884 136.727 103.842 142.501C107.755 154.035 114.447 161.814 123.628 165.494C126.479 166.638 127.978 166.887 133.187 167.08C140.315 167.344 144.125 166.475 149.533 163.353C152.363 161.719 157.243 157.628 157.895 156.342C158.047 156.045 156.961 156.895 155.483 158.232C152.057 161.33 147.841 163.723 143.284 165.154C140.149 166.139 138.966 166.247 133.985 166.003C127.424 165.682 124.31 164.719 118.977 161.366C106.585 153.573 99.895 133.048 103.312 113.303C105.93 98.1757 114.046 86.317 125.122 81.4338C128.062 80.1381 128.755 80.0414 135.253 80.0229C142.339 80.0023 143.933 80.3532 148.816 83.0063C149.266 83.2513 149.485 83.1108 149.485 82.5761C149.485 81.8434 149.066 81.5594 148.235 81.7281C148.051 81.7657 147.547 81.5655 147.114 81.2841C146.682 81.0021 144.455 80.1911 142.165 79.4805C136.914 77.853 131.049 77.7578 126.443 79.2258ZM128.7 80.998C116.272 84.3185 106.655 97.0205 103.755 113.943C102.876 119.076 102.847 128.046 103.692 133.273C105.527 144.607 110.674 154.377 117.626 159.721C124.148 164.734 133.454 166.789 141.282 164.945C144.004 164.304 145.383 163.63 144.095 163.57C143.765 163.555 144.581 163.121 145.907 162.604C147.233 162.088 149.195 161.04 150.268 160.275C151.341 159.509 152.452 158.992 152.737 159.125C153.022 159.258 153.616 159.046 154.057 158.653C154.499 158.259 154.705 157.938 154.517 157.938C154.327 157.938 154.416 157.58 154.715 157.142C155.013 156.705 155.494 156.458 155.783 156.593C156.073 156.729 156.643 156.392 157.05 155.845C157.456 155.298 157.641 154.85 157.46 154.85C157.28 154.85 157.367 154.506 157.654 154.084C157.942 153.663 158.35 153.449 158.562 153.608C158.774 153.767 158.895 153.602 158.831 153.24C158.767 152.878 158.982 152.571 159.309 152.558C159.635 152.545 159.95 152.136 160.01 151.647C160.143 150.54 161.679 148.112 162.04 148.436C162.188 148.568 162.213 148.522 162.098 148.333C161.982 148.145 162.335 147.046 162.884 145.889C165.624 140.114 167.381 132.145 167.381 125.487C167.381 121.475 167.363 121.404 166.324 121.404C165.743 121.404 165.264 121.346 165.26 121.275C165.044 117.586 164.312 111.395 163.774 108.72C162.312 101.448 158.343 92.5875 155.269 89.7332C154.468 88.9902 153.964 88.154 154.126 87.836C154.305 87.4836 154.178 87.3786 153.791 87.5587C153.448 87.7192 152.703 87.3909 152.136 86.8301C151.569 86.2687 151.373 85.981 151.699 86.191C152.104 86.4508 152.191 86.3721 151.973 85.9429C151.798 85.5972 151.39 85.4371 151.068 85.5879C150.745 85.7387 150.527 85.5807 150.582 85.237C150.638 84.8917 150.268 84.6293 149.757 84.6498C149.247 84.6704 148.867 84.4785 148.911 84.2233C148.955 83.9675 148.112 83.3295 147.038 82.8046C142.057 80.3738 134.006 79.5803 128.7 80.998ZM129.963 81.5017C119.328 83.8543 110.519 93.1299 106.084 106.645C105.359 108.858 104.856 110.942 104.968 111.276C105.094 111.653 105.187 111.59 105.213 111.112C105.235 110.688 105.883 108.483 106.651 106.213C111.636 91.4864 121.096 82.9338 134.196 81.3093C137.136 80.945 137.274 80.8868 135.253 80.8678C133.974 80.8559 131.594 81.141 129.963 81.5017ZM139.594 81.6242C140.005 81.7549 140.576 81.7462 140.862 81.6052C141.148 81.4642 140.812 81.3577 140.114 81.3679C139.417 81.3782 139.183 81.4935 139.594 81.6242ZM141.629 81.971C141.726 82.075 142.566 82.3014 143.496 82.4737C144.675 82.6919 144.931 82.6456 144.342 82.3209C143.53 81.8732 141.266 81.5815 141.629 81.971ZM19.8454 82.5309C19.8454 83.1787 25.9692 87.04 28.9343 88.2621C31.8732 89.4739 33.0911 89.6735 38.2345 89.7893L44.1528 89.9226L38.4459 89.5089C31.2255 88.9856 25.8259 86.9978 21.4713 83.26C20.3616 82.3075 19.8454 82.076 19.8454 82.5309ZM147.089 83.8404C147.438 84.1147 147.914 84.339 148.146 84.339C148.379 84.339 148.284 84.1147 147.935 83.8404C147.586 83.5662 147.111 83.3418 146.878 83.3418C146.646 83.3418 146.741 83.5662 147.089 83.8404ZM112.853 86.9638C111.436 88.399 109.418 90.8879 108.368 92.4954C106.345 95.5941 102.91 103.638 102.507 106.224C102.285 107.647 102.312 107.627 102.85 105.961C105.126 98.9136 108.503 92.7599 112.809 87.8155C114.467 85.9121 115.734 84.355 115.626 84.355C115.517 84.355 114.269 85.5292 112.853 86.9638ZM21.5364 85.0908C21.5364 85.2323 21.9168 85.5956 22.3819 85.8987C22.8469 86.2018 23.2273 86.3335 23.2273 86.192C23.2273 86.0505 22.8469 85.6872 22.3819 85.3841C21.9168 85.081 21.5364 84.9493 21.5364 85.0908ZM156.82 89.8022C161.438 95.659 163.175 98.7572 165.13 104.623C166.746 109.47 167.029 109.129 165.498 104.179C163.29 97.0396 157.949 88.2883 154.211 85.6857C153.218 84.9946 153.996 86.2218 156.82 89.8022ZM47.6671 88.823C47.9719 88.9717 48.3367 88.9532 48.477 88.7823C48.6174 88.6115 48.368 88.4901 47.9224 88.5122C47.4299 88.5369 47.3297 88.6588 47.6671 88.823ZM45.1306 91.3958C45.4354 91.5445 45.8003 91.526 45.9406 91.3551C46.081 91.1843 45.8315 91.0629 45.386 91.085C44.8935 91.1097 44.7933 91.2317 45.1306 91.3958ZM131.743 93.8143C128.248 95.4001 124.511 99.7868 121.89 105.38C120.453 108.445 119.556 113.679 119.788 117.646C119.932 120.122 119.891 120.62 119.646 119.345L119.3 117.544L119.245 119.731C119.214 120.934 119.379 121.918 119.612 121.918C119.844 121.918 120.036 122.903 120.037 124.105C120.045 131.258 122.344 141.274 124.941 145.474C131.947 156.801 143.222 155.11 148.506 141.94C150.873 136.041 151.413 132.929 151.534 124.491L151.641 117.03L151.344 124.234C151.013 132.264 150.268 136.34 148.145 141.729C144.473 151.053 137.309 154.732 130.678 150.699C127.962 149.047 125.623 146.21 124.195 142.837C123.734 141.748 123.464 140.52 123.593 140.109C123.723 139.697 123.663 139.485 123.461 139.637C122.585 140.297 121.366 134.329 121.024 127.707C120.763 122.662 120.788 122.433 121.598 122.433C122.356 122.433 122.472 122.878 122.703 126.678C123.328 136.986 125.877 143.127 130.653 145.833C135.276 148.453 139.998 147.239 143.286 142.584C146.245 138.396 146.81 135.781 146.739 126.594C146.706 122.231 146.474 117.287 146.223 115.606C145.973 113.925 145.875 112.419 146.006 112.259C146.137 112.1 146.244 112.395 146.244 112.913C146.244 113.432 146.352 113.725 146.485 113.564C146.852 113.117 145.746 109.05 145.341 109.355C145.145 109.502 145.098 109.266 145.235 108.83C145.59 107.705 143.671 103.959 141.485 101.505C139.065 98.7901 135.986 97.5181 132.781 97.9081C129.362 98.3244 128.287 98.5833 127.301 99.2249C125.781 100.215 125.745 99.8439 127.186 98.0352C127.955 97.0689 129.734 95.6507 131.138 94.8835C133.29 93.7077 134.097 93.5287 136.277 93.7417C142.566 94.3561 147.071 99.8496 149.889 110.341C150.421 112.322 150.865 113.544 150.875 113.057C150.906 111.638 148.587 104.329 147.349 101.943C145.749 98.858 143.188 95.977 140.848 94.6283C138.339 93.1829 133.991 92.7939 131.743 93.8143ZM119.336 95.7043C115.154 98.2241 110.887 105.79 109.194 113.685C108.154 118.539 108.247 128.154 109.385 133.309C111.48 142.8 116.381 150.56 121.384 152.306C122.953 152.854 124.262 152.515 124.262 151.562C124.262 151.206 123.604 149.068 122.801 146.811C120.23 139.593 119.167 133.5 118.892 124.42C118.606 114.959 119.277 109.168 121.565 101.336C122.35 98.6471 122.993 96.0418 122.993 95.5468C122.993 94.3196 121.53 94.3829 119.336 95.7043ZM119.272 96.4931C114.077 99.6443 109.999 108.557 109.041 118.856C107.685 133.422 113.683 148.956 121.75 151.772C123.765 152.475 123.857 151.746 122.32 147.235C117.103 131.921 116.687 115.854 121.121 100.943C121.918 98.2611 122.571 95.8633 122.571 95.6142C122.571 94.8382 121.553 95.1094 119.272 96.4931ZM126.834 100.435C126.285 101.072 125.969 101.304 126.131 100.95C126.573 99.9839 125.758 100.176 124.981 101.221C123.025 103.851 121.022 111.786 120.795 117.802C120.679 120.861 120.744 121.159 121.552 121.3C122.364 121.441 122.443 121.18 122.526 118.083C122.73 110.422 124.056 105.563 126.999 101.693C127.819 100.616 128.489 99.6319 128.489 99.5059C128.489 98.9543 127.755 99.3664 126.834 100.435ZM131.544 100.309C129.977 101.47 129.578 101.589 129.995 100.77C130.201 100.364 130.034 100.366 129.403 100.777C128.619 101.287 127.023 103.554 126.202 105.324C125.534 106.76 126.316 105.824 127.598 103.651C128.35 102.378 129.141 101.336 129.358 101.336C129.575 101.336 129.057 102.435 128.208 103.78C124.325 109.93 122.877 117.92 123.772 128.251C124.327 134.658 125.507 138.81 127.557 141.573C129.416 144.078 130.63 144.853 133.407 145.311C137.269 145.947 140.805 143.287 142.98 138.108C143.908 135.899 144.976 129.206 144.976 125.599V122.548L143.496 122.21C142.017 121.872 142.017 121.87 142.093 119.194L142.169 116.515L142.327 118.96C142.479 121.298 142.541 121.404 143.772 121.404H145.059L144.777 118.188C144.419 114.111 143.065 107.875 142.146 106.069C141.05 103.915 139.383 101.831 138.106 101.019C136.714 100.134 136.625 100.46 137.84 102C138.884 103.324 141.184 108.956 141.141 110.083C141.125 110.508 140.863 110.032 140.558 109.026C139.472 105.437 138.248 103.039 136.551 101.172C134.596 99.0227 133.525 98.838 131.544 100.309ZM162.523 101.722C164.211 106.705 165.69 114.615 165.69 118.657C165.69 120.307 166.601 121.495 167.256 120.698C167.619 120.256 166.647 113.571 165.655 109.695C164.664 105.82 162.885 100.821 162.497 100.821C162.344 100.821 162.355 101.227 162.523 101.722ZM125.053 102.751C124.528 103.567 124.542 103.585 125.213 102.945C125.917 102.273 126.141 101.85 125.793 101.85C125.705 101.85 125.372 102.256 125.053 102.751ZM123.71 105.716C123.324 106.703 123.094 107.51 123.201 107.51C123.49 107.51 124.773 104.36 124.58 104.125C124.488 104.013 124.097 104.729 123.71 105.716ZM142.687 104.68C142.849 105.246 143.433 107.099 143.985 108.797C144.691 110.968 144.909 111.35 144.72 110.083C144.571 109.093 143.987 107.24 143.421 105.967C142.855 104.693 142.525 104.114 142.687 104.68ZM121.336 107.81C121.356 108.41 121.456 108.532 121.591 108.122C121.713 107.75 121.698 107.306 121.558 107.135C121.417 106.964 121.318 107.268 121.336 107.81ZM120.524 111.627C120.524 112.335 120.62 112.624 120.737 112.27C120.854 111.917 120.854 111.338 120.737 110.984C120.62 110.63 120.524 110.919 120.524 111.627ZM141.238 112.142C141.238 112.849 141.334 113.139 141.451 112.785C141.569 112.431 141.569 111.852 141.451 111.498C141.334 111.145 141.238 111.434 141.238 112.142ZM104.426 112.956C104.447 113.556 104.547 113.678 104.682 113.267C104.804 112.896 104.789 112.452 104.648 112.281C104.508 112.11 104.408 112.414 104.426 112.956ZM121.759 112.956C121.779 113.556 121.879 113.678 122.014 113.267C122.136 112.896 122.121 112.452 121.981 112.281C121.84 112.11 121.74 112.414 121.759 112.956ZM145.199 113.428C145.751 117.295 145.905 128.626 145.451 131.806C144.896 135.678 143.596 139.622 142.283 141.414C141.674 142.244 141.588 142.564 142.017 142.402C142.879 142.076 145.338 136.195 145.671 133.663C145.819 132.535 146.072 131.872 146.234 132.19C146.396 132.509 146.468 131.543 146.395 130.045C146.323 128.547 146.177 124.543 146.072 121.146C145.966 117.75 145.678 114.277 145.43 113.428L144.979 111.884L145.199 113.428ZM120.132 114.714C120.132 115.705 120.219 116.11 120.326 115.615C120.432 115.12 120.432 114.309 120.326 113.814C120.219 113.319 120.132 113.724 120.132 114.714ZM141.676 114.972C141.685 115.821 141.779 116.106 141.887 115.605C141.994 115.104 141.987 114.41 141.871 114.061C141.755 113.713 141.668 114.123 141.676 114.972ZM104.037 115.229C104.037 115.936 104.133 116.226 104.25 115.872C104.368 115.519 104.368 114.94 104.25 114.586C104.133 114.232 104.037 114.521 104.037 115.229ZM121.336 115.014C121.356 115.614 121.456 115.736 121.591 115.326C121.713 114.954 121.698 114.51 121.558 114.339C121.417 114.168 121.318 114.472 121.336 115.014ZM146.749 115.486C146.758 116.335 146.852 116.62 146.96 116.12C147.067 115.619 147.06 114.924 146.944 114.576C146.828 114.228 146.741 114.637 146.749 115.486ZM150.977 115.486C150.985 116.335 151.08 116.62 151.187 116.12C151.294 115.619 151.287 114.924 151.171 114.576C151.056 114.228 150.968 114.637 150.977 115.486ZM147.204 119.345C147.204 120.619 147.287 121.14 147.388 120.503C147.489 119.866 147.489 118.825 147.388 118.188C147.287 117.551 147.204 118.072 147.204 119.345ZM103.654 119.603C103.659 120.735 103.745 121.137 103.846 120.497C103.947 119.857 103.944 118.931 103.838 118.439C103.732 117.947 103.649 118.471 103.654 119.603ZM96.7837 125.791C96.7837 128.857 98.4057 137.633 99.7133 141.638C100.381 143.685 101.641 146.859 102.512 148.691C104.477 152.822 110.234 159.751 113.314 161.69C115.187 162.87 115.368 162.919 114.327 161.965C109.56 157.596 102.981 147.635 103.799 146.025C103.974 145.679 103.917 145.568 103.662 145.759C102.661 146.512 100.014 135.943 99.474 129.04C99.1671 125.118 99.0377 124.763 97.7348 124.268C96.8678 123.939 96.7837 124.073 96.7837 125.791ZM103.654 128.35C103.659 129.482 103.745 129.885 103.846 129.245C103.947 128.605 103.944 127.678 103.838 127.186C103.732 126.694 103.649 127.218 103.654 128.35ZM147.172 128.865C147.18 129.714 147.275 129.999 147.382 129.498C147.49 128.998 147.483 128.303 147.367 127.955C147.251 127.606 147.163 128.016 147.172 128.865ZM104.037 132.21C104.037 132.917 104.133 133.207 104.25 132.853C104.368 132.499 104.368 131.92 104.25 131.566C104.133 131.213 104.037 131.502 104.037 132.21ZM41.2119 137.491C39.8265 140.105 35.6748 147.892 31.9852 154.796C26.9335 164.247 25.415 167.455 25.8373 167.781C27.1968 168.83 26.5352 169.917 40.508 143.65C43.5589 137.914 46.0552 133.109 46.0552 132.973C46.0552 132.836 45.5318 132.728 44.8926 132.731C43.8924 132.738 43.3784 133.403 41.2119 137.491ZM104.465 134.525C104.458 135.091 104.616 136.017 104.816 136.583C105.279 137.895 105.279 136.542 104.816 134.782C104.543 133.748 104.475 133.698 104.465 134.525ZM106.097 141.214C106.097 141.497 106.281 142.076 106.507 142.501C106.732 142.925 106.916 143.041 106.916 142.758C106.916 142.475 106.732 141.896 106.507 141.472C106.281 141.047 106.097 140.931 106.097 141.214ZM124.278 141.214C124.279 141.497 124.67 142.308 125.145 143.015C125.719 143.87 125.863 143.956 125.573 143.273C124.86 141.594 124.274 140.664 124.278 141.214ZM107.775 145.588C108.249 146.72 108.733 147.647 108.849 147.647C108.965 147.647 108.672 146.72 108.198 145.588C107.723 144.456 107.24 143.53 107.123 143.53C107.007 143.53 107.301 144.456 107.775 145.588ZM127.644 146.297C127.644 146.404 127.977 146.809 128.383 147.198C129.054 147.837 129.069 147.819 128.543 147.003C127.991 146.146 127.644 145.874 127.644 146.297ZM109.453 149.161C109.695 149.712 110.102 150.319 110.357 150.511C110.613 150.704 110.495 150.253 110.095 149.511C109.249 147.939 108.811 147.701 109.453 149.161ZM138.133 150.056C138.438 150.205 138.803 150.186 138.943 150.016C139.083 149.845 138.834 149.723 138.388 149.745C137.896 149.77 137.796 149.892 138.133 150.056ZM111.58 152.5C113.965 155.854 119.189 160.868 119.189 159.804C119.189 159.641 118.615 159.147 117.913 158.705C117.211 158.263 115.261 156.352 113.579 154.458C111.898 152.564 110.998 151.683 111.58 152.5ZM57.9561 159.4C56.0153 161.851 54.1468 164.51 53.8035 165.311C53.202 166.715 53.2138 166.761 54.1468 166.597C55.1762 166.417 57.1867 163.486 59.9979 158.067C60.9152 156.298 61.625 154.872 61.5756 154.898C61.5257 154.924 59.8973 156.95 57.9561 159.4ZM156.336 155.751C155.81 156.567 155.825 156.585 156.495 155.945C157.2 155.273 157.423 154.85 157.075 154.85C156.988 154.85 156.655 155.256 156.336 155.751ZM153.573 157.037C153.075 158.008 153.027 159.013 153.496 158.661C153.723 158.49 153.803 158.22 153.674 158.062C153.544 157.904 153.65 157.464 153.909 157.085C154.168 156.705 154.272 156.394 154.141 156.394C154.011 156.394 153.755 156.684 153.573 157.037ZM32.514 162.266C31.0873 166.018 30.9799 166.959 31.9281 167.402C33.1782 167.986 33.5062 167.717 32.763 166.718C32.1162 165.848 32.0883 165.471 32.5424 163.759C32.829 162.68 33.3282 161.161 33.6516 160.382C33.9754 159.604 34.134 158.967 34.0042 158.967C33.8748 158.967 33.2039 160.452 32.514 162.266ZM120.221 160.74C120.672 161.18 121.227 161.54 121.454 161.54C121.991 161.54 121.751 161.302 120.457 160.552C119.461 159.975 119.447 159.985 120.221 160.74ZM149.52 161.32C147.881 162.402 148.067 162.775 149.732 161.745C151.325 160.758 151.607 160.503 151.07 160.531C150.857 160.543 150.16 160.897 149.52 161.32ZM122.571 162.054C122.919 162.329 123.395 162.553 123.628 162.553C123.86 162.553 123.765 162.329 123.416 162.054C123.067 161.78 122.592 161.556 122.359 161.556C122.127 161.556 122.222 161.78 122.571 162.054ZM127.564 163.95C127.869 164.098 128.234 164.08 128.374 163.909C128.515 163.738 128.265 163.617 127.82 163.639C127.327 163.663 127.227 163.785 127.564 163.95ZM142.36 163.95C142.665 164.098 143.03 164.08 143.17 163.909C143.311 163.738 143.061 163.617 142.616 163.639C142.123 163.663 142.023 163.785 142.36 163.95ZM129.652 164.453C129.942 164.596 130.418 164.596 130.708 164.453C130.999 164.311 130.761 164.194 130.18 164.194C129.599 164.194 129.361 164.311 129.652 164.453ZM139.797 164.453C140.088 164.596 140.564 164.596 140.854 164.453C141.145 164.311 140.907 164.194 140.326 164.194C139.744 164.194 139.507 164.311 139.797 164.453ZM134.09 164.996C134.729 165.113 135.776 165.113 136.415 164.996C137.055 164.878 136.532 164.782 135.253 164.782C133.974 164.782 133.451 164.878 134.09 164.996ZM30.093 166.164C29.4158 167.484 29.4323 167.715 30.2025 167.715C30.5969 167.715 30.8366 167.229 30.8366 166.428C30.8366 164.876 30.7664 164.851 30.093 166.164Z" fill="#DDFA69"/>
</svg>
