<svg width="1200" height="255" viewBox="0 0 1200 255" fill="none" xmlns="http://www.w3.org/2000/svg">
<g clip-path="url(#clip0_61_2781)">
<path d="M1240.75 48.4172C1158.26 67.6321 1102.42 97.0384 1066.47 120.594C1030.12 144.415 1004.94 168.289 955.156 186.69C900.255 207.072 862.45 207.521 847.366 206.825C826.452 205.852 827.296 202.878 792.662 198.489C726.132 190.057 715.231 200.026 684.834 192.334C634.434 179.585 644.001 147.027 589.367 120.931C549.802 102.025 487.449 91.72 435.709 113.445C386.987 133.906 386.077 166.64 333.489 179.339C311.889 184.556 293.072 183.226 255.451 180.563C207.244 177.207 173.986 169.045 160.763 166.414C121.586 158.599 60.3517 159.299 -33.5052 201.02" stroke="#DDFA69" stroke-width="0.823181" stroke-miterlimit="10"/>
<path d="M1239.76 38.0441C1159.86 55.961 1102.28 83.658 1062.92 108.39C1030.98 128.686 1007.38 149.184 973.198 166.488C965.722 170.265 957.813 174.025 949.216 177.543C895.039 199.699 857.825 203.128 842.226 204.124C821.309 205.471 820.997 203.392 787.066 199.171C763.155 196.209 746.262 195.013 733.243 194.526C711.113 193.704 700.304 195.077 682.138 189.751C675.364 187.788 668.88 185.106 662.816 181.758C634.77 166.285 632.158 141.613 586.547 122.036C546.845 104.994 485.237 96.9545 434.401 118.441C430.374 120.146 426.437 122.035 422.606 124.1C383.944 144.961 378.624 172.033 332.412 183.25C327.543 184.439 322.603 185.329 317.625 185.914C300.902 187.932 283.126 186.764 254.955 184.778C208.275 181.427 175.539 173.438 160.956 170.526C150.28 168.427 139.406 167.162 128.448 166.744C90.5137 165.205 38.3081 172.454 -32.218 202.066" stroke="#DDFA69" stroke-width="0.823181" stroke-miterlimit="10"/>
<path d="M1238.63 26.7598C1161.34 43.4009 1101.93 69.2477 1059.25 95.3708C1025.36 116.107 1000.67 137.64 967.243 155.436C959.616 159.511 951.701 163.665 943.113 167.504C889.662 191.445 853.254 198.932 836.912 200.532C815.851 202.57 814.495 203.005 781.321 198.955C758.091 196.104 741.181 194.362 728.322 193.288C706.662 191.511 696.457 192.049 679.342 186.252C672.815 184.009 666.57 181.161 660.7 177.75C633.526 162.276 628.868 139.427 583.557 122.197C543.719 107.03 482.857 101.255 432.925 122.505C428.704 124.348 424.815 126.139 421.215 128.126C381.307 149.45 375.656 175.35 331.143 186.161C326.315 187.354 321.416 188.254 316.477 188.854C299.486 190.996 281.753 189.93 254.253 187.901C209.094 184.604 176.899 176.748 160.962 173.673C150.373 171.595 139.594 170.308 128.731 169.825C91.1043 168.072 39.0202 174.477 -31.0526 202.151" stroke="#DDFA69" stroke-width="0.823181" stroke-miterlimit="10"/>
<path d="M1237.37 14.7154C1162.69 30.035 1101.52 54.1788 1055.45 81.5357C1019.66 102.798 993.846 125.315 961.201 143.611C953.41 147.985 945.475 152.524 936.924 156.692C884.194 182.395 848.305 191.594 831.511 196.179C810.734 201.84 807.908 201.856 775.477 197.98C752.907 195.266 735.978 192.965 723.215 191.316C702.039 188.592 692.409 188.277 676.347 182.02C670.113 179.486 664.139 176.466 658.486 172.993C632.188 157.53 625.407 136.527 580.501 121.637C540.477 108.352 480.408 104.822 431.382 125.847C427.199 127.684 423.335 129.471 419.756 131.419C378.635 153.261 372.607 177.95 329.837 188.469C325.045 189.667 320.183 190.577 315.28 191.192C298.023 193.47 280.276 192.49 253.495 190.471C209.884 187.235 178.207 179.527 160.915 176.195C150.395 174.162 139.701 172.86 128.924 172.299C91.6044 170.331 39.6399 175.88 -29.9654 201.628" stroke="#333333" stroke-width="0.823181" stroke-miterlimit="10"/>
<path d="M1236.12 2.64534C1164.04 16.6692 1101.12 39.0838 1051.65 67.6883C1013.97 89.4915 987.036 113.002 955.142 131.778C947.201 136.45 939.26 141.384 930.717 145.872C878.704 173.303 843.576 185.312 826.091 191.794C805.432 199.456 801.351 200.668 769.612 196.972C747.646 194.369 730.78 191.533 718.144 189.339C697.453 185.68 688.409 184.488 673.387 177.785C667.458 174.965 661.753 171.778 656.309 168.244C630.877 152.816 621.973 133.646 577.447 121.029C537.238 109.637 477.974 108.338 429.839 129.128C425.708 130.957 421.869 132.74 418.299 134.662C375.952 157.014 369.554 180.372 328.525 190.67C323.766 191.857 318.941 192.777 314.077 193.424C296.577 195.823 278.896 194.928 252.731 192.934C210.639 189.74 179.49 182.167 160.848 178.612C150.405 176.604 139.798 175.281 129.109 174.653C92.0817 172.462 40.2403 177.18 -28.9139 200.981" stroke="#333333" stroke-width="0.823181" stroke-miterlimit="10"/>
<path d="M1235.5 -5.18636C1166.01 7.5444 1101.33 28.2237 1048.48 58.0788C1008.91 80.436 980.855 104.981 949.704 124.194C941.626 129.174 933.647 134.46 925.132 139.304C873.86 168.463 839.446 183.23 821.332 191.686C800.766 201.269 795.368 203.782 764.409 200.242C747.309 198.27 730.38 195.371 713.708 191.558C693.465 186.982 685.028 184.884 671.095 177.787C665.008 174.671 660.016 171.123 654.685 167.748C630.125 152.4 619.073 134.98 574.974 124.686C534.544 115.203 476.108 116.118 428.875 136.676C424.782 138.499 420.969 140.279 417.421 142.174C373.829 165.005 367.092 187.234 327.777 197.15C323.057 198.333 318.273 199.259 313.449 199.923C295.678 202.423 278.041 201.653 252.588 199.704C212.031 196.585 181.395 189.124 161.416 185.344C151.04 183.363 140.513 182.025 129.904 181.338C93.1813 178.921 41.4716 182.782 -27.2286 204.663" stroke="#333333" stroke-width="0.823181" stroke-miterlimit="10"/>
<path d="M1235.26 -10.8215C1168.39 0.638231 1101.94 19.5953 1045.69 50.6823C1004.24 73.5954 975.088 99.1964 944.641 118.771C936.417 124.072 928.426 129.72 919.922 134.897C869.323 165.762 835.608 183.28 816.88 193.731C796.437 205.174 789.744 209.045 759.514 205.679C742.576 203.792 725.885 200.573 709.624 196.057C689.885 190.579 682 187.559 669.114 179.977C663.398 176.636 658.724 172.86 653.424 169.431C629.71 154.071 616.529 138.624 572.864 130.52C532.189 122.974 474.59 126.078 428.263 146.417C424.22 148.233 420.445 150.007 416.894 151.879C372.051 175.156 364.931 196.229 327.379 205.733C322.695 206.922 317.947 207.858 313.16 208.537C295.146 211.158 277.525 210.493 252.757 208.511C213.731 205.431 183.625 198.114 162.279 194.089C151.979 192.142 141.539 190.788 131.02 190.033C94.5892 187.391 42.9983 190.398 -25.2465 210.373" stroke="#333333" stroke-width="0.823181" stroke-miterlimit="10"/>
<path d="M1234.98 -16.5335C1170.7 -6.39193 1102.53 10.8851 1042.86 43.2081C999.528 66.6871 969.301 93.3658 939.571 113.371C931.202 119.018 923.175 125.031 914.691 130.516C864.786 163.06 831.739 183.288 812.448 195.81C791.98 209.087 784.124 214.333 754.637 211.139C737.824 209.279 721.344 205.684 705.507 200.419C686.3 194.057 678.948 190.071 667.11 182.088C661.801 178.505 657.424 174.539 652.163 171.02C629.294 155.731 613.933 142.17 570.73 136.277C529.802 130.692 473.076 135.97 427.688 156.06C423.684 157.87 419.934 159.641 416.407 161.497C370.325 185.303 362.907 205.17 327.033 214.394C322.387 215.578 317.68 216.524 312.935 217.227C294.662 220.033 277.073 219.41 252.994 217.418C215.492 214.414 185.923 207.205 163.215 202.97C152.987 201.042 142.629 199.663 132.193 198.841C96.0737 196.019 44.6014 198.172 -23.1822 216.191" stroke="#333333" stroke-width="0.823181" stroke-miterlimit="10"/>
<path d="M1234.7 -22.2714C1173.02 -13.4231 1103.11 2.15188 1040.03 35.7073C994.817 59.754 963.514 87.5223 934.476 107.89C925.984 113.844 917.902 120.189 909.465 126.074C860.241 160.3 827.836 183.241 807.995 197.834C787.526 212.93 778.499 219.575 749.742 216.556C733.058 214.727 716.793 210.789 701.402 204.852C682.623 197.611 675.918 192.64 665.129 184.256C660.211 180.421 656.11 176.293 650.901 172.682C628.875 157.452 611.364 145.809 568.618 142.092C527.417 138.509 471.57 145.912 427.048 165.788C423.082 167.593 419.358 169.36 415.851 171.177C368.506 195.432 360.772 214.155 326.607 223.046C321.995 224.226 317.326 225.182 312.619 225.911C294.093 228.863 276.476 228.316 253.116 226.333C217.159 223.378 188.104 216.293 164.045 211.834C153.892 209.918 143.618 208.507 133.269 207.606C97.4363 204.525 46.0897 205.87 -21.2421 221.958" stroke="#333333" stroke-width="0.823181" stroke-miterlimit="10"/>
<path d="M1234.42 -27.9865C1175.34 -20.3969 1103.66 -6.5089 1037.18 28.2674C990.036 52.9015 957.736 81.7595 929.362 102.471C920.739 108.769 912.615 115.444 904.201 121.661C855.667 157.531 823.888 183.177 803.519 199.897C782.989 216.762 772.835 224.849 744.821 222.002C728.251 220.171 712.193 215.862 697.274 209.242C678.98 201.149 672.864 195.154 663.125 186.38C658.6 182.293 654.814 178.008 649.578 174.305C628.371 159.151 608.696 149.5 566.421 147.886C524.951 146.328 469.992 155.831 426.361 175.479C422.446 177.275 418.747 179.039 415.24 180.773C366.646 205.486 358.583 223.066 326.15 231.597C321.569 232.798 316.927 233.766 312.245 234.498C293.454 237.503 275.926 237.122 253.2 235.196C218.776 232.293 190.247 225.328 164.826 220.648C155.64 218.951 145.517 217.433 134.294 216.406C98.7684 213.111 47.5405 213.601 -19.325 227.766" stroke="#333333" stroke-width="0.823181" stroke-miterlimit="10"/>
<path d="M1234.17 -33.5388C1177.75 -27.2649 1104.31 -15.0781 1034.4 20.9117C985.439 46.1156 952.042 76.1027 924.317 97.148C915.575 103.787 907.396 110.783 899.009 117.356C851.112 154.879 819.933 183.222 799.124 202.045C778.543 220.75 767.265 230.206 739.981 227.533C723.505 225.699 707.638 221.031 693.196 213.77C675.359 204.816 669.933 197.77 661.17 188.641C657.037 184.302 653.54 179.853 648.393 176.052C628.01 160.997 606.172 153.267 564.389 153.801C522.606 154.335 468.567 165.887 425.839 185.302C421.962 187.093 418.289 188.853 414.807 190.584C364.952 215.757 356.56 232.195 325.81 240.385C321.277 241.586 316.683 242.559 312.05 243.299C292.968 246.457 275.504 246.15 253.514 244.183C220.612 241.344 192.621 234.488 165.837 229.598C156.694 227.917 146.648 226.399 135.544 225.294C100.324 221.784 49.217 221.43 -17.1984 233.651" stroke="#333333" stroke-width="0.823181" stroke-miterlimit="10"/>
<path d="M1233.92 -39.0197C1180.05 -34.0578 1104.95 -23.5377 1031.6 13.6541C980.71 39.4086 946.354 70.5638 919.271 91.8961C910.4 98.8912 902.162 106.196 893.777 113.128C846.546 152.312 815.949 183.32 794.721 204.315C774.021 224.739 761.626 235.707 735.172 233.181C717.606 231.503 700.908 225.015 689.161 218.413C671.772 208.623 666.918 200.519 659.246 191.019C655.531 186.423 652.31 181.812 647.212 177.907C627.643 162.975 603.689 157.22 562.364 159.848C520.349 162.487 467.148 176.064 425.323 195.248C421.497 197.032 417.849 198.788 414.38 200.516C363.277 226.16 354.57 241.453 325.564 249.281C321.066 250.484 316.509 251.467 311.913 252.227C292.606 255.539 275.152 255.302 253.777 253.347C222.407 250.56 194.981 243.819 166.834 238.707C157.734 237.056 147.763 235.514 136.794 234.353C101.866 230.617 50.879 229.42 -15.0666 239.741" stroke="#333333" stroke-width="0.823181" stroke-miterlimit="10"/>
<path d="M1233.69 -44.4329C1182.41 -40.7777 1105.65 -31.7961 1028.82 6.47507C976.17 32.934 940.687 65.1037 914.226 86.762C905.253 94.1205 896.917 101.728 888.61 109.008C841.983 149.791 811.968 183.56 790.309 206.634C769.482 228.826 756.101 241.215 730.277 238.891C713.341 237.331 696.65 230.363 685.053 223.115C668.112 212.489 663.971 203.318 657.262 193.453C653.927 188.607 651.01 183.853 645.949 179.846C627.185 164.98 601.09 161.287 560.219 165.903C517.913 170.692 465.608 186.25 424.688 205.214C420.895 206.985 417.277 208.736 413.834 210.469C361.454 236.552 352.434 250.723 325.147 258.192C320.69 259.403 316.174 260.396 311.617 261.167C292.056 264.615 274.615 264.46 253.92 262.52C224.097 259.794 197.163 253.12 167.647 247.835C158.587 246.189 148.709 244.657 137.847 243.431C103.224 239.469 52.357 237.428 -13.1403 245.791" stroke="#333333" stroke-width="0.823181" stroke-miterlimit="10"/>
<path d="M1233.48 -49.7644C1184.81 -47.3947 1106.29 -40.1158 1026.05 -0.62277C971.519 26.4043 935.028 59.7621 909.191 81.6743C900.112 89.373 891.719 97.3012 883.426 104.939C837.419 147.342 807.917 183.837 785.926 209.045C764.949 233.022 750.538 246.887 725.505 244.716C709.189 243.288 692.489 235.83 681.065 227.908C664.547 216.451 661.116 206.188 655.409 195.965C652.528 190.845 649.824 185.95 644.828 181.849C626.775 167.111 598.373 164.298 558.148 172.093C515.858 180.289 464.143 196.572 424.113 215.306C420.362 217.07 416.774 218.818 413.349 220.548C359.667 247.002 350.373 260.128 324.804 267.239C320.382 268.449 315.902 269.448 311.381 270.234C291.565 273.805 274.101 273.761 254.153 271.85C225.905 269.108 199.436 262.493 168.58 257.055C159.561 255.426 149.76 253.882 139.031 252.588C104.7 248.401 53.9533 245.516 -11.0795 251.943" stroke="#333333" stroke-width="0.823181" stroke-miterlimit="10"/>
<path d="M1233.32 -55.0457C1187.25 -53.9483 1106.99 -48.3979 1023.35 -7.67122C966.928 19.9241 929.502 54.4466 904.234 76.6809C895.015 84.7491 886.56 92.9629 878.327 100.999C832.92 145.063 804.009 184.198 781.598 211.568C760.417 237.314 744.939 252.589 720.626 250.606C704.942 249.308 688.235 241.371 676.971 232.778C660.879 220.512 658.196 209.153 653.416 198.594C650.965 193.204 648.502 188.175 643.553 183.959C626.363 169.326 596.121 169.714 556.1 178.352C513.384 187.536 462.714 206.962 423.587 225.464C419.939 227.221 416.291 228.978 412.911 230.694C357.982 257.617 348.348 269.613 324.496 276.353C320.116 277.571 315.676 278.581 311.195 279.378C291.126 283.084 273.737 283.112 254.415 281.2C227.645 278.578 201.762 272.136 169.547 266.415C160.557 264.805 150.828 263.31 140.185 261.894C106.168 257.551 55.5209 253.765 -8.9964 258.248" stroke="#333333" stroke-width="0.823181" stroke-miterlimit="10"/>
<path d="M1233.06 -60.251C1189.59 -60.475 1107.6 -56.6088 1020.53 -14.6561C962.177 13.5153 923.863 49.2553 899.203 71.7219C889.935 80.1577 881.328 88.6592 873.144 97.024C828.235 142.595 799.976 184.603 777.281 214.078C755.969 241.654 739.527 258.323 715.851 256.506C700.799 255.337 684.06 246.926 672.97 237.671C657.281 224.528 655.382 212.137 651.527 201.219C649.541 195.542 647.295 190.396 642.409 186.074C625.992 171.559 593.672 174.085 554.093 184.631C511.171 196.013 461.3 217.377 423.09 235.656C419.443 237.413 415.884 239.156 412.49 240.779C356.3 268.175 346.371 279.069 324.225 285.452C319.847 286.662 315.41 287.664 310.933 288.452C292.334 291.971 273.323 292.67 254.657 290.52C229.421 287.949 204.065 281.628 170.486 275.685C161.539 274.105 151.894 272.56 141.414 271.108C92.4582 264.545 42.799 262.317 -6.88986 264.454" stroke="#333333" stroke-width="0.823181" stroke-miterlimit="10"/>
<path d="M1232.86 -65.431C1191.99 -66.9513 1108.26 -64.791 1017.79 -21.6045C957.599 7.12735 918.299 44.0284 894.153 66.8016C786.996 167.956 763.02 266.221 710.996 262.478C696.576 261.44 679.805 252.554 668.901 242.623C645.615 221.432 655.247 201.165 641.182 188.249C606.701 156.574 482.053 217.027 411.998 250.997C343.694 284.123 342.112 291.654 310.783 297.666C256.102 308.188 224.474 292.312 142.61 280.436C93.946 273.443 44.6165 270.218 -4.86677 270.795" stroke="#333333" stroke-width="0.823181" stroke-miterlimit="10"/>
<path d="M1232.34 -68.7934C1190.31 -70.8645 1109.26 -68.184 1022.78 -26.8698C963.085 1.69916 925.689 38.6034 899.712 62.6371C795.93 158.55 772.607 248.737 720.228 249.057C699.765 249.187 678.551 246.405 663.773 239.415C634.733 225.668 642.144 208.244 624.715 196.361C586.556 170.327 469.898 224.067 403.08 255.622C338.002 286.431 336.113 292.608 302.637 296.556C247.01 303.119 217.031 289.372 139.849 277.759C91.6957 270.521 42.7781 267.499 -6.25641 268.733" stroke="#333333" stroke-width="0.823181" stroke-miterlimit="10"/>
<path d="M1231.8 -72.2971C1161.64 -76.2119 1091.08 -62.3708 1027.74 -32.2645C968.549 -3.86995 933.138 33.049 905.252 58.3431C805.027 149.19 781.91 232.662 729.429 235.511C702.799 236.947 678.028 240.083 658.624 236.066C625.34 229.217 629.534 215.293 608.227 204.33C567.524 183.415 457.725 230.976 394.131 260.118C332.393 288.592 330.202 293.535 294.458 295.319C238.063 298.147 209.552 286.186 137.067 274.94C89.4389 267.465 40.9455 264.644 -7.61615 266.522" stroke="#333333" stroke-width="0.823181" stroke-miterlimit="10"/>
<path d="M1230.86 -78.5262C1162.65 -82.9175 1093.9 -69.7109 1032.29 -40.3799C973.61 -12.1485 940.171 24.7893 910.387 51.3314C813.97 137.235 789.221 205.833 738.236 219.255C706.34 227.65 677.468 230.651 653.058 230.023C616.176 229.087 616.885 219.563 591.321 209.601C549.001 193.11 445.101 235.062 384.787 261.904C326.27 287.945 323.949 291.855 285.886 291.387C228.778 290.687 201.68 280.316 133.864 269.43C86.7535 261.701 38.6674 259.077 -9.42445 261.612" stroke="#333333" stroke-width="0.823181" stroke-miterlimit="10"/>
<path d="M1229.44 -88.0094C1163.18 -92.8704 1096.25 -80.2859 1036.38 -51.7134C978.193 -23.6294 946.738 13.3279 915.04 41.1101C822.528 122.194 797.228 184.694 746.549 199.804C708.896 211.022 676.164 224.355 647.022 220.781C606.922 215.865 605.37 215.338 573.945 211.673C533.844 191.981 432.011 235.985 374.946 260.499C319.699 284.183 317.238 287.074 276.814 284.253C219.062 280.219 193.328 271.205 130.188 260.724C83.593 252.746 35.9084 250.323 -11.7053 253.517" stroke="#DDFA69" stroke-width="0.823181" stroke-miterlimit="10"/>
<path d="M1227.98 -97.716C1163.69 -103.057 1098.55 -91.1272 1040.39 -63.3599C982.701 -35.4466 953.248 1.56333 919.623 30.5762C831.135 106.941 805.388 163.865 754.879 180.026C711.335 193.945 675.905 210.852 640.913 211.216C595.794 211.689 592.254 214.77 556.496 213.421C515.028 196.786 418.901 236.685 365.122 258.768C313.146 280.097 310.55 282.087 267.76 276.794C209.312 269.6 184.99 261.744 126.517 251.695C80.4364 243.466 33.1466 241.246 -13.9813 245.098" stroke="#DDFA69" stroke-width="0.823181" stroke-miterlimit="10"/>
<path d="M1226.49 -107.61C1164.18 -113.403 1100.87 -102.112 1044.43 -75.1436C987.241 -47.3893 959.817 -10.3304 924.236 19.9056C839.824 91.6391 813.674 143.267 763.075 160.137C713.743 176.585 673.863 189.989 634.837 201.526C586.648 215.776 579.171 214.09 539.079 215.046C496.17 201.408 405.765 237.21 355.163 256.928C306.458 275.9 303.737 277.06 258.57 269.225C199.56 258.982 176.535 252.123 122.773 242.534C77.2039 234.061 30.3034 232.043 -16.3307 236.548" stroke="#DDFA69" stroke-width="0.823181" stroke-miterlimit="10"/>
<path d="M1224.98 -117.634C1175.65 -122.938 1110.94 -117.337 1048.42 -87.0629C991.668 -59.5785 966.343 -22.3381 928.804 9.09773C848.571 76.2796 822.005 122.793 771.314 140.096C716.046 158.953 672.366 175.801 628.702 191.702C576.41 210.759 565.814 220.082 521.604 216.538C475.797 212.869 392.603 237.561 345.248 254.938C299.814 271.566 296.949 271.934 249.426 261.517C189.691 248.358 168.107 242.33 118.947 233.254C88.3856 227.613 42.5869 221.13 -18.7624 227.879" stroke="#DDFA69" stroke-width="0.823181" stroke-miterlimit="10"/>
<path d="M1223.45 -127.834C1172.9 -133.658 1110.93 -127.567 1052.39 -99.1485C996.137 -71.8347 972.877 -34.4789 933.348 -1.87426C857.369 60.8159 830.531 102.311 779.517 119.893C718.276 141.009 670.721 161.397 622.555 181.712C566.015 205.563 553.038 219.093 504.117 217.865C457.48 216.657 379.443 237.841 335.296 252.788C293.109 267.074 290.047 266.827 240.243 253.636C179.795 237.643 159.674 232.323 115.16 223.8C85.0085 218.024 39.8595 211.442 -21.1563 219.025" stroke="#DDFA69" stroke-width="0.823181" stroke-miterlimit="10"/>
<path d="M1221.9 -138.151C1170.09 -144.548 1110.9 -137.915 1056.35 -111.363C1000.59 -84.2199 979.417 -46.7409 937.872 -12.975C866.195 45.2874 839.055 81.8173 787.712 99.5579C720.416 122.814 668.987 146.839 616.388 171.593C555.496 200.243 540.189 217.71 486.609 219.065C439.069 220.269 366.254 237.936 325.335 250.508C286.476 262.464 283.126 261.603 231.052 245.626C169.822 226.855 151.227 222.151 111.352 214.219C81.596 208.298 37.1152 201.564 -23.5694 210.055" stroke="#DDFA69" stroke-width="0.823181" stroke-miterlimit="10"/>
<path d="M1220.33 -148.621C1167.37 -155.522 1110.84 -148.401 1060.28 -123.719C1005.02 -96.7348 985.97 -59.1014 942.376 -24.217C875.061 29.668 849.342 66.807 795.875 79.0828C720.073 96.4911 667.192 132.133 610.202 161.334C544.904 194.779 526.341 228.078 469.082 220.125C421.244 213.441 353.106 237.952 315.343 248.09C279.779 257.685 276.154 256.292 221.83 237.488C159.787 215.994 142.779 211.786 107.524 204.496C78.175 198.417 34.3422 191.572 -26.0036 200.931" stroke="#DDFA69" stroke-width="0.823181" stroke-miterlimit="10"/>
<path d="M1218.71 -159.432C1164.53 -166.876 1110.75 -159.207 1064.14 -136.484C1009.39 -109.66 992.494 -71.8292 946.818 -35.8689C883.848 13.7008 857.691 45.0569 803.987 58.1954C722.241 78.218 665.282 117.014 603.939 150.667C534.186 188.917 514.131 224.445 451.478 220.78C401.781 217.864 339.794 237.494 305.299 245.262C273.024 252.533 269.023 250.635 212.555 228.929C149.641 204.754 134.263 200.979 103.621 194.367C74.6885 188.115 31.5072 181.182 -28.5127 191.414" stroke="#333333" stroke-width="0.823181" stroke-miterlimit="10"/>
<path d="M1216.99 -170.924C1161.6 -178.914 1110.55 -170.743 1067.93 -149.804C1013.67 -123.138 998.98 -85.0685 951.177 -48.0725C892.698 -2.8045 865.97 22.7528 812.005 36.7582C724.306 59.5166 663.262 101.337 597.606 139.438C523.337 182.537 501.424 219.67 433.803 220.874C382.385 221.789 326.471 236.537 295.16 241.889C266.201 246.844 261.788 244.458 203.185 219.823C139.377 192.996 125.63 189.579 99.6448 183.676C71.1247 177.217 28.5235 170.241 -31.0941 181.333" stroke="#333333" stroke-width="0.823181" stroke-miterlimit="10"/>
<path d="M1215.23 -182.615C1158.63 -191.149 1110.32 -182.453 1071.68 -163.393C1017.92 -136.874 1005.48 -98.5013 955.497 -60.5456C901.48 -19.5155 874.252 0.19532 819.997 15.0484C726.414 40.6639 661.179 85.4056 591.234 127.951C512.372 175.901 488.311 214.193 416.089 220.712C363.087 225.497 313.101 235.349 284.994 238.246C259.367 240.905 254.482 238.065 193.788 210.446C129.011 180.989 117.071 177.798 95.6291 172.715C67.5412 166.01 25.6384 158.998 -33.7153 170.984" stroke="#333333" stroke-width="0.823181" stroke-miterlimit="10"/>
<path d="M1213.33 -195.34C1155.51 -204.406 1109.99 -195.132 1075.28 -178.004C1022.07 -151.533 1011.9 -112.871 959.666 -74.0392C910.14 -37.2157 882.397 -23.3735 827.824 -7.68023C728.426 20.9023 658.917 68.4477 584.76 115.439C501.407 168.225 473.701 202.472 398.274 219.528C344.523 231.671 299.642 233.137 274.713 233.582C252.384 233.975 247.022 230.657 184.278 200.06C118.517 167.962 108.379 165.044 91.5145 160.754C63.8847 153.714 22.5778 146.765 -36.4373 159.622" stroke="#333333" stroke-width="0.823181" stroke-miterlimit="10"/>
<path d="M1211.44 -207.937C1152.42 -217.548 1109.62 -207.759 1078.88 -192.497C1026.19 -166.186 1018.44 -127.008 963.851 -87.4163C918.835 -54.7673 890.585 -46.8199 835.679 -30.2962C730.495 1.35717 656.659 51.6187 578.186 103.048C490.231 160.712 459.868 197.86 380.357 218.467C325.129 232.753 286.068 231.134 264.358 229.049C245.316 227.188 239.444 223.422 174.692 189.79C107.89 155.097 99.6258 152.333 87.2976 148.902C60.1924 141.361 19.4313 134.664 -39.2582 148.393" stroke="#333333" stroke-width="0.823181" stroke-miterlimit="10"/>
<path d="M1209.55 -220.544C1149.35 -230.694 1109.17 -220.385 1082.5 -206.992C1030.35 -180.846 1025.09 -140.972 968.037 -100.794C927.538 -72.2729 898.787 -70.27 843.523 -52.9119C732.634 -18.0801 654.397 34.8374 571.679 90.6588C479.119 153.19 446.006 193.302 362.507 217.408C305.578 233.837 272.517 229.188 254.043 224.51C238.279 220.517 231.932 216.189 165.145 179.515C97.2873 142.216 90.9562 139.562 83.1472 137.051C56.7455 128.552 16.3478 122.54 -42.0159 137.143" stroke="#333333" stroke-width="0.823181" stroke-miterlimit="10"/>
</g>
<defs>
<clipPath id="clip0_61_2781">
<rect width="1200" height="255" rx="40" fill="white"/>
</clipPath>
</defs>
</svg>
