<svg width="33" height="33" viewBox="0 0 33 33" fill="none" xmlns="http://www.w3.org/2000/svg">
<path fill-rule="evenodd" clip-rule="evenodd" d="M0 16.7144C0 25.7088 7.29136 33.0001 16.2857 33.0001C25.2801 33.0001 32.5714 25.7088 32.5714 16.7144C32.5714 7.72007 25.2801 0.428711 16.2857 0.428711C7.29136 0.428711 0 7.72007 0 16.7144ZM13.2996 24.1784L13.5767 20.027L13.5765 20.0269L21.1283 13.212C21.4597 12.9178 21.0559 12.7744 20.6159 13.0412L11.296 18.921L7.2703 17.6645C6.40093 17.3983 6.39469 16.8009 7.46549 16.3714L23.1527 10.3225C23.8692 9.99724 24.5607 10.4946 24.2872 11.5912L21.6157 24.1805C21.4291 25.0751 20.8886 25.289 20.1396 24.8758L16.07 21.8691L14.1139 23.7712C14.1077 23.7772 14.1016 23.7832 14.0955 23.7891C13.8767 24.0021 13.6957 24.1784 13.2996 24.1784Z" fill="#333333"/>
</svg>
