<svg width="33" height="33" viewBox="0 0 33 33" fill="none" xmlns="http://www.w3.org/2000/svg">
<path fill-rule="evenodd" clip-rule="evenodd" d="M0.428711 16.7144C0.428711 25.7088 7.72007 33.0001 16.7144 33.0001C25.7088 33.0001 33.0001 25.7088 33.0001 16.7144C33.0001 7.72007 25.7088 0.428711 16.7144 0.428711C7.72007 0.428711 0.428711 7.72007 0.428711 16.7144ZM26.9354 16.091C26.9333 21.4292 22.5908 25.7727 17.2515 25.7749H17.2475C15.6267 25.7744 14.0342 25.3677 12.6197 24.5962L7.48612 25.9429L8.85996 20.9247C8.01251 19.4561 7.56658 17.7902 7.56731 16.0834C7.56943 10.744 11.9137 6.40001 17.2514 6.40001C19.842 6.40112 22.2734 7.40963 24.1018 9.24011C25.9301 11.0705 26.9365 13.5035 26.9354 16.091Z" fill="#333333"/>
<path fill-rule="evenodd" clip-rule="evenodd" d="M9.81201 23.6417L12.8584 22.8426L13.1523 23.017C14.3881 23.7504 15.8047 24.1384 17.249 24.139H17.2523C21.6886 24.139 25.2993 20.5281 25.3011 16.09C25.302 13.9393 24.4655 11.917 22.9459 10.3956C21.4262 8.87418 19.4053 8.0359 17.2554 8.03516C12.8157 8.03516 9.20489 11.6456 9.20313 16.0834C9.2025 17.6043 9.62804 19.0855 10.4338 20.367L10.6251 20.6715L9.81201 23.6417ZM21.7989 18.1756C21.9677 18.2572 22.0817 18.3123 22.1303 18.3935C22.1908 18.4944 22.1908 18.9788 21.9893 19.5442C21.7876 20.1094 20.8209 20.6252 20.356 20.6947C19.9391 20.757 19.4116 20.783 18.8319 20.5988C18.4805 20.4873 18.0298 20.3384 17.4525 20.0891C15.1841 19.1096 13.6511 16.911 13.3614 16.4955C13.3411 16.4663 13.3269 16.446 13.3189 16.4354L13.317 16.4328C13.1889 16.2619 12.3309 15.1171 12.3309 13.9323C12.3309 12.8177 12.8784 12.2335 13.1304 11.9646C13.1477 11.9462 13.1636 11.9293 13.1778 11.9137C13.3996 11.6715 13.6617 11.6109 13.823 11.6109C13.9843 11.6109 14.1458 11.6124 14.2868 11.6195C14.3042 11.6204 14.3223 11.6202 14.341 11.6201C14.482 11.6193 14.6578 11.6183 14.8312 12.0348C14.8979 12.1952 14.9956 12.4328 15.0985 12.6835C15.3067 13.1904 15.5368 13.7505 15.5773 13.8315C15.6378 13.9526 15.6781 14.0939 15.5974 14.2554C15.5853 14.2797 15.5741 14.3025 15.5634 14.3244C15.5028 14.448 15.4583 14.539 15.3555 14.6591C15.315 14.7063 15.2733 14.7572 15.2315 14.808C15.1482 14.9094 15.065 15.0108 14.9925 15.083C14.8714 15.2037 14.7453 15.3346 14.8864 15.5768C15.0276 15.8191 15.5132 16.6114 16.2325 17.253C17.0058 17.9428 17.6778 18.2343 18.0185 18.382C18.085 18.4109 18.1389 18.4343 18.1784 18.454C18.4203 18.5752 18.5614 18.5549 18.7026 18.3935C18.8438 18.232 19.3075 17.6869 19.4688 17.4447C19.63 17.2025 19.7914 17.2429 20.0132 17.3236C20.235 17.4044 21.4246 17.9897 21.6666 18.1108C21.7139 18.1345 21.758 18.1558 21.7989 18.1756Z" fill="#333333"/>
</svg>
