<svg width="40" height="40" viewBox="0 0 40 40" fill="none" xmlns="http://www.w3.org/2000/svg">
<circle cx="19.9997" cy="19.9999" r="1.66667" fill="#DDFA69"/>
<path d="M24.9997 19.9999C24.9997 24.4445 24.276 28.3916 23.1663 31.166C22.6095 32.5579 21.9883 33.5724 21.3837 34.2117C20.7825 34.8474 20.3142 34.9999 19.9997 34.9999C19.6851 34.9999 19.2169 34.8474 18.6156 34.2117C18.0111 33.5724 17.3898 32.5579 16.8331 31.166C15.7233 28.3916 14.9997 24.4445 14.9997 19.9999C14.9997 15.5553 15.7233 11.6082 16.8331 8.83379C17.3898 7.44196 18.0111 6.42746 18.6156 5.78818C19.2169 5.15242 19.6851 4.99992 19.9997 4.99992C20.3142 4.99992 20.7825 5.15242 21.3837 5.78818C21.9883 6.42746 22.6095 7.44196 23.1663 8.83379C24.276 11.6082 24.9997 15.5553 24.9997 19.9999Z" stroke="#DDFA69" stroke-width="3.33333"/>
<path d="M22.5002 24.33C18.651 26.5523 14.8709 27.8992 11.9133 28.3253C10.4296 28.5391 9.24038 28.5083 8.38446 28.3044C7.53325 28.1016 7.16705 27.7723 7.00978 27.4999C6.85252 27.2275 6.75045 26.7457 7.00042 25.9072C7.25177 25.0639 7.81973 24.0187 8.74672 22.8406C10.5945 20.4923 13.651 17.8921 17.5002 15.6698C21.3493 13.4475 25.1294 12.1006 28.087 11.6745C29.5707 11.4607 30.7599 11.4915 31.6159 11.6954C32.4671 11.8982 32.8333 12.2275 32.9905 12.4999C33.1478 12.7723 33.2499 13.2541 32.9999 14.0926C32.7486 14.9359 32.1806 15.9811 31.2536 17.1592C29.4058 19.5075 26.3493 22.1077 22.5002 24.33Z" stroke="#DDFA69" stroke-width="3.33333"/>
<path d="M22.5002 15.67C18.651 13.4477 14.8709 12.1008 11.9133 11.6747C10.4296 11.4609 9.24038 11.4917 8.38446 11.6956C7.53325 11.8984 7.16705 12.2277 7.00978 12.5001C6.85252 12.7725 6.75045 13.2543 7.00042 14.0928C7.25177 14.9361 7.81973 15.9813 8.74672 17.1594C10.5945 19.5077 13.651 22.1079 17.5002 24.3302C21.3493 26.5525 25.1294 27.8994 28.087 28.3255C29.5707 28.5393 30.7599 28.5085 31.6159 28.3046C32.4671 28.1018 32.8333 27.7725 32.9905 27.5001C33.1478 27.2277 33.2499 26.7459 32.9999 25.9074C32.7486 25.0641 32.1806 24.0189 31.2536 22.8408C29.4058 20.4925 26.3493 17.8923 22.5002 15.67Z" stroke="#DDFA69" stroke-width="3.33333"/>
</svg>
