<svg width="776" height="232" viewBox="0 0 776 232" fill="none" xmlns="http://www.w3.org/2000/svg">
<path d="M794.613 -76.9353C766.271 -65.9977 740.486 -49.3385 718.865 -27.9964C686.96 3.8839 686.458 25.2589 657.118 42.3951C628.604 59.0351 591.509 60.7898 562.531 50.6557C522.993 36.8196 523.774 9.65683 475.998 -38.1103C447.9 -66.1797 395.214 -118.87 327.249 -120.841C292.912 -121.834 257.514 -109.799 224.612 -98.622C184.283 -84.9211 177.867 -76.4985 156.615 -74.3891C131.37 -71.8757 93.4136 -79.074 42.5904 -128.302" stroke="#DDFA69" stroke-opacity="0.2" stroke-width="1.03189" stroke-miterlimit="10"/>
<path d="M794.894 -71.8965C769.384 -62.3467 745.85 -48.1843 725.466 -30.1166C723.514 -28.3628 721.557 -26.556 719.582 -24.6973C687.49 6.06628 686.669 26.4458 657.722 43.1243C645.101 50.427 631.154 55.1477 616.692 57.0118C606.334 58.3378 595.847 58.2956 585.5 56.8861C577.763 55.8279 570.17 53.9018 562.864 51.1442C554.711 48.1859 547.104 43.9003 540.35 38.4605C527.924 28.4148 519.778 15.6884 506.919 -0.535561C497.231 -12.7466 486.504 -24.0955 474.858 -34.455C468.697 -40.0088 461.518 -46.6793 453.145 -53.6128C430.748 -72.2072 401.784 -92.8575 365.568 -102.527C353.284 -105.867 340.662 -107.808 327.943 -108.313C325.995 -108.394 324.055 -108.421 322.138 -108.419C303.167 -108.42 284.794 -105.336 265.883 -100.708C251.741 -97.3079 238.228 -92.6672 224.857 -88.3747C219.252 -86.5324 214.239 -84.8473 209.703 -83.2499C182.304 -73.5627 174.86 -67.6648 156.676 -66.5311C142.859 -65.6714 125.296 -67.7603 103.706 -77.6749C86.0028 -85.793 65.42 -99.3215 41.8572 -120.681" stroke="#DDFA69" stroke-opacity="0.2" stroke-width="1.03189" stroke-miterlimit="10"/>
<path d="M795.114 -66.8376C769.901 -57.7135 746.554 -44.0845 726.212 -26.6146C724.263 -24.9276 722.309 -23.1964 720.35 -21.4209C688.004 8.23276 686.84 27.5876 658.308 43.8508C645.649 51.261 631.648 56.0938 617.113 58.0706C606.693 59.4059 596.141 59.3218 585.745 57.8207C578.005 56.6712 570.433 54.5885 563.193 51.6181C555.107 48.4083 547.557 43.9863 540.802 38.5041C527.871 28.1415 519.183 15.7512 506.388 0.524878C496.587 -11.0405 485.645 -21.5889 473.73 -30.9604C467.514 -35.9567 460.451 -42.0265 452.096 -48.1678C429.832 -64.5386 402.458 -82.1007 366.488 -90.4465C354.068 -93.3996 341.402 -95.1999 328.65 -95.8246C326.675 -95.9086 324.725 -95.9635 322.796 -95.976C303.52 -96.1539 285.666 -93.7156 266.452 -89.828C251.978 -86.8881 238.596 -82.3421 225.126 -78.1395C219.531 -76.4035 214.474 -74.8164 209.841 -73.3222C182.439 -64.4391 174.807 -59.0952 156.762 -58.6985C143.013 -58.395 125.631 -60.9754 103.931 -70.9945C86.2084 -79.1949 65.3263 -92.5379 41.1173 -113.036" stroke="#DDFA69" stroke-opacity="0.2" stroke-width="1.03189" stroke-miterlimit="10"/>
<path d="M795.47 -61.8447C770.495 -53.1353 747.287 -40.0116 726.952 -23.0985C725.012 -21.4642 723.056 -19.8046 721.109 -18.1039C688.483 10.424 687.04 28.7872 658.916 44.5806C645.598 52.0537 632.701 57.1157 617.566 59.1473C607.076 60.495 596.45 60.3683 585.996 58.7707C578.25 57.5262 570.699 55.2819 563.53 52.094C555.506 48.6343 548.002 44.075 541.234 38.5471C527.825 27.8703 518.606 15.8439 505.86 1.62724C495.937 -9.29904 484.769 -19.0271 472.585 -27.3587C466.249 -31.8039 459.356 -37.2678 451.031 -42.6157C428.793 -56.9072 403.12 -71.2768 367.4 -78.3256C354.841 -80.8863 342.115 -82.5437 329.32 -83.2849C327.333 -83.3835 325.317 -83.458 323.444 -83.4787C304.541 -83.7582 285.655 -82.217 267.047 -78.8764C252.245 -76.4106 238.973 -71.9074 225.358 -67.8663C219.772 -66.2098 214.685 -64.7328 209.941 -63.343C182.551 -55.2762 174.722 -50.5141 156.824 -50.8132C143.126 -51.0407 125.889 -54.1563 104.119 -64.276C86.3569 -72.4803 65.2281 -85.7668 40.3794 -105.469" stroke="#DDFA69" stroke-opacity="0.2" stroke-width="1.03189" stroke-miterlimit="10"/>
<path d="M795.766 -56.8198C771.064 -48.5166 748.022 -35.9155 727.704 -19.5971C725.769 -18.0159 723.807 -16.4372 721.88 -14.8016C689.035 12.6602 687.232 29.9031 659.519 45.3211C645.914 52.8601 633.412 58.1345 618.003 60.22C607.453 61.5851 596.76 61.4119 586.259 59.7059C578.485 58.3802 570.934 55.9762 563.825 52.5634C555.879 48.8772 548.427 44.2081 541.643 38.6658C527.756 27.6614 517.936 16.0324 505.305 2.71107C496.393 -6.67294 485.599 -15.1673 471.413 -23.7756C464.973 -27.695 458.183 -32.5727 449.927 -37.1101C427.588 -49.3882 403.741 -60.4727 368.336 -66.2181C355.659 -68.3959 342.877 -69.915 330.043 -70.7693C328.031 -70.8837 326.043 -70.969 324.132 -71.02C305.224 -71.6071 286.3 -70.5885 267.565 -67.9751C252.406 -65.9859 239.325 -61.5045 225.595 -57.6621C220.082 -56.0788 214.869 -54.681 210.031 -53.421C182.66 -46.1026 174.638 -41.9889 156.863 -42.9996C143.218 -43.7712 126.151 -47.393 104.295 -57.6013C86.5421 -65.8985 65.1285 -79.0116 39.6508 -97.8908" stroke="#DDFA69" stroke-opacity="0.2" stroke-width="1.03189" stroke-miterlimit="10"/>
<path d="M796.039 -51.7953C771.614 -43.8906 748.745 -31.8116 728.446 -16.0947C726.517 -14.5799 724.563 -13.0809 722.644 -11.5249C689.553 14.7474 687.422 31.0877 660.143 46.0386C646.248 53.6568 634.141 59.1435 618.472 61.2843C607.851 62.663 597.083 62.4425 586.527 60.6302C578.76 59.2223 571.245 56.666 564.23 53.0454C556.357 49.1197 548.952 44.3173 542.156 38.7295C527.776 27.4227 517.337 16.2296 504.847 3.80615C495.617 -5.34066 484.478 -12.9037 470.339 -20.1945C463.768 -23.5907 457.079 -27.8556 448.938 -31.6449C426.321 -42.0074 404.437 -49.713 369.285 -54.1879C357.069 -55.7457 343.562 -57.5223 330.763 -58.3192C328.726 -58.4494 326.766 -58.5454 324.817 -58.6268C305.934 -59.5194 287.011 -59.0228 268.2 -57.1409C252.713 -55.6257 239.728 -51.1752 225.862 -47.453C220.291 -45.9558 215.118 -44.7014 210.167 -43.5194C182.809 -36.8831 174.527 -33.1295 156.966 -35.1109C143.395 -36.6391 126.465 -40.5692 104.541 -50.9047C86.7861 -59.3226 65.0719 -72.237 38.9639 -90.2796" stroke="#DDFA69" stroke-opacity="0.2" stroke-width="1.03189" stroke-miterlimit="10"/>
<path d="M796.334 -46.7841C772.181 -39.2681 749.479 -27.7071 729.195 -12.5937C727.273 -11.1452 725.312 -9.71386 723.414 -8.23626C690.054 16.9382 687.609 32.2299 660.759 46.7667C646.617 54.4414 634.877 60.1513 618.921 62.358C608.25 63.7375 597.431 63.4718 586.841 61.5702C579.057 60.0693 571.557 57.3538 564.616 53.5234C556.834 49.3464 549.48 44.4162 542.661 38.8037C527.803 27.1694 516.698 16.3539 504.41 4.8879C494.854 -4.07608 483.35 -10.6295 469.285 -16.6134C462.556 -19.4889 455.127 -21.4944 447.959 -26.0604C423.594 -29.4508 405.276 -40.911 370.294 -42.02C357.937 -42.3989 344.282 -44.8598 331.548 -45.771C329.484 -45.9038 327.486 -46.0302 325.566 -46.1223C305.004 -47.1348 289.232 -47.5229 268.851 -46.2537C253.035 -45.2257 240.186 -40.7889 226.19 -37.2402C220.692 -35.8162 215.423 -34.665 210.361 -33.5875C183.068 -27.7621 174.6 -24.9912 157.103 -27.355C143.55 -29.2164 126.797 -33.8662 104.8 -44.2758C87.0187 -52.6962 65.0565 -65.5409 38.2916 -82.7494" stroke="#DDFA69" stroke-opacity="0.2" stroke-width="1.03189" stroke-miterlimit="10"/>
<path d="M796.624 -41.7588C772.746 -34.6319 750.213 -23.5979 729.942 -9.10517C728.012 -7.71106 726.059 -6.35936 724.182 -4.96011C690.489 19.0834 687.741 33.3544 661.318 47.4904C646.836 55.2259 635.543 61.1533 619.326 63.4285C608.562 64.8291 597.644 64.5093 586.98 62.4811C578.304 60.9042 571.377 57.5808 564.84 53.9735C557.142 49.5514 549.829 44.4917 542.978 38.8475C527.641 26.8988 515.811 16.5222 503.744 5.94855C493.867 -2.73841 481.95 -8.35364 468.07 -13.0603C461.142 -15.4058 453.799 -16.5052 446.809 -20.5582C422.163 -21.0416 405.683 -27.9562 371.134 -29.9476C358.742 -30.6516 344.846 -32.2916 332.156 -33.2388C330.085 -33.4392 328.059 -33.5416 326.154 -33.659C305.265 -34.8908 290.015 -35.9652 269.328 -35.2749C253.197 -34.7197 240.47 -30.3111 226.342 -26.9225C220.853 -25.5782 215.554 -24.5371 210.381 -23.564C183.091 -18.4619 174.43 -16.326 157.073 -19.4399C143.571 -21.8322 126.988 -26.9882 104.907 -37.4997C87.1123 -45.9215 64.8745 -58.6856 37.466 -75.0587" stroke="#DDFA69" stroke-opacity="0.2" stroke-width="1.03189" stroke-miterlimit="10"/>
<path d="M796.906 -36.7461C773.312 -29.9928 750.957 -19.4905 730.696 -5.64121C728.771 -4.3002 726.811 -3.01615 724.876 -1.71624C690.97 21.208 687.88 34.441 661.926 48.1668C647.156 55.9683 636.257 62.1213 619.768 64.4372C608.951 65.86 597.974 65.5033 587.272 63.3815C578.484 61.7134 571.697 58.1891 565.216 54.4132C557.213 49.7529 550.761 44.5729 543.471 38.9099C527.642 26.659 513.008 18.7978 503.255 7.0279C491.535 0.627813 481.07 -10.4339 466.923 -9.48554C459.56 -8.99254 452.517 -11.5234 445.73 -15.0476C420.791 -12.6386 406.256 -17.0872 372.031 -17.8549C359.544 -18.1392 345.415 -19.7214 332.839 -20.738C330.728 -20.9423 328.711 -21.1376 326.788 -21.2032C305.598 -22.6516 290.86 -24.4535 269.884 -24.3674C253.386 -24.3166 240.821 -19.9191 226.574 -16.6894C221.093 -15.4248 215.749 -14.4817 210.481 -13.6251C183.259 -9.22642 174.334 -7.82615 157.108 -11.5974C143.647 -14.5485 127.22 -20.2118 105.082 -30.8226C87.2681 -39.3266 64.8131 -51.9242 36.7079 -67.4671" stroke="#DDFA69" stroke-opacity="0.2" stroke-width="1.03189" stroke-miterlimit="10"/>
<path d="M797.188 -31.7358C773.862 -25.3388 751.676 -15.3451 731.429 -2.11459C729.51 -0.839954 727.563 0.311358 725.618 1.58343C691.353 23.3743 688.067 35.5835 662.513 48.906C647.444 56.7588 636.952 63.1388 620.201 65.5232C609.316 66.9506 598.27 66.5468 587.518 64.3287C578.618 62.5693 571.975 58.8045 565.534 54.8984C557.703 50.1208 551.351 44.7362 543.911 38.9648C527.605 26.373 512.102 19.1913 502.686 8.08384C490.486 2.2134 479.243 -8.28055 465.738 -5.9303C458.352 -4.649 451.206 -6.53328 444.65 -9.53938C419.417 -4.23807 406.812 -6.19533 372.926 -5.76451C360.347 -5.6425 346.101 -7.12882 333.507 -8.24084L327.441 -8.8281C305.926 -10.5091 291.67 -13.0012 270.433 -13.5432C253.594 -13.981 241.177 -9.58266 226.799 -6.52636C221.325 -5.34134 215.952 -4.50829 210.575 -3.76944C183.418 -0.0477668 174.242 0.631445 157.148 -3.82359C143.742 -7.33219 127.471 -13.5029 105.261 -24.2011C87.4402 -32.7727 64.65 -45.2286 35.9556 -59.9443" stroke="#DDFA69" stroke-opacity="0.2" stroke-width="1.03189" stroke-miterlimit="10"/>
<path d="M797.488 -26.7375C774.457 -20.6799 752.463 -11.2072 732.238 1.36536C730.318 2.51925 728.371 3.67057 726.437 4.82318C691.934 25.4789 688.293 36.6489 663.15 49.6091C647.782 57.5001 637.629 64.1139 620.671 66.5586C609.724 68.0119 598.608 67.5658 587.813 65.2399C578.787 63.3881 572.294 59.4636 565.913 55.3489C558.262 50.3744 551.988 44.8767 544.396 39.0103C527.598 26.1029 511.242 19.5754 502.242 9.15135C489.55 3.796 477.559 1.16138 464.678 -2.37676C457.026 -1.67053 450.021 -1.55817 443.643 -4.03802C418.125 4.21006 407.479 4.7068 373.91 6.29373C361.23 6.90173 346.779 5.59653 334.263 4.23745C332.113 4.02927 330.055 3.83009 328.157 3.64633C306.362 1.25498 292.611 -1.46962 271.058 -2.61836C253.864 -3.54601 241.609 0.841173 227.086 3.73604C221.621 4.82815 216.19 5.57514 210.772 6.17612C183.681 9.22083 174.308 9.15755 157.308 4.01485C143.941 -0.039264 127.84 -6.71612 105.532 -17.5175C87.7037 -26.1435 64.6857 -38.4607 35.3092 -52.3581" stroke="#DDFA69" stroke-opacity="0.2" stroke-width="1.03189" stroke-miterlimit="10"/>
<path d="M797.765 -21.7244C774.989 -16.0146 753.15 -7.0652 732.917 4.84994C731.01 6.00511 729.059 7.06224 727.133 8.1352C692.312 27.6348 688.395 37.7865 663.722 50.3234C648.051 58.2922 638.373 65.1261 621.088 67.6329C610.046 69.1067 598.83 68.6061 587.963 66.1545C578.773 64.2064 572.405 60.093 566.187 55.8199C558.645 50.6818 552.493 45.0351 544.783 39.0098C527.52 25.7894 510.282 19.9136 501.673 10.1704C488.5 5.34469 476.227 3.6876 463.494 1.11503C455.682 2.5025 448.713 3.35519 442.526 1.3896C416.731 12.4915 408.02 15.5604 374.782 18.3048C362.005 19.3589 347.375 18.1034 334.906 16.6685C332.729 16.4578 330.672 16.2586 328.761 16.0736C306.668 13.439 293.417 9.97236 271.571 8.24599C254.05 6.83106 241.928 11.2178 227.275 13.9393C221.817 14.965 216.399 15.566 210.787 16.1079C183.758 18.5022 174.085 17.6729 157.271 11.8515C143.958 7.23988 128.011 0.0688953 105.633 -10.8331C87.7967 -19.5135 64.4446 -31.7022 34.4776 -44.7591" stroke="#DDFA69" stroke-opacity="0.2" stroke-width="1.03189" stroke-miterlimit="10"/>
<path d="M798.055 -16.7264C775.549 -11.3433 753.884 -2.91057 733.662 8.33767C731.741 9.49156 729.804 10.4027 727.885 11.4093C692.735 29.7382 688.542 38.8717 664.319 51.0369C648.351 59.0438 639.079 66.1047 621.519 68.6787C610.436 70.1645 599.175 69.6237 588.285 67.0825C579.104 65.0414 572.716 60.7251 566.555 56.27C559.243 50.98 553.159 45.1791 545.251 39.1213C527.497 25.572 509.405 20.3638 501.173 11.2868C487.509 6.97617 475.014 6.22211 462.374 4.75726C454.417 6.81398 447.469 8.419 441.487 6.96894C415.398 20.9765 408.64 26.5658 375.718 30.4663C362.843 31.9799 348.054 30.5749 335.64 29.2659C333.436 29.0526 331.366 28.8521 329.454 28.6671C307.037 25.7867 294.241 22.1899 272.161 19.2886C254.353 16.9484 242.325 21.7595 227.537 24.3473C222.035 25.274 216.487 25.8997 210.916 26.2217C183.95 27.9789 174.03 26.3754 157.349 19.8702C144.076 14.6999 128.298 7.03604 105.85 -3.96658C87.9384 -12.7078 64.3731 -24.7698 33.7625 -36.9913" stroke="#DDFA69" stroke-opacity="0.2" stroke-width="1.03189" stroke-miterlimit="10"/>
<path d="M798.629 -14.5673C776.388 -9.48076 754.896 -1.54628 734.685 9.03974C732.778 10.0609 730.827 10.9707 728.902 11.8964C693.437 29.0559 688.941 37.1686 665.197 48.9514C648.927 57.023 640.062 64.3108 622.243 66.9401C611.092 68.4448 599.758 67.8609 588.82 65.2185C579.463 63.0665 573.238 58.5784 567.135 53.9414C560.048 48.4051 554.084 42.4686 545.984 36.3251C527.747 22.5013 508.779 17.8916 500.936 9.50876C486.793 5.71452 474.06 5.90204 461.521 5.46526C453.418 8.20451 446.505 10.5499 440.713 9.62734C414.331 26.5273 409.502 34.7419 376.941 39.6284C363.955 41.6002 348.989 40.2183 336.61 38.819L330.41 38.0981C307.617 35.4897 295.446 30.1579 273.024 27.1833C254.81 24.7502 242.994 29.1665 228.08 31.5411C222.526 32.3875 216.928 32.9147 211.313 33.1201C184.475 34.2465 174.244 31.8359 157.709 24.6615C144.477 18.9323 128.854 10.7744 106.334 -0.328881C88.4283 -9.12318 64.569 -21.0529 33.3147 -32.439" stroke="#DDFA69" stroke-opacity="0.2" stroke-width="1.03189" stroke-miterlimit="10"/>
<path d="M799.339 -13.6533C777.374 -8.9079 756.064 -1.52366 735.873 8.33859C733.957 9.30536 732.015 10.1355 730.097 10.9816C694.248 26.9919 689.523 34.1445 666.196 45.4988C649.614 53.6071 641.168 61.1365 623.074 63.833C611.853 65.3348 600.448 64.6854 589.469 61.9195C580.014 59.6643 573.882 55.0512 567.896 50.1843C560.947 44.5945 555.041 38.4759 546.857 32.2305C528.132 18.0514 508.307 14.1357 500.84 6.43241C486.205 3.15326 472.969 2.16668 460.795 4.88694C452.071 6.84258 445.648 11.4595 440.113 10.9236C413.45 30.7173 410.565 41.5584 378.324 47.5612C365.251 50.0203 350.083 48.6457 337.779 47.1731C335.522 46.9547 333.435 46.6455 331.542 46.4086C308.426 43.5543 296.778 37.5097 274.055 33.9164C255.514 30.9826 243.831 35.4118 228.79 37.5731C223.19 38.3569 217.545 38.786 211.891 38.8579C185.125 39.3751 174.638 36.1492 158.235 28.3042C145.058 22.0043 129.59 13.3522 106.999 2.16165C89.098 -6.68574 64.9444 -18.4831 33.0543 -29.1136" stroke="white" stroke-opacity="0.05" stroke-width="1.03189" stroke-miterlimit="10"/>
<path d="M799.994 -12.7748C778.294 -8.32945 757.159 -1.46832 736.985 7.68038C735.063 8.5795 733.114 9.32876 731.217 10.1097C695.058 24.8842 690.072 30.9934 667.204 42.0436C650.337 50.1914 642.296 57.961 623.863 60.705C612.577 62.2776 601.092 61.6209 590.059 58.7722C580.48 56.4113 574.464 51.5683 568.569 46.5896C561.782 40.8546 555.973 34.5579 547.571 28.2111C528.381 13.7189 507.687 10.4695 500.584 3.43112C485.488 0.629817 471.872 0.79888 459.949 4.3875C450.992 7.08432 444.687 12.2887 439.288 12.4225C412.344 35.1231 411.403 48.5775 379.475 55.6423C366.301 58.5873 350.986 57.2119 338.697 55.7141L332.426 54.8926C308.997 51.8071 297.862 45.0349 274.834 40.8494C255.941 37.3993 244.41 41.9235 229.229 43.8704C223.581 44.6027 217.889 44.9469 212.194 44.9008C185.512 44.8232 174.757 40.7675 158.486 32.252C145.363 25.3945 130.063 16.2497 107.388 4.95715C83.4223 -7.37285 58.4054 -17.5427 32.6342 -25.4317" stroke="white" stroke-opacity="0.05" stroke-width="1.03189" stroke-miterlimit="10"/>
<path d="M800.739 -12.4329C779.295 -8.25641 758.334 -1.89955 738.182 6.53866C736.253 7.37013 734.311 8.05301 732.421 8.75431C695.91 22.3291 690.667 27.4889 668.254 38.1277C651.062 46.311 643.454 54.3234 624.812 57.141C613.455 58.7184 601.897 57.9913 590.827 55.0031C581.151 52.539 575.232 47.5179 569.421 42.3598C562.809 36.481 557.097 30.0194 548.57 23.5801C528.888 8.77226 507.379 6.19423 500.614 -0.181696C485.02 -2.41482 471.085 -1.16458 459.362 3.26072C450.184 6.72656 443.974 12.61 438.781 13.2461C411.543 38.8391 412.559 54.9214 380.956 63.0493C367.681 66.4803 352.181 65.0869 339.956 63.488C337.667 63.1861 335.54 62.873 333.65 62.6096C309.856 59.2745 299.284 51.8065 275.979 47.0181C256.76 43.0674 245.367 47.5514 230.05 49.3779C224.353 50.0296 218.617 50.2624 212.886 50.0744C186.275 49.414 175.268 44.5032 159.127 35.3305C146.059 27.9023 130.913 18.2765 108.169 6.87011C83.988 -5.53478 58.5782 -15.3814 32.3526 -22.5096" stroke="white" stroke-opacity="0.05" stroke-width="1.03189" stroke-miterlimit="10"/>
<path d="M801.581 -13.1161C780.39 -9.21424 759.602 -3.37368 739.48 4.33197C737.557 5.09706 735.608 5.7123 733.724 6.34723C696.851 18.6811 691.307 22.8069 669.405 33.1468C651.901 41.3669 644.71 49.634 625.796 52.4924C614.375 54.0944 602.746 53.3243 591.636 50.2303C581.85 47.6484 576.029 42.4625 570.315 37.1262C563.86 31.1421 558.249 24.4759 549.57 17.9414C529.409 2.81933 507.008 0.878423 500.644 -4.80212C484.572 -6.51887 470.338 -4.11854 458.776 1.13959C449.413 5.40484 443.263 11.9105 438.261 13.0608C410.742 41.5607 413.729 60.2589 382.427 69.4342C369.077 73.367 353.374 71.9809 341.198 70.2929C338.897 69.9764 336.758 69.6488 334.869 69.3721C310.79 65.8083 300.732 57.5996 277.136 52.2203C257.578 47.7545 246.316 52.2646 230.895 53.9203C225.144 54.4955 219.357 54.6296 213.586 54.3213C187.043 53.0915 175.798 47.3135 159.788 37.4835C146.772 29.5244 131.771 19.3634 108.955 7.86965C84.6014 -4.65381 58.8352 -14.2147 32.2072 -20.6088" stroke="white" stroke-opacity="0.05" stroke-width="1.03189" stroke-miterlimit="10"/>
<path d="M802.412 -13.7986C781.473 -10.1473 760.862 -4.81702 740.778 2.14057C738.848 2.83801 736.909 3.36033 735.032 3.92889C697.779 15.0604 692.116 18.1966 670.558 28.1679C652.757 36.4128 645.97 44.9335 626.796 47.8603C615.305 49.495 603.599 48.6768 592.447 45.4595C582.554 42.7466 576.826 37.4223 571.198 31.8934C564.909 25.7243 559.403 18.9343 550.572 12.3048C529.916 -3.09303 506.639 -4.43536 500.679 -9.43379C486.008 -10.6781 471.285 -7.75153 458.206 -0.991502C448.671 4.08772 442.556 11.1997 437.758 12.8788C409.946 44.2711 414.915 65.5997 383.9 75.8211C370.473 80.269 354.574 78.837 342.456 77.1011C340.117 76.7675 337.979 76.4266 336.08 76.1221C311.704 72.2885 302.109 63.4547 278.228 57.4181C258.357 52.453 247.201 56.9734 231.65 58.4557C226.241 58.9637 220.624 58.5807 214.223 58.5505C187.679 58.4327 176.252 50.1182 160.373 39.6177C147.416 31.0479 132.566 20.4459 109.679 8.85153C85.1265 -3.79207 58.988 -13.082 31.9636 -18.7693" stroke="white" stroke-opacity="0.05" stroke-width="1.03189" stroke-miterlimit="10"/>
<path d="M803.257 -14.4811C782.56 -11.0742 762.119 -6.25779 742.079 -0.0654075C740.143 0.55111 738.209 1.02034 736.326 1.50797C698.75 11.2684 692.753 13.5684 671.711 23.1877C653.586 31.4682 647.284 40.2367 627.782 43.2256C616.204 44.8876 604.403 44.0194 593.193 40.681C583.205 37.8383 577.572 32.3625 572.028 26.6541C565.94 20.3437 560.504 13.3864 551.522 6.66182C530.379 -9.10475 506.22 -9.78215 500.659 -14.0586C485.538 -14.7261 470.558 -10.8934 457.616 -3.04554C447.949 2.83825 441.842 10.5672 437.248 12.7619C409.142 47.0466 416.108 71.0069 385.379 82.2876C371.863 87.2361 355.78 85.7728 343.682 83.9718C341.33 83.6236 339.169 83.2536 337.282 82.9504C312.584 78.8578 303.518 69.2579 279.328 62.6823C259.105 57.2008 248.144 61.7803 232.398 63.0561C226.541 63.3008 220.676 63.2338 214.826 62.8555C188.312 62.017 176.685 52.9866 160.924 41.8275C148.036 32.6883 133.326 21.6042 110.421 9.91429C85.6862 -2.82659 59.1917 -11.8127 31.8094 -16.7482" stroke="white" stroke-opacity="0.05" stroke-width="1.03189" stroke-miterlimit="10"/>
<path d="M804.098 -15.1635C783.632 -11.9885 763.356 -7.68943 743.363 -2.28581C741.434 -1.73566 739.505 -1.31953 737.631 -0.924813C699.691 7.62127 693.442 8.91887 672.803 18.2556C654.426 26.4983 648.541 35.535 628.778 38.5791C617.149 40.2759 605.288 39.3656 594.054 35.9141C583.958 32.9404 578.407 27.3117 572.974 21.4266C567.006 14.9804 561.708 7.84881 552.561 1.02791C530.952 -15.0517 505.883 -15.0402 500.747 -18.7262C485.134 -18.8513 469.866 -14.1423 457.036 -5.24545C447.262 1.472 441.151 9.79015 436.749 12.4991C408.361 49.6907 417.315 76.3623 386.855 88.6069C373.263 94.0705 356.995 92.576 344.956 90.7138C342.579 90.3497 340.406 89.9652 338.522 89.6354C313.487 85.2824 304.958 74.9842 280.463 67.8164C259.903 61.8065 249.084 66.4399 233.235 67.5316C227.329 67.7271 221.417 67.5619 215.531 67.0369C189.046 65.4778 177.221 55.7314 161.592 43.9018C148.744 34.2038 134.176 22.6242 111.195 10.8868C86.2626 -1.96553 59.3991 -10.6621 31.6645 -14.8598" stroke="white" stroke-opacity="0.05" stroke-width="1.03189" stroke-miterlimit="10"/>
<path d="M804.91 -15.8475C781.613 -12.2747 760.642 -8.36957 744.643 -4.4788C742.694 -3.99758 740.774 -3.67437 738.917 -3.31819C700.609 3.90607 694.113 4.29548 674.001 13.174C655.256 21.4883 649.734 30.7746 629.751 33.8911C618.056 35.6158 606.122 34.6575 594.852 31.0886C584.65 27.9706 579.178 22.2156 573.844 16.1391C568.051 9.54906 562.849 2.25259 553.55 -4.66337C531.449 -21.0585 505.5 -20.3954 500.761 -23.3462C484.667 -22.9131 469.134 -17.3361 456.44 -7.43252C446.571 0.119894 439.91 8.45173 436.218 12.2612C401.971 47.7064 418.522 81.7054 388.315 94.9391C374.658 100.932 358.167 99.3895 346.187 97.466C343.786 97.0862 341.615 96.675 339.719 96.3307C314.4 91.7225 306.394 80.7247 281.581 72.9766C260.683 66.4383 250.008 71.1125 234.018 72.0029C228.061 72.3054 222.088 72.0457 216.18 71.2273C189.865 67.7687 177.702 58.4719 162.189 45.9971C149.411 35.7163 135.01 23.6572 111.91 11.7742C86.763 -1.18574 59.5228 -9.59702 31.4472 -13.0712" stroke="white" stroke-opacity="0.05" stroke-width="1.03189" stroke-miterlimit="10"/>
<path d="M805.765 -16.5283C782.232 -13.1525 761.449 -9.80526 745.953 -6.68306C743.999 -6.28277 742.085 -6.02593 740.235 -5.73611C701.532 0.163752 694.815 -0.339182 675.16 8.23539C656.092 16.5719 650.998 26.1408 630.755 29.3125C618.985 31.0675 606.968 30.0602 595.655 26.3701C585.361 23.0958 579.981 17.2157 574.747 10.9478C569.102 4.21134 564.062 -3.24355 554.559 -10.2597C531.981 -26.9825 505.229 -25.6466 500.788 -27.9389C482.293 -27.0498 467.038 -18.9336 455.862 -9.51137C445.924 -1.09488 439.273 7.94816 435.721 12.1194C402.092 51.5635 419.749 87.1434 389.806 101.381C376.086 107.89 359.372 106.299 347.452 104.314C345.026 103.905 342.829 103.492 340.947 103.135C315.307 98.2549 307.813 86.5296 282.706 78.2172C261.483 71.1651 250.95 75.8932 234.832 76.5837C228.821 76.8134 222.802 76.4507 216.863 75.5006C190.585 71.5231 178.202 61.3207 162.807 48.174C150.098 37.3237 135.837 24.7825 112.639 12.7963C94.6602 3.5126 68.2607 -7.22939 31.2471 -11.161" stroke="white" stroke-opacity="0.05" stroke-width="1.03189" stroke-miterlimit="10"/>
<path d="M806.61 -17.2119C782.852 -13.992 762.263 -11.269 747.253 -8.87684C745.295 -8.57076 743.387 -8.38028 741.537 -8.09047C702.529 -3.6002 695.509 -4.98991 676.315 3.25412C657.121 11.4981 652.26 21.4379 631.743 24.6635C619.908 26.4615 607.815 25.4102 596.468 21.5969C586.083 18.153 580.767 12.1719 575.63 5.72583C570.145 -1.14247 565.163 -8.77934 555.561 -15.8854C532.485 -32.8574 504.873 -30.935 500.822 -32.5464C481.834 -31.1422 466.457 -21.9123 455.28 -11.6329C445.293 -2.44392 438.701 7.38185 435.224 11.882C402.366 55.2594 421.001 92.5016 391.285 107.712C377.513 114.766 360.59 113.114 348.703 111.066C346.265 110.642 344.057 110.201 342.124 109.826C316.179 104.635 309.189 92.2749 283.792 83.3583C262.23 75.791 251.826 80.5718 235.58 81.0623C229.515 81.2234 223.449 80.7619 217.478 79.6851C191.239 75.1753 178.661 64.0699 163.371 50.2633C150.73 38.8436 136.61 25.8202 113.315 13.7308C95.3144 4.39146 68.6486 -6.22892 30.9888 -9.29865" stroke="white" stroke-opacity="0.05" stroke-width="1.03189" stroke-miterlimit="10"/>
<path d="M807.444 -17.8934C783.476 -14.8546 763.079 -12.7294 748.554 -11.054C746.589 -10.8288 744.687 -10.6915 742.851 -10.5477C703.502 -7.37665 696.204 -9.6373 677.47 -1.71054C657.759 6.61739 653.536 16.7395 632.745 20.0324C620.84 21.8749 608.665 20.7744 597.282 16.827C586.808 13.2003 581.555 7.11819 576.514 0.507247C571.192 -6.51947 566.319 -14.3066 556.553 -21.5223C533.018 -38.8737 504.507 -38.1905 500.858 -37.1638C482.019 -31.9 465.895 -24.913 454.699 -13.751C444.673 -3.74852 438.065 6.79917 434.704 11.766C402.733 58.9809 422.256 97.997 392.754 114.18C378.93 121.764 361.786 120.038 349.958 117.941C347.482 117.501 345.275 117.046 343.383 116.662C317.11 111.251 310.662 98.1399 284.96 88.6311C263.074 80.5367 252.811 85.3847 236.424 85.674C230.304 85.7643 224.191 85.204 218.19 84.0026C191.988 78.9739 179.204 66.9508 164.044 52.487C151.453 40.5496 137.48 26.9777 114.101 14.7865C96.0926 5.3927 69.1313 -5.08213 30.8425 -7.32849" stroke="white" stroke-opacity="0.05" stroke-width="1.03189" stroke-miterlimit="10"/>
<path d="M808.283 -18.5759C784.085 -15.6531 763.903 -14.2306 749.851 -13.2865C747.882 -13.1556 745.985 -13.0713 744.142 -12.9951C704.469 -11.1819 696.878 -14.2882 678.619 -6.704C658.515 1.66631 654.832 12.0283 633.731 15.3447C621.754 17.2188 609.499 16.0692 598.08 12.0005C587.544 8.18031 582.339 2.02239 577.406 -4.73884C572.235 -11.9385 567.469 -19.8627 557.55 -27.1602C533.523 -44.8272 504.189 -41.8656 500.886 -41.7968C480.746 -41.3484 465.338 -27.9279 454.163 -15.8795C446.578 -7.45395 439.903 1.74835 434.249 11.5746C403.189 62.5353 423.562 103.416 394.221 120.565C380.359 128.682 362.978 126.919 351.197 124.747C348.709 124.292 346.478 123.808 344.627 123.414C318.063 117.694 312.124 103.895 286.101 93.8327C263.905 85.1993 253.752 90.1518 237.239 90.2145C231.064 90.2335 224.905 89.5699 218.874 88.2357C192.696 82.6867 179.75 69.7101 164.677 54.625C152.176 42.0397 138.335 28.0654 114.845 15.7829C96.8146 6.33346 69.6002 -4.01849 30.6545 -5.43076" stroke="white" stroke-opacity="0.05" stroke-width="1.03189" stroke-miterlimit="10"/>
<path d="M809.129 -19.2588C784.753 -16.5809 764.75 -15.7574 751.152 -15.4928C706.157 -14.6235 698.38 -19.2619 679.773 -11.6846C659.408 -3.37977 656.053 7.33546 634.727 10.7508C622.68 12.669 610.343 11.4746 598.888 7.28116C577.206 -0.981032 578.268 -18.3225 558.554 -32.7985C534.049 -50.793 503.83 -46.8454 500.921 -46.4169C462.165 -40.7902 440.487 -0.939279 433.693 11.3858C403.582 65.9754 424.796 108.826 395.709 126.952C378.828 137.47 356.475 132.532 345.825 130.161C318.949 124.21 313.521 109.697 287.208 99.0302C257.557 86.9954 249.563 99.4052 219.511 92.4765C171.577 81.3646 167.328 44.0147 115.636 16.7695C97.5976 7.2657 70.1024 -2.95266 30.5131 -3.52957" stroke="white" stroke-opacity="0.05" stroke-width="1.03189" stroke-miterlimit="10"/>
<path d="M808.254 -17.6677C784.303 -14.9487 764.609 -13.8542 751.003 -13.51C707.161 -12.2343 699.055 -16.6633 680.554 -9.06236C660.556 -0.815787 656.992 9.55775 636.181 13.063C624.381 14.9888 612.289 13.9746 600.975 10.1102C579.496 2.79219 580.278 -14.1477 560.837 -28.1149C536.833 -45.4715 507.561 -42.0483 504.19 -41.8253C472.656 -39.8003 452.571 -10.8621 442.561 4.64859C440.513 7.81324 438.988 10.5596 437.779 12.5326C407.337 64.0221 427.391 105.166 398.814 122.175C381.756 132.301 359.235 127.16 348.128 124.812C337.946 122.686 328.273 118.61 319.64 112.809C310.799 107.25 302.614 101.152 288.656 96.2774C284.378 94.7914 280.532 93.8296 277.077 92.9859C256.136 87.8637 247.215 94.6235 222.064 87.5931C212.331 84.8965 203.128 80.5669 194.845 74.7889C172.357 59.2137 159.804 33.8818 124.684 12.8767C122.624 11.6412 120.465 10.4228 118.205 9.2215C100.013 -0.498116 72.1279 -11.116 31.9619 -11.9631" stroke="white" stroke-opacity="0.05" stroke-width="1.03189" stroke-miterlimit="10"/>
<path d="M807.373 -16.0796C783.9 -13.3144 764.473 -12.0733 750.836 -11.5446C708.175 -9.87318 699.778 -14.0624 681.327 -6.42982C661.695 1.63778 657.915 11.8966 637.683 15.3641C626.12 17.3046 614.262 16.478 603.081 12.9522C581.852 6.51579 582.276 -9.90939 563.128 -23.4463C539.602 -40.0732 511.244 -38.1962 507.48 -37.2342C477.76 -29.7279 456.875 -8.30308 446.704 6.24075C444.636 9.20243 443.148 11.8319 441.965 13.6735C411.228 62.1331 430.036 101.469 401.992 117.404C384.838 127.132 362.082 121.793 350.518 119.455C340.25 117.386 330.417 113.556 321.455 108.133C312.425 103.012 304.039 97.6045 290.176 93.5426C285.865 92.2678 281.967 91.5688 278.511 90.7252C257.636 85.6093 249.228 90.811 224.704 82.7025C215.136 79.4998 206.131 74.812 198.02 68.8111C176.421 53.322 163.205 27.0819 127.398 5.42083C125.309 4.17345 123.126 2.91709 120.847 1.67826C102.516 -8.25588 74.2404 -19.2733 33.4856 -20.4051" stroke="white" stroke-opacity="0.05" stroke-width="1.03189" stroke-miterlimit="10"/>
<path d="M806.499 -14.4885C783.505 -11.6903 764.352 -10.2352 750.709 -9.50602C709.22 -7.48006 700.501 -11.3923 682.13 -3.75196C662.871 4.19105 658.872 14.2276 639.12 17.7149C627.802 19.6525 616.192 18.9867 605.17 15.768C584.273 10.1944 584.273 -5.72257 565.412 -18.7761C542.371 -34.7264 515.009 -33.865 510.753 -32.6692C487.06 -25.7357 466.118 -11.5866 450.844 7.80801C448.754 10.5667 447.292 13.078 446.147 14.8027C415.15 60.1289 432.672 97.7992 405.201 112.664C387.897 122.002 364.948 116.445 352.925 114.142C342.569 112.11 332.581 108.518 323.302 103.49C314.055 98.8028 305.453 94.0981 291.729 90.8267C287.355 89.7869 283.419 89.3388 279.963 88.4952C259.116 83.3686 251.283 87.0584 227.402 77.8464C218.017 74.1272 209.211 69.088 201.25 62.8813C180.55 47.3853 166.592 20.3633 130.184 -1.99913C128.083 -3.27434 125.876 -4.55541 123.562 -5.84234C105.089 -15.9777 76.4103 -27.3959 35.0787 -28.798" stroke="white" stroke-opacity="0.05" stroke-width="1.03189" stroke-miterlimit="10"/>
<path d="M805.617 -12.9116C783.1 -10.0539 764.209 -8.39918 750.525 -7.5266C710.207 -5.14605 701.154 -8.78252 682.914 -1.11608C664.041 6.7169 659.771 16.4995 640.605 20.0301C629.517 22.0055 618.132 21.5434 607.241 18.6758C586.565 13.9945 586.251 -1.44371 567.667 -14.0283C545.12 -29.4083 518.798 -26.7044 514.013 -28.0653C485.39 -25.1153 465.458 -3.2901 454.957 9.41293C452.848 11.9554 451.425 14.3365 450.224 15.9486C418.937 58.1786 435.183 94.0907 408.3 107.861C390.82 116.806 367.716 111.046 355.224 108.751C344.77 106.76 334.622 103.408 325.038 98.7818C315.562 94.5283 306.783 90.5432 293.158 88.0451C288.736 87.2284 284.761 87.0446 281.279 86.1984C260.458 81.0744 253.205 83.1992 229.882 72.9292C220.001 68.5695 212.093 62.927 204.266 56.8636C184.43 41.4247 169.825 13.4824 132.739 -9.49492C130.632 -10.7975 128.401 -12.1077 126.046 -13.4255C107.421 -23.79 78.352 -35.6076 36.4437 -37.2799" stroke="white" stroke-opacity="0.05" stroke-width="1.03189" stroke-miterlimit="10"/>
<path d="M804.757 -11.3201C782.758 -8.42547 764.09 -6.57509 750.332 -5.6293C711.214 -2.90487 701.885 -6.19282 683.65 1.42053C665.161 9.17002 660.715 18.6944 642.016 22.2434C631.179 24.2416 620.045 23.9577 609.325 21.4098C588.98 17.4574 588.242 2.6614 569.946 -9.43979C547.884 -24.0224 522.551 -21.6919 517.26 -23.5037C489.523 -20.9904 469.762 -0.796605 459.07 10.9768C456.941 13.3164 455.542 15.5793 454.326 17.0693C422.766 56.1778 437.693 90.3412 411.421 103.058C393.765 111.612 370.495 105.634 357.556 103.377C344.38 101.083 335.288 97.4295 326.796 94.0885C317.09 90.2683 308.199 85.2274 294.623 85.2663C290.607 85.3099 286.601 84.8545 282.696 83.9106C261.889 78.7879 255.236 79.4167 232.492 68.0103C222.972 63.2434 215.25 57.2036 207.358 50.8392C188.384 35.497 173.127 6.67442 135.385 -16.9962C133.254 -18.3279 130.999 -19.6717 128.621 -21.0274C109.855 -31.5931 80.3956 -43.8103 37.8986 -45.7674" stroke="white" stroke-opacity="0.05" stroke-width="1.03189" stroke-miterlimit="10"/>
<path d="M803.876 -9.71912C782.302 -6.78339 763.949 -4.72834 750.23 -3.63139C712.248 -0.609339 702.581 -3.58172 684.423 4.06588C666.265 11.7135 661.632 20.9651 643.475 24.5801C627.656 27.7245 614.943 25.4889 611.35 24.2702C592.194 17.7264 590.19 6.8808 572.168 -4.73824C550.604 -18.6431 526.227 -16.6486 520.469 -18.8942C493.631 -16.8031 474.059 1.70757 463.133 12.5741C460.997 14.712 459.623 16.8567 458.404 18.2393C426.57 54.2263 440.144 86.5972 414.477 98.3144C396.618 106.473 373.221 100.283 359.812 98.0465C346.402 95.8105 337.18 92.3988 328.491 89.4273C318.569 86.0417 309.307 81.5142 296.023 82.546C292.011 82.8935 287.969 82.5972 284.05 81.6683C263.269 76.5481 257.204 75.6796 235.05 63.1513C225.878 57.9759 218.382 51.5293 210.501 44.9247C192.366 29.771 176.455 -0.0394326 138.069 -24.402C135.923 -25.762 133.644 -27.1349 131.233 -28.5206C112.313 -39.3021 82.4646 -51.9188 39.3921 -54.1593" stroke="white" stroke-opacity="0.05" stroke-width="1.03189" stroke-miterlimit="10"/>
<path d="M803.005 -8.16626C781.905 -5.14446 763.826 -2.8753 750.085 -1.68672C713.282 1.61027 703.286 -1.00544 685.208 6.64987C667.463 14.1767 662.569 23.2156 644.932 26.8673C629.537 30.0529 617.141 28.2768 613.491 27.0927C594.684 20.9579 592.265 11.077 574.505 -0.0612217C553.439 -13.3015 530.07 -11.6114 523.796 -14.349C497.845 -12.6946 478.512 4.04377 467.327 14.1216C465.66 15.7759 464.078 17.5144 462.589 19.3303C430.507 52.1984 442.688 82.7597 417.706 93.4981C399.632 101.248 376.11 94.8304 362.24 92.6436C348.9 90.5215 339.257 87.2969 330.357 84.7069C320.206 81.7546 310.564 77.8334 297.596 79.7533C293.575 80.4121 289.465 80.2781 285.495 79.359C264.729 74.2269 259.262 71.8888 237.688 58.2109C228.85 52.6257 221.606 45.8015 213.686 38.8984C196.388 23.8256 179.823 -6.85189 140.795 -31.9064C138.634 -33.2947 136.331 -34.6967 133.887 -36.1123C114.854 -47.1058 84.5883 -60.1246 40.9257 -62.6366" stroke="white" stroke-opacity="0.05" stroke-width="1.03189" stroke-miterlimit="10"/>
<path d="M802.131 -6.6051C781.511 -3.56358 763.711 -1.13341 749.923 0.264975C714.311 3.86474 703.986 1.59241 685.921 9.24901C668.549 16.6646 663.439 25.4413 646.335 29.118C631.286 32.337 619.274 31.0267 615.514 29.8722C597.039 24.1848 594.155 15.2236 576.725 4.55945C556.155 -8.00298 533.715 -6.6383 526.999 -9.78057C501.947 -8.56157 482.866 6.53985 471.386 15.6512C469.72 17.1555 468.139 18.7514 466.65 20.4313C434.295 50.1647 445.087 78.8899 420.786 88.6761C402.496 96.0295 378.859 89.4136 364.532 87.2495C351.064 85.1954 341.173 82.1879 332.075 79.9807C321.255 77.4111 310.126 76.3922 299.02 76.9548C294.29 77.0998 290.247 77.8875 286.825 77.1141C266.087 71.9713 261.215 68.1902 240.223 53.3494C231.771 47.3729 224.715 40.1247 216.741 32.9485C200.243 18.0603 183.076 -13.5999 143.352 -39.3516C141.183 -40.754 138.844 -42.1996 136.36 -43.6594C117.163 -54.8965 86.4912 -68.2896 42.2917 -71.068" stroke="white" stroke-opacity="0.05" stroke-width="1.03189" stroke-miterlimit="10"/>
<path d="M801.122 -4.39597C780.982 -1.32146 763.441 1.33481 749.641 2.85266C715.262 6.71923 704.61 4.79029 686.7 12.5021C669.688 19.8051 664.374 28.3343 647.789 32.0478C633.217 35.3131 621.484 34.4452 617.612 33.3334C599.439 28.1308 596.189 20.0452 578.994 9.85935C558.935 -2.02396 537.451 -0.982095 530.267 -4.55813C506.075 -3.77842 487.363 9.59014 475.518 17.9025C473.853 19.2544 472.267 20.7025 470.771 22.2394C438.25 48.8483 447.52 75.7113 423.927 84.5611C405.394 91.5159 381.669 84.7038 366.87 82.5611C353.301 80.591 343.147 77.7992 333.851 75.9748C323.254 73.8905 313.2 73.8147 300.463 74.8728C295.64 75.2768 291.59 76.2915 288.187 75.453C267.476 70.3127 263.185 65.0874 242.777 49.0571C234.685 42.6867 227.855 35.045 219.843 27.5703C204.128 12.892 186.36 -19.751 146.047 -46.2027C143.856 -47.6475 141.505 -49.1077 138.984 -50.6112C119.643 -62.023 88.6243 -75.8383 43.7962 -78.9053" stroke="white" stroke-opacity="0.05" stroke-width="1.03189" stroke-miterlimit="10"/>
<path d="M799.917 1.28686C780.254 4.40763 762.993 7.22491 749.162 8.9273C715.899 13.0358 704.912 11.5167 687.088 19.1698C670.448 26.3615 664.916 34.6552 648.851 38.3923C634.704 41.6987 623.303 41.2782 619.307 40.208C601.432 35.5166 597.805 28.2789 580.885 18.5751C561.343 7.30457 540.807 8.10325 533.145 4.06561C509.871 4.4921 492.577 18.306 479.248 23.5406C477.388 25.1826 475.786 26.5013 474.518 27.4236C441.792 50.8909 449.538 75.9182 426.678 83.8341C407.892 90.3624 384.078 83.3543 368.821 81.2475C355.15 79.3612 344.734 76.7853 335.243 75.3172C324.417 73.6661 314.091 74.4485 301.6 76.1466C296.686 76.8097 292.627 78.0513 289.239 77.2008C268.541 72.0618 264.839 65.4599 245.034 48.1884C237.285 41.4493 230.682 33.4009 222.633 25.6144C207.687 11.1579 189.334 -22.493 148.377 -49.6367C146.169 -51.0921 143.791 -52.5907 141.243 -54.1325C121.742 -65.6938 90.2931 -79.9124 44.923 -83.1927" stroke="white" stroke-opacity="0.05" stroke-width="1.03189" stroke-miterlimit="10"/>
<path d="M798.744 6.39962C779.52 9.56279 762.536 12.5543 748.677 14.4147C716.583 18.7571 705.207 17.6558 687.525 25.3762C671.258 32.4433 665.508 40.5015 649.975 44.2767C636.254 47.6109 625.19 47.5848 621.051 46.608C603.459 42.4531 599.47 36.0512 582.772 26.8244C563.696 16.269 544.161 16.6956 536.019 12.2229C513.651 12.1476 496.651 24.5832 482.989 28.6869C481.479 29.9272 479.896 31.0759 478.248 32.1268C445.355 52.4828 451.55 75.5378 429.427 82.6274C410.374 88.7279 386.499 81.5263 370.781 79.4687C356.996 77.6518 346.318 75.2917 336.64 74.2342C325.584 73.0164 314.972 74.6821 302.69 76.99C297.696 77.9267 293.616 79.3807 290.235 78.4638C269.577 73.3154 266.443 65.2813 247.235 46.8215C239.884 39.7189 233.453 31.2719 225.407 23.1776C211.228 8.96944 192.304 -25.7147 150.706 -53.5637C148.498 -55.1172 146.081 -56.5839 143.499 -58.1468C123.867 -70.0023 92.0622 -84.5635 46.0725 -88.2253" stroke="white" stroke-opacity="0.05" stroke-width="1.03189" stroke-miterlimit="10"/>
<path d="M797.495 11.5036C778.761 14.7143 762.042 17.8789 748.178 19.9264C717.258 24.4628 705.628 23.779 687.957 31.5139C672.063 38.4697 666.094 46.2924 651.082 50.0912C637.759 53.4639 627.156 52.826 622.789 52.9526C605.119 53.4927 601.131 43.7548 584.759 35.0286C566.217 25.1947 547.614 25.2561 538.993 20.3351C517.512 19.8231 500.837 30.8298 486.777 33.7962C485.266 34.9005 483.683 35.902 482.039 36.7942C448.992 54.0271 453.609 75.1205 432.17 81.3653C412.864 87.026 388.912 79.6561 372.723 77.6199C358.823 75.8857 347.895 73.7559 338.02 73.0679C326.735 72.2835 315.86 74.8616 303.773 77.7913C298.685 79.0003 294.613 80.6559 291.224 79.8187C270.581 74.6583 268.01 65.2317 249.43 45.5465C242.369 38.0701 236.206 29.2202 228.096 20.8116C214.708 6.86767 195.177 -28.8668 152.942 -57.4742C150.702 -58.9772 148.278 -60.5517 145.668 -62.1977C125.895 -74.2677 93.6929 -89.2828 47.1225 -93.175" stroke="white" stroke-opacity="0.05" stroke-width="1.03189" stroke-miterlimit="10"/>
<path d="M796.276 16.6246C778.015 19.9347 761.594 23.2084 747.686 25.4259C717.94 30.1563 705.986 29.9101 688.393 37.666C672.874 44.4972 666.691 52.0313 652.2 55.9877C639.289 59.4003 629.014 59.1023 624.539 59.3792C607.265 60.3865 602.803 51.5405 586.692 43.2952C568.668 34.0607 551 33.8776 541.914 28.5096C521.331 27.5754 504.905 37.1191 490.604 38.9769C489.092 39.9482 487.509 40.8027 485.868 41.533C452.693 55.6585 455.652 74.7826 435.07 80.1993C415.449 85.3874 391.472 77.8543 374.836 75.8686C360.822 74.2038 349.631 72.3031 339.558 71.9978C328.043 71.6467 316.904 75.1639 305.021 78.6091C299.85 80.1182 295.759 81.973 292.384 81.1238C271.768 75.966 269.733 65.1576 251.742 44.2298C245.025 36.3848 239.087 27.1413 230.956 18.4091C218.239 4.73106 198.219 -32.0555 155.332 -61.2619C153.079 -62.8109 150.628 -64.388 147.979 -65.9932C128.052 -78.2657 95.4722 -93.679 48.3119 -97.8427" stroke="#DDFA69" stroke-opacity="0.2" stroke-width="1.03189" stroke-miterlimit="10"/>
<path d="M795.058 21.7319C777.321 25.0257 761.133 28.523 747.194 30.9251C718.584 35.819 706.342 36.0541 688.831 43.8045C673.67 50.523 667.276 57.8893 653.312 61.8029C640.825 65.2566 630.88 65.2986 626.283 65.7245C609.413 67.2666 604.47 59.2316 588.633 51.4817C571.121 42.9131 554.407 42.4205 544.841 36.6041C525.145 35.2332 509.085 43.3519 494.384 44.0724C492.869 44.9054 491.286 45.6083 489.652 46.1733C456.424 57.2523 457.672 74.2547 437.873 78.9298C418.073 83.6049 393.941 76.0166 376.836 74.0258C362.722 72.4315 351.269 70.7466 340.972 70.8216C329.24 70.9051 317.843 75.2816 306.139 79.3738C300.886 81.1831 296.778 83.2104 293.415 82.3758C272.827 77.2073 271.311 65.0425 254.019 42.8558C247.618 34.6529 241.905 25.0159 233.753 15.9466C221.756 2.57953 201.198 -35.2908 157.688 -65.2543C155.427 -66.8129 152.941 -68.3934 150.267 -70.1127C130.231 -82.6503 97.2486 -98.4644 49.5063 -102.845" stroke="#DDFA69" stroke-opacity="0.2" stroke-width="1.03189" stroke-miterlimit="10"/>
<path d="M793.838 26.8265C776.539 30.1627 760.657 33.8235 746.688 36.3969C719.294 41.4622 706.699 42.1588 689.266 49.9302C674.478 56.5374 667.84 63.6523 654.44 67.5535C642.352 71.0457 632.735 71.4278 628.03 72.0039C611.557 74.0132 606.152 66.8713 590.564 59.601C573.577 51.6863 557.816 50.9107 547.797 44.6485C529.002 42.8289 513.254 49.5175 498.208 49.1059C496.678 49.7995 495.091 50.3586 493.464 50.7769C460.047 58.823 459.68 73.6862 440.674 77.6343C420.453 81.8263 396.419 74.0466 378.836 72.1568C364.622 70.62 352.906 69.1641 342.437 69.6245C330.476 70.1413 318.835 75.5258 307.311 80.1044C301.97 82.2669 297.862 84.4283 294.501 83.5803C273.925 78.4264 272.93 64.8918 256.296 41.4425C250.224 32.8828 244.693 22.9016 236.577 13.4474C225.274 0.388634 204.205 -38.5629 160.053 -69.2316C157.768 -70.8194 155.271 -72.4724 152.561 -74.1907C132.351 -86.8657 98.9794 -103.093 50.6535 -107.811" stroke="#DDFA69" stroke-opacity="0.2" stroke-width="1.03189" stroke-miterlimit="10"/>
<path d="M792.619 31.9606C775.798 35.3431 760.196 39.1517 746.195 41.9228C719.966 47.1278 707.043 48.3151 689.7 56.122C675.287 62.5914 668.456 69.4866 655.549 73.4088C647.116 75.8082 638.491 77.4746 629.771 78.3894C613.696 80.8526 607.83 74.6038 592.502 67.8277C576.042 60.5668 561.159 59.4341 550.696 52.7806C532.797 50.5521 517.352 55.7827 501.958 54.2522C500.419 54.8028 498.832 55.2098 497.218 55.4681C463.8 60.4861 461.662 73.1547 443.476 76.3916C422.931 80.0433 398.848 72.4999 380.85 70.3288C366.547 68.6091 354.554 67.6491 343.876 68.4777C331.726 69.4317 319.803 75.7804 308.456 80.8852C303.05 83.3094 298.907 85.6951 295.559 84.8485C275.01 79.6838 274.508 64.8035 258.546 40.0795C252.803 31.1765 247.512 20.7765 239.362 10.9973C228.764 -1.73862 207.184 -41.7846 162.39 -73.1585C160.09 -74.7211 157.578 -76.4515 154.84 -78.2037C134.479 -91.1211 100.716 -107.734 51.8137 -112.723" stroke="#DDFA69" stroke-opacity="0.2" stroke-width="1.03189" stroke-miterlimit="10"/>
<path d="M791.403 37.0823C774.994 40.5046 759.727 44.4528 745.709 47.3965C720.648 52.7145 707.408 54.4071 690.13 62.2337C676.118 68.5811 669.054 75.2528 656.681 79.1998C648.446 81.7048 640.032 83.5777 631.512 84.8021C615.812 87.6901 609.509 82.3504 594.439 76.0949C578.507 69.4613 564.611 68.1026 553.62 60.9558C536.609 58.2773 521.476 62.0778 505.75 59.4165C504.197 59.8186 502.612 60.0777 501.012 60.1905C467.506 62.239 463.631 72.6493 446.274 75.2028C425.398 78.273 401.321 70.6633 382.848 68.5534C368.429 66.9163 356.188 66.1734 345.312 67.3848C332.906 68.7695 320.795 76.0915 309.585 81.7188C304.135 84.4603 299.948 87.0159 296.614 86.1706C276.08 80.9939 276.069 64.7678 260.807 38.7717C255.366 29.5094 250.286 18.7412 242.155 8.61559C232.209 -3.78932 210.147 -44.9405 164.699 -77.0342C162.391 -78.6644 159.838 -80.3854 157.064 -82.1813C136.549 -95.3012 102.37 -112.316 52.9182 -117.586" stroke="#DDFA69" stroke-opacity="0.2" stroke-width="1.03189" stroke-miterlimit="10"/>
<path d="M790.197 42.2014C774.321 45.6618 759.254 49.75 745.213 52.9326C721.359 58.3809 707.748 60.5736 690.562 68.4224C676.896 74.6559 669.637 81.1345 657.787 85.0653C649.757 87.6148 641.568 89.6328 633.273 91.1061C617.935 94.4043 611.193 90.0001 596.423 84.2427C581.004 78.2616 568.06 76.6199 556.591 69.0115C540.478 65.9109 525.66 68.2679 509.575 64.4599C508.011 64.7185 506.426 64.8297 504.84 64.792C471.244 63.8976 465.68 71.9606 449.122 73.8813C427.914 76.3567 403.843 68.6939 384.892 66.6717C370.373 65.1053 357.87 64.5782 346.796 66.1724C334.16 67.9904 321.835 76.2831 310.775 82.434C305.266 85.5048 301.053 88.1919 297.716 87.3731C277.209 82.199 277.652 64.61 263.102 37.343C257.976 27.7361 253.051 16.6078 244.996 6.11438C235.66 -5.95009 213.163 -48.1482 167.067 -81.0148C164.749 -82.6728 162.171 -84.4229 159.361 -86.2492C138.704 -99.5704 104.162 -116.996 54.0903 -122.5" stroke="#DDFA69" stroke-opacity="0.2" stroke-width="1.03189" stroke-miterlimit="10"/>
<path d="M788.977 47.3229C773.577 50.8428 758.755 55.0351 744.717 58.4592C721.968 63.9876 708.103 66.7317 690.997 74.5883C677.69 80.6959 670.227 86.927 658.909 90.9092C651.076 93.5533 643.098 95.7468 635.014 97.4788C620.037 101.187 612.885 97.708 598.32 92.4528C583.431 87.099 571.424 85.1863 559.474 77.1429C544.248 73.6055 529.743 74.5192 513.31 69.6056C511.732 69.6627 510.152 69.6216 508.579 69.4825C474.719 67.7184 467.615 71.3449 451.879 72.6619C430.348 74.4629 406.286 66.5599 386.862 64.867C372.246 63.5995 359.462 63.0719 348.19 65.0489C335.325 67.3002 322.81 76.5794 311.876 83.2382C306.308 86.6382 302.052 89.4953 298.729 88.6645C278.235 83.4917 279.129 64.5664 265.318 36.0312C260.495 26.065 255.779 14.5817 247.736 3.68752C239.09 -8.02881 216.077 -51.4023 169.4 -84.9146C167.054 -86.6066 164.461 -88.3805 161.622 -90.2364C140.828 -103.799 105.881 -121.612 55.2365 -127.426" stroke="#DDFA69" stroke-opacity="0.2" stroke-width="1.03189" stroke-miterlimit="10"/>
<path d="M787.756 52.4298C772.835 55.9827 758.282 60.2949 744.223 63.9447C722.619 69.5437 708.46 72.8355 691.431 80.7264C678.498 86.7094 670.829 92.7196 660.017 96.724C650.01 100.445 642.055 102.354 636.752 103.85C622.127 107.941 614.562 105.4 600.254 100.679C587.316 96.3595 574.671 91.2105 562.396 85.2635C548.907 79.0004 534.806 72.7047 517.098 74.7285C515.502 74.7952 513.905 74.6045 512.37 74.1636C478.53 67.4844 469.604 70.6933 454.674 71.4318C432.811 72.5041 408.755 64.682 388.856 63.0503C374.089 61.835 361.093 61.5549 349.625 63.9014C336.536 66.6537 323.824 76.8651 313.015 84.0316C307.401 87.7622 303.09 90.7748 299.769 89.9307C279.316 84.7485 280.636 64.471 267.604 34.6713C263.083 24.3459 258.533 12.5304 250.567 1.25509C242.602 -10.0202 219.03 -54.5331 171.774 -88.8517C169.419 -90.5401 166.755 -92.3656 163.924 -94.2609C142.975 -108.026 107.652 -126.237 56.4052 -132.337" stroke="#DDFA69" stroke-opacity="0.2" stroke-width="1.03189" stroke-miterlimit="10"/>
<path d="M786.539 57.5508C772.096 61.15 757.809 65.4879 743.716 69.4828C723.27 75.1538 708.803 79.0052 691.865 86.9183C679.24 92.7703 671.417 98.5647 661.139 102.594C651.543 106.368 643.828 108.555 638.495 110.223C624.208 114.694 616.259 113.081 602.194 108.892C588.377 104.781 579.371 100.372 565.322 93.3982C552.667 87.1086 538.77 84.7852 520.879 79.851C519.234 79.397 517.626 79.2681 516.152 78.8574C482.162 69.2965 471.601 70.0159 457.475 70.2025C435.301 70.4809 411.216 62.8168 390.87 61.2356C375.988 60.0897 362.729 60.0387 351.065 62.7414C337.753 65.874 324.861 77.1129 314.162 84.7993C308.503 88.8605 304.084 92.0233 300.829 91.1857C280.402 86.006 282.136 64.3618 269.833 33.2528C265.602 22.5668 261.202 10.4443 253.331 -1.25062C245.916 -12.2583 221.962 -57.8129 174.078 -92.8355C171.698 -94.5531 169.064 -96.4025 166.157 -98.3453C145.067 -112.311 109.341 -130.923 57.5315 -137.306" stroke="#DDFA69" stroke-opacity="0.2" stroke-width="1.03189" stroke-miterlimit="10"/>
<path d="M785.252 62.6517C771.287 66.2972 757.242 70.7656 743.159 74.9357C723.847 80.6628 709.101 85.0366 692.236 93.0238C680.038 98.7564 671.943 104.323 662.184 108.389C653.013 112.191 645.594 114.648 640.173 116.535C626.211 121.387 617.877 120.7 604.054 117.058C590.781 113.549 582.592 109.152 568.177 101.526C556.315 95.2061 542.809 91.4736 524.6 84.9812C522.981 84.4091 521.351 84.0772 519.862 83.5444C485.695 71.1125 473.252 71.7569 460.205 68.9664C437.968 64.322 415.45 61.1395 392.796 59.4394C377.802 58.3496 364.293 58.5289 352.389 61.6371C338.847 65.203 325.792 77.4311 315.232 85.6266C309.541 90.0196 305.107 93.3285 301.811 92.5002C281.399 87.3086 283.559 64.3121 272.002 32.0025C268.059 20.9693 263.783 8.5372 256.034 -3.58802C249.226 -14.2287 224.861 -60.9352 176.334 -96.6498C173.944 -98.3952 171.325 -100.27 168.341 -102.247C147.099 -116.442 110.996 -135.452 58.5955 -142.093" stroke="#DDFA69" stroke-opacity="0.2" stroke-width="1.03189" stroke-miterlimit="10"/>
<path d="M784.242 66.3177C770.755 70.0095 756.958 74.5422 742.821 78.9884C724.632 84.7438 709.623 89.7621 692.775 97.7107C680.943 103.264 672.635 108.677 663.397 112.753C654.65 116.609 647.513 119.335 642.034 121.403C628.359 126.618 619.68 126.863 606.099 123.766C593.358 120.858 585.938 116.535 571.214 108.089C560.12 101.723 546.947 96.6294 528.49 88.5455C526.884 87.8406 525.272 87.3229 523.756 86.6536C489.382 71.3747 475.406 68.8963 463.115 66.179C440.65 61.1802 417.856 57.7959 394.908 56.0521C379.813 55.0329 366.04 55.4413 353.992 58.9374C340.204 62.9619 327.004 76.1405 316.494 84.7831C310.784 89.5092 306.32 92.9893 302.986 92.144C282.602 86.9416 285.147 62.5891 274.384 29.0031C270.732 17.5961 266.537 4.8771 258.949 -7.67458C252.724 -17.9641 227.96 -65.8079 178.791 -102.228C176.39 -104.001 173.694 -105.91 170.726 -107.912C149.344 -122.322 112.838 -141.733 59.8619 -148.657" stroke="white" stroke-opacity="0.05" stroke-width="1.03189" stroke-miterlimit="10"/>
<path d="M783.376 68.2581C770.366 71.9961 756.795 76.5507 742.735 81.3125C725.669 87.0962 710.337 92.6728 693.672 100.679C682.196 106.147 673.697 111.313 664.982 115.4C656.645 119.309 649.792 122.276 644.234 124.605C630.846 130.182 621.823 131.345 608.496 128.809C596.288 126.488 589.576 122.328 574.598 113.041C564.254 106.68 551.378 100.181 532.741 90.4989C531.132 89.6733 529.526 88.9685 528.009 88.1651C493.378 70.0075 477.979 64.3768 466.374 61.7661C443.78 56.6982 419.122 52.4621 397.378 51.0671C382.172 50.0907 368.148 50.7428 355.888 54.6204C341.887 59.0529 328.536 73.2352 318.09 82.4601C312.347 87.5313 307.778 91.1352 304.496 90.295C284.124 85.1072 287.071 59.3734 277.085 24.5363C273.723 12.7687 269.581 -0.226433 262.198 -13.2273C256.541 -23.1537 231.391 -72.1335 181.58 -109.259C179.154 -111.048 176.449 -112.998 173.445 -115.044C151.908 -129.656 115.025 -149.465 61.4628 -156.7" stroke="white" stroke-opacity="0.05" stroke-width="1.03189" stroke-miterlimit="10"/>
<path d="M782.445 70.0952C769.901 73.865 756.542 78.4401 742.517 83.5401C726.132 89.3667 710.065 96.0491 694.382 103.559C683.265 108.914 674.625 113.879 666.366 117.957C658.463 121.948 651.883 125.143 646.25 127.692C633.134 133.644 623.782 135.713 610.708 133.751C599.02 132.003 592.969 128.081 577.797 117.89C568.16 111.424 555.558 103.612 536.793 92.3495C535.197 91.3911 533.595 90.4992 532.064 89.5738C497.188 68.5388 480.554 59.0637 469.448 57.2517C446.243 53.5046 421.871 47.2865 399.65 45.9793C384.332 45.0457 370.054 45.968 357.598 50.2151C343.367 55.0809 329.875 70.308 319.502 80.0223C313.754 85.428 309.102 89.1847 305.82 88.3578C285.477 83.146 288.85 56.0467 279.616 19.9559C276.428 6.46253 271.609 -6.59254 265.266 -18.9213C260.165 -28.5125 234.642 -78.6137 184.202 -116.443C181.765 -118.26 179.036 -120.239 175.995 -122.315C154.318 -137.142 117.032 -157.352 62.8902 -164.831" stroke="white" stroke-opacity="0.05" stroke-width="1.03189" stroke-miterlimit="10"/>
<path d="M781.552 71.8599C751.942 81.2311 723.062 92.765 695.142 106.369C650.229 128.267 637.281 141.189 612.972 138.608C595.268 136.72 591.817 128.776 540.91 94.1169C502.623 68.0488 483.475 55.0613 472.573 52.666C433.386 44.1964 390.615 34.2678 359.36 45.7253C336.829 53.9812 316.359 88.5629 307.206 86.2298C280.077 79.2893 295.738 30.8573 268.373 -24.7145C263.816 -33.9716 237.931 -85.1797 186.85 -123.714C167.021 -138.67 126.784 -164.243 64.3473 -173.088" stroke="white" stroke-opacity="0.05" stroke-width="1.03189" stroke-miterlimit="10"/>
</svg>
