<svg width="40" height="40" viewBox="0 0 40 40" fill="none" xmlns="http://www.w3.org/2000/svg">
<path d="M5.00001 10.8333V10.8333C5.00001 8.53215 6.86549 6.66667 9.16668 6.66667L32.1429 6.66667C32.4753 6.66667 32.6416 6.66667 32.7752 6.71343C33.0146 6.79719 33.2028 6.98539 33.2866 7.22477C33.3333 7.35841 33.3333 7.52465 33.3333 7.85714V7.85714C33.3333 9.85207 33.3333 10.8495 33.0528 11.6514C32.5502 13.0876 31.421 14.2169 29.9847 14.7194C29.1829 15 28.1854 15 26.1905 15H25M5.00001 10.8333V10.8333C5.00001 13.1345 6.86549 15 9.16668 15L31.6667 15C33.238 15 34.0237 15 34.5118 15.4882C35 15.9763 35 16.762 35 18.3333L35 21.6667M5.00001 10.8333L5.00001 28.3333C5.00001 31.476 5.00001 33.0474 5.97632 34.0237C6.95263 35 8.52398 35 11.6667 35L31.6667 35C33.238 35 34.0237 35 34.5118 34.5118C35 34.0237 35 33.238 35 31.6667L35 28.3333M35 28.3333H28.3333C26.762 28.3333 25.9763 28.3333 25.4882 27.8452C25 27.357 25 26.5713 25 25V25C25 23.4287 25 22.643 25.4882 22.1548C25.9763 21.6667 26.762 21.6667 28.3333 21.6667H35M35 28.3333L35 21.6667" stroke="#DDFA69" stroke-width="3.33333"/>
</svg>
