<svg width="40" height="40" viewBox="0 0 40 40" fill="none" xmlns="http://www.w3.org/2000/svg">
<path d="M16.9053 11.0458C18.2163 7.77748 18.8718 6.14331 19.999 6.14331C21.1262 6.14331 21.7817 7.77748 23.0927 11.0458L23.1538 11.198C23.8944 13.0444 24.2648 13.9677 25.0195 14.5288C25.7743 15.09 26.765 15.1787 28.7466 15.3562L29.1048 15.3882C32.3478 15.6787 33.9693 15.8239 34.3163 16.8555C34.6632 17.8872 33.459 18.9827 31.0506 21.1739L30.2468 21.9052C29.0277 23.0144 28.4181 23.569 28.1339 24.2959C28.0809 24.4315 28.0369 24.5704 28.0021 24.7117C27.8153 25.4695 27.9938 26.274 28.3508 27.8832L28.4619 28.384C29.1181 31.3413 29.4461 32.8199 28.8733 33.4576C28.6593 33.696 28.3811 33.8675 28.0721 33.9519C27.2451 34.1775 26.0709 33.2208 23.7227 31.3073C22.1807 30.0508 21.4098 29.4226 20.5246 29.2813C20.1764 29.2257 19.8216 29.2257 19.4734 29.2813C18.5883 29.4226 17.8173 30.0508 16.2753 31.3073C13.9271 33.2208 12.753 34.1775 11.926 33.9519C11.6169 33.8675 11.3387 33.696 11.1247 33.4576C10.5519 32.8199 10.88 31.3413 11.5361 28.384L11.6472 27.8832C12.0042 26.274 12.1827 25.4695 11.996 24.7117C11.9611 24.5704 11.9171 24.4315 11.8641 24.2959C11.58 23.569 10.9704 23.0144 9.7512 21.9052L8.94739 21.1739C6.53899 18.9827 5.33478 17.8872 5.68175 16.8555C6.02871 15.8239 7.65022 15.6787 10.8932 15.3882L11.2515 15.3562C13.233 15.1787 14.2238 15.09 14.9785 14.5288C15.7333 13.9677 16.1036 13.0444 16.8442 11.198L16.9053 11.0458Z" stroke="#DDFA69" stroke-width="3.33333"/>
</svg>
