<svg width="333" height="364" viewBox="0 0 333 364" fill="none" xmlns="http://www.w3.org/2000/svg">
<path d="M410.418 209.516C399.341 202.841 388.268 199.062 377.888 198.413C362.514 197.588 359.173 204.709 346.843 199.787C334.862 194.998 322.23 181.97 314.07 167.86C302.938 148.605 307.232 139.609 298.391 105.731C293.187 85.814 283.44 48.4497 261.065 22.8065C249.76 9.85216 236.168 0.960862 223.535 -7.30689C208.05 -17.4403 204.66 -16.9187 197.259 -24.0057C188.466 -32.4211 176.876 -48.8261 167.235 -84.3228" stroke="#DDFA69" stroke-opacity="0.2" stroke-width="1.03189" stroke-miterlimit="10"/>
<path d="M409.023 212.255C399.094 206.163 389.151 202.352 379.691 201.01C378.781 200.89 377.863 200.785 376.93 200.692C361.696 199.362 358.441 205.947 346.319 201.009C341.03 198.866 335.674 195.366 330.565 190.714C326.906 187.378 323.405 183.533 320.15 179.278C317.717 176.094 315.459 172.67 313.419 169.07C311.125 165.092 309.208 160.866 307.744 156.561C305.058 148.629 304.195 141.354 302.267 131.176C300.813 123.512 298.885 115.759 296.505 108.006C295.257 103.879 293.831 99.0032 292.045 93.6026C287.274 79.14 280.607 61.584 269.908 45.0885C266.288 39.4734 262.351 34.2073 258.17 29.3908C257.531 28.6517 256.886 27.9339 256.245 27.2347C249.899 20.3046 243.303 14.6358 236.301 9.29158C231.073 5.27455 225.875 1.90668 220.775 -1.52735C218.631 -2.95214 216.708 -4.21401 214.957 -5.33115C204.376 -12.0665 201.023 -12.7931 194.775 -19.052C190.029 -23.8082 184.46 -30.9294 178.689 -42.1647C173.955 -51.3738 169.05 -63.4624 164.293 -79.2852" stroke="#DDFA69" stroke-opacity="0.2" stroke-width="1.03189" stroke-miterlimit="10"/>
<path d="M407.611 214.965C397.839 208.856 388.045 204.928 378.705 203.374C377.808 203.229 376.904 203.097 375.991 202.979C360.87 201.132 357.691 207.171 345.778 202.24C340.464 200.117 335.072 196.646 329.911 192.028C326.224 188.69 322.697 184.831 319.426 180.555C316.995 177.36 314.755 173.915 312.754 170.295C310.504 166.287 308.608 162.07 307.132 157.787C304.287 149.632 303.157 142.341 301.059 132.612C299.437 125.192 297.286 117.698 294.639 110.243C293.273 106.318 291.779 101.727 289.86 96.6428C284.75 83.0934 278.098 67.2909 267.234 51.4436C263.493 45.9477 259.503 40.7473 255.316 35.9086C254.666 35.1635 254.019 34.4368 253.374 33.7325C246.934 26.6736 240.594 21.0043 233.588 15.3252C228.31 11.0511 223.166 7.70923 218.043 4.22099C215.916 2.76916 213.991 1.46257 212.222 0.279055C201.751 -6.70552 198.421 -7.69278 192.31 -14.1129C187.655 -19.0041 182.196 -26.1773 176.36 -37.4014C171.596 -46.5742 166.513 -58.6111 161.345 -74.2446" stroke="#DDFA69" stroke-opacity="0.2" stroke-width="1.03189" stroke-miterlimit="10"/>
<path d="M406.277 217.665C396.641 211.522 386.972 207.474 377.733 205.712C376.849 205.551 375.955 205.392 375.059 205.25C360.038 202.883 356.949 208.419 345.248 203.476C339.708 201.134 334.651 198.148 329.272 193.354C325.552 190.012 321.995 186.135 318.705 181.834C316.275 178.628 314.053 175.161 312.094 171.522C309.885 167.484 308.007 163.272 306.515 159.005C303.517 150.643 302.121 143.348 299.85 134.058C298.061 126.872 295.684 119.632 292.766 112.486C291.265 108.732 289.721 104.442 287.679 99.6724C282.225 86.9311 275.626 72.9239 264.609 57.7045C260.747 52.3265 256.701 47.1861 252.502 42.3227C251.847 41.573 251.18 40.8207 250.552 40.1375C244.233 33.2218 237.661 26.9127 230.928 21.2977C225.598 16.7676 220.495 13.4623 215.342 9.88045C213.227 8.41018 211.307 7.06111 209.514 5.8072C199.156 -1.41906 195.847 -2.67478 189.868 -9.23416C185.292 -14.2538 179.936 -21.5035 174.047 -32.7001C169.235 -41.818 164.011 -53.8276 158.446 -69.2964" stroke="#DDFA69" stroke-opacity="0.2" stroke-width="1.03189" stroke-miterlimit="10"/>
<path d="M404.928 220.339C395.435 214.181 385.902 210.019 376.77 208.045C375.896 207.866 375.014 207.676 374.136 207.518C359.222 204.68 356.208 209.65 344.706 204.73C339.064 202.304 334.11 199.537 328.62 194.688C324.87 191.347 321.286 187.454 317.981 183.13C315.543 179.909 313.331 176.417 311.409 172.754C309.242 168.702 307.38 164.507 305.864 160.267C302.714 151.699 301.024 144.387 298.621 135.515C296.923 129.26 294.467 122.619 290.882 114.725C289.256 111.137 287.646 107.112 285.493 102.671C279.67 90.6559 273.17 78.488 262.027 63.9129C258.053 58.6547 253.953 53.5736 249.742 48.6902C249.079 47.931 248.42 47.1899 247.782 46.4876C241.485 39.5121 234.958 33.054 228.272 27.183C222.88 22.3922 217.841 19.1584 212.673 15.4839C210.592 14.0218 208.638 12.6066 206.83 11.2812C196.574 3.8447 193.293 2.30666 187.437 -4.4005C182.941 -9.54781 177.688 -16.8515 171.738 -28.0193C166.906 -37.0924 161.511 -49.0479 155.55 -64.3402" stroke="#DDFA69" stroke-opacity="0.2" stroke-width="1.03189" stroke-miterlimit="10"/>
<path d="M403.586 222.977C394.236 216.809 384.839 212.54 375.813 210.357C374.952 210.157 374.085 209.942 373.222 209.758C358.419 206.409 355.455 210.906 344.172 205.988C338.424 203.484 333.574 200.931 327.978 196.032C324.195 192.688 320.581 188.777 317.258 184.43C314.823 181.207 312.631 177.705 310.754 174.039C308.628 169.968 306.781 165.782 305.249 161.561C301.934 152.796 299.938 145.472 297.417 137.021C295.549 130.787 292.817 124.382 289.033 116.995C287.276 113.559 285.598 109.802 283.363 105.679C277.132 94.28 270.784 83.9972 259.503 70.022C255.583 65.1646 251.256 59.7762 247.034 54.9557C246.363 54.1873 245.712 53.4574 245.064 52.7364C238.797 45.7153 232.325 39.1268 225.701 33.0242C220.252 27.9886 215.248 24.7898 210.045 21.0426C207.954 19.5375 206.031 18.0964 204.194 16.7111C194.025 9.0897 190.707 7.3439 185.037 0.444136C180.654 -4.88733 175.464 -12.1891 169.464 -23.3322C164.611 -32.3718 159.036 -44.2699 152.677 -59.3846" stroke="#DDFA69" stroke-opacity="0.2" stroke-width="1.03189" stroke-miterlimit="10"/>
<path d="M402.27 225.592C393.058 219.419 383.792 215.045 374.869 212.656C374.021 212.435 373.162 212.194 372.318 211.991C357.599 208.163 354.706 212.153 343.631 207.253C337.796 204.679 333.04 202.332 327.327 197.377C323.519 194.034 319.883 190.115 316.545 185.758C314.106 182.523 311.927 179.002 310.088 175.326C308.01 171.242 306.18 167.07 304.622 162.871C301.149 153.91 298.84 146.54 296.216 138.544C294.183 132.31 291.162 126.152 287.196 119.267C285.3 115.969 283.049 112.699 281.233 108.709C273.421 98.997 268.75 88.8656 257.026 76.1156C252.884 71.6161 248.581 65.995 244.382 61.1927C243.699 60.4191 243.038 59.671 242.399 58.9612C235.557 51.3525 230.256 45.6395 223.167 38.8196C217.661 33.541 212.701 30.3961 207.472 26.5628C205.414 25.0668 203.47 23.5648 201.606 22.1132C191.557 14.2904 188.309 12.1694 182.689 5.21775C178.341 -0.176555 173.282 -7.59054 167.221 -18.6921C162.322 -27.668 156.601 -39.5306 149.839 -54.4812" stroke="#DDFA69" stroke-opacity="0.2" stroke-width="1.03189" stroke-miterlimit="10"/>
<path d="M400.953 228.194C391.879 222.019 382.745 217.542 373.923 214.945C373.081 214.702 372.237 214.438 371.412 214.215C356.754 209.885 353.926 213.39 343.056 208.515C337.1 205.839 332.47 203.72 326.647 198.722C322.797 195.37 319.123 191.425 315.762 187.034C313.017 183.485 311.099 180.004 309.352 176.571C307.318 172.475 305.499 168.314 303.915 164.132C300.278 154.987 297.627 147.569 294.921 140.006C292.71 133.805 289.398 127.849 285.296 121.486C283.249 118.311 280.895 115.381 279.053 111.649C270.726 102.818 266.033 94.8478 254.535 82.0573C250.41 77.4727 245.897 72.0652 241.702 67.2995C241.024 66.5075 240.347 65.7617 239.715 65.0542C232.767 57.312 227.717 51.6048 220.583 44.5363C215.018 39.0295 210.101 35.9294 204.842 32.016C202.795 30.5042 200.853 28.9643 198.963 27.4479C188.996 19.4364 185.764 17.0557 180.268 9.96739C175.989 4.46304 171.027 -2.99273 164.904 -14.0627C159.962 -22.9685 154.084 -34.7998 146.924 -49.5829" stroke="#DDFA69" stroke-opacity="0.2" stroke-width="1.03189" stroke-miterlimit="10"/>
<path d="M399.668 230.743C390.732 224.576 381.73 220.001 373.008 217.193C372.176 216.934 371.34 216.645 370.51 216.37C355.946 211.594 353.168 214.603 342.518 209.766C336.459 207.01 331.936 205.098 326.003 200.045C322.124 196.7 318.422 192.75 315.044 188.349C312.26 184.759 310.401 181.295 308.68 177.86C306.554 173.62 305.025 169.761 303.273 165.46C299.462 156.134 295.489 148.585 293.691 141.534C290.522 135.455 288.389 128.374 283.434 123.718C280.856 121.294 278.78 118.047 276.921 114.583C268.091 106.602 263.707 100.142 252.12 87.93C247.893 83.4734 243.274 78.0408 239.112 73.3265C238.418 72.5249 237.754 71.7587 237.106 71.0656C230.059 63.2041 225.26 57.4908 218.086 50.1783C212.446 44.4218 207.583 41.3851 202.297 37.399C200.26 35.872 198.313 34.294 196.402 32.7157C186.534 24.5511 183.304 21.8614 177.912 14.6684C173.7 9.04659 168.828 1.54849 162.649 -9.47712C157.673 -18.3384 151.646 -30.089 144.072 -44.7269" stroke="#DDFA69" stroke-opacity="0.2" stroke-width="1.03189" stroke-miterlimit="10"/>
<path d="M398.379 233.29C389.571 227.132 380.695 222.467 372.068 219.463C371.248 219.185 370.434 218.859 369.605 218.571C355.082 213.303 352.396 215.884 341.94 211.063C335.775 208.219 331.365 206.517 325.323 201.421C321.412 198.073 317.68 194.11 314.28 189.696C311.457 186.066 309.663 182.609 307.956 179.18C305.884 175.001 304.396 171.151 302.586 166.806C298.61 157.299 294.218 149.72 292.412 143.061C288.984 137.031 286.474 129.923 281.548 125.945C278.854 123.769 276.647 120.71 274.786 117.515C265.465 110.36 261.397 105.382 249.735 93.7346C245.411 89.3992 240.721 83.9942 236.55 79.2776L234.547 76.99C227.392 68.9987 222.828 63.2837 215.623 55.7364C209.91 49.7496 205.095 46.7743 199.78 42.7085C197.753 41.167 195.806 39.5534 193.87 37.9095C184.092 29.6045 180.862 26.6218 175.576 19.3219C171.433 13.592 166.648 6.05493 160.408 -4.92691C155.4 -13.7346 149.185 -25.4539 141.238 -39.9145" stroke="#DDFA69" stroke-opacity="0.2" stroke-width="1.03189" stroke-miterlimit="10"/>
<path d="M397.127 235.795C388.454 229.663 379.709 224.916 371.183 221.711C370.378 221.395 369.565 221.069 368.756 220.747C354.31 215.042 351.658 217.142 341.393 212.355C335.123 209.421 330.805 207.903 324.672 202.782C320.728 199.439 316.965 195.467 313.547 191.04C310.678 187.367 308.94 183.945 307.263 180.505C305.258 176.368 303.792 172.549 301.919 168.164C297.766 158.484 292.965 150.874 291.18 144.634C287.491 138.641 283.701 133.709 279.719 128.198C277.001 125.768 274.58 123.383 272.7 120.435C262.897 114.103 259.177 110.576 247.444 99.4616C243.011 95.266 238.209 89.8838 234.079 85.1534C233.366 84.3484 232.684 83.5781 232.055 82.8674C224.867 74.6228 220.484 69.0557 213.222 61.268C207.43 55.0521 202.669 52.1391 197.316 47.9946C195.302 46.4358 193.342 44.7848 191.405 43.0947C181.715 34.6554 178.502 31.4 173.306 23.9841C169.221 18.1498 164.526 10.5831 158.216 -0.366178C153.172 -9.11511 146.808 -20.7654 138.458 -35.0863" stroke="#DDFA69" stroke-opacity="0.2" stroke-width="1.03189" stroke-miterlimit="10"/>
<path d="M395.865 238.292C387.313 232.172 378.685 227.333 370.246 223.923C369.446 223.611 368.644 223.255 367.848 222.912C353.448 216.746 350.85 218.41 340.803 213.661C334.422 210.647 330.246 209.352 323.98 204.166C319.992 200.815 316.188 196.82 312.744 192.367C309.816 188.638 308.127 185.236 306.509 181.837C304.542 177.729 303.116 173.946 301.199 169.517C296.875 159.68 291.656 152.028 289.886 146.189C285.94 140.242 281.913 135.542 277.841 130.412C274.978 128.144 272.471 126.007 270.58 123.302C260.324 117.744 256.944 115.666 245.15 105.079C240.616 101.009 235.728 95.6195 231.607 90.918C230.882 90.109 230.198 89.3444 229.562 88.634C222.271 80.2763 218.13 74.7051 210.812 66.7012C204.947 60.2726 200.229 57.4148 194.844 53.1954C192.837 51.6271 190.895 49.9471 188.894 48.1826C179.284 39.622 176.052 36.0586 170.972 28.5676C166.95 22.6355 162.336 15.0422 155.963 4.13795C150.883 -4.55073 144.333 -16.1702 135.61 -30.3157" stroke="#DDFA69" stroke-opacity="0.2" stroke-width="1.03189" stroke-miterlimit="10"/>
<path d="M394.639 240.743C386.208 234.648 377.701 229.73 369.353 226.124C368.55 225.806 367.77 225.412 366.985 225.052C352.623 218.428 350.072 219.665 340.23 214.965C333.744 211.862 329.687 210.764 323.305 205.534C319.294 202.193 315.465 198.199 312.006 193.748C309.078 190.025 307.389 186.59 305.796 183.191C303.905 179.157 302.5 175.392 300.496 170.931C295.99 160.929 290.362 153.247 288.609 147.794C284.404 141.882 280.175 137.406 275.981 132.673C272.982 130.563 270.386 128.665 268.492 126.204C257.783 121.405 254.773 120.734 242.919 110.659C238.285 106.715 233.341 101.268 229.206 96.6571C228.47 95.8443 227.778 95.0805 227.139 94.3755C219.735 85.8991 215.744 80.4911 208.459 72.1234C202.584 65.375 197.845 62.6818 192.42 58.4001C190.406 56.7964 188.412 55.089 186.447 53.2857C176.911 44.6131 173.674 40.7662 168.69 33.1862C164.724 27.1565 160.192 19.5458 153.756 8.68868C148.616 0.0370061 141.922 -11.5096 132.81 -25.5026" stroke="#DDFA69" stroke-opacity="0.2" stroke-width="1.03189" stroke-miterlimit="10"/>
<path d="M393.334 243.601C385.035 237.498 376.649 232.486 368.384 228.691C367.601 228.339 366.817 227.94 366.039 227.554C351.707 220.479 349.169 221.324 339.538 216.674C332.939 213.486 328.992 212.598 322.519 207.284C318.485 203.917 314.642 199.875 311.186 195.364C308.215 191.536 306.611 188.093 305.066 184.648C303.291 180.602 301.953 176.823 299.901 172.253C295.283 161.968 289.292 154.137 287.601 148.997C283.178 143.054 278.758 138.76 274.481 134.35C271.35 132.386 268.677 130.714 266.789 128.465C255.625 124.415 252.96 125.177 241.121 115.49C236.397 111.634 231.396 106.117 227.291 101.479L225.238 99.1498C217.683 90.6001 214.127 84.8782 206.745 76.3475C200.751 69.4129 196.134 66.6737 190.694 62.277C188.674 60.6286 186.676 58.8715 184.712 57.0143C175.307 48.1789 172.067 43.9774 167.227 36.2244C163.354 30.0237 158.949 22.2936 152.521 11.3439C147.405 2.64729 140.614 -9.00274 131.204 -23.0188" stroke="#DDFA69" stroke-opacity="0.2" stroke-width="1.03189" stroke-miterlimit="10"/>
<path d="M392.014 246.613C383.864 240.474 375.613 235.347 367.439 231.341C366.66 230.971 365.888 230.55 365.124 230.143C350.798 222.585 348.285 223.09 338.848 218.451C332.135 215.165 328.294 214.503 321.731 209.085C317.681 205.674 313.835 201.559 310.398 196.961C307.422 193.038 305.883 189.556 304.425 186.048C302.725 181.994 301.45 178.141 299.406 173.467C294.716 162.806 288.375 154.823 286.759 149.961C282.127 143.953 277.692 139.108 273.164 135.732C269.918 133.315 267.135 132.482 265.296 130.419C253.664 127.147 251.328 129.383 239.485 120.086C234.679 116.323 229.628 110.698 225.574 106.029C224.824 105.188 224.144 104.379 223.522 103.657C215.917 94.8588 212.655 89.0538 205.277 80.1704C199.258 72.9218 194.687 70.2238 189.241 65.6959C187.216 64.0038 185.219 62.1909 183.264 60.2682C173.985 51.2192 170.774 46.6527 166.099 38.6762C162.343 32.2692 158.089 24.374 151.698 13.2735C146.631 4.48356 139.777 -7.33489 130.115 -21.4659" stroke="white" stroke-opacity="0.05" stroke-width="1.03189" stroke-miterlimit="10"/>
<path d="M390.562 249.807C382.555 243.635 374.435 238.39 366.356 234.171C365.582 233.777 364.819 233.329 364.069 232.908C349.794 224.854 347.31 224.976 338.065 220.398C331.247 217.021 327.505 216.587 320.834 211.032C316.762 207.599 312.905 203.422 309.48 198.738C306.493 194.706 305.042 191.156 303.649 187.607C302.046 183.521 300.85 179.604 298.771 174.772C294.021 163.74 287.332 155.588 285.786 150.998C280.961 144.921 276.268 140.256 271.723 137.212C268.309 134.925 265.487 134.316 263.618 132.487C251.501 130.023 249.475 133.768 237.627 124.847C232.734 121.174 227.654 115.453 223.627 110.743L221.579 108.323C213.931 99.2732 210.968 93.3669 203.597 84.1236C197.552 76.5354 193.023 73.91 187.568 69.2406C185.538 67.5057 183.541 65.6384 181.593 63.6517C172.449 54.3859 169.272 49.4333 164.767 41.2201C161.133 34.5994 157.041 26.5324 150.69 15.2607C144.028 3.22799 136.732 -8.51513 128.889 -19.8293" stroke="white" stroke-opacity="0.05" stroke-width="1.03189" stroke-miterlimit="10"/>
<path d="M389.283 252.781C381.413 246.579 373.425 241.216 365.445 236.777C364.678 236.359 363.925 235.891 363.189 235.447C348.951 226.876 346.491 226.634 337.453 222.083C330.517 218.599 326.879 218.409 320.142 212.766C316.056 209.286 312.2 205.026 308.803 200.24C305.815 196.102 304.443 192.49 303.125 188.872C301.626 184.753 300.511 180.769 298.43 175.809C293.621 164.376 286.603 156.071 285.117 151.746C280.076 145.613 275.151 141.132 270.572 138.4C266.986 136.262 264.101 135.905 262.244 134.287C249.62 132.655 247.884 137.962 236.03 129.428C231.048 125.849 225.931 120.007 221.959 115.245C221.216 114.353 220.53 113.514 219.918 112.773C212.217 103.437 209.571 97.4458 202.226 87.8332C196.169 79.9054 191.694 77.3071 186.222 72.5207C184.191 70.732 182.2 68.8005 180.266 66.7414C171.255 57.245 168.129 51.8893 163.801 43.4285C160.296 36.5781 156.366 28.3254 150.07 16.8709C143.412 4.60739 136.002 -7.2976 127.962 -18.6506" stroke="white" stroke-opacity="0.05" stroke-width="1.03189" stroke-miterlimit="10"/>
<path d="M387.98 255.889C380.255 249.634 372.407 244.134 364.536 239.457C363.78 239.019 363.035 238.524 362.31 238.059C348.126 228.925 345.69 228.268 336.862 223.792C329.812 220.202 326.262 220.269 319.451 214.49C315.354 210.962 311.503 206.611 308.14 201.712C305.158 197.441 303.872 193.75 302.643 190.049C301.249 185.882 300.233 181.798 298.156 176.672C293.323 164.783 285.967 156.259 284.563 152.22C279.329 146.002 274.169 141.732 269.536 139.306C265.782 137.344 262.822 137.223 260.968 135.82C247.803 135.087 246.318 142.038 234.45 133.875C229.386 130.4 224.233 124.417 220.32 119.584C219.58 118.672 218.897 117.813 218.291 117.058C210.582 107.43 208.26 101.289 200.957 91.2587C194.905 82.9428 190.474 80.3871 185.01 75.4626C182.978 73.6128 180.993 71.6113 179.072 69.4756C170.213 59.7128 167.163 53.9193 163.034 45.1648C159.673 38.0578 155.932 29.5556 149.712 17.8726C143.107 5.32201 135.626 -6.79336 127.428 -18.2145" stroke="white" stroke-opacity="0.05" stroke-width="1.03189" stroke-miterlimit="10"/>
<path d="M386.719 258.914C379.135 252.615 371.43 246.975 363.68 242.048C362.931 241.584 362.203 241.06 361.49 240.573C347.359 230.861 345.012 229.851 336.348 225.369C329.192 221.673 325.723 221.998 318.836 216.095C314.725 212.52 310.878 208.076 307.55 203.056C304.578 198.648 303.374 194.886 302.232 191.093C300.955 186.857 300.028 182.701 297.955 177.409C293.09 165.067 285.403 156.323 284.076 152.582C279.286 146.942 273.904 142.629 268.549 140.14C264.625 138.373 261.578 138.484 259.724 137.312C245.994 137.507 244.737 146.161 232.841 138.384C227.687 135.024 222.508 128.885 218.649 123.998C217.904 123.055 217.228 122.182 216.627 121.405C208.912 111.465 206.883 105.19 199.639 94.7153C193.602 86.0184 189.207 83.493 183.744 78.4182C181.845 76.6509 179.998 74.5217 177.837 72.2262C168.877 62.7102 166.157 55.9479 162.233 46.8911C159.032 39.5003 155.47 30.7779 149.327 18.8657C142.765 6.02063 135.205 -6.30918 126.849 -17.7933" stroke="white" stroke-opacity="0.05" stroke-width="1.03189" stroke-miterlimit="10"/>
<path d="M385.492 261.892C378.046 255.545 370.486 249.756 362.866 244.565C362.128 244.07 361.41 243.527 360.708 243.008C346.682 232.665 344.339 231.259 335.896 226.837C328.624 223.025 325.261 223.642 318.276 217.589C314.145 213.958 310.298 209.413 307 204.267C304.042 199.725 302.923 195.887 301.867 192.004C300.713 187.727 299.87 183.471 297.801 178.012C292.922 165.184 284.89 156.242 283.625 152.825C278.632 147.148 273.049 143.005 267.582 140.922C263.496 139.373 260.346 139.717 258.489 138.783C244.175 139.943 243.122 150.356 231.185 142.985C225.937 139.739 220.733 133.452 216.918 128.492C216.176 127.529 215.501 126.627 214.909 125.846C207.18 115.583 205.49 109.146 198.283 98.2483C192.256 89.1426 187.919 86.6967 182.441 81.4348C180.436 79.4017 178.472 77.2627 176.557 75.0269C167.756 65.1816 165.124 58.0085 161.402 48.6413C158.361 40.9767 154.983 32.0136 148.934 19.8934C142.417 6.76617 134.777 -5.75822 126.264 -17.2675" stroke="white" stroke-opacity="0.05" stroke-width="1.03189" stroke-miterlimit="10"/>
<path d="M384.336 264.733C377.022 258.341 369.609 252.396 362.129 246.926C361.403 246.407 360.696 245.844 360.012 245.294C346.066 234.338 343.785 232.497 335.516 228.114C328.165 224.189 324.879 225.084 317.82 218.904C313.68 215.236 309.841 210.605 306.582 205.348C303.635 200.667 302.596 196.749 301.634 192.788C300.574 188.443 299.838 184.111 297.769 178.481C292.875 165.192 284.48 156.057 283.297 152.944C278.089 147.21 272.292 143.229 266.701 141.545C262.451 140.243 259.195 140.814 257.327 140.121C242.41 142.288 241.526 154.528 229.546 147.543C224.201 144.427 218.972 137.993 215.212 132.978C214.47 131.989 213.798 131.067 213.215 130.269C205.468 119.677 204.111 113.102 196.954 101.76C190.945 92.2424 186.649 89.8576 181.184 84.4472C179.178 82.3598 177.223 80.1487 175.329 77.8263C166.689 67.6463 164.149 60.0555 160.638 50.3767C157.748 42.4292 154.556 33.2214 148.571 20.8937C142.095 7.47894 134.367 -5.24108 125.693 -16.7647" stroke="white" stroke-opacity="0.05" stroke-width="1.03189" stroke-miterlimit="10"/>
<path d="M383.209 267.509C374.914 260.158 367.344 253.778 361.433 249.223C360.711 248.671 360.023 248.075 359.352 247.514C345.51 235.89 343.288 233.632 335.262 229.275C327.775 225.227 324.549 226.382 317.426 220.094C313.272 216.381 309.439 211.659 306.217 206.285C303.284 201.459 302.319 197.469 301.45 193.42C300.503 189.026 299.859 184.606 297.793 178.81C292.878 165.046 284.133 155.721 282.995 152.964C277.568 147.187 271.56 143.383 265.853 142.108C261.437 141.067 257.974 141.474 256.176 141.423C239.474 140.979 239.913 158.741 227.874 152.162C222.429 149.191 217.165 142.59 213.461 137.52C212.717 136.506 212.055 135.565 211.475 134.749C203.728 123.847 202.702 117.125 195.591 105.331C189.605 95.3932 185.35 93.0673 179.89 87.4863C177.86 85.3969 175.909 83.1091 174.063 80.653C165.812 69.7785 163.147 62.1101 159.841 52.1176C157.118 43.885 154.12 34.4446 148.198 21.8621C141.754 8.15666 133.934 -4.75847 125.099 -16.2868" stroke="white" stroke-opacity="0.05" stroke-width="1.03189" stroke-miterlimit="10"/>
<path d="M382.109 270.264C373.79 262.698 366.387 256.144 360.771 251.476C360.062 250.89 359.388 250.268 358.73 249.682C344.994 237.36 342.844 234.687 335.015 230.381C327.417 226.209 324.265 227.663 317.067 221.248C312.896 217.488 309.066 212.669 305.879 207.173C302.966 202.201 302.082 198.145 301.305 194.007C300.463 189.552 299.933 185.071 297.855 179.085C292.926 164.843 283.852 155.367 282.73 152.915C276.461 146.351 270.161 143.52 265.014 142.662C260.431 141.912 256.843 142.603 255.027 142.742C237.842 144.039 238.255 163.048 226.149 156.898C220.603 154.076 215.305 147.306 211.656 142.182C210.914 141.137 210.249 140.175 209.679 139.352C201.924 128.114 201.233 121.227 194.179 108.987C188.221 98.6322 184.005 96.3709 178.555 90.6216C176.527 88.4677 174.586 86.1037 172.762 83.5637C164.657 72.4053 162.112 64.2336 159.018 53.913C156.464 45.3936 153.653 35.7061 147.795 22.8911C143.253 12.961 136.143 -0.608966 124.471 -15.7419" stroke="white" stroke-opacity="0.05" stroke-width="1.03189" stroke-miterlimit="10"/>
<path d="M381.068 272.911C372.723 265.146 365.501 258.393 360.172 253.614C359.478 252.988 358.818 252.341 358.162 251.75C344.585 238.717 342.485 235.589 334.86 231.325C327.234 227.061 324.074 228.778 316.797 222.23C312.61 218.431 308.783 213.521 305.634 207.906C302.746 202.784 301.927 198.66 301.24 194.437C300.505 189.934 300.056 185.345 297.999 179.213C293.039 164.512 283.624 154.839 282.539 152.746C276.052 146.124 269.532 143.643 264.234 143.111C259.5 142.637 255.786 143.664 253.934 143.962C236.3 147.085 236.622 167.339 224.433 161.609C218.783 158.955 213.456 152.019 209.853 146.831C209.115 145.765 208.455 144.78 207.876 143.921C200.125 132.34 199.752 125.316 192.765 112.614C186.833 101.831 182.65 99.6308 177.212 93.7115C175.184 91.4938 173.255 89.0542 171.452 86.431C163.498 74.9823 161.085 66.3093 158.199 55.6566C155.814 46.8479 153.191 36.9131 147.395 23.8696C142.915 13.7912 135.776 0.00632936 123.827 -15.2135" stroke="white" stroke-opacity="0.05" stroke-width="1.03189" stroke-miterlimit="10"/>
<path d="M380.033 275.54C371.672 267.569 364.63 260.619 359.59 255.728C358.908 255.066 358.261 254.396 357.635 253.753C344.199 240.008 342.163 236.426 334.74 232.208C326.931 227.766 323.923 229.837 316.565 223.16C312.359 219.322 308.535 214.314 305.427 208.575C302.566 203.296 301.813 199.103 301.215 194.799C300.591 190.238 300.236 185.571 298.183 179.259C293.227 164.061 283.751 153.517 282.387 152.508C275.355 147.285 268.939 143.714 263.474 143.522C258.579 143.353 254.72 144.675 252.821 145.202C234.76 150.215 234.93 171.746 222.647 166.445C216.891 163.961 211.535 156.847 207.984 151.609C207.241 150.512 206.589 149.512 206.029 148.657C198.263 136.751 198.243 129.558 191.32 116.383C185.425 105.165 181.277 103.037 175.846 96.9394C173.821 94.6556 171.903 92.1389 170.123 89.4318C162.319 77.6911 160.043 68.4944 157.377 57.5136C155.151 48.421 152.732 38.2126 147.002 24.9446C142.589 14.7231 135.407 0.72113 123.187 -14.586" stroke="white" stroke-opacity="0.05" stroke-width="1.03189" stroke-miterlimit="10"/>
<path d="M379.049 278.08C370.656 269.918 363.822 262.737 359.071 257.719C358.405 257.016 357.771 256.323 357.156 255.647C343.882 241.168 341.907 237.124 334.695 232.948C326.751 228.358 323.852 230.771 316.408 223.936C312.184 220.054 308.363 214.951 305.293 209.092C302.471 203.661 301.775 199.404 301.267 195.028C300.752 190.4 300.488 185.66 298.437 179.183C293.466 163.497 283.386 153.389 282.295 152.153C275.633 144.629 268.4 143.692 262.775 143.866C258.917 144.076 255.229 144.919 251.773 146.382C233.283 153.306 233.264 176.152 220.864 171.27C215.002 168.969 209.605 161.683 206.107 156.384C205.367 155.267 204.717 154.236 204.175 153.385C196.421 141.134 196.734 133.78 189.867 120.135C184.018 108.479 179.887 106.427 174.476 100.146C172.453 97.7949 170.547 95.1987 168.792 92.4046C161.136 80.364 159.023 70.6382 156.558 59.3231C154.526 49.9113 152.283 39.4761 146.608 25.9801C142.255 15.6131 135.045 1.40684 122.537 -13.9837" stroke="white" stroke-opacity="0.05" stroke-width="1.03189" stroke-miterlimit="10"/>
<path d="M378.102 280.562C369.716 272.179 363.064 264.785 358.591 259.649C343.792 242.649 342.033 237.917 334.709 233.591C326.691 228.86 323.81 231.582 316.295 224.65C312.052 220.73 308.233 215.532 305.202 209.551C299.518 198.107 302.757 192.021 298.751 179.008C293.772 162.833 283.271 152.675 282.252 151.716C268.691 138.901 254.984 145.48 250.715 147.481C231.802 156.334 231.563 180.553 219.066 176.142C211.814 173.582 205.357 163.126 202.284 158.137C194.524 145.559 195.177 138.033 188.386 123.906C180.737 107.982 176.063 109.552 167.432 95.3854C153.674 72.7664 158.52 57.1405 146.23 27.0319C141.94 16.5266 134.69 2.11231 121.892 -13.3474" stroke="white" stroke-opacity="0.05" stroke-width="1.03189" stroke-miterlimit="10"/>
<path d="M378.539 278.953C370.262 270.807 363.642 263.687 359.137 258.617C344.591 242.34 342.665 237.61 335.37 233.346C327.481 228.749 324.618 231.215 317.239 224.558C313.065 220.761 309.276 215.768 306.209 210.02C300.383 199.115 303.411 193.164 299.339 180.585C294.33 165.012 284.197 155.093 283.058 153.887C272.415 142.588 261.11 145.592 255.299 147.491C254.111 147.876 253.163 148.306 252.444 148.572C234.062 155.94 233.886 178.779 221.757 174.138C214.522 171.357 207.999 160.858 204.751 155.749C201.769 151.075 199.273 145.876 197.399 140.438C195.418 135.01 193.739 129.633 189.972 122.503C188.817 120.321 187.716 118.497 186.725 116.865C180.715 106.976 176.691 106.062 169.617 93.8606C166.876 89.148 164.574 84.0349 162.812 78.7393C158.007 64.4026 158.047 50.2614 150 29.0962C149.529 27.8535 149.022 26.579 148.48 25.2726C144.122 14.7375 136.74 0.167962 123.744 -15.4881" stroke="white" stroke-opacity="0.05" stroke-width="1.03189" stroke-miterlimit="10"/>
<path d="M379.008 277.285C370.856 269.395 364.277 262.485 359.714 257.51C345.437 241.953 343.352 237.25 336.068 233.031C328.327 228.522 325.439 230.815 318.239 224.409C314.131 220.733 310.37 215.939 307.264 210.422C301.325 200.041 304.1 194.237 299.984 182.065C294.926 167.113 285.313 157.049 283.922 155.972C272.958 147.437 262.662 147.305 256.989 148.734C255.834 149.025 254.924 149.417 254.24 149.637C236.371 155.59 236.236 177.003 224.47 172.164C217.276 169.197 210.66 158.636 207.238 153.405C204.198 148.763 201.584 143.647 199.511 138.282C197.367 133 195.481 127.859 191.58 121.131C190.369 119.034 189.201 117.303 188.202 115.688C182.168 105.92 178.572 104.624 171.82 92.3864C169.191 87.5979 166.987 82.4835 165.286 77.2307C160.678 63.4216 160.549 48.8842 152.266 27.4503C151.78 26.2054 151.264 24.922 150.715 23.6089C146.289 13.0551 138.772 -1.65972 125.57 -17.5128" stroke="white" stroke-opacity="0.05" stroke-width="1.03189" stroke-miterlimit="10"/>
<path d="M379.504 275.582C371.481 267.942 364.936 261.265 360.322 256.399C346.322 241.534 344.062 236.86 336.802 232.687C329.203 228.289 326.306 230.372 319.244 224.197C315.207 220.636 311.483 216.036 308.354 210.744C302.339 200.9 304.841 195.213 300.673 183.462C295.581 169.104 286.423 159.131 284.831 157.959C275.928 151.534 266.798 148.721 258.712 149.912C257.59 150.112 256.713 150.46 256.064 150.646C238.718 155.196 238.575 175.24 227.179 170.23C220.005 167.065 213.31 156.456 209.708 151.115C206.612 146.497 203.882 141.461 201.613 136.178C199.3 131.028 197.203 126.115 193.191 119.789C191.912 117.774 190.684 116.135 189.677 114.535C183.608 104.87 180.445 103.245 174.017 90.98C171.507 86.1248 169.395 81.0154 167.745 75.8062C163.354 62.4908 162.999 47.5905 154.507 25.9193C154.015 24.6743 153.488 23.3872 152.927 22.0579C148.429 11.495 140.766 -3.36109 127.356 -19.3924" stroke="white" stroke-opacity="0.05" stroke-width="1.03189" stroke-miterlimit="10"/>
<path d="M380.037 273.795C372.139 266.411 365.627 259.956 360.961 255.165C347.24 240.984 344.801 236.334 337.58 232.233C330.124 227.955 327.206 229.8 320.314 223.902C316.338 220.465 312.638 216.062 309.471 210.998C303.343 201.652 305.613 196.112 301.393 184.769C296.29 170.968 287.155 162.114 285.78 159.853C275.845 150.228 265.887 150.47 260.455 151.021C259.365 151.128 258.528 151.435 257.882 151.553C241.024 154.734 240.883 173.399 229.86 168.223C222.695 164.854 215.928 154.225 212.143 148.766C208.987 144.172 206.141 139.215 203.678 134.02C201.193 128.996 198.898 124.326 194.77 118.374C193.43 116.439 192.142 114.894 191.119 113.3C185.01 103.745 182.281 101.789 176.135 89.4943C173.533 84.2823 171.781 79.3547 170.121 74.3094C165.925 61.4979 165.385 46.2424 156.635 24.3574C156.137 23.115 155.599 21.8237 155.022 20.4834C150.447 9.90519 142.636 -5.07366 129.012 -21.2713" stroke="white" stroke-opacity="0.05" stroke-width="1.03189" stroke-miterlimit="10"/>
<path d="M380.609 271.964C372.855 264.842 366.365 258.589 361.646 253.837C348.22 240.336 345.611 235.758 338.399 231.654C331.083 227.503 328.172 229.148 321.417 223.47C317.511 220.159 313.849 215.951 310.665 211.114C304.49 202.24 306.468 196.863 302.2 185.933C297.051 172.757 288.272 164.209 286.784 161.631C277.178 152.259 267.567 151.933 262.24 152.048C261.18 152.069 260.374 152.334 259.746 152.399C243.366 154.244 243.198 171.542 232.545 166.232C225.384 162.666 218.54 152.013 214.575 146.458C210.536 140.803 208.06 136.186 205.736 131.898C203.081 126.997 200.881 121.975 196.358 116.977C195.015 115.51 193.75 113.874 192.593 112.107C186.44 102.658 184.132 100.419 178.279 88.0874C175.828 82.9282 174.167 77.9935 172.498 72.8842C168.491 60.5862 167.747 45.0087 158.747 22.9086C158.239 21.6624 157.69 20.3664 157.103 19.0205C152.447 8.44725 144.482 -6.64304 130.636 -23.006" stroke="white" stroke-opacity="0.05" stroke-width="1.03189" stroke-miterlimit="10"/>
<path d="M381.191 270.098C373.55 263.201 367.113 257.184 362.367 252.538C349.228 239.67 346.433 235.127 339.242 231.076C332.05 227.025 329.143 228.464 322.544 223.048C316.795 218.327 312.874 212.92 311.851 211.193C306.409 201.97 307.331 197.562 303.014 187.035C297.847 174.437 289.406 166.196 287.811 163.329C278.534 154.221 269.275 153.334 264.028 153.018C263 152.961 262.226 153.185 261.616 153.208C245.693 153.755 245.478 169.686 235.179 164.267C228.012 160.499 221.1 149.844 216.947 144.182C212.793 138.52 210.211 133.991 207.743 129.806C204.924 125.03 202.492 120.108 197.901 115.599C196.509 114.249 195.201 112.671 194.028 110.922C187.834 101.587 185.934 99.0743 180.368 86.7273C178.062 81.6191 176.503 76.6938 174.838 71.5735C171.001 59.8071 170.059 43.8886 160.805 21.5956C160.288 20.3499 159.727 19.0514 159.125 17.6999C154.384 7.12747 146.259 -8.06421 132.191 -24.5776" stroke="white" stroke-opacity="0.05" stroke-width="1.03189" stroke-miterlimit="10"/>
<path d="M381.85 268.105C374.331 261.466 367.935 255.67 363.15 251.087C350.319 238.849 347.337 234.359 340.17 230.353C333.134 226.426 330.196 227.656 323.75 222.48C318.124 217.961 314.216 212.88 313.16 211.164C307.722 202.313 308.324 198.153 303.955 188.018C298.776 175.987 290.686 168.083 288.971 164.9C280.019 156.048 271.131 154.606 265.932 153.903C265.135 153.848 264.355 153.853 263.595 153.917C248.116 153.215 247.832 167.783 237.905 162.3C230.726 158.327 223.745 147.674 219.401 141.922C215.225 136.384 212.448 131.82 209.83 127.735C206.844 123.076 204.167 118.28 199.537 114.22C198.093 112.983 196.731 111.449 195.53 109.705C189.291 100.477 187.79 97.7194 182.503 85.3592C180.335 80.3016 178.879 75.4097 177.208 70.2469C173.556 58.972 172.385 42.7779 162.866 20.314C162.339 19.0698 161.766 17.7698 161.148 16.4139C156.33 5.86589 148.03 -9.42431 133.727 -26.0769" stroke="white" stroke-opacity="0.05" stroke-width="1.03189" stroke-miterlimit="10"/>
<path d="M382.525 266.072C375.143 259.666 368.798 254.073 363.95 249.582C351.431 237.98 348.264 233.537 341.101 229.55C334.205 225.733 331.257 226.757 324.973 221.819C319.445 217.469 315.575 212.734 314.467 211.009C309.026 202.53 309.302 198.578 304.907 188.853C299.718 177.385 291.956 169.78 290.127 166.347C281.504 157.758 272.96 155.831 267.815 154.68C267.043 154.572 266.287 154.524 265.551 154.537C250.487 152.613 250.123 165.837 240.559 160.307C233.362 156.14 226.308 145.507 221.775 139.663C217.517 134.164 214.599 129.636 211.836 125.654C208.544 120.936 204.93 116.612 201.104 112.812C199.488 111.162 198.014 109.969 196.967 108.49C190.686 99.3761 189.569 96.3971 184.555 84.035C182.536 79.0573 181.166 74.1663 179.476 68.9694C175.984 58.2036 174.606 41.7372 164.792 19.1029C164.256 17.8684 163.669 16.5587 163.034 15.1921C158.123 4.64724 149.64 -10.7156 135.113 -27.4748" stroke="white" stroke-opacity="0.05" stroke-width="1.03189" stroke-miterlimit="10"/>
<path d="M382.992 264.39C375.75 258.209 369.445 252.818 364.563 248.395C352.389 237.401 349.043 232.994 341.924 229.091C335.165 225.376 332.201 226.216 326.076 221.505C320.695 217.366 316.838 212.913 315.678 211.18C310.231 203.049 310.233 199.304 305.797 189.925C300.622 178.984 293.201 171.674 291.256 167.973C282.953 159.615 274.791 157.238 269.645 155.685C268.896 155.525 268.162 155.425 267.445 155.385C252.799 152.333 252.276 164.232 243.076 158.671C235.849 154.304 228.74 143.682 224.019 137.731C219.691 132.272 216.632 127.766 213.732 123.875C210.426 119.437 207.03 115.836 202.571 111.643C200.882 110.057 199.371 108.94 198.333 107.461C192.018 98.4468 191.277 95.2473 186.549 82.8545C184.677 77.9359 183.405 73.0594 181.71 67.8158C178.388 57.5253 176.821 40.753 166.771 17.9416C166.226 16.6994 165.629 15.3956 164.98 14.0174C159.984 3.48276 151.36 -11.9763 136.592 -28.9072" stroke="white" stroke-opacity="0.05" stroke-width="1.03189" stroke-miterlimit="10"/>
<path d="M382.107 265.599C375.035 259.565 368.816 254.294 363.911 249.89C352.111 239.302 348.613 234.87 341.532 230.969C334.914 227.343 331.892 228.057 325.95 223.513C320.714 219.517 316.924 215.294 315.724 213.513C310.343 205.581 310.126 201.927 305.765 192.707C300.737 182.038 293.694 174.936 291.67 170.877C283.754 162.673 275.994 160.965 270.766 157.89C269.909 157.757 269.185 157.611 268.629 157.457C254.316 153.356 253.448 164.27 244.63 158.65C237.38 154.038 230.317 143.224 225.46 137.069C221.107 131.556 217.95 126.985 214.951 123.105C211.526 118.688 207.931 115.241 203.479 111.316C201.728 109.77 200.185 108.718 199.159 107.227C192.888 98.1371 192.557 94.6636 188.275 81.9488C186.598 76.9802 185.489 71.9965 183.856 66.5797C180.822 56.5218 179.31 39.0018 169.263 15.4954C168.72 14.2306 168.126 12.8909 167.48 11.4762C162.507 0.727149 153.87 -15.1688 139.011 -32.4984" stroke="white" stroke-opacity="0.05" stroke-width="1.03189" stroke-miterlimit="10"/>
<path d="M381.163 266.955C374.252 261.047 368.118 255.893 363.196 251.495C351.792 241.322 348.127 236.84 341.083 233.001C334.609 229.458 331.527 230.048 325.769 225.679C320.683 221.819 316.969 217.807 315.717 215.986C310.399 208.243 309.972 204.678 305.678 195.578C300.774 185.177 294.149 178.249 292.052 173.821C284.547 165.703 277.06 163.673 271.883 160.09C271.199 159.955 270.503 159.762 269.8 159.515C255.842 154.359 254.634 164.243 246.188 158.587C238.915 153.715 231.921 142.689 226.933 136.32C222.56 130.73 219.309 126.084 216.208 122.232C212.666 117.827 208.863 114.54 204.407 110.861C202.595 109.364 201.016 108.37 200.011 106.842C193.805 97.6613 193.898 93.8643 190.078 80.7957C188.621 75.7816 187.666 70.655 186.118 65.0609C183.38 55.2208 181.971 36.8777 171.968 12.5954C171.448 11.2816 170.845 9.92093 170.2 8.46865C165.295 -2.56471 156.686 -18.899 141.755 -36.7535" stroke="white" stroke-opacity="0.05" stroke-width="1.03189" stroke-miterlimit="10"/>
<path d="M380.138 268.376C373.402 262.619 367.347 257.583 362.41 253.211C351.403 243.452 347.613 238.975 340.571 235.134C334.238 231.678 331.097 232.14 325.52 227.941C320.571 224.215 317.117 220.127 315.638 218.576C309.648 212.305 309.737 207.561 305.536 198.637C300.77 188.546 294.538 181.774 292.374 176.964C285.263 168.948 278.076 166.575 272.939 162.442C272.272 162.263 271.596 162.024 270.916 161.724C257.342 155.475 255.804 164.283 247.719 158.563C240.434 153.425 233.499 142.19 228.381 135.591C223.984 129.93 220.64 125.22 217.437 121.382C213.777 116.996 209.762 113.896 205.291 110.471C203.412 109.022 201.808 108.094 200.796 106.573C194.645 97.2933 195.163 93.1719 191.825 79.741C190.556 74.6386 189.787 69.3998 188.304 63.5998C185.863 54.0032 184.552 34.8061 174.605 9.72524C174.076 8.40007 173.495 6.98314 172.863 5.47449C168.012 -5.82081 159.435 -22.6492 144.425 -40.9687" stroke="white" stroke-opacity="0.05" stroke-width="1.03189" stroke-miterlimit="10"/>
<path d="M379.077 269.871C372.5 264.282 366.541 259.359 361.577 254.999C350.961 245.668 347.016 241.181 339.997 237.366C333.806 233.996 330.621 234.307 325.203 230.329C320.392 226.746 317.014 222.86 315.482 221.307C309.577 215.291 309.412 210.609 305.278 201.844C300.654 192.035 294.796 185.465 292.571 180.275C285.854 172.374 278.957 169.602 273.915 164.973C273.266 164.75 272.611 164.461 271.956 164.107C258.794 156.741 256.922 164.399 249.257 158.679C241.946 153.235 235.084 141.817 229.839 135.009C225.42 129.276 221.976 124.501 218.666 120.687C214.883 116.326 210.647 113.431 206.174 110.238C204.226 108.852 202.586 107.982 201.589 106.448C195.492 97.0838 196.429 92.6221 193.563 78.8088C192.498 73.6407 191.901 68.2791 190.497 62.2854C188.304 52.9042 187.132 32.897 177.21 7.07148C176.691 5.70983 176.11 4.26549 175.468 2.73849C170.663 -8.81543 162.114 -26.1076 147.026 -44.906" stroke="#DDFA69" stroke-opacity="0.2" stroke-width="1.03189" stroke-miterlimit="10"/>
<path d="M378.031 271.369C371.645 265.93 365.741 261.138 360.751 256.799C350.515 247.881 346.419 243.415 339.427 239.618C333.372 236.333 330.126 236.532 324.896 232.712C320.227 229.28 316.922 225.599 315.333 224.041C309.502 218.312 309.09 213.668 305.021 205.076C300.522 195.576 295.054 189.195 292.77 183.608C286.447 175.812 279.88 172.682 274.894 167.473C274.264 167.201 273.632 166.859 273.004 166.449C260.291 157.976 258.107 164.381 250.826 158.659C243.545 152.937 236.7 141.32 231.332 134.27C226.894 128.469 223.353 123.626 219.926 119.826C216.022 115.497 211.574 112.793 207.067 109.874C205.048 108.555 203.376 107.737 202.388 106.196C196.349 96.7415 197.705 91.9276 195.359 77.7501C194.489 72.5057 194.067 67.0159 192.748 60.818C190.812 51.6899 189.779 30.819 179.925 4.18388C179.414 2.79932 178.83 1.32329 178.206 -0.270898C173.476 -12.0955 164.953 -29.875 149.788 -49.1425" stroke="#DDFA69" stroke-opacity="0.2" stroke-width="1.03189" stroke-miterlimit="10"/>
<path d="M376.959 272.897C370.725 267.602 364.908 262.952 359.893 258.633C350.055 250.17 345.787 245.699 338.817 241.928C332.902 238.735 329.6 238.776 324.565 235.142C320.028 231.854 316.792 228.387 315.148 226.829C309.394 221.371 308.723 216.809 304.709 208.386C300.334 199.211 295.25 193.03 292.918 187.052C286.994 179.364 280.75 175.841 275.844 170.058C275.231 169.731 274.619 169.335 274.017 168.874C261.725 159.213 259.285 164.356 252.392 158.639C245.059 152.552 238.335 140.784 232.823 133.526C228.368 127.655 224.726 122.748 221.196 118.99C217.165 114.692 212.48 112.244 207.96 109.553C205.859 108.321 204.165 107.549 203.187 105.989C197.195 96.4492 198.979 91.2684 197.143 76.7057C196.474 71.3902 196.204 65.7718 194.999 59.3728C193.303 50.4989 192.422 28.7674 182.625 1.33082C182.118 -0.089225 181.551 -1.61205 180.924 -3.23768C176.227 -15.3121 167.737 -33.5791 152.513 -53.3602" stroke="#DDFA69" stroke-opacity="0.2" stroke-width="1.03189" stroke-miterlimit="10"/>
<path d="M375.832 274.526C369.761 269.394 364.023 264.875 358.977 260.587C349.521 252.558 345.082 248.105 338.135 244.373C332.364 241.264 329.019 241.173 324.15 237.714C320.994 235.395 317.892 232.738 314.878 229.775C309.199 224.592 308.265 220.12 304.302 211.884C300.045 203.046 295.33 197.015 292.948 190.661C287.416 183.096 281.503 179.15 276.684 172.783C276.09 172.4 275.503 171.948 274.931 171.431C263.141 160.619 260.421 164.385 253.924 158.684C246.585 152.242 239.865 140.422 234.291 132.84C229.861 126.817 226.069 121.94 222.425 118.206C218.277 113.961 213.345 111.749 208.8 109.306C206.636 108.139 204.893 107.435 203.927 105.865C197.991 96.2386 200.195 90.6771 198.882 75.7224C198.411 70.339 198.327 64.5863 197.203 57.9772C195.746 49.3765 195.025 26.7686 185.287 -1.47747C184.78 -2.91055 184.229 -4.48412 183.607 -6.15081C178.968 -18.5048 170.508 -37.2554 155.219 -57.5283" stroke="#DDFA69" stroke-opacity="0.2" stroke-width="1.03189" stroke-miterlimit="10"/>
<path d="M374.658 276.237C368.728 271.244 363.085 266.878 358.016 262.62C348.943 255.027 344.331 250.606 337.401 246.897C331.78 243.889 328.383 243.645 323.689 240.381C320.585 238.164 317.525 235.647 314.535 232.852C308.923 227.932 307.726 223.575 303.805 215.543C299.664 207.045 295.333 201.255 292.893 194.45C287.756 186.991 282.182 182.622 277.463 175.658C276.889 175.215 276.327 174.706 275.785 174.138C264.477 162.131 261.517 164.472 255.417 158.8C248.08 151.976 241.429 140.019 235.721 132.211C231.264 126.121 227.375 121.187 223.616 117.49C219.327 113.274 214.171 111.347 209.585 109.142C207.355 108.072 205.568 107.415 204.613 105.835C198.728 96.1184 201.359 90.1654 200.581 74.8227C200.303 69.3551 200.388 63.4726 199.369 56.6643C198.125 48.329 197.58 24.8408 187.905 -4.23115C187.414 -5.70744 186.857 -7.31058 186.24 -9.02518C181.65 -21.647 173.218 -40.8999 157.875 -61.6615" stroke="#DDFA69" stroke-opacity="0.2" stroke-width="1.03189" stroke-miterlimit="10"/>
<path d="M373.502 277.934C367.749 273.129 362.157 268.869 357.05 264.665C348.366 257.539 343.562 253.132 336.657 249.458C331.166 246.533 327.726 246.159 323.21 243.075C320.168 240.942 317.162 238.551 314.212 235.916C308.662 231.257 307.191 227.031 303.325 219.221C299.284 211.079 295.333 205.5 292.85 198.268C288.106 190.931 282.881 186.122 278.263 178.533C277.71 178.028 277.175 177.462 276.664 176.839C265.851 163.614 262.701 164.48 256.981 158.841C249.652 151.624 243.067 139.535 237.218 131.511C232.741 125.356 228.749 120.362 224.872 116.706C220.448 112.533 215.055 110.89 210.429 108.935C208.124 107.964 206.305 107.347 205.351 105.762C199.517 95.9669 202.572 89.5915 202.336 73.8611C202.253 68.3189 202.487 62.2878 201.596 55.2919C200.546 47.2196 200.188 22.8833 190.587 -7.03646C190.105 -8.54303 189.553 -10.1833 188.938 -11.9416C184.403 -24.8255 176.017 -44.565 160.591 -65.8276" stroke="#DDFA69" stroke-opacity="0.2" stroke-width="1.03189" stroke-miterlimit="10"/>
<path d="M372.282 279.724C366.685 275.098 361.161 270.949 356.023 266.813C347.698 260.104 342.73 255.779 335.847 252.13C330.494 249.291 327.018 248.758 322.669 245.885C319.678 243.855 316.716 241.598 313.797 239.126C308.305 234.735 306.567 230.655 302.72 223.038C298.784 215.258 295.204 209.893 292.677 202.234C288.325 195.01 283.458 189.746 278.946 181.536C278.423 180.947 277.917 180.321 277.429 179.66C266.723 165.9 263.803 164.522 258.468 158.934C251.167 151.288 244.68 138.999 238.653 130.848C234.118 124.717 230.052 119.574 226.056 115.962C221.496 111.837 215.865 110.502 211.19 108.788C208.807 107.919 206.943 107.352 206.003 105.753C200.215 95.8745 203.695 89.0733 204.016 72.9563C204.129 67.3274 204.531 61.1669 203.754 53.9426C202.919 46.1743 202.75 20.8953 193.23 -9.81096C192.753 -11.3572 192.209 -13.0297 191.599 -14.8286C187.128 -27.9916 178.774 -48.2325 163.296 -70.0129" stroke="#DDFA69" stroke-opacity="0.2" stroke-width="1.03189" stroke-miterlimit="10"/>
<path d="M371.048 281.548C365.609 277.096 360.158 273.078 354.981 268.998C347.028 262.725 341.88 258.469 335.014 254.857C329.801 252.11 326.288 251.424 322.101 248.745C318.224 246.271 315.321 243.903 313.347 242.41C307.912 238.278 305.899 234.358 302.077 226.975C298.63 220.279 295.42 213.38 292.467 206.32C289.176 198.665 285.691 190.759 279.612 184.635C279.084 184.039 278.6 183.344 278.178 182.576C268.37 166.833 264.931 164.585 259.971 159.05C252.71 150.943 246.265 138.574 240.104 130.196C235.532 123.977 231.374 118.806 227.259 115.236C222.55 111.191 216.683 110.149 211.955 108.683C209.498 107.925 207.586 107.399 206.655 105.782C200.924 95.8277 204.83 88.5748 205.723 72.0828C206.031 66.3664 206.585 60.0677 205.941 52.6452C205.297 45.2227 205.303 18.9882 195.894 -12.5692C195.421 -14.1336 194.872 -15.8707 194.281 -17.6997C189.861 -31.1342 181.551 -51.8725 166.009 -74.1761" stroke="#DDFA69" stroke-opacity="0.2" stroke-width="1.03189" stroke-miterlimit="10"/>
<path d="M369.787 283.417C364.501 279.145 359.137 275.222 353.896 271.242C346.314 265.42 340.976 261.237 334.134 257.662C329.041 254.979 325.508 254.159 321.49 251.69C317.737 249.389 314.868 247.21 312.857 245.765C307.47 241.894 305.188 238.147 301.384 231C297.646 223.98 295.512 218.733 292.199 210.51C289.216 203.1 285.14 196.743 280.232 187.804C279.781 186.982 279.285 186.301 278.881 185.563C269.59 168.508 266.059 164.643 261.472 159.17C254.273 150.575 247.844 138.145 241.56 129.545C236.961 123.259 232.695 118.035 228.462 114.506C223.622 110.497 217.504 109.802 212.713 108.588C210.179 107.944 208.202 107.438 207.299 105.835C201.616 95.8058 205.953 88.0802 207.415 71.1696C207.916 65.3588 208.613 58.9237 208.116 51.2922C207.646 44.1065 207.872 17.0124 198.544 -15.3842C198.077 -16.9852 197.55 -18.7375 196.952 -20.633C192.589 -34.335 184.317 -55.5862 168.725 -78.4003" stroke="#DDFA69" stroke-opacity="0.2" stroke-width="1.03189" stroke-miterlimit="10"/>
<path d="M368.451 285.341C363.317 281.256 358.013 277.462 352.749 273.536C345.529 268.156 340.015 264.048 333.181 260.525C328.245 257.959 324.657 256.949 320.8 254.692C317.18 252.563 314.361 250.597 312.284 249.196C306.938 245.586 304.383 242.022 300.588 235.124C296.947 228.497 295.096 223.529 291.818 214.83C289.129 207.654 285.452 200.846 280.754 191.093C280.335 190.228 279.871 189.453 279.487 188.655C270.716 170.256 266.605 165.591 262.908 159.335C256.588 148.717 249.919 138.564 242.943 128.94C238.32 122.584 233.948 117.314 229.572 113.832C224.589 109.882 218.226 109.533 213.379 108.584C210.772 108.063 208.761 107.613 207.849 105.984C202.212 95.8719 206.986 87.6757 209.005 70.3926C209.696 64.4921 210.528 57.9093 210.189 50.0744C209.89 43.1959 210.349 15.1841 201.095 -18.0534C200.637 -19.685 200.128 -21.458 199.52 -23.4155C195.215 -37.3986 186.989 -59.1513 171.333 -82.4783" stroke="#DDFA69" stroke-opacity="0.2" stroke-width="1.03189" stroke-miterlimit="10"/>
<path d="M367.222 287.356C362.242 283.451 357.011 279.759 351.687 275.896C344.83 270.94 339.123 266.959 332.296 263.418C327.507 260.92 323.869 259.772 320.178 257.718C316.683 255.771 313.907 254.014 311.781 252.655C306.464 249.285 303.647 245.918 299.87 239.253C296.326 232.998 294.74 228.302 291.569 219.036C289.18 212.053 285.896 204.75 281.466 194.138C281.081 193.213 280.66 192.362 280.297 191.488C272.088 171.635 268.072 165.06 264.638 159.062C258.367 148.087 251.698 137.627 244.682 127.764C240.044 121.327 235.569 115.991 231.085 112.581C225.948 108.689 219.338 108.702 214.41 107.97C211.728 107.585 209.669 107.198 208.757 105.528C203.189 95.3016 208.424 86.553 211.083 68.7875C211.987 62.7551 212.956 55.9798 212.81 47.9169C212.689 41.3049 213.463 12.2312 204.365 -22.0077C203.92 -23.6774 203.405 -25.5194 202.82 -27.5076C198.604 -41.8242 190.464 -64.1862 174.794 -88.1179" stroke="white" stroke-opacity="0.05" stroke-width="1.03189" stroke-miterlimit="10"/>
<path d="M365.979 289.523C361.152 285.794 355.994 282.173 350.643 278.439C344.146 273.909 338.238 269.995 331.453 266.541C326.79 264.143 323.127 262.826 319.597 260.978C316.221 259.21 313.491 257.656 311.292 256.363C306.001 253.237 302.921 250.063 299.167 243.628C295.728 237.734 294.377 233.309 291.362 223.432C289.27 216.633 286.4 208.752 282.298 197.232C281.942 196.242 281.564 195.303 281.234 194.359C273.642 172.885 269.81 164.34 266.617 158.571C260.396 147.346 253.365 135.627 246.727 126.254C242.085 119.7 237.514 114.292 232.899 110.924C227.627 107.079 220.738 107.502 215.699 107.065C212.928 106.824 210.804 106.456 209.92 104.783C204.427 94.4071 210.176 85.0275 213.524 66.6747C214.658 60.4796 215.775 53.4649 215.865 45.1361C215.927 38.7685 217.109 8.46892 208.25 -26.9405C207.815 -28.6572 207.322 -30.5531 206.751 -32.6093C202.652 -47.3277 194.655 -70.3918 179.015 -95.0398" stroke="white" stroke-opacity="0.05" stroke-width="1.03189" stroke-miterlimit="10"/>
<path d="M364.722 291.649C360.044 288.092 354.955 284.54 349.554 280.935C343.27 276.669 336.922 272.892 330.535 269.621C326.002 267.316 322.324 265.861 318.937 264.19C315.679 262.629 312.991 261.275 310.725 260.038C305.447 257.163 302.102 254.2 298.36 248.016C295.014 242.49 293.862 238.36 291.042 227.857C289.25 221.188 286.782 212.738 283.037 200.31C282.718 199.253 282.385 198.222 282.081 197.205C275.139 174.065 271.721 163.263 268.571 157.949C261.98 146.861 255.497 134.257 248.747 124.598C244.1 117.927 239.423 112.462 234.681 109.142C229.261 105.354 222.08 106.226 216.942 106.058C214.09 105.974 211.902 105.647 211.027 103.954C205.62 93.4238 211.897 83.4132 215.932 64.4539C217.524 57.4738 218.518 50.0096 218.891 42.226C219.13 36.1027 220.728 4.57589 212.114 -32.0046C211.696 -33.7673 211.217 -35.7182 210.658 -37.8379C206.681 -52.957 198.821 -76.7383 183.201 -102.076" stroke="white" stroke-opacity="0.05" stroke-width="1.03189" stroke-miterlimit="10"/>
<path d="M363.499 293.753C352.38 285.492 341.061 278.463 329.634 272.723C311.248 263.496 304.641 263.676 297.543 252.477C292.375 244.318 292.866 239.47 283.785 203.442C276.955 176.345 273.529 162.815 270.591 157.26C260.001 137.355 248.577 115.335 236.53 107.288C227.847 101.485 214.604 107.854 212.2 103.053C205.081 88.8089 219.557 74.4897 221.979 39.2428C222.382 33.3721 224.404 0.615377 216.035 -37.1509C212.785 -51.8099 205.247 -79.504 187.455 -109.221" stroke="white" stroke-opacity="0.05" stroke-width="1.03189" stroke-miterlimit="10"/>
</svg>
